M48
; DRILL file {KiCad (5.1.6)-1} date 10/05/20 02:21:00
; FORMAT={-:-/ absolute / metric / decimal}
; #@! TF.CreationDate,2020-10-05T02:21:00+02:00
; #@! TF.GenerationSoftware,Kicad,Pcbnew,(5.1.6)-1
FMAT,2
METRIC
T1C0.356
T2C0.400
T3C0.500
T4C1.000
T5C1.100
T6C0.900
T7C1.152
T8C3.200
%
G90
G05
T1
X139.0Y-44.75
X139.0Y-45.75
X139.0Y-46.75
X139.0Y-47.75
X139.0Y-48.75
X139.0Y-49.75
X139.0Y-50.75
X139.0Y-51.75
X139.0Y-52.75
X140.0Y-44.75
X140.0Y-52.75
X141.0Y-44.75
X141.0Y-52.75
X142.0Y-44.75
X142.0Y-52.75
X143.0Y-44.75
T2
X138.325Y-33.475
X139.2Y-54.0
X140.025Y-51.7
X140.075Y-55.1
X142.375Y-46.0
X143.35Y-51.425
X143.975Y-43.075
X144.5Y-51.425
X144.6Y-45.175
X144.6Y-47.525
X145.4Y-33.475
X146.175Y-64.925
X146.375Y-42.15
X146.375Y-43.925
X146.75Y-63.5
X147.325Y-60.75
X147.55Y-58.25
X147.85Y-44.85
X147.9Y-46.85
X147.95Y-52.65
X147.95Y-66.45
X148.025Y-59.575
X148.3Y-35.775
X148.3Y-38.15
X148.3Y-54.85
X148.45Y-62.75
X148.675Y-42.325
X148.725Y-69.4
X148.95Y-46.3
X148.95Y-66.45
X149.1Y-53.5
X149.2Y-58.975
X149.95Y-66.45
X150.35Y-35.55
X150.375Y-68.675
X150.45Y-55.0
X151.4Y-46.95
X151.725Y-65.55
X152.025Y-31.275
X152.025Y-63.95
X152.975Y-54.475
X153.5Y-42.0
X153.95Y-60.525
X154.625Y-51.1
X154.675Y-35.85
X155.825Y-54.525
X156.5Y-47.35
X156.5Y-53.35
X156.6Y-55.2
X156.75Y-57.3
X156.875Y-60.975
X157.0Y-44.725
X157.25Y-41.5
X157.55Y-37.025
X158.225Y-61.0
X158.425Y-31.25
X158.425Y-58.4
X158.65Y-57.2
X158.9Y-46.1
X158.925Y-44.375
X159.0Y-65.4
X159.525Y-42.5
X159.7Y-66.75
X159.725Y-54.95
X159.725Y-69.55
X159.9Y-40.6
X159.925Y-37.05
X160.1Y-33.0
X160.875Y-45.225
X161.0Y-67.8
X161.0Y-70.575
X161.05Y-40.275
X161.3Y-58.325
X161.75Y-38.625
X161.9Y-75.625
X161.9Y-77.375
X162.275Y-69.55
X162.4Y-31.4
X162.45Y-65.1
X162.45Y-66.75
X162.75Y-72.8
X162.75Y-73.75
X162.75Y-74.7
X163.55Y-56.65
X163.575Y-62.25
X163.75Y-72.8
X163.75Y-73.75
X163.75Y-74.7
X163.95Y-65.1
X163.95Y-68.4
X164.075Y-78.0
X164.6Y-63.525
X164.925Y-78.875
X165.325Y-66.75
X165.7Y-26.6
X166.6Y-52.175
X166.6Y-57.325
X167.4Y-60.975
X167.4Y-63.525
X168.25Y-26.6
X168.425Y-62.25
X169.425Y-55.4
X169.5Y-26.6
X170.8Y-26.6
X171.0Y-67.55
X171.0Y-69.25
X171.0Y-71.95
X171.225Y-52.85
X171.85Y-78.0
X172.3Y-70.95
X172.975Y-53.35
X173.225Y-41.575
X175.35Y-38.95
X175.35Y-39.95
X176.35Y-38.95
X176.35Y-39.95
X177.5Y-63.5
X178.45Y-56.9
X178.45Y-58.6
X178.75Y-64.5
T3
X132.5Y-38.25
X132.5Y-39.5
X132.5Y-40.75
X132.5Y-42.0
X140.75Y-75.75
X142.0Y-75.75
X143.25Y-75.75
X144.5Y-75.75
X132.5Y-64.5
X132.5Y-65.75
X132.5Y-67.0
X132.5Y-68.25
X132.5Y-51.5
X132.5Y-52.75
X132.5Y-54.0
X132.5Y-55.25
X153.25Y-75.75
X154.5Y-75.75
X155.75Y-75.75
X157.0Y-75.75
X140.0Y-30.75
X141.25Y-30.75
X142.5Y-30.75
X143.75Y-30.75
X177.5Y-64.5
X177.5Y-65.75
T6
X153.725Y-28.92
X156.725Y-28.92
T7
X177.5Y-72.25
X132.5Y-34.25
T8
X132.5Y-75.75
X132.5Y-30.75
X177.5Y-30.75
X177.5Y-75.75
T4
G00X180.5Y-44.55
M15
G01X180.25Y-44.55
M16
G05
T5
G00X180.45Y-37.95
M15
G01X180.3Y-37.95
M16
G05
T0
M30
