%TF.GenerationSoftware,KiCad,Pcbnew,(5.1.7)-1*%
%TF.CreationDate,2020-11-11T21:47:44+01:00*%
%TF.ProjectId,RBoard,52426f61-7264-42e6-9b69-6361645f7063,rev?*%
%TF.SameCoordinates,Original*%
%TF.FileFunction,Soldermask,Bot*%
%TF.FilePolarity,Negative*%
%FSLAX46Y46*%
G04 Gerber Fmt 4.6, Leading zero omitted, Abs format (unit mm)*
G04 Created by KiCad (PCBNEW (5.1.7)-1) date 2020-11-11 21:47:44*
%MOMM*%
%LPD*%
G01*
G04 APERTURE LIST*
%ADD10O,0.800000X0.800000*%
%ADD11O,1.800000X1.150000*%
%ADD12O,2.000000X1.450000*%
%ADD13C,1.152000*%
%ADD14C,3.200000*%
%ADD15O,1.300000X0.800000*%
%ADD16O,0.800000X1.300000*%
%ADD17C,0.900000*%
G04 APERTURE END LIST*
D10*
%TO.C,J402*%
X177970000Y-38820000D03*
X177970000Y-43820000D03*
D11*
X180720000Y-37445000D03*
X180720000Y-45195000D03*
D12*
X176920000Y-37595000D03*
X176920000Y-45045000D03*
%TD*%
D13*
%TO.C,REF\u002A\u002A*%
X132500000Y-34250000D03*
%TD*%
%TO.C,REF\u002A\u002A*%
X177500000Y-72250000D03*
%TD*%
D14*
%TO.C,H4*%
X177500000Y-75750000D03*
%TD*%
%TO.C,H3*%
X177500000Y-30750000D03*
%TD*%
%TO.C,H2*%
X132500000Y-30750000D03*
%TD*%
%TO.C,H1*%
X132500000Y-75750000D03*
%TD*%
%TO.C,J400*%
G36*
G01*
X177950000Y-66150000D02*
X177050000Y-66150000D01*
G75*
G02*
X176850000Y-65950000I0J200000D01*
G01*
X176850000Y-65550000D01*
G75*
G02*
X177050000Y-65350000I200000J0D01*
G01*
X177950000Y-65350000D01*
G75*
G02*
X178150000Y-65550000I0J-200000D01*
G01*
X178150000Y-65950000D01*
G75*
G02*
X177950000Y-66150000I-200000J0D01*
G01*
G37*
D15*
X177500000Y-64500000D03*
%TD*%
%TO.C,J403*%
G36*
G01*
X144150000Y-30300000D02*
X144150000Y-31200000D01*
G75*
G02*
X143950000Y-31400000I-200000J0D01*
G01*
X143550000Y-31400000D01*
G75*
G02*
X143350000Y-31200000I0J200000D01*
G01*
X143350000Y-30300000D01*
G75*
G02*
X143550000Y-30100000I200000J0D01*
G01*
X143950000Y-30100000D01*
G75*
G02*
X144150000Y-30300000I0J-200000D01*
G01*
G37*
D16*
X142500000Y-30750000D03*
X141250000Y-30750000D03*
X140000000Y-30750000D03*
%TD*%
%TO.C,J404*%
X157000000Y-75750000D03*
X155750000Y-75750000D03*
X154500000Y-75750000D03*
G36*
G01*
X152850000Y-76200000D02*
X152850000Y-75300000D01*
G75*
G02*
X153050000Y-75100000I200000J0D01*
G01*
X153450000Y-75100000D01*
G75*
G02*
X153650000Y-75300000I0J-200000D01*
G01*
X153650000Y-76200000D01*
G75*
G02*
X153450000Y-76400000I-200000J0D01*
G01*
X153050000Y-76400000D01*
G75*
G02*
X152850000Y-76200000I0J200000D01*
G01*
G37*
%TD*%
%TO.C,J405*%
X144500000Y-75750000D03*
X143250000Y-75750000D03*
X142000000Y-75750000D03*
G36*
G01*
X140350000Y-76200000D02*
X140350000Y-75300000D01*
G75*
G02*
X140550000Y-75100000I200000J0D01*
G01*
X140950000Y-75100000D01*
G75*
G02*
X141150000Y-75300000I0J-200000D01*
G01*
X141150000Y-76200000D01*
G75*
G02*
X140950000Y-76400000I-200000J0D01*
G01*
X140550000Y-76400000D01*
G75*
G02*
X140350000Y-76200000I0J200000D01*
G01*
G37*
%TD*%
%TO.C,J406*%
G36*
G01*
X132050000Y-64100000D02*
X132950000Y-64100000D01*
G75*
G02*
X133150000Y-64300000I0J-200000D01*
G01*
X133150000Y-64700000D01*
G75*
G02*
X132950000Y-64900000I-200000J0D01*
G01*
X132050000Y-64900000D01*
G75*
G02*
X131850000Y-64700000I0J200000D01*
G01*
X131850000Y-64300000D01*
G75*
G02*
X132050000Y-64100000I200000J0D01*
G01*
G37*
D15*
X132500000Y-65750000D03*
X132500000Y-67000000D03*
X132500000Y-68250000D03*
%TD*%
%TO.C,J407*%
X132500000Y-42000000D03*
X132500000Y-40750000D03*
X132500000Y-39500000D03*
G36*
G01*
X132050000Y-37850000D02*
X132950000Y-37850000D01*
G75*
G02*
X133150000Y-38050000I0J-200000D01*
G01*
X133150000Y-38450000D01*
G75*
G02*
X132950000Y-38650000I-200000J0D01*
G01*
X132050000Y-38650000D01*
G75*
G02*
X131850000Y-38450000I0J200000D01*
G01*
X131850000Y-38050000D01*
G75*
G02*
X132050000Y-37850000I200000J0D01*
G01*
G37*
%TD*%
%TO.C,J408*%
G36*
G01*
X132050000Y-51100000D02*
X132950000Y-51100000D01*
G75*
G02*
X133150000Y-51300000I0J-200000D01*
G01*
X133150000Y-51700000D01*
G75*
G02*
X132950000Y-51900000I-200000J0D01*
G01*
X132050000Y-51900000D01*
G75*
G02*
X131850000Y-51700000I0J200000D01*
G01*
X131850000Y-51300000D01*
G75*
G02*
X132050000Y-51100000I200000J0D01*
G01*
G37*
X132500000Y-52750000D03*
X132500000Y-54000000D03*
X132500000Y-55250000D03*
%TD*%
D17*
%TO.C,SW200*%
X156725000Y-28920000D03*
X153725000Y-28920000D03*
%TD*%
M02*
