%TF.GenerationSoftware,KiCad,Pcbnew,(5.1.7)-1*%
%TF.CreationDate,2020-11-11T21:47:44+01:00*%
%TF.ProjectId,RBoard,52426f61-7264-42e6-9b69-6361645f7063,rev?*%
%TF.SameCoordinates,Original*%
%TF.FileFunction,Paste,Top*%
%TF.FilePolarity,Positive*%
%FSLAX46Y46*%
G04 Gerber Fmt 4.6, Leading zero omitted, Abs format (unit mm)*
G04 Created by KiCad (PCBNEW (5.1.7)-1) date 2020-11-11 21:47:44*
%MOMM*%
%LPD*%
G01*
G04 APERTURE LIST*
%ADD10R,1.300000X0.450000*%
%ADD11R,0.800000X0.550000*%
%ADD12R,3.450000X4.350000*%
%ADD13R,0.750000X0.500000*%
%ADD14R,0.475000X0.250000*%
%ADD15R,0.250000X0.475000*%
%ADD16R,1.200000X0.900000*%
%ADD17R,0.740000X2.400000*%
%ADD18R,1.900000X2.500000*%
%ADD19R,0.800000X0.900000*%
%ADD20R,0.700000X1.500000*%
%ADD21R,1.000000X0.800000*%
%ADD22R,1.060000X0.650000*%
%ADD23R,0.350000X0.500000*%
%ADD24R,1.200000X1.400000*%
G04 APERTURE END LIST*
D10*
%TO.C,J402*%
X176870000Y-40020000D03*
X176870000Y-40670000D03*
X176870000Y-41320000D03*
X176870000Y-41970000D03*
X176870000Y-42620000D03*
%TD*%
D11*
%TO.C,D201*%
X150350000Y-37375000D03*
X150350000Y-36475000D03*
X151950000Y-36475000D03*
X151950000Y-37375000D03*
%TD*%
D12*
%TO.C,U201*%
X166600000Y-54750000D03*
D13*
X162770000Y-52850000D03*
X162770000Y-54120000D03*
X162770000Y-56660000D03*
X162770000Y-55390000D03*
X170440000Y-56660000D03*
X170440000Y-55390000D03*
X170440000Y-52850000D03*
X170440000Y-54120000D03*
%TD*%
D14*
%TO.C,U301*%
X147040000Y-66085000D03*
X150860000Y-66075000D03*
D15*
X147450000Y-64925000D03*
X147950000Y-64925000D03*
X148450000Y-64925000D03*
X148950000Y-64915000D03*
X149450000Y-64915000D03*
X149950000Y-64915000D03*
X150450000Y-64915000D03*
X150450000Y-67235000D03*
X149950000Y-67235000D03*
X149450000Y-67235000D03*
X147450000Y-67235000D03*
X147950000Y-67235000D03*
X148450000Y-67235000D03*
X148950000Y-67235000D03*
%TD*%
%TO.C,R208*%
G36*
G01*
X150177500Y-39350000D02*
X150522500Y-39350000D01*
G75*
G02*
X150670000Y-39497500I0J-147500D01*
G01*
X150670000Y-39792500D01*
G75*
G02*
X150522500Y-39940000I-147500J0D01*
G01*
X150177500Y-39940000D01*
G75*
G02*
X150030000Y-39792500I0J147500D01*
G01*
X150030000Y-39497500D01*
G75*
G02*
X150177500Y-39350000I147500J0D01*
G01*
G37*
G36*
G01*
X150177500Y-38380000D02*
X150522500Y-38380000D01*
G75*
G02*
X150670000Y-38527500I0J-147500D01*
G01*
X150670000Y-38822500D01*
G75*
G02*
X150522500Y-38970000I-147500J0D01*
G01*
X150177500Y-38970000D01*
G75*
G02*
X150030000Y-38822500I0J147500D01*
G01*
X150030000Y-38527500D01*
G75*
G02*
X150177500Y-38380000I147500J0D01*
G01*
G37*
%TD*%
%TO.C,R207*%
G36*
G01*
X151777500Y-39350000D02*
X152122500Y-39350000D01*
G75*
G02*
X152270000Y-39497500I0J-147500D01*
G01*
X152270000Y-39792500D01*
G75*
G02*
X152122500Y-39940000I-147500J0D01*
G01*
X151777500Y-39940000D01*
G75*
G02*
X151630000Y-39792500I0J147500D01*
G01*
X151630000Y-39497500D01*
G75*
G02*
X151777500Y-39350000I147500J0D01*
G01*
G37*
G36*
G01*
X151777500Y-38380000D02*
X152122500Y-38380000D01*
G75*
G02*
X152270000Y-38527500I0J-147500D01*
G01*
X152270000Y-38822500D01*
G75*
G02*
X152122500Y-38970000I-147500J0D01*
G01*
X151777500Y-38970000D01*
G75*
G02*
X151630000Y-38822500I0J147500D01*
G01*
X151630000Y-38527500D01*
G75*
G02*
X151777500Y-38380000I147500J0D01*
G01*
G37*
%TD*%
%TO.C,R206*%
G36*
G01*
X153377500Y-39350000D02*
X153722500Y-39350000D01*
G75*
G02*
X153870000Y-39497500I0J-147500D01*
G01*
X153870000Y-39792500D01*
G75*
G02*
X153722500Y-39940000I-147500J0D01*
G01*
X153377500Y-39940000D01*
G75*
G02*
X153230000Y-39792500I0J147500D01*
G01*
X153230000Y-39497500D01*
G75*
G02*
X153377500Y-39350000I147500J0D01*
G01*
G37*
G36*
G01*
X153377500Y-38380000D02*
X153722500Y-38380000D01*
G75*
G02*
X153870000Y-38527500I0J-147500D01*
G01*
X153870000Y-38822500D01*
G75*
G02*
X153722500Y-38970000I-147500J0D01*
G01*
X153377500Y-38970000D01*
G75*
G02*
X153230000Y-38822500I0J147500D01*
G01*
X153230000Y-38527500D01*
G75*
G02*
X153377500Y-38380000I147500J0D01*
G01*
G37*
%TD*%
%TO.C,C100*%
G36*
G01*
X171625000Y-74375000D02*
X170375000Y-74375000D01*
G75*
G02*
X170125000Y-74125000I0J250000D01*
G01*
X170125000Y-73375000D01*
G75*
G02*
X170375000Y-73125000I250000J0D01*
G01*
X171625000Y-73125000D01*
G75*
G02*
X171875000Y-73375000I0J-250000D01*
G01*
X171875000Y-74125000D01*
G75*
G02*
X171625000Y-74375000I-250000J0D01*
G01*
G37*
G36*
G01*
X171625000Y-71575000D02*
X170375000Y-71575000D01*
G75*
G02*
X170125000Y-71325000I0J250000D01*
G01*
X170125000Y-70575000D01*
G75*
G02*
X170375000Y-70325000I250000J0D01*
G01*
X171625000Y-70325000D01*
G75*
G02*
X171875000Y-70575000I0J-250000D01*
G01*
X171875000Y-71325000D01*
G75*
G02*
X171625000Y-71575000I-250000J0D01*
G01*
G37*
%TD*%
%TO.C,C101*%
G36*
G01*
X165650000Y-70493750D02*
X165650000Y-71006250D01*
G75*
G02*
X165431250Y-71225000I-218750J0D01*
G01*
X164993750Y-71225000D01*
G75*
G02*
X164775000Y-71006250I0J218750D01*
G01*
X164775000Y-70493750D01*
G75*
G02*
X164993750Y-70275000I218750J0D01*
G01*
X165431250Y-70275000D01*
G75*
G02*
X165650000Y-70493750I0J-218750D01*
G01*
G37*
G36*
G01*
X167225000Y-70493750D02*
X167225000Y-71006250D01*
G75*
G02*
X167006250Y-71225000I-218750J0D01*
G01*
X166568750Y-71225000D01*
G75*
G02*
X166350000Y-71006250I0J218750D01*
G01*
X166350000Y-70493750D01*
G75*
G02*
X166568750Y-70275000I218750J0D01*
G01*
X167006250Y-70275000D01*
G75*
G02*
X167225000Y-70493750I0J-218750D01*
G01*
G37*
%TD*%
%TO.C,C102*%
G36*
G01*
X160375000Y-66125000D02*
X161625000Y-66125000D01*
G75*
G02*
X161875000Y-66375000I0J-250000D01*
G01*
X161875000Y-67125000D01*
G75*
G02*
X161625000Y-67375000I-250000J0D01*
G01*
X160375000Y-67375000D01*
G75*
G02*
X160125000Y-67125000I0J250000D01*
G01*
X160125000Y-66375000D01*
G75*
G02*
X160375000Y-66125000I250000J0D01*
G01*
G37*
G36*
G01*
X160375000Y-68925000D02*
X161625000Y-68925000D01*
G75*
G02*
X161875000Y-69175000I0J-250000D01*
G01*
X161875000Y-69925000D01*
G75*
G02*
X161625000Y-70175000I-250000J0D01*
G01*
X160375000Y-70175000D01*
G75*
G02*
X160125000Y-69925000I0J250000D01*
G01*
X160125000Y-69175000D01*
G75*
G02*
X160375000Y-68925000I250000J0D01*
G01*
G37*
%TD*%
%TO.C,C103*%
G36*
G01*
X166775000Y-62875000D02*
X166775000Y-61625000D01*
G75*
G02*
X167025000Y-61375000I250000J0D01*
G01*
X167775000Y-61375000D01*
G75*
G02*
X168025000Y-61625000I0J-250000D01*
G01*
X168025000Y-62875000D01*
G75*
G02*
X167775000Y-63125000I-250000J0D01*
G01*
X167025000Y-63125000D01*
G75*
G02*
X166775000Y-62875000I0J250000D01*
G01*
G37*
G36*
G01*
X163975000Y-62875000D02*
X163975000Y-61625000D01*
G75*
G02*
X164225000Y-61375000I250000J0D01*
G01*
X164975000Y-61375000D01*
G75*
G02*
X165225000Y-61625000I0J-250000D01*
G01*
X165225000Y-62875000D01*
G75*
G02*
X164975000Y-63125000I-250000J0D01*
G01*
X164225000Y-63125000D01*
G75*
G02*
X163975000Y-62875000I0J250000D01*
G01*
G37*
%TD*%
%TO.C,C200*%
G36*
G01*
X146825000Y-42793750D02*
X146825000Y-43306250D01*
G75*
G02*
X146606250Y-43525000I-218750J0D01*
G01*
X146168750Y-43525000D01*
G75*
G02*
X145950000Y-43306250I0J218750D01*
G01*
X145950000Y-42793750D01*
G75*
G02*
X146168750Y-42575000I218750J0D01*
G01*
X146606250Y-42575000D01*
G75*
G02*
X146825000Y-42793750I0J-218750D01*
G01*
G37*
G36*
G01*
X145250000Y-42793750D02*
X145250000Y-43306250D01*
G75*
G02*
X145031250Y-43525000I-218750J0D01*
G01*
X144593750Y-43525000D01*
G75*
G02*
X144375000Y-43306250I0J218750D01*
G01*
X144375000Y-42793750D01*
G75*
G02*
X144593750Y-42575000I218750J0D01*
G01*
X145031250Y-42575000D01*
G75*
G02*
X145250000Y-42793750I0J-218750D01*
G01*
G37*
%TD*%
%TO.C,C201*%
G36*
G01*
X144772500Y-46160000D02*
X144427500Y-46160000D01*
G75*
G02*
X144280000Y-46012500I0J147500D01*
G01*
X144280000Y-45717500D01*
G75*
G02*
X144427500Y-45570000I147500J0D01*
G01*
X144772500Y-45570000D01*
G75*
G02*
X144920000Y-45717500I0J-147500D01*
G01*
X144920000Y-46012500D01*
G75*
G02*
X144772500Y-46160000I-147500J0D01*
G01*
G37*
G36*
G01*
X144772500Y-47130000D02*
X144427500Y-47130000D01*
G75*
G02*
X144280000Y-46982500I0J147500D01*
G01*
X144280000Y-46687500D01*
G75*
G02*
X144427500Y-46540000I147500J0D01*
G01*
X144772500Y-46540000D01*
G75*
G02*
X144920000Y-46687500I0J-147500D01*
G01*
X144920000Y-46982500D01*
G75*
G02*
X144772500Y-47130000I-147500J0D01*
G01*
G37*
%TD*%
%TO.C,C202*%
G36*
G01*
X149505000Y-58077500D02*
X149505000Y-58422500D01*
G75*
G02*
X149357500Y-58570000I-147500J0D01*
G01*
X149062500Y-58570000D01*
G75*
G02*
X148915000Y-58422500I0J147500D01*
G01*
X148915000Y-58077500D01*
G75*
G02*
X149062500Y-57930000I147500J0D01*
G01*
X149357500Y-57930000D01*
G75*
G02*
X149505000Y-58077500I0J-147500D01*
G01*
G37*
G36*
G01*
X148535000Y-58077500D02*
X148535000Y-58422500D01*
G75*
G02*
X148387500Y-58570000I-147500J0D01*
G01*
X148092500Y-58570000D01*
G75*
G02*
X147945000Y-58422500I0J147500D01*
G01*
X147945000Y-58077500D01*
G75*
G02*
X148092500Y-57930000I147500J0D01*
G01*
X148387500Y-57930000D01*
G75*
G02*
X148535000Y-58077500I0J-147500D01*
G01*
G37*
%TD*%
%TO.C,C203*%
G36*
G01*
X157825000Y-56822500D02*
X157825000Y-56477500D01*
G75*
G02*
X157972500Y-56330000I147500J0D01*
G01*
X158267500Y-56330000D01*
G75*
G02*
X158415000Y-56477500I0J-147500D01*
G01*
X158415000Y-56822500D01*
G75*
G02*
X158267500Y-56970000I-147500J0D01*
G01*
X157972500Y-56970000D01*
G75*
G02*
X157825000Y-56822500I0J147500D01*
G01*
G37*
G36*
G01*
X156855000Y-56822500D02*
X156855000Y-56477500D01*
G75*
G02*
X157002500Y-56330000I147500J0D01*
G01*
X157297500Y-56330000D01*
G75*
G02*
X157445000Y-56477500I0J-147500D01*
G01*
X157445000Y-56822500D01*
G75*
G02*
X157297500Y-56970000I-147500J0D01*
G01*
X157002500Y-56970000D01*
G75*
G02*
X156855000Y-56822500I0J147500D01*
G01*
G37*
%TD*%
%TO.C,C204*%
G36*
G01*
X158422500Y-45995000D02*
X158077500Y-45995000D01*
G75*
G02*
X157930000Y-45847500I0J147500D01*
G01*
X157930000Y-45552500D01*
G75*
G02*
X158077500Y-45405000I147500J0D01*
G01*
X158422500Y-45405000D01*
G75*
G02*
X158570000Y-45552500I0J-147500D01*
G01*
X158570000Y-45847500D01*
G75*
G02*
X158422500Y-45995000I-147500J0D01*
G01*
G37*
G36*
G01*
X158422500Y-45025000D02*
X158077500Y-45025000D01*
G75*
G02*
X157930000Y-44877500I0J147500D01*
G01*
X157930000Y-44582500D01*
G75*
G02*
X158077500Y-44435000I147500J0D01*
G01*
X158422500Y-44435000D01*
G75*
G02*
X158570000Y-44582500I0J-147500D01*
G01*
X158570000Y-44877500D01*
G75*
G02*
X158422500Y-45025000I-147500J0D01*
G01*
G37*
%TD*%
%TO.C,C205*%
G36*
G01*
X148390000Y-43222500D02*
X148390000Y-42877500D01*
G75*
G02*
X148537500Y-42730000I147500J0D01*
G01*
X148832500Y-42730000D01*
G75*
G02*
X148980000Y-42877500I0J-147500D01*
G01*
X148980000Y-43222500D01*
G75*
G02*
X148832500Y-43370000I-147500J0D01*
G01*
X148537500Y-43370000D01*
G75*
G02*
X148390000Y-43222500I0J147500D01*
G01*
G37*
G36*
G01*
X147420000Y-43222500D02*
X147420000Y-42877500D01*
G75*
G02*
X147567500Y-42730000I147500J0D01*
G01*
X147862500Y-42730000D01*
G75*
G02*
X148010000Y-42877500I0J-147500D01*
G01*
X148010000Y-43222500D01*
G75*
G02*
X147862500Y-43370000I-147500J0D01*
G01*
X147567500Y-43370000D01*
G75*
G02*
X147420000Y-43222500I0J147500D01*
G01*
G37*
%TD*%
%TO.C,C206*%
G36*
G01*
X143522500Y-52410000D02*
X143177500Y-52410000D01*
G75*
G02*
X143030000Y-52262500I0J147500D01*
G01*
X143030000Y-51967500D01*
G75*
G02*
X143177500Y-51820000I147500J0D01*
G01*
X143522500Y-51820000D01*
G75*
G02*
X143670000Y-51967500I0J-147500D01*
G01*
X143670000Y-52262500D01*
G75*
G02*
X143522500Y-52410000I-147500J0D01*
G01*
G37*
G36*
G01*
X143522500Y-53380000D02*
X143177500Y-53380000D01*
G75*
G02*
X143030000Y-53232500I0J147500D01*
G01*
X143030000Y-52937500D01*
G75*
G02*
X143177500Y-52790000I147500J0D01*
G01*
X143522500Y-52790000D01*
G75*
G02*
X143670000Y-52937500I0J-147500D01*
G01*
X143670000Y-53232500D01*
G75*
G02*
X143522500Y-53380000I-147500J0D01*
G01*
G37*
%TD*%
%TO.C,C207*%
G36*
G01*
X144672500Y-53380000D02*
X144327500Y-53380000D01*
G75*
G02*
X144180000Y-53232500I0J147500D01*
G01*
X144180000Y-52937500D01*
G75*
G02*
X144327500Y-52790000I147500J0D01*
G01*
X144672500Y-52790000D01*
G75*
G02*
X144820000Y-52937500I0J-147500D01*
G01*
X144820000Y-53232500D01*
G75*
G02*
X144672500Y-53380000I-147500J0D01*
G01*
G37*
G36*
G01*
X144672500Y-52410000D02*
X144327500Y-52410000D01*
G75*
G02*
X144180000Y-52262500I0J147500D01*
G01*
X144180000Y-51967500D01*
G75*
G02*
X144327500Y-51820000I147500J0D01*
G01*
X144672500Y-51820000D01*
G75*
G02*
X144820000Y-51967500I0J-147500D01*
G01*
X144820000Y-52262500D01*
G75*
G02*
X144672500Y-52410000I-147500J0D01*
G01*
G37*
%TD*%
%TO.C,C208*%
G36*
G01*
X157137500Y-58656250D02*
X157137500Y-58143750D01*
G75*
G02*
X157356250Y-57925000I218750J0D01*
G01*
X157793750Y-57925000D01*
G75*
G02*
X158012500Y-58143750I0J-218750D01*
G01*
X158012500Y-58656250D01*
G75*
G02*
X157793750Y-58875000I-218750J0D01*
G01*
X157356250Y-58875000D01*
G75*
G02*
X157137500Y-58656250I0J218750D01*
G01*
G37*
G36*
G01*
X155562500Y-58656250D02*
X155562500Y-58143750D01*
G75*
G02*
X155781250Y-57925000I218750J0D01*
G01*
X156218750Y-57925000D01*
G75*
G02*
X156437500Y-58143750I0J-218750D01*
G01*
X156437500Y-58656250D01*
G75*
G02*
X156218750Y-58875000I-218750J0D01*
G01*
X155781250Y-58875000D01*
G75*
G02*
X155562500Y-58656250I0J218750D01*
G01*
G37*
%TD*%
%TO.C,C209*%
G36*
G01*
X160256250Y-47237500D02*
X159743750Y-47237500D01*
G75*
G02*
X159525000Y-47018750I0J218750D01*
G01*
X159525000Y-46581250D01*
G75*
G02*
X159743750Y-46362500I218750J0D01*
G01*
X160256250Y-46362500D01*
G75*
G02*
X160475000Y-46581250I0J-218750D01*
G01*
X160475000Y-47018750D01*
G75*
G02*
X160256250Y-47237500I-218750J0D01*
G01*
G37*
G36*
G01*
X160256250Y-45662500D02*
X159743750Y-45662500D01*
G75*
G02*
X159525000Y-45443750I0J218750D01*
G01*
X159525000Y-45006250D01*
G75*
G02*
X159743750Y-44787500I218750J0D01*
G01*
X160256250Y-44787500D01*
G75*
G02*
X160475000Y-45006250I0J-218750D01*
G01*
X160475000Y-45443750D01*
G75*
G02*
X160256250Y-45662500I-218750J0D01*
G01*
G37*
%TD*%
%TO.C,C210*%
G36*
G01*
X141390000Y-46172500D02*
X141390000Y-45827500D01*
G75*
G02*
X141537500Y-45680000I147500J0D01*
G01*
X141832500Y-45680000D01*
G75*
G02*
X141980000Y-45827500I0J-147500D01*
G01*
X141980000Y-46172500D01*
G75*
G02*
X141832500Y-46320000I-147500J0D01*
G01*
X141537500Y-46320000D01*
G75*
G02*
X141390000Y-46172500I0J147500D01*
G01*
G37*
G36*
G01*
X140420000Y-46172500D02*
X140420000Y-45827500D01*
G75*
G02*
X140567500Y-45680000I147500J0D01*
G01*
X140862500Y-45680000D01*
G75*
G02*
X141010000Y-45827500I0J-147500D01*
G01*
X141010000Y-46172500D01*
G75*
G02*
X140862500Y-46320000I-147500J0D01*
G01*
X140567500Y-46320000D01*
G75*
G02*
X140420000Y-46172500I0J147500D01*
G01*
G37*
%TD*%
%TO.C,C211*%
G36*
G01*
X141980000Y-51527500D02*
X141980000Y-51872500D01*
G75*
G02*
X141832500Y-52020000I-147500J0D01*
G01*
X141537500Y-52020000D01*
G75*
G02*
X141390000Y-51872500I0J147500D01*
G01*
X141390000Y-51527500D01*
G75*
G02*
X141537500Y-51380000I147500J0D01*
G01*
X141832500Y-51380000D01*
G75*
G02*
X141980000Y-51527500I0J-147500D01*
G01*
G37*
G36*
G01*
X141010000Y-51527500D02*
X141010000Y-51872500D01*
G75*
G02*
X140862500Y-52020000I-147500J0D01*
G01*
X140567500Y-52020000D01*
G75*
G02*
X140420000Y-51872500I0J147500D01*
G01*
X140420000Y-51527500D01*
G75*
G02*
X140567500Y-51380000I147500J0D01*
G01*
X140862500Y-51380000D01*
G75*
G02*
X141010000Y-51527500I0J-147500D01*
G01*
G37*
%TD*%
%TO.C,C212*%
G36*
G01*
X148127500Y-36180000D02*
X148472500Y-36180000D01*
G75*
G02*
X148620000Y-36327500I0J-147500D01*
G01*
X148620000Y-36622500D01*
G75*
G02*
X148472500Y-36770000I-147500J0D01*
G01*
X148127500Y-36770000D01*
G75*
G02*
X147980000Y-36622500I0J147500D01*
G01*
X147980000Y-36327500D01*
G75*
G02*
X148127500Y-36180000I147500J0D01*
G01*
G37*
G36*
G01*
X148127500Y-37150000D02*
X148472500Y-37150000D01*
G75*
G02*
X148620000Y-37297500I0J-147500D01*
G01*
X148620000Y-37592500D01*
G75*
G02*
X148472500Y-37740000I-147500J0D01*
G01*
X148127500Y-37740000D01*
G75*
G02*
X147980000Y-37592500I0J147500D01*
G01*
X147980000Y-37297500D01*
G75*
G02*
X148127500Y-37150000I147500J0D01*
G01*
G37*
%TD*%
%TO.C,C213*%
G36*
G01*
X161127500Y-56355000D02*
X161472500Y-56355000D01*
G75*
G02*
X161620000Y-56502500I0J-147500D01*
G01*
X161620000Y-56797500D01*
G75*
G02*
X161472500Y-56945000I-147500J0D01*
G01*
X161127500Y-56945000D01*
G75*
G02*
X160980000Y-56797500I0J147500D01*
G01*
X160980000Y-56502500D01*
G75*
G02*
X161127500Y-56355000I147500J0D01*
G01*
G37*
G36*
G01*
X161127500Y-57325000D02*
X161472500Y-57325000D01*
G75*
G02*
X161620000Y-57472500I0J-147500D01*
G01*
X161620000Y-57767500D01*
G75*
G02*
X161472500Y-57915000I-147500J0D01*
G01*
X161127500Y-57915000D01*
G75*
G02*
X160980000Y-57767500I0J147500D01*
G01*
X160980000Y-57472500D01*
G75*
G02*
X161127500Y-57325000I147500J0D01*
G01*
G37*
%TD*%
%TO.C,C300*%
G36*
G01*
X157970000Y-37222500D02*
X157970000Y-36877500D01*
G75*
G02*
X158117500Y-36730000I147500J0D01*
G01*
X158412500Y-36730000D01*
G75*
G02*
X158560000Y-36877500I0J-147500D01*
G01*
X158560000Y-37222500D01*
G75*
G02*
X158412500Y-37370000I-147500J0D01*
G01*
X158117500Y-37370000D01*
G75*
G02*
X157970000Y-37222500I0J147500D01*
G01*
G37*
G36*
G01*
X158940000Y-37222500D02*
X158940000Y-36877500D01*
G75*
G02*
X159087500Y-36730000I147500J0D01*
G01*
X159382500Y-36730000D01*
G75*
G02*
X159530000Y-36877500I0J-147500D01*
G01*
X159530000Y-37222500D01*
G75*
G02*
X159382500Y-37370000I-147500J0D01*
G01*
X159087500Y-37370000D01*
G75*
G02*
X158940000Y-37222500I0J147500D01*
G01*
G37*
%TD*%
%TO.C,C301*%
G36*
G01*
X160877500Y-39290000D02*
X161222500Y-39290000D01*
G75*
G02*
X161370000Y-39437500I0J-147500D01*
G01*
X161370000Y-39732500D01*
G75*
G02*
X161222500Y-39880000I-147500J0D01*
G01*
X160877500Y-39880000D01*
G75*
G02*
X160730000Y-39732500I0J147500D01*
G01*
X160730000Y-39437500D01*
G75*
G02*
X160877500Y-39290000I147500J0D01*
G01*
G37*
G36*
G01*
X160877500Y-38320000D02*
X161222500Y-38320000D01*
G75*
G02*
X161370000Y-38467500I0J-147500D01*
G01*
X161370000Y-38762500D01*
G75*
G02*
X161222500Y-38910000I-147500J0D01*
G01*
X160877500Y-38910000D01*
G75*
G02*
X160730000Y-38762500I0J147500D01*
G01*
X160730000Y-38467500D01*
G75*
G02*
X160877500Y-38320000I147500J0D01*
G01*
G37*
%TD*%
%TO.C,C302*%
G36*
G01*
X149010000Y-68502500D02*
X149010000Y-68847500D01*
G75*
G02*
X148862500Y-68995000I-147500J0D01*
G01*
X148567500Y-68995000D01*
G75*
G02*
X148420000Y-68847500I0J147500D01*
G01*
X148420000Y-68502500D01*
G75*
G02*
X148567500Y-68355000I147500J0D01*
G01*
X148862500Y-68355000D01*
G75*
G02*
X149010000Y-68502500I0J-147500D01*
G01*
G37*
G36*
G01*
X149980000Y-68502500D02*
X149980000Y-68847500D01*
G75*
G02*
X149832500Y-68995000I-147500J0D01*
G01*
X149537500Y-68995000D01*
G75*
G02*
X149390000Y-68847500I0J147500D01*
G01*
X149390000Y-68502500D01*
G75*
G02*
X149537500Y-68355000I147500J0D01*
G01*
X149832500Y-68355000D01*
G75*
G02*
X149980000Y-68502500I0J-147500D01*
G01*
G37*
%TD*%
%TO.C,C303*%
G36*
G01*
X148745000Y-63337500D02*
X148745000Y-63682500D01*
G75*
G02*
X148597500Y-63830000I-147500J0D01*
G01*
X148302500Y-63830000D01*
G75*
G02*
X148155000Y-63682500I0J147500D01*
G01*
X148155000Y-63337500D01*
G75*
G02*
X148302500Y-63190000I147500J0D01*
G01*
X148597500Y-63190000D01*
G75*
G02*
X148745000Y-63337500I0J-147500D01*
G01*
G37*
G36*
G01*
X147775000Y-63337500D02*
X147775000Y-63682500D01*
G75*
G02*
X147627500Y-63830000I-147500J0D01*
G01*
X147332500Y-63830000D01*
G75*
G02*
X147185000Y-63682500I0J147500D01*
G01*
X147185000Y-63337500D01*
G75*
G02*
X147332500Y-63190000I147500J0D01*
G01*
X147627500Y-63190000D01*
G75*
G02*
X147775000Y-63337500I0J-147500D01*
G01*
G37*
%TD*%
%TO.C,C400*%
G36*
G01*
X162572500Y-32395000D02*
X162227500Y-32395000D01*
G75*
G02*
X162080000Y-32247500I0J147500D01*
G01*
X162080000Y-31952500D01*
G75*
G02*
X162227500Y-31805000I147500J0D01*
G01*
X162572500Y-31805000D01*
G75*
G02*
X162720000Y-31952500I0J-147500D01*
G01*
X162720000Y-32247500D01*
G75*
G02*
X162572500Y-32395000I-147500J0D01*
G01*
G37*
G36*
G01*
X162572500Y-33365000D02*
X162227500Y-33365000D01*
G75*
G02*
X162080000Y-33217500I0J147500D01*
G01*
X162080000Y-32922500D01*
G75*
G02*
X162227500Y-32775000I147500J0D01*
G01*
X162572500Y-32775000D01*
G75*
G02*
X162720000Y-32922500I0J-147500D01*
G01*
X162720000Y-33217500D01*
G75*
G02*
X162572500Y-33365000I-147500J0D01*
G01*
G37*
%TD*%
D16*
%TO.C,D100*%
X173775000Y-48275000D03*
X173775000Y-44975000D03*
%TD*%
%TO.C,D101*%
X171000000Y-68400000D03*
X171000000Y-65100000D03*
%TD*%
%TO.C,D102*%
G36*
G01*
X160743750Y-64162500D02*
X161256250Y-64162500D01*
G75*
G02*
X161475000Y-64381250I0J-218750D01*
G01*
X161475000Y-64818750D01*
G75*
G02*
X161256250Y-65037500I-218750J0D01*
G01*
X160743750Y-65037500D01*
G75*
G02*
X160525000Y-64818750I0J218750D01*
G01*
X160525000Y-64381250D01*
G75*
G02*
X160743750Y-64162500I218750J0D01*
G01*
G37*
G36*
G01*
X160743750Y-62587500D02*
X161256250Y-62587500D01*
G75*
G02*
X161475000Y-62806250I0J-218750D01*
G01*
X161475000Y-63243750D01*
G75*
G02*
X161256250Y-63462500I-218750J0D01*
G01*
X160743750Y-63462500D01*
G75*
G02*
X160525000Y-63243750I0J218750D01*
G01*
X160525000Y-62806250D01*
G75*
G02*
X160743750Y-62587500I218750J0D01*
G01*
G37*
%TD*%
%TO.C,D200*%
G36*
G01*
X156487500Y-32743750D02*
X156487500Y-33256250D01*
G75*
G02*
X156268750Y-33475000I-218750J0D01*
G01*
X155831250Y-33475000D01*
G75*
G02*
X155612500Y-33256250I0J218750D01*
G01*
X155612500Y-32743750D01*
G75*
G02*
X155831250Y-32525000I218750J0D01*
G01*
X156268750Y-32525000D01*
G75*
G02*
X156487500Y-32743750I0J-218750D01*
G01*
G37*
G36*
G01*
X154912500Y-32743750D02*
X154912500Y-33256250D01*
G75*
G02*
X154693750Y-33475000I-218750J0D01*
G01*
X154256250Y-33475000D01*
G75*
G02*
X154037500Y-33256250I0J218750D01*
G01*
X154037500Y-32743750D01*
G75*
G02*
X154256250Y-32525000I218750J0D01*
G01*
X154693750Y-32525000D01*
G75*
G02*
X154912500Y-32743750I0J-218750D01*
G01*
G37*
%TD*%
%TO.C,F100*%
G36*
G01*
X174875000Y-61175000D02*
X173625000Y-61175000D01*
G75*
G02*
X173375000Y-60925000I0J250000D01*
G01*
X173375000Y-60175000D01*
G75*
G02*
X173625000Y-59925000I250000J0D01*
G01*
X174875000Y-59925000D01*
G75*
G02*
X175125000Y-60175000I0J-250000D01*
G01*
X175125000Y-60925000D01*
G75*
G02*
X174875000Y-61175000I-250000J0D01*
G01*
G37*
G36*
G01*
X174875000Y-58375000D02*
X173625000Y-58375000D01*
G75*
G02*
X173375000Y-58125000I0J250000D01*
G01*
X173375000Y-57375000D01*
G75*
G02*
X173625000Y-57125000I250000J0D01*
G01*
X174875000Y-57125000D01*
G75*
G02*
X175125000Y-57375000I0J-250000D01*
G01*
X175125000Y-58125000D01*
G75*
G02*
X174875000Y-58375000I-250000J0D01*
G01*
G37*
%TD*%
%TO.C,FB100*%
G36*
G01*
X174731250Y-70737500D02*
X173818750Y-70737500D01*
G75*
G02*
X173575000Y-70493750I0J243750D01*
G01*
X173575000Y-70006250D01*
G75*
G02*
X173818750Y-69762500I243750J0D01*
G01*
X174731250Y-69762500D01*
G75*
G02*
X174975000Y-70006250I0J-243750D01*
G01*
X174975000Y-70493750D01*
G75*
G02*
X174731250Y-70737500I-243750J0D01*
G01*
G37*
G36*
G01*
X174731250Y-68862500D02*
X173818750Y-68862500D01*
G75*
G02*
X173575000Y-68618750I0J243750D01*
G01*
X173575000Y-68131250D01*
G75*
G02*
X173818750Y-67887500I243750J0D01*
G01*
X174731250Y-67887500D01*
G75*
G02*
X174975000Y-68131250I0J-243750D01*
G01*
X174975000Y-68618750D01*
G75*
G02*
X174731250Y-68862500I-243750J0D01*
G01*
G37*
%TD*%
%TO.C,FB200*%
G36*
G01*
X140562500Y-53543750D02*
X140562500Y-54456250D01*
G75*
G02*
X140318750Y-54700000I-243750J0D01*
G01*
X139831250Y-54700000D01*
G75*
G02*
X139587500Y-54456250I0J243750D01*
G01*
X139587500Y-53543750D01*
G75*
G02*
X139831250Y-53300000I243750J0D01*
G01*
X140318750Y-53300000D01*
G75*
G02*
X140562500Y-53543750I0J-243750D01*
G01*
G37*
G36*
G01*
X142437500Y-53543750D02*
X142437500Y-54456250D01*
G75*
G02*
X142193750Y-54700000I-243750J0D01*
G01*
X141706250Y-54700000D01*
G75*
G02*
X141462500Y-54456250I0J243750D01*
G01*
X141462500Y-53543750D01*
G75*
G02*
X141706250Y-53300000I243750J0D01*
G01*
X142193750Y-53300000D01*
G75*
G02*
X142437500Y-53543750I0J-243750D01*
G01*
G37*
%TD*%
D17*
%TO.C,J401*%
X170790000Y-28200000D03*
X170790000Y-32100000D03*
X169520000Y-28200000D03*
X169520000Y-32100000D03*
X168250000Y-28200000D03*
X168250000Y-32100000D03*
X166980000Y-28200000D03*
X166980000Y-32100000D03*
X165710000Y-28200000D03*
X165710000Y-32100000D03*
%TD*%
D18*
%TO.C,L101*%
X168050000Y-66750000D03*
X163950000Y-66750000D03*
%TD*%
D19*
%TO.C,Q100*%
X178450000Y-57750000D03*
X176550000Y-57750000D03*
X177500000Y-59750000D03*
%TD*%
%TO.C,R100*%
G36*
G01*
X171437500Y-76243750D02*
X171437500Y-76756250D01*
G75*
G02*
X171218750Y-76975000I-218750J0D01*
G01*
X170781250Y-76975000D01*
G75*
G02*
X170562500Y-76756250I0J218750D01*
G01*
X170562500Y-76243750D01*
G75*
G02*
X170781250Y-76025000I218750J0D01*
G01*
X171218750Y-76025000D01*
G75*
G02*
X171437500Y-76243750I0J-218750D01*
G01*
G37*
G36*
G01*
X169862500Y-76243750D02*
X169862500Y-76756250D01*
G75*
G02*
X169643750Y-76975000I-218750J0D01*
G01*
X169206250Y-76975000D01*
G75*
G02*
X168987500Y-76756250I0J218750D01*
G01*
X168987500Y-76243750D01*
G75*
G02*
X169206250Y-76025000I218750J0D01*
G01*
X169643750Y-76025000D01*
G75*
G02*
X169862500Y-76243750I0J-218750D01*
G01*
G37*
%TD*%
%TO.C,R101*%
G36*
G01*
X170562500Y-78256250D02*
X170562500Y-77743750D01*
G75*
G02*
X170781250Y-77525000I218750J0D01*
G01*
X171218750Y-77525000D01*
G75*
G02*
X171437500Y-77743750I0J-218750D01*
G01*
X171437500Y-78256250D01*
G75*
G02*
X171218750Y-78475000I-218750J0D01*
G01*
X170781250Y-78475000D01*
G75*
G02*
X170562500Y-78256250I0J218750D01*
G01*
G37*
G36*
G01*
X168987500Y-78256250D02*
X168987500Y-77743750D01*
G75*
G02*
X169206250Y-77525000I218750J0D01*
G01*
X169643750Y-77525000D01*
G75*
G02*
X169862500Y-77743750I0J-218750D01*
G01*
X169862500Y-78256250D01*
G75*
G02*
X169643750Y-78475000I-218750J0D01*
G01*
X169206250Y-78475000D01*
G75*
G02*
X168987500Y-78256250I0J218750D01*
G01*
G37*
%TD*%
%TO.C,R102*%
G36*
G01*
X163037500Y-76756250D02*
X163037500Y-76243750D01*
G75*
G02*
X163256250Y-76025000I218750J0D01*
G01*
X163693750Y-76025000D01*
G75*
G02*
X163912500Y-76243750I0J-218750D01*
G01*
X163912500Y-76756250D01*
G75*
G02*
X163693750Y-76975000I-218750J0D01*
G01*
X163256250Y-76975000D01*
G75*
G02*
X163037500Y-76756250I0J218750D01*
G01*
G37*
G36*
G01*
X161462500Y-76756250D02*
X161462500Y-76243750D01*
G75*
G02*
X161681250Y-76025000I218750J0D01*
G01*
X162118750Y-76025000D01*
G75*
G02*
X162337500Y-76243750I0J-218750D01*
G01*
X162337500Y-76756250D01*
G75*
G02*
X162118750Y-76975000I-218750J0D01*
G01*
X161681250Y-76975000D01*
G75*
G02*
X161462500Y-76756250I0J218750D01*
G01*
G37*
%TD*%
%TO.C,R103*%
G36*
G01*
X164475000Y-76756250D02*
X164475000Y-76243750D01*
G75*
G02*
X164693750Y-76025000I218750J0D01*
G01*
X165131250Y-76025000D01*
G75*
G02*
X165350000Y-76243750I0J-218750D01*
G01*
X165350000Y-76756250D01*
G75*
G02*
X165131250Y-76975000I-218750J0D01*
G01*
X164693750Y-76975000D01*
G75*
G02*
X164475000Y-76756250I0J218750D01*
G01*
G37*
G36*
G01*
X166050000Y-76756250D02*
X166050000Y-76243750D01*
G75*
G02*
X166268750Y-76025000I218750J0D01*
G01*
X166706250Y-76025000D01*
G75*
G02*
X166925000Y-76243750I0J-218750D01*
G01*
X166925000Y-76756250D01*
G75*
G02*
X166706250Y-76975000I-218750J0D01*
G01*
X166268750Y-76975000D01*
G75*
G02*
X166050000Y-76756250I0J218750D01*
G01*
G37*
%TD*%
%TO.C,R104*%
G36*
G01*
X165350000Y-77743750D02*
X165350000Y-78256250D01*
G75*
G02*
X165131250Y-78475000I-218750J0D01*
G01*
X164693750Y-78475000D01*
G75*
G02*
X164475000Y-78256250I0J218750D01*
G01*
X164475000Y-77743750D01*
G75*
G02*
X164693750Y-77525000I218750J0D01*
G01*
X165131250Y-77525000D01*
G75*
G02*
X165350000Y-77743750I0J-218750D01*
G01*
G37*
G36*
G01*
X166925000Y-77743750D02*
X166925000Y-78256250D01*
G75*
G02*
X166706250Y-78475000I-218750J0D01*
G01*
X166268750Y-78475000D01*
G75*
G02*
X166050000Y-78256250I0J218750D01*
G01*
X166050000Y-77743750D01*
G75*
G02*
X166268750Y-77525000I218750J0D01*
G01*
X166706250Y-77525000D01*
G75*
G02*
X166925000Y-77743750I0J-218750D01*
G01*
G37*
%TD*%
%TO.C,R105*%
G36*
G01*
X158743750Y-62562500D02*
X159256250Y-62562500D01*
G75*
G02*
X159475000Y-62781250I0J-218750D01*
G01*
X159475000Y-63218750D01*
G75*
G02*
X159256250Y-63437500I-218750J0D01*
G01*
X158743750Y-63437500D01*
G75*
G02*
X158525000Y-63218750I0J218750D01*
G01*
X158525000Y-62781250D01*
G75*
G02*
X158743750Y-62562500I218750J0D01*
G01*
G37*
G36*
G01*
X158743750Y-64137500D02*
X159256250Y-64137500D01*
G75*
G02*
X159475000Y-64356250I0J-218750D01*
G01*
X159475000Y-64793750D01*
G75*
G02*
X159256250Y-65012500I-218750J0D01*
G01*
X158743750Y-65012500D01*
G75*
G02*
X158525000Y-64793750I0J218750D01*
G01*
X158525000Y-64356250D01*
G75*
G02*
X158743750Y-64137500I218750J0D01*
G01*
G37*
%TD*%
%TO.C,R200*%
G36*
G01*
X143925000Y-49777500D02*
X143925000Y-50122500D01*
G75*
G02*
X143777500Y-50270000I-147500J0D01*
G01*
X143482500Y-50270000D01*
G75*
G02*
X143335000Y-50122500I0J147500D01*
G01*
X143335000Y-49777500D01*
G75*
G02*
X143482500Y-49630000I147500J0D01*
G01*
X143777500Y-49630000D01*
G75*
G02*
X143925000Y-49777500I0J-147500D01*
G01*
G37*
G36*
G01*
X144895000Y-49777500D02*
X144895000Y-50122500D01*
G75*
G02*
X144747500Y-50270000I-147500J0D01*
G01*
X144452500Y-50270000D01*
G75*
G02*
X144305000Y-50122500I0J147500D01*
G01*
X144305000Y-49777500D01*
G75*
G02*
X144452500Y-49630000I147500J0D01*
G01*
X144747500Y-49630000D01*
G75*
G02*
X144895000Y-49777500I0J-147500D01*
G01*
G37*
%TD*%
%TO.C,R201*%
G36*
G01*
X152300000Y-32827500D02*
X152300000Y-33172500D01*
G75*
G02*
X152152500Y-33320000I-147500J0D01*
G01*
X151857500Y-33320000D01*
G75*
G02*
X151710000Y-33172500I0J147500D01*
G01*
X151710000Y-32827500D01*
G75*
G02*
X151857500Y-32680000I147500J0D01*
G01*
X152152500Y-32680000D01*
G75*
G02*
X152300000Y-32827500I0J-147500D01*
G01*
G37*
G36*
G01*
X153270000Y-32827500D02*
X153270000Y-33172500D01*
G75*
G02*
X153122500Y-33320000I-147500J0D01*
G01*
X152827500Y-33320000D01*
G75*
G02*
X152680000Y-33172500I0J147500D01*
G01*
X152680000Y-32827500D01*
G75*
G02*
X152827500Y-32680000I147500J0D01*
G01*
X153122500Y-32680000D01*
G75*
G02*
X153270000Y-32827500I0J-147500D01*
G01*
G37*
%TD*%
%TO.C,R202*%
G36*
G01*
X159700000Y-32743750D02*
X159700000Y-33256250D01*
G75*
G02*
X159481250Y-33475000I-218750J0D01*
G01*
X159043750Y-33475000D01*
G75*
G02*
X158825000Y-33256250I0J218750D01*
G01*
X158825000Y-32743750D01*
G75*
G02*
X159043750Y-32525000I218750J0D01*
G01*
X159481250Y-32525000D01*
G75*
G02*
X159700000Y-32743750I0J-218750D01*
G01*
G37*
G36*
G01*
X158125000Y-32743750D02*
X158125000Y-33256250D01*
G75*
G02*
X157906250Y-33475000I-218750J0D01*
G01*
X157468750Y-33475000D01*
G75*
G02*
X157250000Y-33256250I0J218750D01*
G01*
X157250000Y-32743750D01*
G75*
G02*
X157468750Y-32525000I218750J0D01*
G01*
X157906250Y-32525000D01*
G75*
G02*
X158125000Y-32743750I0J-218750D01*
G01*
G37*
%TD*%
%TO.C,R203*%
G36*
G01*
X153777500Y-58555000D02*
X154122500Y-58555000D01*
G75*
G02*
X154270000Y-58702500I0J-147500D01*
G01*
X154270000Y-58997500D01*
G75*
G02*
X154122500Y-59145000I-147500J0D01*
G01*
X153777500Y-59145000D01*
G75*
G02*
X153630000Y-58997500I0J147500D01*
G01*
X153630000Y-58702500D01*
G75*
G02*
X153777500Y-58555000I147500J0D01*
G01*
G37*
G36*
G01*
X153777500Y-59525000D02*
X154122500Y-59525000D01*
G75*
G02*
X154270000Y-59672500I0J-147500D01*
G01*
X154270000Y-59967500D01*
G75*
G02*
X154122500Y-60115000I-147500J0D01*
G01*
X153777500Y-60115000D01*
G75*
G02*
X153630000Y-59967500I0J147500D01*
G01*
X153630000Y-59672500D01*
G75*
G02*
X153777500Y-59525000I147500J0D01*
G01*
G37*
%TD*%
%TO.C,R204*%
G36*
G01*
X145005000Y-33302500D02*
X145005000Y-33647500D01*
G75*
G02*
X144857500Y-33795000I-147500J0D01*
G01*
X144562500Y-33795000D01*
G75*
G02*
X144415000Y-33647500I0J147500D01*
G01*
X144415000Y-33302500D01*
G75*
G02*
X144562500Y-33155000I147500J0D01*
G01*
X144857500Y-33155000D01*
G75*
G02*
X145005000Y-33302500I0J-147500D01*
G01*
G37*
G36*
G01*
X144035000Y-33302500D02*
X144035000Y-33647500D01*
G75*
G02*
X143887500Y-33795000I-147500J0D01*
G01*
X143592500Y-33795000D01*
G75*
G02*
X143445000Y-33647500I0J147500D01*
G01*
X143445000Y-33302500D01*
G75*
G02*
X143592500Y-33155000I147500J0D01*
G01*
X143887500Y-33155000D01*
G75*
G02*
X144035000Y-33302500I0J-147500D01*
G01*
G37*
%TD*%
%TO.C,R205*%
G36*
G01*
X138735000Y-33647500D02*
X138735000Y-33302500D01*
G75*
G02*
X138882500Y-33155000I147500J0D01*
G01*
X139177500Y-33155000D01*
G75*
G02*
X139325000Y-33302500I0J-147500D01*
G01*
X139325000Y-33647500D01*
G75*
G02*
X139177500Y-33795000I-147500J0D01*
G01*
X138882500Y-33795000D01*
G75*
G02*
X138735000Y-33647500I0J147500D01*
G01*
G37*
G36*
G01*
X139705000Y-33647500D02*
X139705000Y-33302500D01*
G75*
G02*
X139852500Y-33155000I147500J0D01*
G01*
X140147500Y-33155000D01*
G75*
G02*
X140295000Y-33302500I0J-147500D01*
G01*
X140295000Y-33647500D01*
G75*
G02*
X140147500Y-33795000I-147500J0D01*
G01*
X139852500Y-33795000D01*
G75*
G02*
X139705000Y-33647500I0J147500D01*
G01*
G37*
%TD*%
%TO.C,R209*%
G36*
G01*
X172295000Y-53927500D02*
X172295000Y-54272500D01*
G75*
G02*
X172147500Y-54420000I-147500J0D01*
G01*
X171852500Y-54420000D01*
G75*
G02*
X171705000Y-54272500I0J147500D01*
G01*
X171705000Y-53927500D01*
G75*
G02*
X171852500Y-53780000I147500J0D01*
G01*
X172147500Y-53780000D01*
G75*
G02*
X172295000Y-53927500I0J-147500D01*
G01*
G37*
G36*
G01*
X173265000Y-53927500D02*
X173265000Y-54272500D01*
G75*
G02*
X173117500Y-54420000I-147500J0D01*
G01*
X172822500Y-54420000D01*
G75*
G02*
X172675000Y-54272500I0J147500D01*
G01*
X172675000Y-53927500D01*
G75*
G02*
X172822500Y-53780000I147500J0D01*
G01*
X173117500Y-53780000D01*
G75*
G02*
X173265000Y-53927500I0J-147500D01*
G01*
G37*
%TD*%
%TO.C,R210*%
G36*
G01*
X161005000Y-55572500D02*
X161005000Y-55227500D01*
G75*
G02*
X161152500Y-55080000I147500J0D01*
G01*
X161447500Y-55080000D01*
G75*
G02*
X161595000Y-55227500I0J-147500D01*
G01*
X161595000Y-55572500D01*
G75*
G02*
X161447500Y-55720000I-147500J0D01*
G01*
X161152500Y-55720000D01*
G75*
G02*
X161005000Y-55572500I0J147500D01*
G01*
G37*
G36*
G01*
X160035000Y-55572500D02*
X160035000Y-55227500D01*
G75*
G02*
X160182500Y-55080000I147500J0D01*
G01*
X160477500Y-55080000D01*
G75*
G02*
X160625000Y-55227500I0J-147500D01*
G01*
X160625000Y-55572500D01*
G75*
G02*
X160477500Y-55720000I-147500J0D01*
G01*
X160182500Y-55720000D01*
G75*
G02*
X160035000Y-55572500I0J147500D01*
G01*
G37*
%TD*%
%TO.C,R400*%
G36*
G01*
X170972500Y-36665000D02*
X170627500Y-36665000D01*
G75*
G02*
X170480000Y-36517500I0J147500D01*
G01*
X170480000Y-36222500D01*
G75*
G02*
X170627500Y-36075000I147500J0D01*
G01*
X170972500Y-36075000D01*
G75*
G02*
X171120000Y-36222500I0J-147500D01*
G01*
X171120000Y-36517500D01*
G75*
G02*
X170972500Y-36665000I-147500J0D01*
G01*
G37*
G36*
G01*
X170972500Y-35695000D02*
X170627500Y-35695000D01*
G75*
G02*
X170480000Y-35547500I0J147500D01*
G01*
X170480000Y-35252500D01*
G75*
G02*
X170627500Y-35105000I147500J0D01*
G01*
X170972500Y-35105000D01*
G75*
G02*
X171120000Y-35252500I0J-147500D01*
G01*
X171120000Y-35547500D01*
G75*
G02*
X170972500Y-35695000I-147500J0D01*
G01*
G37*
%TD*%
%TO.C,R401*%
G36*
G01*
X169672500Y-35695000D02*
X169327500Y-35695000D01*
G75*
G02*
X169180000Y-35547500I0J147500D01*
G01*
X169180000Y-35252500D01*
G75*
G02*
X169327500Y-35105000I147500J0D01*
G01*
X169672500Y-35105000D01*
G75*
G02*
X169820000Y-35252500I0J-147500D01*
G01*
X169820000Y-35547500D01*
G75*
G02*
X169672500Y-35695000I-147500J0D01*
G01*
G37*
G36*
G01*
X169672500Y-36665000D02*
X169327500Y-36665000D01*
G75*
G02*
X169180000Y-36517500I0J147500D01*
G01*
X169180000Y-36222500D01*
G75*
G02*
X169327500Y-36075000I147500J0D01*
G01*
X169672500Y-36075000D01*
G75*
G02*
X169820000Y-36222500I0J-147500D01*
G01*
X169820000Y-36517500D01*
G75*
G02*
X169672500Y-36665000I-147500J0D01*
G01*
G37*
%TD*%
%TO.C,R402*%
G36*
G01*
X168422500Y-36680000D02*
X168077500Y-36680000D01*
G75*
G02*
X167930000Y-36532500I0J147500D01*
G01*
X167930000Y-36237500D01*
G75*
G02*
X168077500Y-36090000I147500J0D01*
G01*
X168422500Y-36090000D01*
G75*
G02*
X168570000Y-36237500I0J-147500D01*
G01*
X168570000Y-36532500D01*
G75*
G02*
X168422500Y-36680000I-147500J0D01*
G01*
G37*
G36*
G01*
X168422500Y-35710000D02*
X168077500Y-35710000D01*
G75*
G02*
X167930000Y-35562500I0J147500D01*
G01*
X167930000Y-35267500D01*
G75*
G02*
X168077500Y-35120000I147500J0D01*
G01*
X168422500Y-35120000D01*
G75*
G02*
X168570000Y-35267500I0J-147500D01*
G01*
X168570000Y-35562500D01*
G75*
G02*
X168422500Y-35710000I-147500J0D01*
G01*
G37*
%TD*%
%TO.C,R403*%
G36*
G01*
X163772500Y-33365000D02*
X163427500Y-33365000D01*
G75*
G02*
X163280000Y-33217500I0J147500D01*
G01*
X163280000Y-32922500D01*
G75*
G02*
X163427500Y-32775000I147500J0D01*
G01*
X163772500Y-32775000D01*
G75*
G02*
X163920000Y-32922500I0J-147500D01*
G01*
X163920000Y-33217500D01*
G75*
G02*
X163772500Y-33365000I-147500J0D01*
G01*
G37*
G36*
G01*
X163772500Y-32395000D02*
X163427500Y-32395000D01*
G75*
G02*
X163280000Y-32247500I0J147500D01*
G01*
X163280000Y-31952500D01*
G75*
G02*
X163427500Y-31805000I147500J0D01*
G01*
X163772500Y-31805000D01*
G75*
G02*
X163920000Y-31952500I0J-147500D01*
G01*
X163920000Y-32247500D01*
G75*
G02*
X163772500Y-32395000I-147500J0D01*
G01*
G37*
%TD*%
%TO.C,R404*%
G36*
G01*
X142327500Y-32205000D02*
X142672500Y-32205000D01*
G75*
G02*
X142820000Y-32352500I0J-147500D01*
G01*
X142820000Y-32647500D01*
G75*
G02*
X142672500Y-32795000I-147500J0D01*
G01*
X142327500Y-32795000D01*
G75*
G02*
X142180000Y-32647500I0J147500D01*
G01*
X142180000Y-32352500D01*
G75*
G02*
X142327500Y-32205000I147500J0D01*
G01*
G37*
G36*
G01*
X142327500Y-33175000D02*
X142672500Y-33175000D01*
G75*
G02*
X142820000Y-33322500I0J-147500D01*
G01*
X142820000Y-33617500D01*
G75*
G02*
X142672500Y-33765000I-147500J0D01*
G01*
X142327500Y-33765000D01*
G75*
G02*
X142180000Y-33617500I0J147500D01*
G01*
X142180000Y-33322500D01*
G75*
G02*
X142327500Y-33175000I147500J0D01*
G01*
G37*
%TD*%
%TO.C,R405*%
G36*
G01*
X141077500Y-33175000D02*
X141422500Y-33175000D01*
G75*
G02*
X141570000Y-33322500I0J-147500D01*
G01*
X141570000Y-33617500D01*
G75*
G02*
X141422500Y-33765000I-147500J0D01*
G01*
X141077500Y-33765000D01*
G75*
G02*
X140930000Y-33617500I0J147500D01*
G01*
X140930000Y-33322500D01*
G75*
G02*
X141077500Y-33175000I147500J0D01*
G01*
G37*
G36*
G01*
X141077500Y-32205000D02*
X141422500Y-32205000D01*
G75*
G02*
X141570000Y-32352500I0J-147500D01*
G01*
X141570000Y-32647500D01*
G75*
G02*
X141422500Y-32795000I-147500J0D01*
G01*
X141077500Y-32795000D01*
G75*
G02*
X140930000Y-32647500I0J147500D01*
G01*
X140930000Y-32352500D01*
G75*
G02*
X141077500Y-32205000I147500J0D01*
G01*
G37*
%TD*%
%TO.C,R406*%
G36*
G01*
X154672500Y-74295000D02*
X154327500Y-74295000D01*
G75*
G02*
X154180000Y-74147500I0J147500D01*
G01*
X154180000Y-73852500D01*
G75*
G02*
X154327500Y-73705000I147500J0D01*
G01*
X154672500Y-73705000D01*
G75*
G02*
X154820000Y-73852500I0J-147500D01*
G01*
X154820000Y-74147500D01*
G75*
G02*
X154672500Y-74295000I-147500J0D01*
G01*
G37*
G36*
G01*
X154672500Y-73325000D02*
X154327500Y-73325000D01*
G75*
G02*
X154180000Y-73177500I0J147500D01*
G01*
X154180000Y-72882500D01*
G75*
G02*
X154327500Y-72735000I147500J0D01*
G01*
X154672500Y-72735000D01*
G75*
G02*
X154820000Y-72882500I0J-147500D01*
G01*
X154820000Y-73177500D01*
G75*
G02*
X154672500Y-73325000I-147500J0D01*
G01*
G37*
%TD*%
%TO.C,R407*%
G36*
G01*
X155922500Y-73325000D02*
X155577500Y-73325000D01*
G75*
G02*
X155430000Y-73177500I0J147500D01*
G01*
X155430000Y-72882500D01*
G75*
G02*
X155577500Y-72735000I147500J0D01*
G01*
X155922500Y-72735000D01*
G75*
G02*
X156070000Y-72882500I0J-147500D01*
G01*
X156070000Y-73177500D01*
G75*
G02*
X155922500Y-73325000I-147500J0D01*
G01*
G37*
G36*
G01*
X155922500Y-74295000D02*
X155577500Y-74295000D01*
G75*
G02*
X155430000Y-74147500I0J147500D01*
G01*
X155430000Y-73852500D01*
G75*
G02*
X155577500Y-73705000I147500J0D01*
G01*
X155922500Y-73705000D01*
G75*
G02*
X156070000Y-73852500I0J-147500D01*
G01*
X156070000Y-74147500D01*
G75*
G02*
X155922500Y-74295000I-147500J0D01*
G01*
G37*
%TD*%
%TO.C,R408*%
G36*
G01*
X142172500Y-74320000D02*
X141827500Y-74320000D01*
G75*
G02*
X141680000Y-74172500I0J147500D01*
G01*
X141680000Y-73877500D01*
G75*
G02*
X141827500Y-73730000I147500J0D01*
G01*
X142172500Y-73730000D01*
G75*
G02*
X142320000Y-73877500I0J-147500D01*
G01*
X142320000Y-74172500D01*
G75*
G02*
X142172500Y-74320000I-147500J0D01*
G01*
G37*
G36*
G01*
X142172500Y-73350000D02*
X141827500Y-73350000D01*
G75*
G02*
X141680000Y-73202500I0J147500D01*
G01*
X141680000Y-72907500D01*
G75*
G02*
X141827500Y-72760000I147500J0D01*
G01*
X142172500Y-72760000D01*
G75*
G02*
X142320000Y-72907500I0J-147500D01*
G01*
X142320000Y-73202500D01*
G75*
G02*
X142172500Y-73350000I-147500J0D01*
G01*
G37*
%TD*%
%TO.C,R409*%
G36*
G01*
X143422500Y-73360000D02*
X143077500Y-73360000D01*
G75*
G02*
X142930000Y-73212500I0J147500D01*
G01*
X142930000Y-72917500D01*
G75*
G02*
X143077500Y-72770000I147500J0D01*
G01*
X143422500Y-72770000D01*
G75*
G02*
X143570000Y-72917500I0J-147500D01*
G01*
X143570000Y-73212500D01*
G75*
G02*
X143422500Y-73360000I-147500J0D01*
G01*
G37*
G36*
G01*
X143422500Y-74330000D02*
X143077500Y-74330000D01*
G75*
G02*
X142930000Y-74182500I0J147500D01*
G01*
X142930000Y-73887500D01*
G75*
G02*
X143077500Y-73740000I147500J0D01*
G01*
X143422500Y-73740000D01*
G75*
G02*
X143570000Y-73887500I0J-147500D01*
G01*
X143570000Y-74182500D01*
G75*
G02*
X143422500Y-74330000I-147500J0D01*
G01*
G37*
%TD*%
%TO.C,R410*%
G36*
G01*
X133955000Y-65922500D02*
X133955000Y-65577500D01*
G75*
G02*
X134102500Y-65430000I147500J0D01*
G01*
X134397500Y-65430000D01*
G75*
G02*
X134545000Y-65577500I0J-147500D01*
G01*
X134545000Y-65922500D01*
G75*
G02*
X134397500Y-66070000I-147500J0D01*
G01*
X134102500Y-66070000D01*
G75*
G02*
X133955000Y-65922500I0J147500D01*
G01*
G37*
G36*
G01*
X134925000Y-65922500D02*
X134925000Y-65577500D01*
G75*
G02*
X135072500Y-65430000I147500J0D01*
G01*
X135367500Y-65430000D01*
G75*
G02*
X135515000Y-65577500I0J-147500D01*
G01*
X135515000Y-65922500D01*
G75*
G02*
X135367500Y-66070000I-147500J0D01*
G01*
X135072500Y-66070000D01*
G75*
G02*
X134925000Y-65922500I0J147500D01*
G01*
G37*
%TD*%
%TO.C,R411*%
G36*
G01*
X133955000Y-67172500D02*
X133955000Y-66827500D01*
G75*
G02*
X134102500Y-66680000I147500J0D01*
G01*
X134397500Y-66680000D01*
G75*
G02*
X134545000Y-66827500I0J-147500D01*
G01*
X134545000Y-67172500D01*
G75*
G02*
X134397500Y-67320000I-147500J0D01*
G01*
X134102500Y-67320000D01*
G75*
G02*
X133955000Y-67172500I0J147500D01*
G01*
G37*
G36*
G01*
X134925000Y-67172500D02*
X134925000Y-66827500D01*
G75*
G02*
X135072500Y-66680000I147500J0D01*
G01*
X135367500Y-66680000D01*
G75*
G02*
X135515000Y-66827500I0J-147500D01*
G01*
X135515000Y-67172500D01*
G75*
G02*
X135367500Y-67320000I-147500J0D01*
G01*
X135072500Y-67320000D01*
G75*
G02*
X134925000Y-67172500I0J147500D01*
G01*
G37*
%TD*%
%TO.C,R412*%
G36*
G01*
X133955000Y-39672500D02*
X133955000Y-39327500D01*
G75*
G02*
X134102500Y-39180000I147500J0D01*
G01*
X134397500Y-39180000D01*
G75*
G02*
X134545000Y-39327500I0J-147500D01*
G01*
X134545000Y-39672500D01*
G75*
G02*
X134397500Y-39820000I-147500J0D01*
G01*
X134102500Y-39820000D01*
G75*
G02*
X133955000Y-39672500I0J147500D01*
G01*
G37*
G36*
G01*
X134925000Y-39672500D02*
X134925000Y-39327500D01*
G75*
G02*
X135072500Y-39180000I147500J0D01*
G01*
X135367500Y-39180000D01*
G75*
G02*
X135515000Y-39327500I0J-147500D01*
G01*
X135515000Y-39672500D01*
G75*
G02*
X135367500Y-39820000I-147500J0D01*
G01*
X135072500Y-39820000D01*
G75*
G02*
X134925000Y-39672500I0J147500D01*
G01*
G37*
%TD*%
%TO.C,R413*%
G36*
G01*
X134925000Y-40922500D02*
X134925000Y-40577500D01*
G75*
G02*
X135072500Y-40430000I147500J0D01*
G01*
X135367500Y-40430000D01*
G75*
G02*
X135515000Y-40577500I0J-147500D01*
G01*
X135515000Y-40922500D01*
G75*
G02*
X135367500Y-41070000I-147500J0D01*
G01*
X135072500Y-41070000D01*
G75*
G02*
X134925000Y-40922500I0J147500D01*
G01*
G37*
G36*
G01*
X133955000Y-40922500D02*
X133955000Y-40577500D01*
G75*
G02*
X134102500Y-40430000I147500J0D01*
G01*
X134397500Y-40430000D01*
G75*
G02*
X134545000Y-40577500I0J-147500D01*
G01*
X134545000Y-40922500D01*
G75*
G02*
X134397500Y-41070000I-147500J0D01*
G01*
X134102500Y-41070000D01*
G75*
G02*
X133955000Y-40922500I0J147500D01*
G01*
G37*
%TD*%
%TO.C,R414*%
G36*
G01*
X133955000Y-52947500D02*
X133955000Y-52602500D01*
G75*
G02*
X134102500Y-52455000I147500J0D01*
G01*
X134397500Y-52455000D01*
G75*
G02*
X134545000Y-52602500I0J-147500D01*
G01*
X134545000Y-52947500D01*
G75*
G02*
X134397500Y-53095000I-147500J0D01*
G01*
X134102500Y-53095000D01*
G75*
G02*
X133955000Y-52947500I0J147500D01*
G01*
G37*
G36*
G01*
X134925000Y-52947500D02*
X134925000Y-52602500D01*
G75*
G02*
X135072500Y-52455000I147500J0D01*
G01*
X135367500Y-52455000D01*
G75*
G02*
X135515000Y-52602500I0J-147500D01*
G01*
X135515000Y-52947500D01*
G75*
G02*
X135367500Y-53095000I-147500J0D01*
G01*
X135072500Y-53095000D01*
G75*
G02*
X134925000Y-52947500I0J147500D01*
G01*
G37*
%TD*%
%TO.C,R415*%
G36*
G01*
X134925000Y-54172500D02*
X134925000Y-53827500D01*
G75*
G02*
X135072500Y-53680000I147500J0D01*
G01*
X135367500Y-53680000D01*
G75*
G02*
X135515000Y-53827500I0J-147500D01*
G01*
X135515000Y-54172500D01*
G75*
G02*
X135367500Y-54320000I-147500J0D01*
G01*
X135072500Y-54320000D01*
G75*
G02*
X134925000Y-54172500I0J147500D01*
G01*
G37*
G36*
G01*
X133955000Y-54172500D02*
X133955000Y-53827500D01*
G75*
G02*
X134102500Y-53680000I147500J0D01*
G01*
X134397500Y-53680000D01*
G75*
G02*
X134545000Y-53827500I0J-147500D01*
G01*
X134545000Y-54172500D01*
G75*
G02*
X134397500Y-54320000I-147500J0D01*
G01*
X134102500Y-54320000D01*
G75*
G02*
X133955000Y-54172500I0J147500D01*
G01*
G37*
%TD*%
D20*
%TO.C,SW200*%
X157475000Y-30680000D03*
X154475000Y-30680000D03*
X152975000Y-30680000D03*
D21*
X158875000Y-27820000D03*
X151575000Y-27820000D03*
X151575000Y-30030000D03*
X158875000Y-30030000D03*
%TD*%
D22*
%TO.C,U100*%
X164900000Y-72800000D03*
X164900000Y-73750000D03*
X164900000Y-74700000D03*
X167100000Y-74700000D03*
X167100000Y-72800000D03*
X167100000Y-73750000D03*
%TD*%
%TO.C,U200*%
G36*
G01*
X145750000Y-46925000D02*
X145750000Y-46775000D01*
G75*
G02*
X145825000Y-46700000I75000J0D01*
G01*
X147225000Y-46700000D01*
G75*
G02*
X147300000Y-46775000I0J-75000D01*
G01*
X147300000Y-46925000D01*
G75*
G02*
X147225000Y-47000000I-75000J0D01*
G01*
X145825000Y-47000000D01*
G75*
G02*
X145750000Y-46925000I0J75000D01*
G01*
G37*
G36*
G01*
X145750000Y-47425000D02*
X145750000Y-47275000D01*
G75*
G02*
X145825000Y-47200000I75000J0D01*
G01*
X147225000Y-47200000D01*
G75*
G02*
X147300000Y-47275000I0J-75000D01*
G01*
X147300000Y-47425000D01*
G75*
G02*
X147225000Y-47500000I-75000J0D01*
G01*
X145825000Y-47500000D01*
G75*
G02*
X145750000Y-47425000I0J75000D01*
G01*
G37*
G36*
G01*
X145750000Y-47925000D02*
X145750000Y-47775000D01*
G75*
G02*
X145825000Y-47700000I75000J0D01*
G01*
X147225000Y-47700000D01*
G75*
G02*
X147300000Y-47775000I0J-75000D01*
G01*
X147300000Y-47925000D01*
G75*
G02*
X147225000Y-48000000I-75000J0D01*
G01*
X145825000Y-48000000D01*
G75*
G02*
X145750000Y-47925000I0J75000D01*
G01*
G37*
G36*
G01*
X145750000Y-48425000D02*
X145750000Y-48275000D01*
G75*
G02*
X145825000Y-48200000I75000J0D01*
G01*
X147225000Y-48200000D01*
G75*
G02*
X147300000Y-48275000I0J-75000D01*
G01*
X147300000Y-48425000D01*
G75*
G02*
X147225000Y-48500000I-75000J0D01*
G01*
X145825000Y-48500000D01*
G75*
G02*
X145750000Y-48425000I0J75000D01*
G01*
G37*
G36*
G01*
X145750000Y-48925000D02*
X145750000Y-48775000D01*
G75*
G02*
X145825000Y-48700000I75000J0D01*
G01*
X147225000Y-48700000D01*
G75*
G02*
X147300000Y-48775000I0J-75000D01*
G01*
X147300000Y-48925000D01*
G75*
G02*
X147225000Y-49000000I-75000J0D01*
G01*
X145825000Y-49000000D01*
G75*
G02*
X145750000Y-48925000I0J75000D01*
G01*
G37*
G36*
G01*
X145750000Y-49425000D02*
X145750000Y-49275000D01*
G75*
G02*
X145825000Y-49200000I75000J0D01*
G01*
X147225000Y-49200000D01*
G75*
G02*
X147300000Y-49275000I0J-75000D01*
G01*
X147300000Y-49425000D01*
G75*
G02*
X147225000Y-49500000I-75000J0D01*
G01*
X145825000Y-49500000D01*
G75*
G02*
X145750000Y-49425000I0J75000D01*
G01*
G37*
G36*
G01*
X145750000Y-49925000D02*
X145750000Y-49775000D01*
G75*
G02*
X145825000Y-49700000I75000J0D01*
G01*
X147225000Y-49700000D01*
G75*
G02*
X147300000Y-49775000I0J-75000D01*
G01*
X147300000Y-49925000D01*
G75*
G02*
X147225000Y-50000000I-75000J0D01*
G01*
X145825000Y-50000000D01*
G75*
G02*
X145750000Y-49925000I0J75000D01*
G01*
G37*
G36*
G01*
X145750000Y-50425000D02*
X145750000Y-50275000D01*
G75*
G02*
X145825000Y-50200000I75000J0D01*
G01*
X147225000Y-50200000D01*
G75*
G02*
X147300000Y-50275000I0J-75000D01*
G01*
X147300000Y-50425000D01*
G75*
G02*
X147225000Y-50500000I-75000J0D01*
G01*
X145825000Y-50500000D01*
G75*
G02*
X145750000Y-50425000I0J75000D01*
G01*
G37*
G36*
G01*
X145750000Y-50925000D02*
X145750000Y-50775000D01*
G75*
G02*
X145825000Y-50700000I75000J0D01*
G01*
X147225000Y-50700000D01*
G75*
G02*
X147300000Y-50775000I0J-75000D01*
G01*
X147300000Y-50925000D01*
G75*
G02*
X147225000Y-51000000I-75000J0D01*
G01*
X145825000Y-51000000D01*
G75*
G02*
X145750000Y-50925000I0J75000D01*
G01*
G37*
G36*
G01*
X145750000Y-51425000D02*
X145750000Y-51275000D01*
G75*
G02*
X145825000Y-51200000I75000J0D01*
G01*
X147225000Y-51200000D01*
G75*
G02*
X147300000Y-51275000I0J-75000D01*
G01*
X147300000Y-51425000D01*
G75*
G02*
X147225000Y-51500000I-75000J0D01*
G01*
X145825000Y-51500000D01*
G75*
G02*
X145750000Y-51425000I0J75000D01*
G01*
G37*
G36*
G01*
X145750000Y-51925000D02*
X145750000Y-51775000D01*
G75*
G02*
X145825000Y-51700000I75000J0D01*
G01*
X147225000Y-51700000D01*
G75*
G02*
X147300000Y-51775000I0J-75000D01*
G01*
X147300000Y-51925000D01*
G75*
G02*
X147225000Y-52000000I-75000J0D01*
G01*
X145825000Y-52000000D01*
G75*
G02*
X145750000Y-51925000I0J75000D01*
G01*
G37*
G36*
G01*
X145750000Y-52425000D02*
X145750000Y-52275000D01*
G75*
G02*
X145825000Y-52200000I75000J0D01*
G01*
X147225000Y-52200000D01*
G75*
G02*
X147300000Y-52275000I0J-75000D01*
G01*
X147300000Y-52425000D01*
G75*
G02*
X147225000Y-52500000I-75000J0D01*
G01*
X145825000Y-52500000D01*
G75*
G02*
X145750000Y-52425000I0J75000D01*
G01*
G37*
G36*
G01*
X145750000Y-52925000D02*
X145750000Y-52775000D01*
G75*
G02*
X145825000Y-52700000I75000J0D01*
G01*
X147225000Y-52700000D01*
G75*
G02*
X147300000Y-52775000I0J-75000D01*
G01*
X147300000Y-52925000D01*
G75*
G02*
X147225000Y-53000000I-75000J0D01*
G01*
X145825000Y-53000000D01*
G75*
G02*
X145750000Y-52925000I0J75000D01*
G01*
G37*
G36*
G01*
X145750000Y-53425000D02*
X145750000Y-53275000D01*
G75*
G02*
X145825000Y-53200000I75000J0D01*
G01*
X147225000Y-53200000D01*
G75*
G02*
X147300000Y-53275000I0J-75000D01*
G01*
X147300000Y-53425000D01*
G75*
G02*
X147225000Y-53500000I-75000J0D01*
G01*
X145825000Y-53500000D01*
G75*
G02*
X145750000Y-53425000I0J75000D01*
G01*
G37*
G36*
G01*
X145750000Y-53925000D02*
X145750000Y-53775000D01*
G75*
G02*
X145825000Y-53700000I75000J0D01*
G01*
X147225000Y-53700000D01*
G75*
G02*
X147300000Y-53775000I0J-75000D01*
G01*
X147300000Y-53925000D01*
G75*
G02*
X147225000Y-54000000I-75000J0D01*
G01*
X145825000Y-54000000D01*
G75*
G02*
X145750000Y-53925000I0J75000D01*
G01*
G37*
G36*
G01*
X145750000Y-54425000D02*
X145750000Y-54275000D01*
G75*
G02*
X145825000Y-54200000I75000J0D01*
G01*
X147225000Y-54200000D01*
G75*
G02*
X147300000Y-54275000I0J-75000D01*
G01*
X147300000Y-54425000D01*
G75*
G02*
X147225000Y-54500000I-75000J0D01*
G01*
X145825000Y-54500000D01*
G75*
G02*
X145750000Y-54425000I0J75000D01*
G01*
G37*
G36*
G01*
X148300000Y-56975000D02*
X148300000Y-55575000D01*
G75*
G02*
X148375000Y-55500000I75000J0D01*
G01*
X148525000Y-55500000D01*
G75*
G02*
X148600000Y-55575000I0J-75000D01*
G01*
X148600000Y-56975000D01*
G75*
G02*
X148525000Y-57050000I-75000J0D01*
G01*
X148375000Y-57050000D01*
G75*
G02*
X148300000Y-56975000I0J75000D01*
G01*
G37*
G36*
G01*
X148800000Y-56975000D02*
X148800000Y-55575000D01*
G75*
G02*
X148875000Y-55500000I75000J0D01*
G01*
X149025000Y-55500000D01*
G75*
G02*
X149100000Y-55575000I0J-75000D01*
G01*
X149100000Y-56975000D01*
G75*
G02*
X149025000Y-57050000I-75000J0D01*
G01*
X148875000Y-57050000D01*
G75*
G02*
X148800000Y-56975000I0J75000D01*
G01*
G37*
G36*
G01*
X149300000Y-56975000D02*
X149300000Y-55575000D01*
G75*
G02*
X149375000Y-55500000I75000J0D01*
G01*
X149525000Y-55500000D01*
G75*
G02*
X149600000Y-55575000I0J-75000D01*
G01*
X149600000Y-56975000D01*
G75*
G02*
X149525000Y-57050000I-75000J0D01*
G01*
X149375000Y-57050000D01*
G75*
G02*
X149300000Y-56975000I0J75000D01*
G01*
G37*
G36*
G01*
X149800000Y-56975000D02*
X149800000Y-55575000D01*
G75*
G02*
X149875000Y-55500000I75000J0D01*
G01*
X150025000Y-55500000D01*
G75*
G02*
X150100000Y-55575000I0J-75000D01*
G01*
X150100000Y-56975000D01*
G75*
G02*
X150025000Y-57050000I-75000J0D01*
G01*
X149875000Y-57050000D01*
G75*
G02*
X149800000Y-56975000I0J75000D01*
G01*
G37*
G36*
G01*
X150300000Y-56975000D02*
X150300000Y-55575000D01*
G75*
G02*
X150375000Y-55500000I75000J0D01*
G01*
X150525000Y-55500000D01*
G75*
G02*
X150600000Y-55575000I0J-75000D01*
G01*
X150600000Y-56975000D01*
G75*
G02*
X150525000Y-57050000I-75000J0D01*
G01*
X150375000Y-57050000D01*
G75*
G02*
X150300000Y-56975000I0J75000D01*
G01*
G37*
G36*
G01*
X150800000Y-56975000D02*
X150800000Y-55575000D01*
G75*
G02*
X150875000Y-55500000I75000J0D01*
G01*
X151025000Y-55500000D01*
G75*
G02*
X151100000Y-55575000I0J-75000D01*
G01*
X151100000Y-56975000D01*
G75*
G02*
X151025000Y-57050000I-75000J0D01*
G01*
X150875000Y-57050000D01*
G75*
G02*
X150800000Y-56975000I0J75000D01*
G01*
G37*
G36*
G01*
X151300000Y-56975000D02*
X151300000Y-55575000D01*
G75*
G02*
X151375000Y-55500000I75000J0D01*
G01*
X151525000Y-55500000D01*
G75*
G02*
X151600000Y-55575000I0J-75000D01*
G01*
X151600000Y-56975000D01*
G75*
G02*
X151525000Y-57050000I-75000J0D01*
G01*
X151375000Y-57050000D01*
G75*
G02*
X151300000Y-56975000I0J75000D01*
G01*
G37*
G36*
G01*
X151800000Y-56975000D02*
X151800000Y-55575000D01*
G75*
G02*
X151875000Y-55500000I75000J0D01*
G01*
X152025000Y-55500000D01*
G75*
G02*
X152100000Y-55575000I0J-75000D01*
G01*
X152100000Y-56975000D01*
G75*
G02*
X152025000Y-57050000I-75000J0D01*
G01*
X151875000Y-57050000D01*
G75*
G02*
X151800000Y-56975000I0J75000D01*
G01*
G37*
G36*
G01*
X152300000Y-56975000D02*
X152300000Y-55575000D01*
G75*
G02*
X152375000Y-55500000I75000J0D01*
G01*
X152525000Y-55500000D01*
G75*
G02*
X152600000Y-55575000I0J-75000D01*
G01*
X152600000Y-56975000D01*
G75*
G02*
X152525000Y-57050000I-75000J0D01*
G01*
X152375000Y-57050000D01*
G75*
G02*
X152300000Y-56975000I0J75000D01*
G01*
G37*
G36*
G01*
X152800000Y-56975000D02*
X152800000Y-55575000D01*
G75*
G02*
X152875000Y-55500000I75000J0D01*
G01*
X153025000Y-55500000D01*
G75*
G02*
X153100000Y-55575000I0J-75000D01*
G01*
X153100000Y-56975000D01*
G75*
G02*
X153025000Y-57050000I-75000J0D01*
G01*
X152875000Y-57050000D01*
G75*
G02*
X152800000Y-56975000I0J75000D01*
G01*
G37*
G36*
G01*
X153300000Y-56975000D02*
X153300000Y-55575000D01*
G75*
G02*
X153375000Y-55500000I75000J0D01*
G01*
X153525000Y-55500000D01*
G75*
G02*
X153600000Y-55575000I0J-75000D01*
G01*
X153600000Y-56975000D01*
G75*
G02*
X153525000Y-57050000I-75000J0D01*
G01*
X153375000Y-57050000D01*
G75*
G02*
X153300000Y-56975000I0J75000D01*
G01*
G37*
G36*
G01*
X153800000Y-56975000D02*
X153800000Y-55575000D01*
G75*
G02*
X153875000Y-55500000I75000J0D01*
G01*
X154025000Y-55500000D01*
G75*
G02*
X154100000Y-55575000I0J-75000D01*
G01*
X154100000Y-56975000D01*
G75*
G02*
X154025000Y-57050000I-75000J0D01*
G01*
X153875000Y-57050000D01*
G75*
G02*
X153800000Y-56975000I0J75000D01*
G01*
G37*
G36*
G01*
X154300000Y-56975000D02*
X154300000Y-55575000D01*
G75*
G02*
X154375000Y-55500000I75000J0D01*
G01*
X154525000Y-55500000D01*
G75*
G02*
X154600000Y-55575000I0J-75000D01*
G01*
X154600000Y-56975000D01*
G75*
G02*
X154525000Y-57050000I-75000J0D01*
G01*
X154375000Y-57050000D01*
G75*
G02*
X154300000Y-56975000I0J75000D01*
G01*
G37*
G36*
G01*
X154800000Y-56975000D02*
X154800000Y-55575000D01*
G75*
G02*
X154875000Y-55500000I75000J0D01*
G01*
X155025000Y-55500000D01*
G75*
G02*
X155100000Y-55575000I0J-75000D01*
G01*
X155100000Y-56975000D01*
G75*
G02*
X155025000Y-57050000I-75000J0D01*
G01*
X154875000Y-57050000D01*
G75*
G02*
X154800000Y-56975000I0J75000D01*
G01*
G37*
G36*
G01*
X155300000Y-56975000D02*
X155300000Y-55575000D01*
G75*
G02*
X155375000Y-55500000I75000J0D01*
G01*
X155525000Y-55500000D01*
G75*
G02*
X155600000Y-55575000I0J-75000D01*
G01*
X155600000Y-56975000D01*
G75*
G02*
X155525000Y-57050000I-75000J0D01*
G01*
X155375000Y-57050000D01*
G75*
G02*
X155300000Y-56975000I0J75000D01*
G01*
G37*
G36*
G01*
X155800000Y-56975000D02*
X155800000Y-55575000D01*
G75*
G02*
X155875000Y-55500000I75000J0D01*
G01*
X156025000Y-55500000D01*
G75*
G02*
X156100000Y-55575000I0J-75000D01*
G01*
X156100000Y-56975000D01*
G75*
G02*
X156025000Y-57050000I-75000J0D01*
G01*
X155875000Y-57050000D01*
G75*
G02*
X155800000Y-56975000I0J75000D01*
G01*
G37*
G36*
G01*
X157100000Y-54425000D02*
X157100000Y-54275000D01*
G75*
G02*
X157175000Y-54200000I75000J0D01*
G01*
X158575000Y-54200000D01*
G75*
G02*
X158650000Y-54275000I0J-75000D01*
G01*
X158650000Y-54425000D01*
G75*
G02*
X158575000Y-54500000I-75000J0D01*
G01*
X157175000Y-54500000D01*
G75*
G02*
X157100000Y-54425000I0J75000D01*
G01*
G37*
G36*
G01*
X157100000Y-53925000D02*
X157100000Y-53775000D01*
G75*
G02*
X157175000Y-53700000I75000J0D01*
G01*
X158575000Y-53700000D01*
G75*
G02*
X158650000Y-53775000I0J-75000D01*
G01*
X158650000Y-53925000D01*
G75*
G02*
X158575000Y-54000000I-75000J0D01*
G01*
X157175000Y-54000000D01*
G75*
G02*
X157100000Y-53925000I0J75000D01*
G01*
G37*
G36*
G01*
X157100000Y-53425000D02*
X157100000Y-53275000D01*
G75*
G02*
X157175000Y-53200000I75000J0D01*
G01*
X158575000Y-53200000D01*
G75*
G02*
X158650000Y-53275000I0J-75000D01*
G01*
X158650000Y-53425000D01*
G75*
G02*
X158575000Y-53500000I-75000J0D01*
G01*
X157175000Y-53500000D01*
G75*
G02*
X157100000Y-53425000I0J75000D01*
G01*
G37*
G36*
G01*
X157100000Y-52925000D02*
X157100000Y-52775000D01*
G75*
G02*
X157175000Y-52700000I75000J0D01*
G01*
X158575000Y-52700000D01*
G75*
G02*
X158650000Y-52775000I0J-75000D01*
G01*
X158650000Y-52925000D01*
G75*
G02*
X158575000Y-53000000I-75000J0D01*
G01*
X157175000Y-53000000D01*
G75*
G02*
X157100000Y-52925000I0J75000D01*
G01*
G37*
G36*
G01*
X157100000Y-52425000D02*
X157100000Y-52275000D01*
G75*
G02*
X157175000Y-52200000I75000J0D01*
G01*
X158575000Y-52200000D01*
G75*
G02*
X158650000Y-52275000I0J-75000D01*
G01*
X158650000Y-52425000D01*
G75*
G02*
X158575000Y-52500000I-75000J0D01*
G01*
X157175000Y-52500000D01*
G75*
G02*
X157100000Y-52425000I0J75000D01*
G01*
G37*
G36*
G01*
X157100000Y-51925000D02*
X157100000Y-51775000D01*
G75*
G02*
X157175000Y-51700000I75000J0D01*
G01*
X158575000Y-51700000D01*
G75*
G02*
X158650000Y-51775000I0J-75000D01*
G01*
X158650000Y-51925000D01*
G75*
G02*
X158575000Y-52000000I-75000J0D01*
G01*
X157175000Y-52000000D01*
G75*
G02*
X157100000Y-51925000I0J75000D01*
G01*
G37*
G36*
G01*
X157100000Y-51425000D02*
X157100000Y-51275000D01*
G75*
G02*
X157175000Y-51200000I75000J0D01*
G01*
X158575000Y-51200000D01*
G75*
G02*
X158650000Y-51275000I0J-75000D01*
G01*
X158650000Y-51425000D01*
G75*
G02*
X158575000Y-51500000I-75000J0D01*
G01*
X157175000Y-51500000D01*
G75*
G02*
X157100000Y-51425000I0J75000D01*
G01*
G37*
G36*
G01*
X157100000Y-50925000D02*
X157100000Y-50775000D01*
G75*
G02*
X157175000Y-50700000I75000J0D01*
G01*
X158575000Y-50700000D01*
G75*
G02*
X158650000Y-50775000I0J-75000D01*
G01*
X158650000Y-50925000D01*
G75*
G02*
X158575000Y-51000000I-75000J0D01*
G01*
X157175000Y-51000000D01*
G75*
G02*
X157100000Y-50925000I0J75000D01*
G01*
G37*
G36*
G01*
X157100000Y-50425000D02*
X157100000Y-50275000D01*
G75*
G02*
X157175000Y-50200000I75000J0D01*
G01*
X158575000Y-50200000D01*
G75*
G02*
X158650000Y-50275000I0J-75000D01*
G01*
X158650000Y-50425000D01*
G75*
G02*
X158575000Y-50500000I-75000J0D01*
G01*
X157175000Y-50500000D01*
G75*
G02*
X157100000Y-50425000I0J75000D01*
G01*
G37*
G36*
G01*
X157100000Y-49925000D02*
X157100000Y-49775000D01*
G75*
G02*
X157175000Y-49700000I75000J0D01*
G01*
X158575000Y-49700000D01*
G75*
G02*
X158650000Y-49775000I0J-75000D01*
G01*
X158650000Y-49925000D01*
G75*
G02*
X158575000Y-50000000I-75000J0D01*
G01*
X157175000Y-50000000D01*
G75*
G02*
X157100000Y-49925000I0J75000D01*
G01*
G37*
G36*
G01*
X157100000Y-49425000D02*
X157100000Y-49275000D01*
G75*
G02*
X157175000Y-49200000I75000J0D01*
G01*
X158575000Y-49200000D01*
G75*
G02*
X158650000Y-49275000I0J-75000D01*
G01*
X158650000Y-49425000D01*
G75*
G02*
X158575000Y-49500000I-75000J0D01*
G01*
X157175000Y-49500000D01*
G75*
G02*
X157100000Y-49425000I0J75000D01*
G01*
G37*
G36*
G01*
X157100000Y-48925000D02*
X157100000Y-48775000D01*
G75*
G02*
X157175000Y-48700000I75000J0D01*
G01*
X158575000Y-48700000D01*
G75*
G02*
X158650000Y-48775000I0J-75000D01*
G01*
X158650000Y-48925000D01*
G75*
G02*
X158575000Y-49000000I-75000J0D01*
G01*
X157175000Y-49000000D01*
G75*
G02*
X157100000Y-48925000I0J75000D01*
G01*
G37*
G36*
G01*
X157100000Y-48425000D02*
X157100000Y-48275000D01*
G75*
G02*
X157175000Y-48200000I75000J0D01*
G01*
X158575000Y-48200000D01*
G75*
G02*
X158650000Y-48275000I0J-75000D01*
G01*
X158650000Y-48425000D01*
G75*
G02*
X158575000Y-48500000I-75000J0D01*
G01*
X157175000Y-48500000D01*
G75*
G02*
X157100000Y-48425000I0J75000D01*
G01*
G37*
G36*
G01*
X157100000Y-47925000D02*
X157100000Y-47775000D01*
G75*
G02*
X157175000Y-47700000I75000J0D01*
G01*
X158575000Y-47700000D01*
G75*
G02*
X158650000Y-47775000I0J-75000D01*
G01*
X158650000Y-47925000D01*
G75*
G02*
X158575000Y-48000000I-75000J0D01*
G01*
X157175000Y-48000000D01*
G75*
G02*
X157100000Y-47925000I0J75000D01*
G01*
G37*
G36*
G01*
X157100000Y-47425000D02*
X157100000Y-47275000D01*
G75*
G02*
X157175000Y-47200000I75000J0D01*
G01*
X158575000Y-47200000D01*
G75*
G02*
X158650000Y-47275000I0J-75000D01*
G01*
X158650000Y-47425000D01*
G75*
G02*
X158575000Y-47500000I-75000J0D01*
G01*
X157175000Y-47500000D01*
G75*
G02*
X157100000Y-47425000I0J75000D01*
G01*
G37*
G36*
G01*
X157100000Y-46925000D02*
X157100000Y-46775000D01*
G75*
G02*
X157175000Y-46700000I75000J0D01*
G01*
X158575000Y-46700000D01*
G75*
G02*
X158650000Y-46775000I0J-75000D01*
G01*
X158650000Y-46925000D01*
G75*
G02*
X158575000Y-47000000I-75000J0D01*
G01*
X157175000Y-47000000D01*
G75*
G02*
X157100000Y-46925000I0J75000D01*
G01*
G37*
G36*
G01*
X155800000Y-45625000D02*
X155800000Y-44225000D01*
G75*
G02*
X155875000Y-44150000I75000J0D01*
G01*
X156025000Y-44150000D01*
G75*
G02*
X156100000Y-44225000I0J-75000D01*
G01*
X156100000Y-45625000D01*
G75*
G02*
X156025000Y-45700000I-75000J0D01*
G01*
X155875000Y-45700000D01*
G75*
G02*
X155800000Y-45625000I0J75000D01*
G01*
G37*
G36*
G01*
X155300000Y-45625000D02*
X155300000Y-44225000D01*
G75*
G02*
X155375000Y-44150000I75000J0D01*
G01*
X155525000Y-44150000D01*
G75*
G02*
X155600000Y-44225000I0J-75000D01*
G01*
X155600000Y-45625000D01*
G75*
G02*
X155525000Y-45700000I-75000J0D01*
G01*
X155375000Y-45700000D01*
G75*
G02*
X155300000Y-45625000I0J75000D01*
G01*
G37*
G36*
G01*
X154800000Y-45625000D02*
X154800000Y-44225000D01*
G75*
G02*
X154875000Y-44150000I75000J0D01*
G01*
X155025000Y-44150000D01*
G75*
G02*
X155100000Y-44225000I0J-75000D01*
G01*
X155100000Y-45625000D01*
G75*
G02*
X155025000Y-45700000I-75000J0D01*
G01*
X154875000Y-45700000D01*
G75*
G02*
X154800000Y-45625000I0J75000D01*
G01*
G37*
G36*
G01*
X154300000Y-45625000D02*
X154300000Y-44225000D01*
G75*
G02*
X154375000Y-44150000I75000J0D01*
G01*
X154525000Y-44150000D01*
G75*
G02*
X154600000Y-44225000I0J-75000D01*
G01*
X154600000Y-45625000D01*
G75*
G02*
X154525000Y-45700000I-75000J0D01*
G01*
X154375000Y-45700000D01*
G75*
G02*
X154300000Y-45625000I0J75000D01*
G01*
G37*
G36*
G01*
X153800000Y-45625000D02*
X153800000Y-44225000D01*
G75*
G02*
X153875000Y-44150000I75000J0D01*
G01*
X154025000Y-44150000D01*
G75*
G02*
X154100000Y-44225000I0J-75000D01*
G01*
X154100000Y-45625000D01*
G75*
G02*
X154025000Y-45700000I-75000J0D01*
G01*
X153875000Y-45700000D01*
G75*
G02*
X153800000Y-45625000I0J75000D01*
G01*
G37*
G36*
G01*
X153300000Y-45625000D02*
X153300000Y-44225000D01*
G75*
G02*
X153375000Y-44150000I75000J0D01*
G01*
X153525000Y-44150000D01*
G75*
G02*
X153600000Y-44225000I0J-75000D01*
G01*
X153600000Y-45625000D01*
G75*
G02*
X153525000Y-45700000I-75000J0D01*
G01*
X153375000Y-45700000D01*
G75*
G02*
X153300000Y-45625000I0J75000D01*
G01*
G37*
G36*
G01*
X152800000Y-45625000D02*
X152800000Y-44225000D01*
G75*
G02*
X152875000Y-44150000I75000J0D01*
G01*
X153025000Y-44150000D01*
G75*
G02*
X153100000Y-44225000I0J-75000D01*
G01*
X153100000Y-45625000D01*
G75*
G02*
X153025000Y-45700000I-75000J0D01*
G01*
X152875000Y-45700000D01*
G75*
G02*
X152800000Y-45625000I0J75000D01*
G01*
G37*
G36*
G01*
X152300000Y-45625000D02*
X152300000Y-44225000D01*
G75*
G02*
X152375000Y-44150000I75000J0D01*
G01*
X152525000Y-44150000D01*
G75*
G02*
X152600000Y-44225000I0J-75000D01*
G01*
X152600000Y-45625000D01*
G75*
G02*
X152525000Y-45700000I-75000J0D01*
G01*
X152375000Y-45700000D01*
G75*
G02*
X152300000Y-45625000I0J75000D01*
G01*
G37*
G36*
G01*
X151800000Y-45625000D02*
X151800000Y-44225000D01*
G75*
G02*
X151875000Y-44150000I75000J0D01*
G01*
X152025000Y-44150000D01*
G75*
G02*
X152100000Y-44225000I0J-75000D01*
G01*
X152100000Y-45625000D01*
G75*
G02*
X152025000Y-45700000I-75000J0D01*
G01*
X151875000Y-45700000D01*
G75*
G02*
X151800000Y-45625000I0J75000D01*
G01*
G37*
G36*
G01*
X151300000Y-45625000D02*
X151300000Y-44225000D01*
G75*
G02*
X151375000Y-44150000I75000J0D01*
G01*
X151525000Y-44150000D01*
G75*
G02*
X151600000Y-44225000I0J-75000D01*
G01*
X151600000Y-45625000D01*
G75*
G02*
X151525000Y-45700000I-75000J0D01*
G01*
X151375000Y-45700000D01*
G75*
G02*
X151300000Y-45625000I0J75000D01*
G01*
G37*
G36*
G01*
X150800000Y-45625000D02*
X150800000Y-44225000D01*
G75*
G02*
X150875000Y-44150000I75000J0D01*
G01*
X151025000Y-44150000D01*
G75*
G02*
X151100000Y-44225000I0J-75000D01*
G01*
X151100000Y-45625000D01*
G75*
G02*
X151025000Y-45700000I-75000J0D01*
G01*
X150875000Y-45700000D01*
G75*
G02*
X150800000Y-45625000I0J75000D01*
G01*
G37*
G36*
G01*
X150300000Y-45625000D02*
X150300000Y-44225000D01*
G75*
G02*
X150375000Y-44150000I75000J0D01*
G01*
X150525000Y-44150000D01*
G75*
G02*
X150600000Y-44225000I0J-75000D01*
G01*
X150600000Y-45625000D01*
G75*
G02*
X150525000Y-45700000I-75000J0D01*
G01*
X150375000Y-45700000D01*
G75*
G02*
X150300000Y-45625000I0J75000D01*
G01*
G37*
G36*
G01*
X149800000Y-45625000D02*
X149800000Y-44225000D01*
G75*
G02*
X149875000Y-44150000I75000J0D01*
G01*
X150025000Y-44150000D01*
G75*
G02*
X150100000Y-44225000I0J-75000D01*
G01*
X150100000Y-45625000D01*
G75*
G02*
X150025000Y-45700000I-75000J0D01*
G01*
X149875000Y-45700000D01*
G75*
G02*
X149800000Y-45625000I0J75000D01*
G01*
G37*
G36*
G01*
X149300000Y-45625000D02*
X149300000Y-44225000D01*
G75*
G02*
X149375000Y-44150000I75000J0D01*
G01*
X149525000Y-44150000D01*
G75*
G02*
X149600000Y-44225000I0J-75000D01*
G01*
X149600000Y-45625000D01*
G75*
G02*
X149525000Y-45700000I-75000J0D01*
G01*
X149375000Y-45700000D01*
G75*
G02*
X149300000Y-45625000I0J75000D01*
G01*
G37*
G36*
G01*
X148800000Y-45625000D02*
X148800000Y-44225000D01*
G75*
G02*
X148875000Y-44150000I75000J0D01*
G01*
X149025000Y-44150000D01*
G75*
G02*
X149100000Y-44225000I0J-75000D01*
G01*
X149100000Y-45625000D01*
G75*
G02*
X149025000Y-45700000I-75000J0D01*
G01*
X148875000Y-45700000D01*
G75*
G02*
X148800000Y-45625000I0J75000D01*
G01*
G37*
G36*
G01*
X148300000Y-45625000D02*
X148300000Y-44225000D01*
G75*
G02*
X148375000Y-44150000I75000J0D01*
G01*
X148525000Y-44150000D01*
G75*
G02*
X148600000Y-44225000I0J-75000D01*
G01*
X148600000Y-45625000D01*
G75*
G02*
X148525000Y-45700000I-75000J0D01*
G01*
X148375000Y-45700000D01*
G75*
G02*
X148300000Y-45625000I0J75000D01*
G01*
G37*
%TD*%
D23*
%TO.C,U300*%
X159725000Y-39900000D03*
X157775000Y-38300000D03*
X158425000Y-38300000D03*
X159075000Y-38300000D03*
X157775000Y-39900000D03*
X158425000Y-39900000D03*
X159075000Y-39900000D03*
X159725000Y-38300000D03*
%TD*%
D24*
%TO.C,Y200*%
X140350000Y-47750000D03*
X140350000Y-49950000D03*
X142050000Y-49950000D03*
X142050000Y-47750000D03*
%TD*%
M02*
