%TF.GenerationSoftware,KiCad,Pcbnew,(5.1.6)-1*%
%TF.CreationDate,2020-10-05T02:21:01+02:00*%
%TF.ProjectId,RBoard,52426f61-7264-42e6-9b69-6361645f7063,rev?*%
%TF.SameCoordinates,Original*%
%TF.FileFunction,Soldermask,Bot*%
%TF.FilePolarity,Negative*%
%FSLAX46Y46*%
G04 Gerber Fmt 4.6, Leading zero omitted, Abs format (unit mm)*
G04 Created by KiCad (PCBNEW (5.1.6)-1) date 2020-10-05 02:21:01*
%MOMM*%
%LPD*%
G01*
G04 APERTURE LIST*
%ADD10O,1.850000X1.600000*%
%ADD11C,1.252000*%
%ADD12C,3.300000*%
%ADD13O,1.400000X0.900000*%
%ADD14O,0.900000X1.400000*%
%ADD15C,1.000000*%
G04 APERTURE END LIST*
D10*
%TO.C,J402*%
X180375000Y-37950000D03*
X180375000Y-44550000D03*
%TD*%
D11*
%TO.C,REF\u002A\u002A*%
X132500000Y-34250000D03*
%TD*%
%TO.C,REF\u002A\u002A*%
X177500000Y-72250000D03*
%TD*%
D12*
%TO.C,H4*%
X177500000Y-75750000D03*
%TD*%
%TO.C,H3*%
X177500000Y-30750000D03*
%TD*%
%TO.C,H2*%
X132500000Y-30750000D03*
%TD*%
%TO.C,H1*%
X132500000Y-75750000D03*
%TD*%
%TO.C,J400*%
G36*
G01*
X177975000Y-66200000D02*
X177025000Y-66200000D01*
G75*
G02*
X176800000Y-65975000I0J225000D01*
G01*
X176800000Y-65525000D01*
G75*
G02*
X177025000Y-65300000I225000J0D01*
G01*
X177975000Y-65300000D01*
G75*
G02*
X178200000Y-65525000I0J-225000D01*
G01*
X178200000Y-65975000D01*
G75*
G02*
X177975000Y-66200000I-225000J0D01*
G01*
G37*
D13*
X177500000Y-64500000D03*
%TD*%
%TO.C,J403*%
G36*
G01*
X144200000Y-30275000D02*
X144200000Y-31225000D01*
G75*
G02*
X143975000Y-31450000I-225000J0D01*
G01*
X143525000Y-31450000D01*
G75*
G02*
X143300000Y-31225000I0J225000D01*
G01*
X143300000Y-30275000D01*
G75*
G02*
X143525000Y-30050000I225000J0D01*
G01*
X143975000Y-30050000D01*
G75*
G02*
X144200000Y-30275000I0J-225000D01*
G01*
G37*
D14*
X142500000Y-30750000D03*
X141250000Y-30750000D03*
X140000000Y-30750000D03*
%TD*%
%TO.C,J404*%
X157000000Y-75750000D03*
X155750000Y-75750000D03*
X154500000Y-75750000D03*
G36*
G01*
X152800000Y-76225000D02*
X152800000Y-75275000D01*
G75*
G02*
X153025000Y-75050000I225000J0D01*
G01*
X153475000Y-75050000D01*
G75*
G02*
X153700000Y-75275000I0J-225000D01*
G01*
X153700000Y-76225000D01*
G75*
G02*
X153475000Y-76450000I-225000J0D01*
G01*
X153025000Y-76450000D01*
G75*
G02*
X152800000Y-76225000I0J225000D01*
G01*
G37*
%TD*%
%TO.C,J405*%
X144500000Y-75750000D03*
X143250000Y-75750000D03*
X142000000Y-75750000D03*
G36*
G01*
X140300000Y-76225000D02*
X140300000Y-75275000D01*
G75*
G02*
X140525000Y-75050000I225000J0D01*
G01*
X140975000Y-75050000D01*
G75*
G02*
X141200000Y-75275000I0J-225000D01*
G01*
X141200000Y-76225000D01*
G75*
G02*
X140975000Y-76450000I-225000J0D01*
G01*
X140525000Y-76450000D01*
G75*
G02*
X140300000Y-76225000I0J225000D01*
G01*
G37*
%TD*%
%TO.C,J406*%
G36*
G01*
X132025000Y-64050000D02*
X132975000Y-64050000D01*
G75*
G02*
X133200000Y-64275000I0J-225000D01*
G01*
X133200000Y-64725000D01*
G75*
G02*
X132975000Y-64950000I-225000J0D01*
G01*
X132025000Y-64950000D01*
G75*
G02*
X131800000Y-64725000I0J225000D01*
G01*
X131800000Y-64275000D01*
G75*
G02*
X132025000Y-64050000I225000J0D01*
G01*
G37*
D13*
X132500000Y-65750000D03*
X132500000Y-67000000D03*
X132500000Y-68250000D03*
%TD*%
%TO.C,J407*%
X132500000Y-42000000D03*
X132500000Y-40750000D03*
X132500000Y-39500000D03*
G36*
G01*
X132025000Y-37800000D02*
X132975000Y-37800000D01*
G75*
G02*
X133200000Y-38025000I0J-225000D01*
G01*
X133200000Y-38475000D01*
G75*
G02*
X132975000Y-38700000I-225000J0D01*
G01*
X132025000Y-38700000D01*
G75*
G02*
X131800000Y-38475000I0J225000D01*
G01*
X131800000Y-38025000D01*
G75*
G02*
X132025000Y-37800000I225000J0D01*
G01*
G37*
%TD*%
%TO.C,J408*%
G36*
G01*
X132025000Y-51050000D02*
X132975000Y-51050000D01*
G75*
G02*
X133200000Y-51275000I0J-225000D01*
G01*
X133200000Y-51725000D01*
G75*
G02*
X132975000Y-51950000I-225000J0D01*
G01*
X132025000Y-51950000D01*
G75*
G02*
X131800000Y-51725000I0J225000D01*
G01*
X131800000Y-51275000D01*
G75*
G02*
X132025000Y-51050000I225000J0D01*
G01*
G37*
X132500000Y-52750000D03*
X132500000Y-54000000D03*
X132500000Y-55250000D03*
%TD*%
D15*
%TO.C,SW200*%
X156725000Y-28920000D03*
X153725000Y-28920000D03*
%TD*%
M02*
