M48
; DRILL file {KiCad (5.1.7)-1} date 11/11/20 21:47:43
; FORMAT={-:-/ absolute / inch / decimal}
; #@! TF.CreationDate,2020-11-11T21:47:43+01:00
; #@! TF.GenerationSoftware,Kicad,Pcbnew,(5.1.7)-1
; #@! TF.FileFunction,Plated,1,4,PTH
FMAT,2
INCH
T1C0.0140
T2C0.0157
T3C0.0197
T4C0.0217
T5C0.0335
%
G90
G05
T1
X5.4724Y-1.7618
X5.4724Y-1.8012
X5.4724Y-1.8406
X5.4724Y-1.8799
X5.4724Y-1.9193
X5.4724Y-1.9587
X5.4724Y-1.998
X5.4724Y-2.0374
X5.4724Y-2.0768
X5.5118Y-1.7618
X5.5118Y-2.0768
X5.5512Y-1.7618
X5.5512Y-2.0768
X5.5906Y-1.7618
X5.5906Y-2.0768
X5.6299Y-1.7618
T2
X5.4459Y-1.3179
X5.4803Y-2.126
X5.5128Y-2.0354
X5.5148Y-2.1693
X5.6053Y-1.811
X5.6437Y-2.0246
X5.6683Y-1.6959
X5.689Y-2.0246
X5.6929Y-1.7785
X5.6929Y-1.8711
X5.7244Y-1.3179
X5.7549Y-2.5561
X5.7628Y-1.6594
X5.7628Y-1.7293
X5.7776Y-2.5
X5.8002Y-2.3917
X5.8091Y-2.2933
X5.8209Y-1.7657
X5.8228Y-1.8445
X5.8248Y-2.0728
X5.8248Y-2.6161
X5.8278Y-2.3455
X5.8386Y-1.4085
X5.8386Y-1.502
X5.8386Y-2.1594
X5.8445Y-2.4705
X5.8533Y-1.6663
X5.8553Y-2.7323
X5.8642Y-1.8228
X5.8642Y-2.6161
X5.8701Y-2.1063
X5.874Y-2.3219
X5.9035Y-2.6161
X5.9193Y-1.3996
X5.9203Y-2.7037
X5.9232Y-2.1654
X5.9606Y-1.8484
X5.9734Y-2.5807
X5.9852Y-1.2313
X5.9852Y-2.5177
X6.0226Y-2.1447
X6.0433Y-1.6535
X6.061Y-2.3829
X6.0876Y-2.0118
X6.0896Y-1.4114
X6.1348Y-2.1467
X6.1614Y-1.8642
X6.1614Y-2.1004
X6.1654Y-2.1732
X6.1713Y-2.2559
X6.1762Y-2.4006
X6.1811Y-1.7608
X6.1909Y-1.6339
X6.2028Y-1.4577
X6.2293Y-2.4016
X6.2372Y-1.2303
X6.2372Y-2.2992
X6.2461Y-2.252
X6.2559Y-1.815
X6.2569Y-1.747
X6.2598Y-2.5748
X6.2805Y-1.6732
X6.2874Y-2.628
X6.2884Y-2.1634
X6.2884Y-2.7382
X6.2953Y-1.5984
X6.2963Y-1.4587
X6.3031Y-1.2992
X6.3337Y-1.7805
X6.3386Y-2.6693
X6.3386Y-2.7785
X6.3406Y-1.5856
X6.3504Y-2.2963
X6.3681Y-1.5207
X6.374Y-2.9774
X6.374Y-3.0463
X6.3888Y-2.7382
X6.3937Y-1.2362
X6.3957Y-2.563
X6.3957Y-2.628
X6.4075Y-2.8661
X6.4075Y-2.9035
X6.4075Y-2.9409
X6.439Y-2.2303
X6.44Y-2.4508
X6.4469Y-2.8661
X6.4469Y-2.9035
X6.4469Y-2.9409
X6.4547Y-2.563
X6.4547Y-2.6929
X6.4596Y-3.0709
X6.4803Y-2.501
X6.4931Y-3.1053
X6.5089Y-2.628
X6.5236Y-1.0472
X6.5591Y-2.0541
X6.5591Y-2.2569
X6.5906Y-2.4006
X6.5906Y-2.501
X6.624Y-1.0472
X6.6309Y-2.4508
X6.6703Y-2.1811
X6.6732Y-1.0472
X6.7244Y-1.0472
X6.7323Y-2.6594
X6.7323Y-2.7264
X6.7323Y-2.8327
X6.7411Y-2.0807
X6.7657Y-3.0709
X6.7835Y-2.7933
X6.81Y-2.1004
X6.8752Y-1.5346
X6.8752Y-1.574
X6.9146Y-1.5346
X6.9146Y-1.574
X6.9882Y-2.5
X7.0075Y-1.5756
X7.0256Y-2.2402
X7.0256Y-2.3071
X7.0374Y-2.5394
T3
X6.9882Y-2.5394
X6.9882Y-2.5886
X6.0335Y-2.9823
X6.0827Y-2.9823
X6.1319Y-2.9823
X6.1811Y-2.9823
X5.5118Y-1.2106
X5.561Y-1.2106
X5.6102Y-1.2106
X5.6594Y-1.2106
X5.2165Y-2.0276
X5.2165Y-2.0768
X5.2165Y-2.126
X5.2165Y-2.1752
X5.2165Y-2.5394
X5.2165Y-2.5886
X5.2165Y-2.6378
X5.2165Y-2.687
X5.2165Y-1.5059
X5.2165Y-1.5551
X5.2165Y-1.6043
X5.2165Y-1.6535
X5.5413Y-2.9823
X5.5906Y-2.9823
X5.6398Y-2.9823
X5.689Y-2.9823
T4
G00X7.1022Y-1.4742
M15
G01X7.1278Y-1.4742
M16
G05
G00X7.1022Y-1.7793
M15
G01X7.1278Y-1.7793
M16
G05
T5
G00X6.9545Y-1.4801
M15
G01X6.9762Y-1.4801
M16
G05
G00X6.9545Y-1.7734
M15
G01X6.9762Y-1.7734
M16
G05
T0
M30
