%TF.GenerationSoftware,KiCad,Pcbnew,(5.1.6)-1*%
%TF.CreationDate,2020-10-05T02:21:01+02:00*%
%TF.ProjectId,RBoard,52426f61-7264-42e6-9b69-6361645f7063,rev?*%
%TF.SameCoordinates,Original*%
%TF.FileFunction,Soldermask,Top*%
%TF.FilePolarity,Negative*%
%FSLAX46Y46*%
G04 Gerber Fmt 4.6, Leading zero omitted, Abs format (unit mm)*
G04 Created by KiCad (PCBNEW (5.1.6)-1) date 2020-10-05 02:21:01*
%MOMM*%
%LPD*%
G01*
G04 APERTURE LIST*
%ADD10R,1.500000X1.700000*%
%ADD11R,1.700000X2.000000*%
%ADD12O,1.850000X1.600000*%
%ADD13R,1.450000X0.500000*%
%ADD14C,1.252000*%
%ADD15R,0.900000X0.650000*%
%ADD16R,3.550000X4.450000*%
%ADD17R,0.850000X0.600000*%
%ADD18R,0.575000X0.350000*%
%ADD19R,0.350000X0.575000*%
%ADD20C,3.300000*%
%ADD21R,1.300000X1.000000*%
%ADD22O,1.400000X0.900000*%
%ADD23R,0.840000X2.500000*%
%ADD24O,0.900000X1.400000*%
%ADD25R,2.000000X2.600000*%
%ADD26R,0.900000X1.000000*%
%ADD27C,1.000000*%
%ADD28R,0.800000X1.600000*%
%ADD29R,1.100000X0.900000*%
%ADD30R,1.160000X0.750000*%
%ADD31R,0.450000X0.600000*%
%ADD32R,1.300000X1.500000*%
G04 APERTURE END LIST*
D10*
%TO.C,J402*%
X177925000Y-38050000D03*
D11*
X180375000Y-40050000D03*
X180375000Y-42450000D03*
D10*
X177925000Y-44450000D03*
D12*
X180375000Y-37950000D03*
X180375000Y-44550000D03*
D13*
X177700000Y-39950000D03*
X177700000Y-40600000D03*
X177700000Y-41250000D03*
X177700000Y-41900000D03*
X177700000Y-42550000D03*
%TD*%
D14*
%TO.C,REF\u002A\u002A*%
X132500000Y-34250000D03*
%TD*%
%TO.C,REF\u002A\u002A*%
X177500000Y-72250000D03*
%TD*%
D15*
%TO.C,D201*%
X150350000Y-37375000D03*
X150350000Y-36475000D03*
X151950000Y-36475000D03*
X151950000Y-37375000D03*
%TD*%
D16*
%TO.C,U201*%
X166600000Y-54750000D03*
D17*
X162770000Y-52850000D03*
X162770000Y-54120000D03*
X162770000Y-56660000D03*
X162770000Y-55390000D03*
X170440000Y-56660000D03*
X170440000Y-55390000D03*
X170440000Y-52850000D03*
X170440000Y-54120000D03*
%TD*%
D18*
%TO.C,U301*%
X147040000Y-66085000D03*
X150860000Y-66075000D03*
D19*
X147450000Y-64925000D03*
X147950000Y-64925000D03*
X148450000Y-64925000D03*
X148950000Y-64915000D03*
X149450000Y-64915000D03*
X149950000Y-64915000D03*
X150450000Y-64915000D03*
X150450000Y-67235000D03*
X149950000Y-67235000D03*
X149450000Y-67235000D03*
X147450000Y-67235000D03*
X147950000Y-67235000D03*
X148450000Y-67235000D03*
X148950000Y-67235000D03*
%TD*%
%TO.C,R208*%
G36*
G01*
X150152500Y-39300000D02*
X150547500Y-39300000D01*
G75*
G02*
X150720000Y-39472500I0J-172500D01*
G01*
X150720000Y-39817500D01*
G75*
G02*
X150547500Y-39990000I-172500J0D01*
G01*
X150152500Y-39990000D01*
G75*
G02*
X149980000Y-39817500I0J172500D01*
G01*
X149980000Y-39472500D01*
G75*
G02*
X150152500Y-39300000I172500J0D01*
G01*
G37*
G36*
G01*
X150152500Y-38330000D02*
X150547500Y-38330000D01*
G75*
G02*
X150720000Y-38502500I0J-172500D01*
G01*
X150720000Y-38847500D01*
G75*
G02*
X150547500Y-39020000I-172500J0D01*
G01*
X150152500Y-39020000D01*
G75*
G02*
X149980000Y-38847500I0J172500D01*
G01*
X149980000Y-38502500D01*
G75*
G02*
X150152500Y-38330000I172500J0D01*
G01*
G37*
%TD*%
%TO.C,R207*%
G36*
G01*
X151752500Y-39300000D02*
X152147500Y-39300000D01*
G75*
G02*
X152320000Y-39472500I0J-172500D01*
G01*
X152320000Y-39817500D01*
G75*
G02*
X152147500Y-39990000I-172500J0D01*
G01*
X151752500Y-39990000D01*
G75*
G02*
X151580000Y-39817500I0J172500D01*
G01*
X151580000Y-39472500D01*
G75*
G02*
X151752500Y-39300000I172500J0D01*
G01*
G37*
G36*
G01*
X151752500Y-38330000D02*
X152147500Y-38330000D01*
G75*
G02*
X152320000Y-38502500I0J-172500D01*
G01*
X152320000Y-38847500D01*
G75*
G02*
X152147500Y-39020000I-172500J0D01*
G01*
X151752500Y-39020000D01*
G75*
G02*
X151580000Y-38847500I0J172500D01*
G01*
X151580000Y-38502500D01*
G75*
G02*
X151752500Y-38330000I172500J0D01*
G01*
G37*
%TD*%
%TO.C,R206*%
G36*
G01*
X153352500Y-39300000D02*
X153747500Y-39300000D01*
G75*
G02*
X153920000Y-39472500I0J-172500D01*
G01*
X153920000Y-39817500D01*
G75*
G02*
X153747500Y-39990000I-172500J0D01*
G01*
X153352500Y-39990000D01*
G75*
G02*
X153180000Y-39817500I0J172500D01*
G01*
X153180000Y-39472500D01*
G75*
G02*
X153352500Y-39300000I172500J0D01*
G01*
G37*
G36*
G01*
X153352500Y-38330000D02*
X153747500Y-38330000D01*
G75*
G02*
X153920000Y-38502500I0J-172500D01*
G01*
X153920000Y-38847500D01*
G75*
G02*
X153747500Y-39020000I-172500J0D01*
G01*
X153352500Y-39020000D01*
G75*
G02*
X153180000Y-38847500I0J172500D01*
G01*
X153180000Y-38502500D01*
G75*
G02*
X153352500Y-38330000I172500J0D01*
G01*
G37*
%TD*%
D20*
%TO.C,H4*%
X177500000Y-75750000D03*
%TD*%
%TO.C,H3*%
X177500000Y-30750000D03*
%TD*%
%TO.C,H2*%
X132500000Y-30750000D03*
%TD*%
%TO.C,H1*%
X132500000Y-75750000D03*
%TD*%
%TO.C,C100*%
G36*
G01*
X171655000Y-74425000D02*
X170345000Y-74425000D01*
G75*
G02*
X170075000Y-74155000I0J270000D01*
G01*
X170075000Y-73345000D01*
G75*
G02*
X170345000Y-73075000I270000J0D01*
G01*
X171655000Y-73075000D01*
G75*
G02*
X171925000Y-73345000I0J-270000D01*
G01*
X171925000Y-74155000D01*
G75*
G02*
X171655000Y-74425000I-270000J0D01*
G01*
G37*
G36*
G01*
X171655000Y-71625000D02*
X170345000Y-71625000D01*
G75*
G02*
X170075000Y-71355000I0J270000D01*
G01*
X170075000Y-70545000D01*
G75*
G02*
X170345000Y-70275000I270000J0D01*
G01*
X171655000Y-70275000D01*
G75*
G02*
X171925000Y-70545000I0J-270000D01*
G01*
X171925000Y-71355000D01*
G75*
G02*
X171655000Y-71625000I-270000J0D01*
G01*
G37*
%TD*%
%TO.C,C101*%
G36*
G01*
X165700000Y-70468750D02*
X165700000Y-71031250D01*
G75*
G02*
X165456250Y-71275000I-243750J0D01*
G01*
X164968750Y-71275000D01*
G75*
G02*
X164725000Y-71031250I0J243750D01*
G01*
X164725000Y-70468750D01*
G75*
G02*
X164968750Y-70225000I243750J0D01*
G01*
X165456250Y-70225000D01*
G75*
G02*
X165700000Y-70468750I0J-243750D01*
G01*
G37*
G36*
G01*
X167275000Y-70468750D02*
X167275000Y-71031250D01*
G75*
G02*
X167031250Y-71275000I-243750J0D01*
G01*
X166543750Y-71275000D01*
G75*
G02*
X166300000Y-71031250I0J243750D01*
G01*
X166300000Y-70468750D01*
G75*
G02*
X166543750Y-70225000I243750J0D01*
G01*
X167031250Y-70225000D01*
G75*
G02*
X167275000Y-70468750I0J-243750D01*
G01*
G37*
%TD*%
%TO.C,C102*%
G36*
G01*
X160345000Y-66075000D02*
X161655000Y-66075000D01*
G75*
G02*
X161925000Y-66345000I0J-270000D01*
G01*
X161925000Y-67155000D01*
G75*
G02*
X161655000Y-67425000I-270000J0D01*
G01*
X160345000Y-67425000D01*
G75*
G02*
X160075000Y-67155000I0J270000D01*
G01*
X160075000Y-66345000D01*
G75*
G02*
X160345000Y-66075000I270000J0D01*
G01*
G37*
G36*
G01*
X160345000Y-68875000D02*
X161655000Y-68875000D01*
G75*
G02*
X161925000Y-69145000I0J-270000D01*
G01*
X161925000Y-69955000D01*
G75*
G02*
X161655000Y-70225000I-270000J0D01*
G01*
X160345000Y-70225000D01*
G75*
G02*
X160075000Y-69955000I0J270000D01*
G01*
X160075000Y-69145000D01*
G75*
G02*
X160345000Y-68875000I270000J0D01*
G01*
G37*
%TD*%
%TO.C,C103*%
G36*
G01*
X166725000Y-62905000D02*
X166725000Y-61595000D01*
G75*
G02*
X166995000Y-61325000I270000J0D01*
G01*
X167805000Y-61325000D01*
G75*
G02*
X168075000Y-61595000I0J-270000D01*
G01*
X168075000Y-62905000D01*
G75*
G02*
X167805000Y-63175000I-270000J0D01*
G01*
X166995000Y-63175000D01*
G75*
G02*
X166725000Y-62905000I0J270000D01*
G01*
G37*
G36*
G01*
X163925000Y-62905000D02*
X163925000Y-61595000D01*
G75*
G02*
X164195000Y-61325000I270000J0D01*
G01*
X165005000Y-61325000D01*
G75*
G02*
X165275000Y-61595000I0J-270000D01*
G01*
X165275000Y-62905000D01*
G75*
G02*
X165005000Y-63175000I-270000J0D01*
G01*
X164195000Y-63175000D01*
G75*
G02*
X163925000Y-62905000I0J270000D01*
G01*
G37*
%TD*%
%TO.C,C200*%
G36*
G01*
X146875000Y-42768750D02*
X146875000Y-43331250D01*
G75*
G02*
X146631250Y-43575000I-243750J0D01*
G01*
X146143750Y-43575000D01*
G75*
G02*
X145900000Y-43331250I0J243750D01*
G01*
X145900000Y-42768750D01*
G75*
G02*
X146143750Y-42525000I243750J0D01*
G01*
X146631250Y-42525000D01*
G75*
G02*
X146875000Y-42768750I0J-243750D01*
G01*
G37*
G36*
G01*
X145300000Y-42768750D02*
X145300000Y-43331250D01*
G75*
G02*
X145056250Y-43575000I-243750J0D01*
G01*
X144568750Y-43575000D01*
G75*
G02*
X144325000Y-43331250I0J243750D01*
G01*
X144325000Y-42768750D01*
G75*
G02*
X144568750Y-42525000I243750J0D01*
G01*
X145056250Y-42525000D01*
G75*
G02*
X145300000Y-42768750I0J-243750D01*
G01*
G37*
%TD*%
%TO.C,C201*%
G36*
G01*
X144797500Y-46210000D02*
X144402500Y-46210000D01*
G75*
G02*
X144230000Y-46037500I0J172500D01*
G01*
X144230000Y-45692500D01*
G75*
G02*
X144402500Y-45520000I172500J0D01*
G01*
X144797500Y-45520000D01*
G75*
G02*
X144970000Y-45692500I0J-172500D01*
G01*
X144970000Y-46037500D01*
G75*
G02*
X144797500Y-46210000I-172500J0D01*
G01*
G37*
G36*
G01*
X144797500Y-47180000D02*
X144402500Y-47180000D01*
G75*
G02*
X144230000Y-47007500I0J172500D01*
G01*
X144230000Y-46662500D01*
G75*
G02*
X144402500Y-46490000I172500J0D01*
G01*
X144797500Y-46490000D01*
G75*
G02*
X144970000Y-46662500I0J-172500D01*
G01*
X144970000Y-47007500D01*
G75*
G02*
X144797500Y-47180000I-172500J0D01*
G01*
G37*
%TD*%
%TO.C,C202*%
G36*
G01*
X149555000Y-58052500D02*
X149555000Y-58447500D01*
G75*
G02*
X149382500Y-58620000I-172500J0D01*
G01*
X149037500Y-58620000D01*
G75*
G02*
X148865000Y-58447500I0J172500D01*
G01*
X148865000Y-58052500D01*
G75*
G02*
X149037500Y-57880000I172500J0D01*
G01*
X149382500Y-57880000D01*
G75*
G02*
X149555000Y-58052500I0J-172500D01*
G01*
G37*
G36*
G01*
X148585000Y-58052500D02*
X148585000Y-58447500D01*
G75*
G02*
X148412500Y-58620000I-172500J0D01*
G01*
X148067500Y-58620000D01*
G75*
G02*
X147895000Y-58447500I0J172500D01*
G01*
X147895000Y-58052500D01*
G75*
G02*
X148067500Y-57880000I172500J0D01*
G01*
X148412500Y-57880000D01*
G75*
G02*
X148585000Y-58052500I0J-172500D01*
G01*
G37*
%TD*%
%TO.C,C203*%
G36*
G01*
X157775000Y-56847500D02*
X157775000Y-56452500D01*
G75*
G02*
X157947500Y-56280000I172500J0D01*
G01*
X158292500Y-56280000D01*
G75*
G02*
X158465000Y-56452500I0J-172500D01*
G01*
X158465000Y-56847500D01*
G75*
G02*
X158292500Y-57020000I-172500J0D01*
G01*
X157947500Y-57020000D01*
G75*
G02*
X157775000Y-56847500I0J172500D01*
G01*
G37*
G36*
G01*
X156805000Y-56847500D02*
X156805000Y-56452500D01*
G75*
G02*
X156977500Y-56280000I172500J0D01*
G01*
X157322500Y-56280000D01*
G75*
G02*
X157495000Y-56452500I0J-172500D01*
G01*
X157495000Y-56847500D01*
G75*
G02*
X157322500Y-57020000I-172500J0D01*
G01*
X156977500Y-57020000D01*
G75*
G02*
X156805000Y-56847500I0J172500D01*
G01*
G37*
%TD*%
%TO.C,C204*%
G36*
G01*
X158447500Y-46045000D02*
X158052500Y-46045000D01*
G75*
G02*
X157880000Y-45872500I0J172500D01*
G01*
X157880000Y-45527500D01*
G75*
G02*
X158052500Y-45355000I172500J0D01*
G01*
X158447500Y-45355000D01*
G75*
G02*
X158620000Y-45527500I0J-172500D01*
G01*
X158620000Y-45872500D01*
G75*
G02*
X158447500Y-46045000I-172500J0D01*
G01*
G37*
G36*
G01*
X158447500Y-45075000D02*
X158052500Y-45075000D01*
G75*
G02*
X157880000Y-44902500I0J172500D01*
G01*
X157880000Y-44557500D01*
G75*
G02*
X158052500Y-44385000I172500J0D01*
G01*
X158447500Y-44385000D01*
G75*
G02*
X158620000Y-44557500I0J-172500D01*
G01*
X158620000Y-44902500D01*
G75*
G02*
X158447500Y-45075000I-172500J0D01*
G01*
G37*
%TD*%
%TO.C,C205*%
G36*
G01*
X148340000Y-43247500D02*
X148340000Y-42852500D01*
G75*
G02*
X148512500Y-42680000I172500J0D01*
G01*
X148857500Y-42680000D01*
G75*
G02*
X149030000Y-42852500I0J-172500D01*
G01*
X149030000Y-43247500D01*
G75*
G02*
X148857500Y-43420000I-172500J0D01*
G01*
X148512500Y-43420000D01*
G75*
G02*
X148340000Y-43247500I0J172500D01*
G01*
G37*
G36*
G01*
X147370000Y-43247500D02*
X147370000Y-42852500D01*
G75*
G02*
X147542500Y-42680000I172500J0D01*
G01*
X147887500Y-42680000D01*
G75*
G02*
X148060000Y-42852500I0J-172500D01*
G01*
X148060000Y-43247500D01*
G75*
G02*
X147887500Y-43420000I-172500J0D01*
G01*
X147542500Y-43420000D01*
G75*
G02*
X147370000Y-43247500I0J172500D01*
G01*
G37*
%TD*%
%TO.C,C206*%
G36*
G01*
X143547500Y-52460000D02*
X143152500Y-52460000D01*
G75*
G02*
X142980000Y-52287500I0J172500D01*
G01*
X142980000Y-51942500D01*
G75*
G02*
X143152500Y-51770000I172500J0D01*
G01*
X143547500Y-51770000D01*
G75*
G02*
X143720000Y-51942500I0J-172500D01*
G01*
X143720000Y-52287500D01*
G75*
G02*
X143547500Y-52460000I-172500J0D01*
G01*
G37*
G36*
G01*
X143547500Y-53430000D02*
X143152500Y-53430000D01*
G75*
G02*
X142980000Y-53257500I0J172500D01*
G01*
X142980000Y-52912500D01*
G75*
G02*
X143152500Y-52740000I172500J0D01*
G01*
X143547500Y-52740000D01*
G75*
G02*
X143720000Y-52912500I0J-172500D01*
G01*
X143720000Y-53257500D01*
G75*
G02*
X143547500Y-53430000I-172500J0D01*
G01*
G37*
%TD*%
%TO.C,C207*%
G36*
G01*
X144697500Y-53430000D02*
X144302500Y-53430000D01*
G75*
G02*
X144130000Y-53257500I0J172500D01*
G01*
X144130000Y-52912500D01*
G75*
G02*
X144302500Y-52740000I172500J0D01*
G01*
X144697500Y-52740000D01*
G75*
G02*
X144870000Y-52912500I0J-172500D01*
G01*
X144870000Y-53257500D01*
G75*
G02*
X144697500Y-53430000I-172500J0D01*
G01*
G37*
G36*
G01*
X144697500Y-52460000D02*
X144302500Y-52460000D01*
G75*
G02*
X144130000Y-52287500I0J172500D01*
G01*
X144130000Y-51942500D01*
G75*
G02*
X144302500Y-51770000I172500J0D01*
G01*
X144697500Y-51770000D01*
G75*
G02*
X144870000Y-51942500I0J-172500D01*
G01*
X144870000Y-52287500D01*
G75*
G02*
X144697500Y-52460000I-172500J0D01*
G01*
G37*
%TD*%
%TO.C,C208*%
G36*
G01*
X157087500Y-58681250D02*
X157087500Y-58118750D01*
G75*
G02*
X157331250Y-57875000I243750J0D01*
G01*
X157818750Y-57875000D01*
G75*
G02*
X158062500Y-58118750I0J-243750D01*
G01*
X158062500Y-58681250D01*
G75*
G02*
X157818750Y-58925000I-243750J0D01*
G01*
X157331250Y-58925000D01*
G75*
G02*
X157087500Y-58681250I0J243750D01*
G01*
G37*
G36*
G01*
X155512500Y-58681250D02*
X155512500Y-58118750D01*
G75*
G02*
X155756250Y-57875000I243750J0D01*
G01*
X156243750Y-57875000D01*
G75*
G02*
X156487500Y-58118750I0J-243750D01*
G01*
X156487500Y-58681250D01*
G75*
G02*
X156243750Y-58925000I-243750J0D01*
G01*
X155756250Y-58925000D01*
G75*
G02*
X155512500Y-58681250I0J243750D01*
G01*
G37*
%TD*%
%TO.C,C209*%
G36*
G01*
X160281250Y-47287500D02*
X159718750Y-47287500D01*
G75*
G02*
X159475000Y-47043750I0J243750D01*
G01*
X159475000Y-46556250D01*
G75*
G02*
X159718750Y-46312500I243750J0D01*
G01*
X160281250Y-46312500D01*
G75*
G02*
X160525000Y-46556250I0J-243750D01*
G01*
X160525000Y-47043750D01*
G75*
G02*
X160281250Y-47287500I-243750J0D01*
G01*
G37*
G36*
G01*
X160281250Y-45712500D02*
X159718750Y-45712500D01*
G75*
G02*
X159475000Y-45468750I0J243750D01*
G01*
X159475000Y-44981250D01*
G75*
G02*
X159718750Y-44737500I243750J0D01*
G01*
X160281250Y-44737500D01*
G75*
G02*
X160525000Y-44981250I0J-243750D01*
G01*
X160525000Y-45468750D01*
G75*
G02*
X160281250Y-45712500I-243750J0D01*
G01*
G37*
%TD*%
%TO.C,C210*%
G36*
G01*
X141340000Y-46197500D02*
X141340000Y-45802500D01*
G75*
G02*
X141512500Y-45630000I172500J0D01*
G01*
X141857500Y-45630000D01*
G75*
G02*
X142030000Y-45802500I0J-172500D01*
G01*
X142030000Y-46197500D01*
G75*
G02*
X141857500Y-46370000I-172500J0D01*
G01*
X141512500Y-46370000D01*
G75*
G02*
X141340000Y-46197500I0J172500D01*
G01*
G37*
G36*
G01*
X140370000Y-46197500D02*
X140370000Y-45802500D01*
G75*
G02*
X140542500Y-45630000I172500J0D01*
G01*
X140887500Y-45630000D01*
G75*
G02*
X141060000Y-45802500I0J-172500D01*
G01*
X141060000Y-46197500D01*
G75*
G02*
X140887500Y-46370000I-172500J0D01*
G01*
X140542500Y-46370000D01*
G75*
G02*
X140370000Y-46197500I0J172500D01*
G01*
G37*
%TD*%
%TO.C,C211*%
G36*
G01*
X142030000Y-51502500D02*
X142030000Y-51897500D01*
G75*
G02*
X141857500Y-52070000I-172500J0D01*
G01*
X141512500Y-52070000D01*
G75*
G02*
X141340000Y-51897500I0J172500D01*
G01*
X141340000Y-51502500D01*
G75*
G02*
X141512500Y-51330000I172500J0D01*
G01*
X141857500Y-51330000D01*
G75*
G02*
X142030000Y-51502500I0J-172500D01*
G01*
G37*
G36*
G01*
X141060000Y-51502500D02*
X141060000Y-51897500D01*
G75*
G02*
X140887500Y-52070000I-172500J0D01*
G01*
X140542500Y-52070000D01*
G75*
G02*
X140370000Y-51897500I0J172500D01*
G01*
X140370000Y-51502500D01*
G75*
G02*
X140542500Y-51330000I172500J0D01*
G01*
X140887500Y-51330000D01*
G75*
G02*
X141060000Y-51502500I0J-172500D01*
G01*
G37*
%TD*%
%TO.C,C212*%
G36*
G01*
X148102500Y-36130000D02*
X148497500Y-36130000D01*
G75*
G02*
X148670000Y-36302500I0J-172500D01*
G01*
X148670000Y-36647500D01*
G75*
G02*
X148497500Y-36820000I-172500J0D01*
G01*
X148102500Y-36820000D01*
G75*
G02*
X147930000Y-36647500I0J172500D01*
G01*
X147930000Y-36302500D01*
G75*
G02*
X148102500Y-36130000I172500J0D01*
G01*
G37*
G36*
G01*
X148102500Y-37100000D02*
X148497500Y-37100000D01*
G75*
G02*
X148670000Y-37272500I0J-172500D01*
G01*
X148670000Y-37617500D01*
G75*
G02*
X148497500Y-37790000I-172500J0D01*
G01*
X148102500Y-37790000D01*
G75*
G02*
X147930000Y-37617500I0J172500D01*
G01*
X147930000Y-37272500D01*
G75*
G02*
X148102500Y-37100000I172500J0D01*
G01*
G37*
%TD*%
%TO.C,C213*%
G36*
G01*
X161102500Y-56305000D02*
X161497500Y-56305000D01*
G75*
G02*
X161670000Y-56477500I0J-172500D01*
G01*
X161670000Y-56822500D01*
G75*
G02*
X161497500Y-56995000I-172500J0D01*
G01*
X161102500Y-56995000D01*
G75*
G02*
X160930000Y-56822500I0J172500D01*
G01*
X160930000Y-56477500D01*
G75*
G02*
X161102500Y-56305000I172500J0D01*
G01*
G37*
G36*
G01*
X161102500Y-57275000D02*
X161497500Y-57275000D01*
G75*
G02*
X161670000Y-57447500I0J-172500D01*
G01*
X161670000Y-57792500D01*
G75*
G02*
X161497500Y-57965000I-172500J0D01*
G01*
X161102500Y-57965000D01*
G75*
G02*
X160930000Y-57792500I0J172500D01*
G01*
X160930000Y-57447500D01*
G75*
G02*
X161102500Y-57275000I172500J0D01*
G01*
G37*
%TD*%
%TO.C,C300*%
G36*
G01*
X157920000Y-37247500D02*
X157920000Y-36852500D01*
G75*
G02*
X158092500Y-36680000I172500J0D01*
G01*
X158437500Y-36680000D01*
G75*
G02*
X158610000Y-36852500I0J-172500D01*
G01*
X158610000Y-37247500D01*
G75*
G02*
X158437500Y-37420000I-172500J0D01*
G01*
X158092500Y-37420000D01*
G75*
G02*
X157920000Y-37247500I0J172500D01*
G01*
G37*
G36*
G01*
X158890000Y-37247500D02*
X158890000Y-36852500D01*
G75*
G02*
X159062500Y-36680000I172500J0D01*
G01*
X159407500Y-36680000D01*
G75*
G02*
X159580000Y-36852500I0J-172500D01*
G01*
X159580000Y-37247500D01*
G75*
G02*
X159407500Y-37420000I-172500J0D01*
G01*
X159062500Y-37420000D01*
G75*
G02*
X158890000Y-37247500I0J172500D01*
G01*
G37*
%TD*%
%TO.C,C301*%
G36*
G01*
X160852500Y-39240000D02*
X161247500Y-39240000D01*
G75*
G02*
X161420000Y-39412500I0J-172500D01*
G01*
X161420000Y-39757500D01*
G75*
G02*
X161247500Y-39930000I-172500J0D01*
G01*
X160852500Y-39930000D01*
G75*
G02*
X160680000Y-39757500I0J172500D01*
G01*
X160680000Y-39412500D01*
G75*
G02*
X160852500Y-39240000I172500J0D01*
G01*
G37*
G36*
G01*
X160852500Y-38270000D02*
X161247500Y-38270000D01*
G75*
G02*
X161420000Y-38442500I0J-172500D01*
G01*
X161420000Y-38787500D01*
G75*
G02*
X161247500Y-38960000I-172500J0D01*
G01*
X160852500Y-38960000D01*
G75*
G02*
X160680000Y-38787500I0J172500D01*
G01*
X160680000Y-38442500D01*
G75*
G02*
X160852500Y-38270000I172500J0D01*
G01*
G37*
%TD*%
%TO.C,C302*%
G36*
G01*
X149060000Y-68477500D02*
X149060000Y-68872500D01*
G75*
G02*
X148887500Y-69045000I-172500J0D01*
G01*
X148542500Y-69045000D01*
G75*
G02*
X148370000Y-68872500I0J172500D01*
G01*
X148370000Y-68477500D01*
G75*
G02*
X148542500Y-68305000I172500J0D01*
G01*
X148887500Y-68305000D01*
G75*
G02*
X149060000Y-68477500I0J-172500D01*
G01*
G37*
G36*
G01*
X150030000Y-68477500D02*
X150030000Y-68872500D01*
G75*
G02*
X149857500Y-69045000I-172500J0D01*
G01*
X149512500Y-69045000D01*
G75*
G02*
X149340000Y-68872500I0J172500D01*
G01*
X149340000Y-68477500D01*
G75*
G02*
X149512500Y-68305000I172500J0D01*
G01*
X149857500Y-68305000D01*
G75*
G02*
X150030000Y-68477500I0J-172500D01*
G01*
G37*
%TD*%
%TO.C,C303*%
G36*
G01*
X148795000Y-63312500D02*
X148795000Y-63707500D01*
G75*
G02*
X148622500Y-63880000I-172500J0D01*
G01*
X148277500Y-63880000D01*
G75*
G02*
X148105000Y-63707500I0J172500D01*
G01*
X148105000Y-63312500D01*
G75*
G02*
X148277500Y-63140000I172500J0D01*
G01*
X148622500Y-63140000D01*
G75*
G02*
X148795000Y-63312500I0J-172500D01*
G01*
G37*
G36*
G01*
X147825000Y-63312500D02*
X147825000Y-63707500D01*
G75*
G02*
X147652500Y-63880000I-172500J0D01*
G01*
X147307500Y-63880000D01*
G75*
G02*
X147135000Y-63707500I0J172500D01*
G01*
X147135000Y-63312500D01*
G75*
G02*
X147307500Y-63140000I172500J0D01*
G01*
X147652500Y-63140000D01*
G75*
G02*
X147825000Y-63312500I0J-172500D01*
G01*
G37*
%TD*%
%TO.C,C400*%
G36*
G01*
X162597500Y-32445000D02*
X162202500Y-32445000D01*
G75*
G02*
X162030000Y-32272500I0J172500D01*
G01*
X162030000Y-31927500D01*
G75*
G02*
X162202500Y-31755000I172500J0D01*
G01*
X162597500Y-31755000D01*
G75*
G02*
X162770000Y-31927500I0J-172500D01*
G01*
X162770000Y-32272500D01*
G75*
G02*
X162597500Y-32445000I-172500J0D01*
G01*
G37*
G36*
G01*
X162597500Y-33415000D02*
X162202500Y-33415000D01*
G75*
G02*
X162030000Y-33242500I0J172500D01*
G01*
X162030000Y-32897500D01*
G75*
G02*
X162202500Y-32725000I172500J0D01*
G01*
X162597500Y-32725000D01*
G75*
G02*
X162770000Y-32897500I0J-172500D01*
G01*
X162770000Y-33242500D01*
G75*
G02*
X162597500Y-33415000I-172500J0D01*
G01*
G37*
%TD*%
D21*
%TO.C,D100*%
X173775000Y-48275000D03*
X173775000Y-44975000D03*
%TD*%
%TO.C,D101*%
X171000000Y-68400000D03*
X171000000Y-65100000D03*
%TD*%
%TO.C,D102*%
G36*
G01*
X160718750Y-64112500D02*
X161281250Y-64112500D01*
G75*
G02*
X161525000Y-64356250I0J-243750D01*
G01*
X161525000Y-64843750D01*
G75*
G02*
X161281250Y-65087500I-243750J0D01*
G01*
X160718750Y-65087500D01*
G75*
G02*
X160475000Y-64843750I0J243750D01*
G01*
X160475000Y-64356250D01*
G75*
G02*
X160718750Y-64112500I243750J0D01*
G01*
G37*
G36*
G01*
X160718750Y-62537500D02*
X161281250Y-62537500D01*
G75*
G02*
X161525000Y-62781250I0J-243750D01*
G01*
X161525000Y-63268750D01*
G75*
G02*
X161281250Y-63512500I-243750J0D01*
G01*
X160718750Y-63512500D01*
G75*
G02*
X160475000Y-63268750I0J243750D01*
G01*
X160475000Y-62781250D01*
G75*
G02*
X160718750Y-62537500I243750J0D01*
G01*
G37*
%TD*%
%TO.C,D200*%
G36*
G01*
X156537500Y-32718750D02*
X156537500Y-33281250D01*
G75*
G02*
X156293750Y-33525000I-243750J0D01*
G01*
X155806250Y-33525000D01*
G75*
G02*
X155562500Y-33281250I0J243750D01*
G01*
X155562500Y-32718750D01*
G75*
G02*
X155806250Y-32475000I243750J0D01*
G01*
X156293750Y-32475000D01*
G75*
G02*
X156537500Y-32718750I0J-243750D01*
G01*
G37*
G36*
G01*
X154962500Y-32718750D02*
X154962500Y-33281250D01*
G75*
G02*
X154718750Y-33525000I-243750J0D01*
G01*
X154231250Y-33525000D01*
G75*
G02*
X153987500Y-33281250I0J243750D01*
G01*
X153987500Y-32718750D01*
G75*
G02*
X154231250Y-32475000I243750J0D01*
G01*
X154718750Y-32475000D01*
G75*
G02*
X154962500Y-32718750I0J-243750D01*
G01*
G37*
%TD*%
%TO.C,F100*%
G36*
G01*
X174905000Y-61225000D02*
X173595000Y-61225000D01*
G75*
G02*
X173325000Y-60955000I0J270000D01*
G01*
X173325000Y-60145000D01*
G75*
G02*
X173595000Y-59875000I270000J0D01*
G01*
X174905000Y-59875000D01*
G75*
G02*
X175175000Y-60145000I0J-270000D01*
G01*
X175175000Y-60955000D01*
G75*
G02*
X174905000Y-61225000I-270000J0D01*
G01*
G37*
G36*
G01*
X174905000Y-58425000D02*
X173595000Y-58425000D01*
G75*
G02*
X173325000Y-58155000I0J270000D01*
G01*
X173325000Y-57345000D01*
G75*
G02*
X173595000Y-57075000I270000J0D01*
G01*
X174905000Y-57075000D01*
G75*
G02*
X175175000Y-57345000I0J-270000D01*
G01*
X175175000Y-58155000D01*
G75*
G02*
X174905000Y-58425000I-270000J0D01*
G01*
G37*
%TD*%
%TO.C,FB100*%
G36*
G01*
X174756250Y-70787500D02*
X173793750Y-70787500D01*
G75*
G02*
X173525000Y-70518750I0J268750D01*
G01*
X173525000Y-69981250D01*
G75*
G02*
X173793750Y-69712500I268750J0D01*
G01*
X174756250Y-69712500D01*
G75*
G02*
X175025000Y-69981250I0J-268750D01*
G01*
X175025000Y-70518750D01*
G75*
G02*
X174756250Y-70787500I-268750J0D01*
G01*
G37*
G36*
G01*
X174756250Y-68912500D02*
X173793750Y-68912500D01*
G75*
G02*
X173525000Y-68643750I0J268750D01*
G01*
X173525000Y-68106250D01*
G75*
G02*
X173793750Y-67837500I268750J0D01*
G01*
X174756250Y-67837500D01*
G75*
G02*
X175025000Y-68106250I0J-268750D01*
G01*
X175025000Y-68643750D01*
G75*
G02*
X174756250Y-68912500I-268750J0D01*
G01*
G37*
%TD*%
%TO.C,FB200*%
G36*
G01*
X140612500Y-53518750D02*
X140612500Y-54481250D01*
G75*
G02*
X140343750Y-54750000I-268750J0D01*
G01*
X139806250Y-54750000D01*
G75*
G02*
X139537500Y-54481250I0J268750D01*
G01*
X139537500Y-53518750D01*
G75*
G02*
X139806250Y-53250000I268750J0D01*
G01*
X140343750Y-53250000D01*
G75*
G02*
X140612500Y-53518750I0J-268750D01*
G01*
G37*
G36*
G01*
X142487500Y-53518750D02*
X142487500Y-54481250D01*
G75*
G02*
X142218750Y-54750000I-268750J0D01*
G01*
X141681250Y-54750000D01*
G75*
G02*
X141412500Y-54481250I0J268750D01*
G01*
X141412500Y-53518750D01*
G75*
G02*
X141681250Y-53250000I268750J0D01*
G01*
X142218750Y-53250000D01*
G75*
G02*
X142487500Y-53518750I0J-268750D01*
G01*
G37*
%TD*%
%TO.C,J400*%
G36*
G01*
X177975000Y-66200000D02*
X177025000Y-66200000D01*
G75*
G02*
X176800000Y-65975000I0J225000D01*
G01*
X176800000Y-65525000D01*
G75*
G02*
X177025000Y-65300000I225000J0D01*
G01*
X177975000Y-65300000D01*
G75*
G02*
X178200000Y-65525000I0J-225000D01*
G01*
X178200000Y-65975000D01*
G75*
G02*
X177975000Y-66200000I-225000J0D01*
G01*
G37*
D22*
X177500000Y-64500000D03*
%TD*%
D23*
%TO.C,J401*%
X170790000Y-28200000D03*
X170790000Y-32100000D03*
X169520000Y-28200000D03*
X169520000Y-32100000D03*
X168250000Y-28200000D03*
X168250000Y-32100000D03*
X166980000Y-28200000D03*
X166980000Y-32100000D03*
X165710000Y-28200000D03*
X165710000Y-32100000D03*
%TD*%
%TO.C,J403*%
G36*
G01*
X144200000Y-30275000D02*
X144200000Y-31225000D01*
G75*
G02*
X143975000Y-31450000I-225000J0D01*
G01*
X143525000Y-31450000D01*
G75*
G02*
X143300000Y-31225000I0J225000D01*
G01*
X143300000Y-30275000D01*
G75*
G02*
X143525000Y-30050000I225000J0D01*
G01*
X143975000Y-30050000D01*
G75*
G02*
X144200000Y-30275000I0J-225000D01*
G01*
G37*
D24*
X142500000Y-30750000D03*
X141250000Y-30750000D03*
X140000000Y-30750000D03*
%TD*%
%TO.C,J404*%
X157000000Y-75750000D03*
X155750000Y-75750000D03*
X154500000Y-75750000D03*
G36*
G01*
X152800000Y-76225000D02*
X152800000Y-75275000D01*
G75*
G02*
X153025000Y-75050000I225000J0D01*
G01*
X153475000Y-75050000D01*
G75*
G02*
X153700000Y-75275000I0J-225000D01*
G01*
X153700000Y-76225000D01*
G75*
G02*
X153475000Y-76450000I-225000J0D01*
G01*
X153025000Y-76450000D01*
G75*
G02*
X152800000Y-76225000I0J225000D01*
G01*
G37*
%TD*%
%TO.C,J405*%
X144500000Y-75750000D03*
X143250000Y-75750000D03*
X142000000Y-75750000D03*
G36*
G01*
X140300000Y-76225000D02*
X140300000Y-75275000D01*
G75*
G02*
X140525000Y-75050000I225000J0D01*
G01*
X140975000Y-75050000D01*
G75*
G02*
X141200000Y-75275000I0J-225000D01*
G01*
X141200000Y-76225000D01*
G75*
G02*
X140975000Y-76450000I-225000J0D01*
G01*
X140525000Y-76450000D01*
G75*
G02*
X140300000Y-76225000I0J225000D01*
G01*
G37*
%TD*%
%TO.C,J406*%
G36*
G01*
X132025000Y-64050000D02*
X132975000Y-64050000D01*
G75*
G02*
X133200000Y-64275000I0J-225000D01*
G01*
X133200000Y-64725000D01*
G75*
G02*
X132975000Y-64950000I-225000J0D01*
G01*
X132025000Y-64950000D01*
G75*
G02*
X131800000Y-64725000I0J225000D01*
G01*
X131800000Y-64275000D01*
G75*
G02*
X132025000Y-64050000I225000J0D01*
G01*
G37*
D22*
X132500000Y-65750000D03*
X132500000Y-67000000D03*
X132500000Y-68250000D03*
%TD*%
%TO.C,J407*%
X132500000Y-42000000D03*
X132500000Y-40750000D03*
X132500000Y-39500000D03*
G36*
G01*
X132025000Y-37800000D02*
X132975000Y-37800000D01*
G75*
G02*
X133200000Y-38025000I0J-225000D01*
G01*
X133200000Y-38475000D01*
G75*
G02*
X132975000Y-38700000I-225000J0D01*
G01*
X132025000Y-38700000D01*
G75*
G02*
X131800000Y-38475000I0J225000D01*
G01*
X131800000Y-38025000D01*
G75*
G02*
X132025000Y-37800000I225000J0D01*
G01*
G37*
%TD*%
%TO.C,J408*%
G36*
G01*
X132025000Y-51050000D02*
X132975000Y-51050000D01*
G75*
G02*
X133200000Y-51275000I0J-225000D01*
G01*
X133200000Y-51725000D01*
G75*
G02*
X132975000Y-51950000I-225000J0D01*
G01*
X132025000Y-51950000D01*
G75*
G02*
X131800000Y-51725000I0J225000D01*
G01*
X131800000Y-51275000D01*
G75*
G02*
X132025000Y-51050000I225000J0D01*
G01*
G37*
X132500000Y-52750000D03*
X132500000Y-54000000D03*
X132500000Y-55250000D03*
%TD*%
D25*
%TO.C,L101*%
X168050000Y-66750000D03*
X163950000Y-66750000D03*
%TD*%
D26*
%TO.C,Q100*%
X178450000Y-57750000D03*
X176550000Y-57750000D03*
X177500000Y-59750000D03*
%TD*%
%TO.C,R100*%
G36*
G01*
X171487500Y-76218750D02*
X171487500Y-76781250D01*
G75*
G02*
X171243750Y-77025000I-243750J0D01*
G01*
X170756250Y-77025000D01*
G75*
G02*
X170512500Y-76781250I0J243750D01*
G01*
X170512500Y-76218750D01*
G75*
G02*
X170756250Y-75975000I243750J0D01*
G01*
X171243750Y-75975000D01*
G75*
G02*
X171487500Y-76218750I0J-243750D01*
G01*
G37*
G36*
G01*
X169912500Y-76218750D02*
X169912500Y-76781250D01*
G75*
G02*
X169668750Y-77025000I-243750J0D01*
G01*
X169181250Y-77025000D01*
G75*
G02*
X168937500Y-76781250I0J243750D01*
G01*
X168937500Y-76218750D01*
G75*
G02*
X169181250Y-75975000I243750J0D01*
G01*
X169668750Y-75975000D01*
G75*
G02*
X169912500Y-76218750I0J-243750D01*
G01*
G37*
%TD*%
%TO.C,R101*%
G36*
G01*
X170512500Y-78281250D02*
X170512500Y-77718750D01*
G75*
G02*
X170756250Y-77475000I243750J0D01*
G01*
X171243750Y-77475000D01*
G75*
G02*
X171487500Y-77718750I0J-243750D01*
G01*
X171487500Y-78281250D01*
G75*
G02*
X171243750Y-78525000I-243750J0D01*
G01*
X170756250Y-78525000D01*
G75*
G02*
X170512500Y-78281250I0J243750D01*
G01*
G37*
G36*
G01*
X168937500Y-78281250D02*
X168937500Y-77718750D01*
G75*
G02*
X169181250Y-77475000I243750J0D01*
G01*
X169668750Y-77475000D01*
G75*
G02*
X169912500Y-77718750I0J-243750D01*
G01*
X169912500Y-78281250D01*
G75*
G02*
X169668750Y-78525000I-243750J0D01*
G01*
X169181250Y-78525000D01*
G75*
G02*
X168937500Y-78281250I0J243750D01*
G01*
G37*
%TD*%
%TO.C,R102*%
G36*
G01*
X162987500Y-76781250D02*
X162987500Y-76218750D01*
G75*
G02*
X163231250Y-75975000I243750J0D01*
G01*
X163718750Y-75975000D01*
G75*
G02*
X163962500Y-76218750I0J-243750D01*
G01*
X163962500Y-76781250D01*
G75*
G02*
X163718750Y-77025000I-243750J0D01*
G01*
X163231250Y-77025000D01*
G75*
G02*
X162987500Y-76781250I0J243750D01*
G01*
G37*
G36*
G01*
X161412500Y-76781250D02*
X161412500Y-76218750D01*
G75*
G02*
X161656250Y-75975000I243750J0D01*
G01*
X162143750Y-75975000D01*
G75*
G02*
X162387500Y-76218750I0J-243750D01*
G01*
X162387500Y-76781250D01*
G75*
G02*
X162143750Y-77025000I-243750J0D01*
G01*
X161656250Y-77025000D01*
G75*
G02*
X161412500Y-76781250I0J243750D01*
G01*
G37*
%TD*%
%TO.C,R103*%
G36*
G01*
X164425000Y-76781250D02*
X164425000Y-76218750D01*
G75*
G02*
X164668750Y-75975000I243750J0D01*
G01*
X165156250Y-75975000D01*
G75*
G02*
X165400000Y-76218750I0J-243750D01*
G01*
X165400000Y-76781250D01*
G75*
G02*
X165156250Y-77025000I-243750J0D01*
G01*
X164668750Y-77025000D01*
G75*
G02*
X164425000Y-76781250I0J243750D01*
G01*
G37*
G36*
G01*
X166000000Y-76781250D02*
X166000000Y-76218750D01*
G75*
G02*
X166243750Y-75975000I243750J0D01*
G01*
X166731250Y-75975000D01*
G75*
G02*
X166975000Y-76218750I0J-243750D01*
G01*
X166975000Y-76781250D01*
G75*
G02*
X166731250Y-77025000I-243750J0D01*
G01*
X166243750Y-77025000D01*
G75*
G02*
X166000000Y-76781250I0J243750D01*
G01*
G37*
%TD*%
%TO.C,R104*%
G36*
G01*
X165400000Y-77718750D02*
X165400000Y-78281250D01*
G75*
G02*
X165156250Y-78525000I-243750J0D01*
G01*
X164668750Y-78525000D01*
G75*
G02*
X164425000Y-78281250I0J243750D01*
G01*
X164425000Y-77718750D01*
G75*
G02*
X164668750Y-77475000I243750J0D01*
G01*
X165156250Y-77475000D01*
G75*
G02*
X165400000Y-77718750I0J-243750D01*
G01*
G37*
G36*
G01*
X166975000Y-77718750D02*
X166975000Y-78281250D01*
G75*
G02*
X166731250Y-78525000I-243750J0D01*
G01*
X166243750Y-78525000D01*
G75*
G02*
X166000000Y-78281250I0J243750D01*
G01*
X166000000Y-77718750D01*
G75*
G02*
X166243750Y-77475000I243750J0D01*
G01*
X166731250Y-77475000D01*
G75*
G02*
X166975000Y-77718750I0J-243750D01*
G01*
G37*
%TD*%
%TO.C,R105*%
G36*
G01*
X158718750Y-62512500D02*
X159281250Y-62512500D01*
G75*
G02*
X159525000Y-62756250I0J-243750D01*
G01*
X159525000Y-63243750D01*
G75*
G02*
X159281250Y-63487500I-243750J0D01*
G01*
X158718750Y-63487500D01*
G75*
G02*
X158475000Y-63243750I0J243750D01*
G01*
X158475000Y-62756250D01*
G75*
G02*
X158718750Y-62512500I243750J0D01*
G01*
G37*
G36*
G01*
X158718750Y-64087500D02*
X159281250Y-64087500D01*
G75*
G02*
X159525000Y-64331250I0J-243750D01*
G01*
X159525000Y-64818750D01*
G75*
G02*
X159281250Y-65062500I-243750J0D01*
G01*
X158718750Y-65062500D01*
G75*
G02*
X158475000Y-64818750I0J243750D01*
G01*
X158475000Y-64331250D01*
G75*
G02*
X158718750Y-64087500I243750J0D01*
G01*
G37*
%TD*%
%TO.C,R200*%
G36*
G01*
X143975000Y-49752500D02*
X143975000Y-50147500D01*
G75*
G02*
X143802500Y-50320000I-172500J0D01*
G01*
X143457500Y-50320000D01*
G75*
G02*
X143285000Y-50147500I0J172500D01*
G01*
X143285000Y-49752500D01*
G75*
G02*
X143457500Y-49580000I172500J0D01*
G01*
X143802500Y-49580000D01*
G75*
G02*
X143975000Y-49752500I0J-172500D01*
G01*
G37*
G36*
G01*
X144945000Y-49752500D02*
X144945000Y-50147500D01*
G75*
G02*
X144772500Y-50320000I-172500J0D01*
G01*
X144427500Y-50320000D01*
G75*
G02*
X144255000Y-50147500I0J172500D01*
G01*
X144255000Y-49752500D01*
G75*
G02*
X144427500Y-49580000I172500J0D01*
G01*
X144772500Y-49580000D01*
G75*
G02*
X144945000Y-49752500I0J-172500D01*
G01*
G37*
%TD*%
%TO.C,R201*%
G36*
G01*
X152350000Y-32802500D02*
X152350000Y-33197500D01*
G75*
G02*
X152177500Y-33370000I-172500J0D01*
G01*
X151832500Y-33370000D01*
G75*
G02*
X151660000Y-33197500I0J172500D01*
G01*
X151660000Y-32802500D01*
G75*
G02*
X151832500Y-32630000I172500J0D01*
G01*
X152177500Y-32630000D01*
G75*
G02*
X152350000Y-32802500I0J-172500D01*
G01*
G37*
G36*
G01*
X153320000Y-32802500D02*
X153320000Y-33197500D01*
G75*
G02*
X153147500Y-33370000I-172500J0D01*
G01*
X152802500Y-33370000D01*
G75*
G02*
X152630000Y-33197500I0J172500D01*
G01*
X152630000Y-32802500D01*
G75*
G02*
X152802500Y-32630000I172500J0D01*
G01*
X153147500Y-32630000D01*
G75*
G02*
X153320000Y-32802500I0J-172500D01*
G01*
G37*
%TD*%
%TO.C,R202*%
G36*
G01*
X159750000Y-32718750D02*
X159750000Y-33281250D01*
G75*
G02*
X159506250Y-33525000I-243750J0D01*
G01*
X159018750Y-33525000D01*
G75*
G02*
X158775000Y-33281250I0J243750D01*
G01*
X158775000Y-32718750D01*
G75*
G02*
X159018750Y-32475000I243750J0D01*
G01*
X159506250Y-32475000D01*
G75*
G02*
X159750000Y-32718750I0J-243750D01*
G01*
G37*
G36*
G01*
X158175000Y-32718750D02*
X158175000Y-33281250D01*
G75*
G02*
X157931250Y-33525000I-243750J0D01*
G01*
X157443750Y-33525000D01*
G75*
G02*
X157200000Y-33281250I0J243750D01*
G01*
X157200000Y-32718750D01*
G75*
G02*
X157443750Y-32475000I243750J0D01*
G01*
X157931250Y-32475000D01*
G75*
G02*
X158175000Y-32718750I0J-243750D01*
G01*
G37*
%TD*%
%TO.C,R203*%
G36*
G01*
X153752500Y-58505000D02*
X154147500Y-58505000D01*
G75*
G02*
X154320000Y-58677500I0J-172500D01*
G01*
X154320000Y-59022500D01*
G75*
G02*
X154147500Y-59195000I-172500J0D01*
G01*
X153752500Y-59195000D01*
G75*
G02*
X153580000Y-59022500I0J172500D01*
G01*
X153580000Y-58677500D01*
G75*
G02*
X153752500Y-58505000I172500J0D01*
G01*
G37*
G36*
G01*
X153752500Y-59475000D02*
X154147500Y-59475000D01*
G75*
G02*
X154320000Y-59647500I0J-172500D01*
G01*
X154320000Y-59992500D01*
G75*
G02*
X154147500Y-60165000I-172500J0D01*
G01*
X153752500Y-60165000D01*
G75*
G02*
X153580000Y-59992500I0J172500D01*
G01*
X153580000Y-59647500D01*
G75*
G02*
X153752500Y-59475000I172500J0D01*
G01*
G37*
%TD*%
%TO.C,R204*%
G36*
G01*
X145055000Y-33277500D02*
X145055000Y-33672500D01*
G75*
G02*
X144882500Y-33845000I-172500J0D01*
G01*
X144537500Y-33845000D01*
G75*
G02*
X144365000Y-33672500I0J172500D01*
G01*
X144365000Y-33277500D01*
G75*
G02*
X144537500Y-33105000I172500J0D01*
G01*
X144882500Y-33105000D01*
G75*
G02*
X145055000Y-33277500I0J-172500D01*
G01*
G37*
G36*
G01*
X144085000Y-33277500D02*
X144085000Y-33672500D01*
G75*
G02*
X143912500Y-33845000I-172500J0D01*
G01*
X143567500Y-33845000D01*
G75*
G02*
X143395000Y-33672500I0J172500D01*
G01*
X143395000Y-33277500D01*
G75*
G02*
X143567500Y-33105000I172500J0D01*
G01*
X143912500Y-33105000D01*
G75*
G02*
X144085000Y-33277500I0J-172500D01*
G01*
G37*
%TD*%
%TO.C,R205*%
G36*
G01*
X138685000Y-33672500D02*
X138685000Y-33277500D01*
G75*
G02*
X138857500Y-33105000I172500J0D01*
G01*
X139202500Y-33105000D01*
G75*
G02*
X139375000Y-33277500I0J-172500D01*
G01*
X139375000Y-33672500D01*
G75*
G02*
X139202500Y-33845000I-172500J0D01*
G01*
X138857500Y-33845000D01*
G75*
G02*
X138685000Y-33672500I0J172500D01*
G01*
G37*
G36*
G01*
X139655000Y-33672500D02*
X139655000Y-33277500D01*
G75*
G02*
X139827500Y-33105000I172500J0D01*
G01*
X140172500Y-33105000D01*
G75*
G02*
X140345000Y-33277500I0J-172500D01*
G01*
X140345000Y-33672500D01*
G75*
G02*
X140172500Y-33845000I-172500J0D01*
G01*
X139827500Y-33845000D01*
G75*
G02*
X139655000Y-33672500I0J172500D01*
G01*
G37*
%TD*%
%TO.C,R209*%
G36*
G01*
X172345000Y-53902500D02*
X172345000Y-54297500D01*
G75*
G02*
X172172500Y-54470000I-172500J0D01*
G01*
X171827500Y-54470000D01*
G75*
G02*
X171655000Y-54297500I0J172500D01*
G01*
X171655000Y-53902500D01*
G75*
G02*
X171827500Y-53730000I172500J0D01*
G01*
X172172500Y-53730000D01*
G75*
G02*
X172345000Y-53902500I0J-172500D01*
G01*
G37*
G36*
G01*
X173315000Y-53902500D02*
X173315000Y-54297500D01*
G75*
G02*
X173142500Y-54470000I-172500J0D01*
G01*
X172797500Y-54470000D01*
G75*
G02*
X172625000Y-54297500I0J172500D01*
G01*
X172625000Y-53902500D01*
G75*
G02*
X172797500Y-53730000I172500J0D01*
G01*
X173142500Y-53730000D01*
G75*
G02*
X173315000Y-53902500I0J-172500D01*
G01*
G37*
%TD*%
%TO.C,R210*%
G36*
G01*
X160955000Y-55597500D02*
X160955000Y-55202500D01*
G75*
G02*
X161127500Y-55030000I172500J0D01*
G01*
X161472500Y-55030000D01*
G75*
G02*
X161645000Y-55202500I0J-172500D01*
G01*
X161645000Y-55597500D01*
G75*
G02*
X161472500Y-55770000I-172500J0D01*
G01*
X161127500Y-55770000D01*
G75*
G02*
X160955000Y-55597500I0J172500D01*
G01*
G37*
G36*
G01*
X159985000Y-55597500D02*
X159985000Y-55202500D01*
G75*
G02*
X160157500Y-55030000I172500J0D01*
G01*
X160502500Y-55030000D01*
G75*
G02*
X160675000Y-55202500I0J-172500D01*
G01*
X160675000Y-55597500D01*
G75*
G02*
X160502500Y-55770000I-172500J0D01*
G01*
X160157500Y-55770000D01*
G75*
G02*
X159985000Y-55597500I0J172500D01*
G01*
G37*
%TD*%
%TO.C,R400*%
G36*
G01*
X170997500Y-36715000D02*
X170602500Y-36715000D01*
G75*
G02*
X170430000Y-36542500I0J172500D01*
G01*
X170430000Y-36197500D01*
G75*
G02*
X170602500Y-36025000I172500J0D01*
G01*
X170997500Y-36025000D01*
G75*
G02*
X171170000Y-36197500I0J-172500D01*
G01*
X171170000Y-36542500D01*
G75*
G02*
X170997500Y-36715000I-172500J0D01*
G01*
G37*
G36*
G01*
X170997500Y-35745000D02*
X170602500Y-35745000D01*
G75*
G02*
X170430000Y-35572500I0J172500D01*
G01*
X170430000Y-35227500D01*
G75*
G02*
X170602500Y-35055000I172500J0D01*
G01*
X170997500Y-35055000D01*
G75*
G02*
X171170000Y-35227500I0J-172500D01*
G01*
X171170000Y-35572500D01*
G75*
G02*
X170997500Y-35745000I-172500J0D01*
G01*
G37*
%TD*%
%TO.C,R401*%
G36*
G01*
X169697500Y-35745000D02*
X169302500Y-35745000D01*
G75*
G02*
X169130000Y-35572500I0J172500D01*
G01*
X169130000Y-35227500D01*
G75*
G02*
X169302500Y-35055000I172500J0D01*
G01*
X169697500Y-35055000D01*
G75*
G02*
X169870000Y-35227500I0J-172500D01*
G01*
X169870000Y-35572500D01*
G75*
G02*
X169697500Y-35745000I-172500J0D01*
G01*
G37*
G36*
G01*
X169697500Y-36715000D02*
X169302500Y-36715000D01*
G75*
G02*
X169130000Y-36542500I0J172500D01*
G01*
X169130000Y-36197500D01*
G75*
G02*
X169302500Y-36025000I172500J0D01*
G01*
X169697500Y-36025000D01*
G75*
G02*
X169870000Y-36197500I0J-172500D01*
G01*
X169870000Y-36542500D01*
G75*
G02*
X169697500Y-36715000I-172500J0D01*
G01*
G37*
%TD*%
%TO.C,R402*%
G36*
G01*
X168447500Y-36730000D02*
X168052500Y-36730000D01*
G75*
G02*
X167880000Y-36557500I0J172500D01*
G01*
X167880000Y-36212500D01*
G75*
G02*
X168052500Y-36040000I172500J0D01*
G01*
X168447500Y-36040000D01*
G75*
G02*
X168620000Y-36212500I0J-172500D01*
G01*
X168620000Y-36557500D01*
G75*
G02*
X168447500Y-36730000I-172500J0D01*
G01*
G37*
G36*
G01*
X168447500Y-35760000D02*
X168052500Y-35760000D01*
G75*
G02*
X167880000Y-35587500I0J172500D01*
G01*
X167880000Y-35242500D01*
G75*
G02*
X168052500Y-35070000I172500J0D01*
G01*
X168447500Y-35070000D01*
G75*
G02*
X168620000Y-35242500I0J-172500D01*
G01*
X168620000Y-35587500D01*
G75*
G02*
X168447500Y-35760000I-172500J0D01*
G01*
G37*
%TD*%
%TO.C,R403*%
G36*
G01*
X163797500Y-33415000D02*
X163402500Y-33415000D01*
G75*
G02*
X163230000Y-33242500I0J172500D01*
G01*
X163230000Y-32897500D01*
G75*
G02*
X163402500Y-32725000I172500J0D01*
G01*
X163797500Y-32725000D01*
G75*
G02*
X163970000Y-32897500I0J-172500D01*
G01*
X163970000Y-33242500D01*
G75*
G02*
X163797500Y-33415000I-172500J0D01*
G01*
G37*
G36*
G01*
X163797500Y-32445000D02*
X163402500Y-32445000D01*
G75*
G02*
X163230000Y-32272500I0J172500D01*
G01*
X163230000Y-31927500D01*
G75*
G02*
X163402500Y-31755000I172500J0D01*
G01*
X163797500Y-31755000D01*
G75*
G02*
X163970000Y-31927500I0J-172500D01*
G01*
X163970000Y-32272500D01*
G75*
G02*
X163797500Y-32445000I-172500J0D01*
G01*
G37*
%TD*%
%TO.C,R404*%
G36*
G01*
X142302500Y-32155000D02*
X142697500Y-32155000D01*
G75*
G02*
X142870000Y-32327500I0J-172500D01*
G01*
X142870000Y-32672500D01*
G75*
G02*
X142697500Y-32845000I-172500J0D01*
G01*
X142302500Y-32845000D01*
G75*
G02*
X142130000Y-32672500I0J172500D01*
G01*
X142130000Y-32327500D01*
G75*
G02*
X142302500Y-32155000I172500J0D01*
G01*
G37*
G36*
G01*
X142302500Y-33125000D02*
X142697500Y-33125000D01*
G75*
G02*
X142870000Y-33297500I0J-172500D01*
G01*
X142870000Y-33642500D01*
G75*
G02*
X142697500Y-33815000I-172500J0D01*
G01*
X142302500Y-33815000D01*
G75*
G02*
X142130000Y-33642500I0J172500D01*
G01*
X142130000Y-33297500D01*
G75*
G02*
X142302500Y-33125000I172500J0D01*
G01*
G37*
%TD*%
%TO.C,R405*%
G36*
G01*
X141052500Y-33125000D02*
X141447500Y-33125000D01*
G75*
G02*
X141620000Y-33297500I0J-172500D01*
G01*
X141620000Y-33642500D01*
G75*
G02*
X141447500Y-33815000I-172500J0D01*
G01*
X141052500Y-33815000D01*
G75*
G02*
X140880000Y-33642500I0J172500D01*
G01*
X140880000Y-33297500D01*
G75*
G02*
X141052500Y-33125000I172500J0D01*
G01*
G37*
G36*
G01*
X141052500Y-32155000D02*
X141447500Y-32155000D01*
G75*
G02*
X141620000Y-32327500I0J-172500D01*
G01*
X141620000Y-32672500D01*
G75*
G02*
X141447500Y-32845000I-172500J0D01*
G01*
X141052500Y-32845000D01*
G75*
G02*
X140880000Y-32672500I0J172500D01*
G01*
X140880000Y-32327500D01*
G75*
G02*
X141052500Y-32155000I172500J0D01*
G01*
G37*
%TD*%
%TO.C,R406*%
G36*
G01*
X154697500Y-74345000D02*
X154302500Y-74345000D01*
G75*
G02*
X154130000Y-74172500I0J172500D01*
G01*
X154130000Y-73827500D01*
G75*
G02*
X154302500Y-73655000I172500J0D01*
G01*
X154697500Y-73655000D01*
G75*
G02*
X154870000Y-73827500I0J-172500D01*
G01*
X154870000Y-74172500D01*
G75*
G02*
X154697500Y-74345000I-172500J0D01*
G01*
G37*
G36*
G01*
X154697500Y-73375000D02*
X154302500Y-73375000D01*
G75*
G02*
X154130000Y-73202500I0J172500D01*
G01*
X154130000Y-72857500D01*
G75*
G02*
X154302500Y-72685000I172500J0D01*
G01*
X154697500Y-72685000D01*
G75*
G02*
X154870000Y-72857500I0J-172500D01*
G01*
X154870000Y-73202500D01*
G75*
G02*
X154697500Y-73375000I-172500J0D01*
G01*
G37*
%TD*%
%TO.C,R407*%
G36*
G01*
X155947500Y-73375000D02*
X155552500Y-73375000D01*
G75*
G02*
X155380000Y-73202500I0J172500D01*
G01*
X155380000Y-72857500D01*
G75*
G02*
X155552500Y-72685000I172500J0D01*
G01*
X155947500Y-72685000D01*
G75*
G02*
X156120000Y-72857500I0J-172500D01*
G01*
X156120000Y-73202500D01*
G75*
G02*
X155947500Y-73375000I-172500J0D01*
G01*
G37*
G36*
G01*
X155947500Y-74345000D02*
X155552500Y-74345000D01*
G75*
G02*
X155380000Y-74172500I0J172500D01*
G01*
X155380000Y-73827500D01*
G75*
G02*
X155552500Y-73655000I172500J0D01*
G01*
X155947500Y-73655000D01*
G75*
G02*
X156120000Y-73827500I0J-172500D01*
G01*
X156120000Y-74172500D01*
G75*
G02*
X155947500Y-74345000I-172500J0D01*
G01*
G37*
%TD*%
%TO.C,R408*%
G36*
G01*
X142197500Y-74370000D02*
X141802500Y-74370000D01*
G75*
G02*
X141630000Y-74197500I0J172500D01*
G01*
X141630000Y-73852500D01*
G75*
G02*
X141802500Y-73680000I172500J0D01*
G01*
X142197500Y-73680000D01*
G75*
G02*
X142370000Y-73852500I0J-172500D01*
G01*
X142370000Y-74197500D01*
G75*
G02*
X142197500Y-74370000I-172500J0D01*
G01*
G37*
G36*
G01*
X142197500Y-73400000D02*
X141802500Y-73400000D01*
G75*
G02*
X141630000Y-73227500I0J172500D01*
G01*
X141630000Y-72882500D01*
G75*
G02*
X141802500Y-72710000I172500J0D01*
G01*
X142197500Y-72710000D01*
G75*
G02*
X142370000Y-72882500I0J-172500D01*
G01*
X142370000Y-73227500D01*
G75*
G02*
X142197500Y-73400000I-172500J0D01*
G01*
G37*
%TD*%
%TO.C,R409*%
G36*
G01*
X143447500Y-73410000D02*
X143052500Y-73410000D01*
G75*
G02*
X142880000Y-73237500I0J172500D01*
G01*
X142880000Y-72892500D01*
G75*
G02*
X143052500Y-72720000I172500J0D01*
G01*
X143447500Y-72720000D01*
G75*
G02*
X143620000Y-72892500I0J-172500D01*
G01*
X143620000Y-73237500D01*
G75*
G02*
X143447500Y-73410000I-172500J0D01*
G01*
G37*
G36*
G01*
X143447500Y-74380000D02*
X143052500Y-74380000D01*
G75*
G02*
X142880000Y-74207500I0J172500D01*
G01*
X142880000Y-73862500D01*
G75*
G02*
X143052500Y-73690000I172500J0D01*
G01*
X143447500Y-73690000D01*
G75*
G02*
X143620000Y-73862500I0J-172500D01*
G01*
X143620000Y-74207500D01*
G75*
G02*
X143447500Y-74380000I-172500J0D01*
G01*
G37*
%TD*%
%TO.C,R410*%
G36*
G01*
X133905000Y-65947500D02*
X133905000Y-65552500D01*
G75*
G02*
X134077500Y-65380000I172500J0D01*
G01*
X134422500Y-65380000D01*
G75*
G02*
X134595000Y-65552500I0J-172500D01*
G01*
X134595000Y-65947500D01*
G75*
G02*
X134422500Y-66120000I-172500J0D01*
G01*
X134077500Y-66120000D01*
G75*
G02*
X133905000Y-65947500I0J172500D01*
G01*
G37*
G36*
G01*
X134875000Y-65947500D02*
X134875000Y-65552500D01*
G75*
G02*
X135047500Y-65380000I172500J0D01*
G01*
X135392500Y-65380000D01*
G75*
G02*
X135565000Y-65552500I0J-172500D01*
G01*
X135565000Y-65947500D01*
G75*
G02*
X135392500Y-66120000I-172500J0D01*
G01*
X135047500Y-66120000D01*
G75*
G02*
X134875000Y-65947500I0J172500D01*
G01*
G37*
%TD*%
%TO.C,R411*%
G36*
G01*
X133905000Y-67197500D02*
X133905000Y-66802500D01*
G75*
G02*
X134077500Y-66630000I172500J0D01*
G01*
X134422500Y-66630000D01*
G75*
G02*
X134595000Y-66802500I0J-172500D01*
G01*
X134595000Y-67197500D01*
G75*
G02*
X134422500Y-67370000I-172500J0D01*
G01*
X134077500Y-67370000D01*
G75*
G02*
X133905000Y-67197500I0J172500D01*
G01*
G37*
G36*
G01*
X134875000Y-67197500D02*
X134875000Y-66802500D01*
G75*
G02*
X135047500Y-66630000I172500J0D01*
G01*
X135392500Y-66630000D01*
G75*
G02*
X135565000Y-66802500I0J-172500D01*
G01*
X135565000Y-67197500D01*
G75*
G02*
X135392500Y-67370000I-172500J0D01*
G01*
X135047500Y-67370000D01*
G75*
G02*
X134875000Y-67197500I0J172500D01*
G01*
G37*
%TD*%
%TO.C,R412*%
G36*
G01*
X133905000Y-39697500D02*
X133905000Y-39302500D01*
G75*
G02*
X134077500Y-39130000I172500J0D01*
G01*
X134422500Y-39130000D01*
G75*
G02*
X134595000Y-39302500I0J-172500D01*
G01*
X134595000Y-39697500D01*
G75*
G02*
X134422500Y-39870000I-172500J0D01*
G01*
X134077500Y-39870000D01*
G75*
G02*
X133905000Y-39697500I0J172500D01*
G01*
G37*
G36*
G01*
X134875000Y-39697500D02*
X134875000Y-39302500D01*
G75*
G02*
X135047500Y-39130000I172500J0D01*
G01*
X135392500Y-39130000D01*
G75*
G02*
X135565000Y-39302500I0J-172500D01*
G01*
X135565000Y-39697500D01*
G75*
G02*
X135392500Y-39870000I-172500J0D01*
G01*
X135047500Y-39870000D01*
G75*
G02*
X134875000Y-39697500I0J172500D01*
G01*
G37*
%TD*%
%TO.C,R413*%
G36*
G01*
X134875000Y-40947500D02*
X134875000Y-40552500D01*
G75*
G02*
X135047500Y-40380000I172500J0D01*
G01*
X135392500Y-40380000D01*
G75*
G02*
X135565000Y-40552500I0J-172500D01*
G01*
X135565000Y-40947500D01*
G75*
G02*
X135392500Y-41120000I-172500J0D01*
G01*
X135047500Y-41120000D01*
G75*
G02*
X134875000Y-40947500I0J172500D01*
G01*
G37*
G36*
G01*
X133905000Y-40947500D02*
X133905000Y-40552500D01*
G75*
G02*
X134077500Y-40380000I172500J0D01*
G01*
X134422500Y-40380000D01*
G75*
G02*
X134595000Y-40552500I0J-172500D01*
G01*
X134595000Y-40947500D01*
G75*
G02*
X134422500Y-41120000I-172500J0D01*
G01*
X134077500Y-41120000D01*
G75*
G02*
X133905000Y-40947500I0J172500D01*
G01*
G37*
%TD*%
%TO.C,R414*%
G36*
G01*
X133905000Y-52972500D02*
X133905000Y-52577500D01*
G75*
G02*
X134077500Y-52405000I172500J0D01*
G01*
X134422500Y-52405000D01*
G75*
G02*
X134595000Y-52577500I0J-172500D01*
G01*
X134595000Y-52972500D01*
G75*
G02*
X134422500Y-53145000I-172500J0D01*
G01*
X134077500Y-53145000D01*
G75*
G02*
X133905000Y-52972500I0J172500D01*
G01*
G37*
G36*
G01*
X134875000Y-52972500D02*
X134875000Y-52577500D01*
G75*
G02*
X135047500Y-52405000I172500J0D01*
G01*
X135392500Y-52405000D01*
G75*
G02*
X135565000Y-52577500I0J-172500D01*
G01*
X135565000Y-52972500D01*
G75*
G02*
X135392500Y-53145000I-172500J0D01*
G01*
X135047500Y-53145000D01*
G75*
G02*
X134875000Y-52972500I0J172500D01*
G01*
G37*
%TD*%
%TO.C,R415*%
G36*
G01*
X134875000Y-54197500D02*
X134875000Y-53802500D01*
G75*
G02*
X135047500Y-53630000I172500J0D01*
G01*
X135392500Y-53630000D01*
G75*
G02*
X135565000Y-53802500I0J-172500D01*
G01*
X135565000Y-54197500D01*
G75*
G02*
X135392500Y-54370000I-172500J0D01*
G01*
X135047500Y-54370000D01*
G75*
G02*
X134875000Y-54197500I0J172500D01*
G01*
G37*
G36*
G01*
X133905000Y-54197500D02*
X133905000Y-53802500D01*
G75*
G02*
X134077500Y-53630000I172500J0D01*
G01*
X134422500Y-53630000D01*
G75*
G02*
X134595000Y-53802500I0J-172500D01*
G01*
X134595000Y-54197500D01*
G75*
G02*
X134422500Y-54370000I-172500J0D01*
G01*
X134077500Y-54370000D01*
G75*
G02*
X133905000Y-54197500I0J172500D01*
G01*
G37*
%TD*%
D27*
%TO.C,SW200*%
X156725000Y-28920000D03*
X153725000Y-28920000D03*
D28*
X157475000Y-30680000D03*
X154475000Y-30680000D03*
X152975000Y-30680000D03*
D29*
X158875000Y-27820000D03*
X151575000Y-27820000D03*
X151575000Y-30030000D03*
X158875000Y-30030000D03*
%TD*%
D30*
%TO.C,U100*%
X164900000Y-72800000D03*
X164900000Y-73750000D03*
X164900000Y-74700000D03*
X167100000Y-74700000D03*
X167100000Y-72800000D03*
X167100000Y-73750000D03*
%TD*%
%TO.C,U200*%
G36*
G01*
X145700000Y-46950000D02*
X145700000Y-46750000D01*
G75*
G02*
X145800000Y-46650000I100000J0D01*
G01*
X147250000Y-46650000D01*
G75*
G02*
X147350000Y-46750000I0J-100000D01*
G01*
X147350000Y-46950000D01*
G75*
G02*
X147250000Y-47050000I-100000J0D01*
G01*
X145800000Y-47050000D01*
G75*
G02*
X145700000Y-46950000I0J100000D01*
G01*
G37*
G36*
G01*
X145700000Y-47450000D02*
X145700000Y-47250000D01*
G75*
G02*
X145800000Y-47150000I100000J0D01*
G01*
X147250000Y-47150000D01*
G75*
G02*
X147350000Y-47250000I0J-100000D01*
G01*
X147350000Y-47450000D01*
G75*
G02*
X147250000Y-47550000I-100000J0D01*
G01*
X145800000Y-47550000D01*
G75*
G02*
X145700000Y-47450000I0J100000D01*
G01*
G37*
G36*
G01*
X145700000Y-47950000D02*
X145700000Y-47750000D01*
G75*
G02*
X145800000Y-47650000I100000J0D01*
G01*
X147250000Y-47650000D01*
G75*
G02*
X147350000Y-47750000I0J-100000D01*
G01*
X147350000Y-47950000D01*
G75*
G02*
X147250000Y-48050000I-100000J0D01*
G01*
X145800000Y-48050000D01*
G75*
G02*
X145700000Y-47950000I0J100000D01*
G01*
G37*
G36*
G01*
X145700000Y-48450000D02*
X145700000Y-48250000D01*
G75*
G02*
X145800000Y-48150000I100000J0D01*
G01*
X147250000Y-48150000D01*
G75*
G02*
X147350000Y-48250000I0J-100000D01*
G01*
X147350000Y-48450000D01*
G75*
G02*
X147250000Y-48550000I-100000J0D01*
G01*
X145800000Y-48550000D01*
G75*
G02*
X145700000Y-48450000I0J100000D01*
G01*
G37*
G36*
G01*
X145700000Y-48950000D02*
X145700000Y-48750000D01*
G75*
G02*
X145800000Y-48650000I100000J0D01*
G01*
X147250000Y-48650000D01*
G75*
G02*
X147350000Y-48750000I0J-100000D01*
G01*
X147350000Y-48950000D01*
G75*
G02*
X147250000Y-49050000I-100000J0D01*
G01*
X145800000Y-49050000D01*
G75*
G02*
X145700000Y-48950000I0J100000D01*
G01*
G37*
G36*
G01*
X145700000Y-49450000D02*
X145700000Y-49250000D01*
G75*
G02*
X145800000Y-49150000I100000J0D01*
G01*
X147250000Y-49150000D01*
G75*
G02*
X147350000Y-49250000I0J-100000D01*
G01*
X147350000Y-49450000D01*
G75*
G02*
X147250000Y-49550000I-100000J0D01*
G01*
X145800000Y-49550000D01*
G75*
G02*
X145700000Y-49450000I0J100000D01*
G01*
G37*
G36*
G01*
X145700000Y-49950000D02*
X145700000Y-49750000D01*
G75*
G02*
X145800000Y-49650000I100000J0D01*
G01*
X147250000Y-49650000D01*
G75*
G02*
X147350000Y-49750000I0J-100000D01*
G01*
X147350000Y-49950000D01*
G75*
G02*
X147250000Y-50050000I-100000J0D01*
G01*
X145800000Y-50050000D01*
G75*
G02*
X145700000Y-49950000I0J100000D01*
G01*
G37*
G36*
G01*
X145700000Y-50450000D02*
X145700000Y-50250000D01*
G75*
G02*
X145800000Y-50150000I100000J0D01*
G01*
X147250000Y-50150000D01*
G75*
G02*
X147350000Y-50250000I0J-100000D01*
G01*
X147350000Y-50450000D01*
G75*
G02*
X147250000Y-50550000I-100000J0D01*
G01*
X145800000Y-50550000D01*
G75*
G02*
X145700000Y-50450000I0J100000D01*
G01*
G37*
G36*
G01*
X145700000Y-50950000D02*
X145700000Y-50750000D01*
G75*
G02*
X145800000Y-50650000I100000J0D01*
G01*
X147250000Y-50650000D01*
G75*
G02*
X147350000Y-50750000I0J-100000D01*
G01*
X147350000Y-50950000D01*
G75*
G02*
X147250000Y-51050000I-100000J0D01*
G01*
X145800000Y-51050000D01*
G75*
G02*
X145700000Y-50950000I0J100000D01*
G01*
G37*
G36*
G01*
X145700000Y-51450000D02*
X145700000Y-51250000D01*
G75*
G02*
X145800000Y-51150000I100000J0D01*
G01*
X147250000Y-51150000D01*
G75*
G02*
X147350000Y-51250000I0J-100000D01*
G01*
X147350000Y-51450000D01*
G75*
G02*
X147250000Y-51550000I-100000J0D01*
G01*
X145800000Y-51550000D01*
G75*
G02*
X145700000Y-51450000I0J100000D01*
G01*
G37*
G36*
G01*
X145700000Y-51950000D02*
X145700000Y-51750000D01*
G75*
G02*
X145800000Y-51650000I100000J0D01*
G01*
X147250000Y-51650000D01*
G75*
G02*
X147350000Y-51750000I0J-100000D01*
G01*
X147350000Y-51950000D01*
G75*
G02*
X147250000Y-52050000I-100000J0D01*
G01*
X145800000Y-52050000D01*
G75*
G02*
X145700000Y-51950000I0J100000D01*
G01*
G37*
G36*
G01*
X145700000Y-52450000D02*
X145700000Y-52250000D01*
G75*
G02*
X145800000Y-52150000I100000J0D01*
G01*
X147250000Y-52150000D01*
G75*
G02*
X147350000Y-52250000I0J-100000D01*
G01*
X147350000Y-52450000D01*
G75*
G02*
X147250000Y-52550000I-100000J0D01*
G01*
X145800000Y-52550000D01*
G75*
G02*
X145700000Y-52450000I0J100000D01*
G01*
G37*
G36*
G01*
X145700000Y-52950000D02*
X145700000Y-52750000D01*
G75*
G02*
X145800000Y-52650000I100000J0D01*
G01*
X147250000Y-52650000D01*
G75*
G02*
X147350000Y-52750000I0J-100000D01*
G01*
X147350000Y-52950000D01*
G75*
G02*
X147250000Y-53050000I-100000J0D01*
G01*
X145800000Y-53050000D01*
G75*
G02*
X145700000Y-52950000I0J100000D01*
G01*
G37*
G36*
G01*
X145700000Y-53450000D02*
X145700000Y-53250000D01*
G75*
G02*
X145800000Y-53150000I100000J0D01*
G01*
X147250000Y-53150000D01*
G75*
G02*
X147350000Y-53250000I0J-100000D01*
G01*
X147350000Y-53450000D01*
G75*
G02*
X147250000Y-53550000I-100000J0D01*
G01*
X145800000Y-53550000D01*
G75*
G02*
X145700000Y-53450000I0J100000D01*
G01*
G37*
G36*
G01*
X145700000Y-53950000D02*
X145700000Y-53750000D01*
G75*
G02*
X145800000Y-53650000I100000J0D01*
G01*
X147250000Y-53650000D01*
G75*
G02*
X147350000Y-53750000I0J-100000D01*
G01*
X147350000Y-53950000D01*
G75*
G02*
X147250000Y-54050000I-100000J0D01*
G01*
X145800000Y-54050000D01*
G75*
G02*
X145700000Y-53950000I0J100000D01*
G01*
G37*
G36*
G01*
X145700000Y-54450000D02*
X145700000Y-54250000D01*
G75*
G02*
X145800000Y-54150000I100000J0D01*
G01*
X147250000Y-54150000D01*
G75*
G02*
X147350000Y-54250000I0J-100000D01*
G01*
X147350000Y-54450000D01*
G75*
G02*
X147250000Y-54550000I-100000J0D01*
G01*
X145800000Y-54550000D01*
G75*
G02*
X145700000Y-54450000I0J100000D01*
G01*
G37*
G36*
G01*
X148250000Y-57000000D02*
X148250000Y-55550000D01*
G75*
G02*
X148350000Y-55450000I100000J0D01*
G01*
X148550000Y-55450000D01*
G75*
G02*
X148650000Y-55550000I0J-100000D01*
G01*
X148650000Y-57000000D01*
G75*
G02*
X148550000Y-57100000I-100000J0D01*
G01*
X148350000Y-57100000D01*
G75*
G02*
X148250000Y-57000000I0J100000D01*
G01*
G37*
G36*
G01*
X148750000Y-57000000D02*
X148750000Y-55550000D01*
G75*
G02*
X148850000Y-55450000I100000J0D01*
G01*
X149050000Y-55450000D01*
G75*
G02*
X149150000Y-55550000I0J-100000D01*
G01*
X149150000Y-57000000D01*
G75*
G02*
X149050000Y-57100000I-100000J0D01*
G01*
X148850000Y-57100000D01*
G75*
G02*
X148750000Y-57000000I0J100000D01*
G01*
G37*
G36*
G01*
X149250000Y-57000000D02*
X149250000Y-55550000D01*
G75*
G02*
X149350000Y-55450000I100000J0D01*
G01*
X149550000Y-55450000D01*
G75*
G02*
X149650000Y-55550000I0J-100000D01*
G01*
X149650000Y-57000000D01*
G75*
G02*
X149550000Y-57100000I-100000J0D01*
G01*
X149350000Y-57100000D01*
G75*
G02*
X149250000Y-57000000I0J100000D01*
G01*
G37*
G36*
G01*
X149750000Y-57000000D02*
X149750000Y-55550000D01*
G75*
G02*
X149850000Y-55450000I100000J0D01*
G01*
X150050000Y-55450000D01*
G75*
G02*
X150150000Y-55550000I0J-100000D01*
G01*
X150150000Y-57000000D01*
G75*
G02*
X150050000Y-57100000I-100000J0D01*
G01*
X149850000Y-57100000D01*
G75*
G02*
X149750000Y-57000000I0J100000D01*
G01*
G37*
G36*
G01*
X150250000Y-57000000D02*
X150250000Y-55550000D01*
G75*
G02*
X150350000Y-55450000I100000J0D01*
G01*
X150550000Y-55450000D01*
G75*
G02*
X150650000Y-55550000I0J-100000D01*
G01*
X150650000Y-57000000D01*
G75*
G02*
X150550000Y-57100000I-100000J0D01*
G01*
X150350000Y-57100000D01*
G75*
G02*
X150250000Y-57000000I0J100000D01*
G01*
G37*
G36*
G01*
X150750000Y-57000000D02*
X150750000Y-55550000D01*
G75*
G02*
X150850000Y-55450000I100000J0D01*
G01*
X151050000Y-55450000D01*
G75*
G02*
X151150000Y-55550000I0J-100000D01*
G01*
X151150000Y-57000000D01*
G75*
G02*
X151050000Y-57100000I-100000J0D01*
G01*
X150850000Y-57100000D01*
G75*
G02*
X150750000Y-57000000I0J100000D01*
G01*
G37*
G36*
G01*
X151250000Y-57000000D02*
X151250000Y-55550000D01*
G75*
G02*
X151350000Y-55450000I100000J0D01*
G01*
X151550000Y-55450000D01*
G75*
G02*
X151650000Y-55550000I0J-100000D01*
G01*
X151650000Y-57000000D01*
G75*
G02*
X151550000Y-57100000I-100000J0D01*
G01*
X151350000Y-57100000D01*
G75*
G02*
X151250000Y-57000000I0J100000D01*
G01*
G37*
G36*
G01*
X151750000Y-57000000D02*
X151750000Y-55550000D01*
G75*
G02*
X151850000Y-55450000I100000J0D01*
G01*
X152050000Y-55450000D01*
G75*
G02*
X152150000Y-55550000I0J-100000D01*
G01*
X152150000Y-57000000D01*
G75*
G02*
X152050000Y-57100000I-100000J0D01*
G01*
X151850000Y-57100000D01*
G75*
G02*
X151750000Y-57000000I0J100000D01*
G01*
G37*
G36*
G01*
X152250000Y-57000000D02*
X152250000Y-55550000D01*
G75*
G02*
X152350000Y-55450000I100000J0D01*
G01*
X152550000Y-55450000D01*
G75*
G02*
X152650000Y-55550000I0J-100000D01*
G01*
X152650000Y-57000000D01*
G75*
G02*
X152550000Y-57100000I-100000J0D01*
G01*
X152350000Y-57100000D01*
G75*
G02*
X152250000Y-57000000I0J100000D01*
G01*
G37*
G36*
G01*
X152750000Y-57000000D02*
X152750000Y-55550000D01*
G75*
G02*
X152850000Y-55450000I100000J0D01*
G01*
X153050000Y-55450000D01*
G75*
G02*
X153150000Y-55550000I0J-100000D01*
G01*
X153150000Y-57000000D01*
G75*
G02*
X153050000Y-57100000I-100000J0D01*
G01*
X152850000Y-57100000D01*
G75*
G02*
X152750000Y-57000000I0J100000D01*
G01*
G37*
G36*
G01*
X153250000Y-57000000D02*
X153250000Y-55550000D01*
G75*
G02*
X153350000Y-55450000I100000J0D01*
G01*
X153550000Y-55450000D01*
G75*
G02*
X153650000Y-55550000I0J-100000D01*
G01*
X153650000Y-57000000D01*
G75*
G02*
X153550000Y-57100000I-100000J0D01*
G01*
X153350000Y-57100000D01*
G75*
G02*
X153250000Y-57000000I0J100000D01*
G01*
G37*
G36*
G01*
X153750000Y-57000000D02*
X153750000Y-55550000D01*
G75*
G02*
X153850000Y-55450000I100000J0D01*
G01*
X154050000Y-55450000D01*
G75*
G02*
X154150000Y-55550000I0J-100000D01*
G01*
X154150000Y-57000000D01*
G75*
G02*
X154050000Y-57100000I-100000J0D01*
G01*
X153850000Y-57100000D01*
G75*
G02*
X153750000Y-57000000I0J100000D01*
G01*
G37*
G36*
G01*
X154250000Y-57000000D02*
X154250000Y-55550000D01*
G75*
G02*
X154350000Y-55450000I100000J0D01*
G01*
X154550000Y-55450000D01*
G75*
G02*
X154650000Y-55550000I0J-100000D01*
G01*
X154650000Y-57000000D01*
G75*
G02*
X154550000Y-57100000I-100000J0D01*
G01*
X154350000Y-57100000D01*
G75*
G02*
X154250000Y-57000000I0J100000D01*
G01*
G37*
G36*
G01*
X154750000Y-57000000D02*
X154750000Y-55550000D01*
G75*
G02*
X154850000Y-55450000I100000J0D01*
G01*
X155050000Y-55450000D01*
G75*
G02*
X155150000Y-55550000I0J-100000D01*
G01*
X155150000Y-57000000D01*
G75*
G02*
X155050000Y-57100000I-100000J0D01*
G01*
X154850000Y-57100000D01*
G75*
G02*
X154750000Y-57000000I0J100000D01*
G01*
G37*
G36*
G01*
X155250000Y-57000000D02*
X155250000Y-55550000D01*
G75*
G02*
X155350000Y-55450000I100000J0D01*
G01*
X155550000Y-55450000D01*
G75*
G02*
X155650000Y-55550000I0J-100000D01*
G01*
X155650000Y-57000000D01*
G75*
G02*
X155550000Y-57100000I-100000J0D01*
G01*
X155350000Y-57100000D01*
G75*
G02*
X155250000Y-57000000I0J100000D01*
G01*
G37*
G36*
G01*
X155750000Y-57000000D02*
X155750000Y-55550000D01*
G75*
G02*
X155850000Y-55450000I100000J0D01*
G01*
X156050000Y-55450000D01*
G75*
G02*
X156150000Y-55550000I0J-100000D01*
G01*
X156150000Y-57000000D01*
G75*
G02*
X156050000Y-57100000I-100000J0D01*
G01*
X155850000Y-57100000D01*
G75*
G02*
X155750000Y-57000000I0J100000D01*
G01*
G37*
G36*
G01*
X157050000Y-54450000D02*
X157050000Y-54250000D01*
G75*
G02*
X157150000Y-54150000I100000J0D01*
G01*
X158600000Y-54150000D01*
G75*
G02*
X158700000Y-54250000I0J-100000D01*
G01*
X158700000Y-54450000D01*
G75*
G02*
X158600000Y-54550000I-100000J0D01*
G01*
X157150000Y-54550000D01*
G75*
G02*
X157050000Y-54450000I0J100000D01*
G01*
G37*
G36*
G01*
X157050000Y-53950000D02*
X157050000Y-53750000D01*
G75*
G02*
X157150000Y-53650000I100000J0D01*
G01*
X158600000Y-53650000D01*
G75*
G02*
X158700000Y-53750000I0J-100000D01*
G01*
X158700000Y-53950000D01*
G75*
G02*
X158600000Y-54050000I-100000J0D01*
G01*
X157150000Y-54050000D01*
G75*
G02*
X157050000Y-53950000I0J100000D01*
G01*
G37*
G36*
G01*
X157050000Y-53450000D02*
X157050000Y-53250000D01*
G75*
G02*
X157150000Y-53150000I100000J0D01*
G01*
X158600000Y-53150000D01*
G75*
G02*
X158700000Y-53250000I0J-100000D01*
G01*
X158700000Y-53450000D01*
G75*
G02*
X158600000Y-53550000I-100000J0D01*
G01*
X157150000Y-53550000D01*
G75*
G02*
X157050000Y-53450000I0J100000D01*
G01*
G37*
G36*
G01*
X157050000Y-52950000D02*
X157050000Y-52750000D01*
G75*
G02*
X157150000Y-52650000I100000J0D01*
G01*
X158600000Y-52650000D01*
G75*
G02*
X158700000Y-52750000I0J-100000D01*
G01*
X158700000Y-52950000D01*
G75*
G02*
X158600000Y-53050000I-100000J0D01*
G01*
X157150000Y-53050000D01*
G75*
G02*
X157050000Y-52950000I0J100000D01*
G01*
G37*
G36*
G01*
X157050000Y-52450000D02*
X157050000Y-52250000D01*
G75*
G02*
X157150000Y-52150000I100000J0D01*
G01*
X158600000Y-52150000D01*
G75*
G02*
X158700000Y-52250000I0J-100000D01*
G01*
X158700000Y-52450000D01*
G75*
G02*
X158600000Y-52550000I-100000J0D01*
G01*
X157150000Y-52550000D01*
G75*
G02*
X157050000Y-52450000I0J100000D01*
G01*
G37*
G36*
G01*
X157050000Y-51950000D02*
X157050000Y-51750000D01*
G75*
G02*
X157150000Y-51650000I100000J0D01*
G01*
X158600000Y-51650000D01*
G75*
G02*
X158700000Y-51750000I0J-100000D01*
G01*
X158700000Y-51950000D01*
G75*
G02*
X158600000Y-52050000I-100000J0D01*
G01*
X157150000Y-52050000D01*
G75*
G02*
X157050000Y-51950000I0J100000D01*
G01*
G37*
G36*
G01*
X157050000Y-51450000D02*
X157050000Y-51250000D01*
G75*
G02*
X157150000Y-51150000I100000J0D01*
G01*
X158600000Y-51150000D01*
G75*
G02*
X158700000Y-51250000I0J-100000D01*
G01*
X158700000Y-51450000D01*
G75*
G02*
X158600000Y-51550000I-100000J0D01*
G01*
X157150000Y-51550000D01*
G75*
G02*
X157050000Y-51450000I0J100000D01*
G01*
G37*
G36*
G01*
X157050000Y-50950000D02*
X157050000Y-50750000D01*
G75*
G02*
X157150000Y-50650000I100000J0D01*
G01*
X158600000Y-50650000D01*
G75*
G02*
X158700000Y-50750000I0J-100000D01*
G01*
X158700000Y-50950000D01*
G75*
G02*
X158600000Y-51050000I-100000J0D01*
G01*
X157150000Y-51050000D01*
G75*
G02*
X157050000Y-50950000I0J100000D01*
G01*
G37*
G36*
G01*
X157050000Y-50450000D02*
X157050000Y-50250000D01*
G75*
G02*
X157150000Y-50150000I100000J0D01*
G01*
X158600000Y-50150000D01*
G75*
G02*
X158700000Y-50250000I0J-100000D01*
G01*
X158700000Y-50450000D01*
G75*
G02*
X158600000Y-50550000I-100000J0D01*
G01*
X157150000Y-50550000D01*
G75*
G02*
X157050000Y-50450000I0J100000D01*
G01*
G37*
G36*
G01*
X157050000Y-49950000D02*
X157050000Y-49750000D01*
G75*
G02*
X157150000Y-49650000I100000J0D01*
G01*
X158600000Y-49650000D01*
G75*
G02*
X158700000Y-49750000I0J-100000D01*
G01*
X158700000Y-49950000D01*
G75*
G02*
X158600000Y-50050000I-100000J0D01*
G01*
X157150000Y-50050000D01*
G75*
G02*
X157050000Y-49950000I0J100000D01*
G01*
G37*
G36*
G01*
X157050000Y-49450000D02*
X157050000Y-49250000D01*
G75*
G02*
X157150000Y-49150000I100000J0D01*
G01*
X158600000Y-49150000D01*
G75*
G02*
X158700000Y-49250000I0J-100000D01*
G01*
X158700000Y-49450000D01*
G75*
G02*
X158600000Y-49550000I-100000J0D01*
G01*
X157150000Y-49550000D01*
G75*
G02*
X157050000Y-49450000I0J100000D01*
G01*
G37*
G36*
G01*
X157050000Y-48950000D02*
X157050000Y-48750000D01*
G75*
G02*
X157150000Y-48650000I100000J0D01*
G01*
X158600000Y-48650000D01*
G75*
G02*
X158700000Y-48750000I0J-100000D01*
G01*
X158700000Y-48950000D01*
G75*
G02*
X158600000Y-49050000I-100000J0D01*
G01*
X157150000Y-49050000D01*
G75*
G02*
X157050000Y-48950000I0J100000D01*
G01*
G37*
G36*
G01*
X157050000Y-48450000D02*
X157050000Y-48250000D01*
G75*
G02*
X157150000Y-48150000I100000J0D01*
G01*
X158600000Y-48150000D01*
G75*
G02*
X158700000Y-48250000I0J-100000D01*
G01*
X158700000Y-48450000D01*
G75*
G02*
X158600000Y-48550000I-100000J0D01*
G01*
X157150000Y-48550000D01*
G75*
G02*
X157050000Y-48450000I0J100000D01*
G01*
G37*
G36*
G01*
X157050000Y-47950000D02*
X157050000Y-47750000D01*
G75*
G02*
X157150000Y-47650000I100000J0D01*
G01*
X158600000Y-47650000D01*
G75*
G02*
X158700000Y-47750000I0J-100000D01*
G01*
X158700000Y-47950000D01*
G75*
G02*
X158600000Y-48050000I-100000J0D01*
G01*
X157150000Y-48050000D01*
G75*
G02*
X157050000Y-47950000I0J100000D01*
G01*
G37*
G36*
G01*
X157050000Y-47450000D02*
X157050000Y-47250000D01*
G75*
G02*
X157150000Y-47150000I100000J0D01*
G01*
X158600000Y-47150000D01*
G75*
G02*
X158700000Y-47250000I0J-100000D01*
G01*
X158700000Y-47450000D01*
G75*
G02*
X158600000Y-47550000I-100000J0D01*
G01*
X157150000Y-47550000D01*
G75*
G02*
X157050000Y-47450000I0J100000D01*
G01*
G37*
G36*
G01*
X157050000Y-46950000D02*
X157050000Y-46750000D01*
G75*
G02*
X157150000Y-46650000I100000J0D01*
G01*
X158600000Y-46650000D01*
G75*
G02*
X158700000Y-46750000I0J-100000D01*
G01*
X158700000Y-46950000D01*
G75*
G02*
X158600000Y-47050000I-100000J0D01*
G01*
X157150000Y-47050000D01*
G75*
G02*
X157050000Y-46950000I0J100000D01*
G01*
G37*
G36*
G01*
X155750000Y-45650000D02*
X155750000Y-44200000D01*
G75*
G02*
X155850000Y-44100000I100000J0D01*
G01*
X156050000Y-44100000D01*
G75*
G02*
X156150000Y-44200000I0J-100000D01*
G01*
X156150000Y-45650000D01*
G75*
G02*
X156050000Y-45750000I-100000J0D01*
G01*
X155850000Y-45750000D01*
G75*
G02*
X155750000Y-45650000I0J100000D01*
G01*
G37*
G36*
G01*
X155250000Y-45650000D02*
X155250000Y-44200000D01*
G75*
G02*
X155350000Y-44100000I100000J0D01*
G01*
X155550000Y-44100000D01*
G75*
G02*
X155650000Y-44200000I0J-100000D01*
G01*
X155650000Y-45650000D01*
G75*
G02*
X155550000Y-45750000I-100000J0D01*
G01*
X155350000Y-45750000D01*
G75*
G02*
X155250000Y-45650000I0J100000D01*
G01*
G37*
G36*
G01*
X154750000Y-45650000D02*
X154750000Y-44200000D01*
G75*
G02*
X154850000Y-44100000I100000J0D01*
G01*
X155050000Y-44100000D01*
G75*
G02*
X155150000Y-44200000I0J-100000D01*
G01*
X155150000Y-45650000D01*
G75*
G02*
X155050000Y-45750000I-100000J0D01*
G01*
X154850000Y-45750000D01*
G75*
G02*
X154750000Y-45650000I0J100000D01*
G01*
G37*
G36*
G01*
X154250000Y-45650000D02*
X154250000Y-44200000D01*
G75*
G02*
X154350000Y-44100000I100000J0D01*
G01*
X154550000Y-44100000D01*
G75*
G02*
X154650000Y-44200000I0J-100000D01*
G01*
X154650000Y-45650000D01*
G75*
G02*
X154550000Y-45750000I-100000J0D01*
G01*
X154350000Y-45750000D01*
G75*
G02*
X154250000Y-45650000I0J100000D01*
G01*
G37*
G36*
G01*
X153750000Y-45650000D02*
X153750000Y-44200000D01*
G75*
G02*
X153850000Y-44100000I100000J0D01*
G01*
X154050000Y-44100000D01*
G75*
G02*
X154150000Y-44200000I0J-100000D01*
G01*
X154150000Y-45650000D01*
G75*
G02*
X154050000Y-45750000I-100000J0D01*
G01*
X153850000Y-45750000D01*
G75*
G02*
X153750000Y-45650000I0J100000D01*
G01*
G37*
G36*
G01*
X153250000Y-45650000D02*
X153250000Y-44200000D01*
G75*
G02*
X153350000Y-44100000I100000J0D01*
G01*
X153550000Y-44100000D01*
G75*
G02*
X153650000Y-44200000I0J-100000D01*
G01*
X153650000Y-45650000D01*
G75*
G02*
X153550000Y-45750000I-100000J0D01*
G01*
X153350000Y-45750000D01*
G75*
G02*
X153250000Y-45650000I0J100000D01*
G01*
G37*
G36*
G01*
X152750000Y-45650000D02*
X152750000Y-44200000D01*
G75*
G02*
X152850000Y-44100000I100000J0D01*
G01*
X153050000Y-44100000D01*
G75*
G02*
X153150000Y-44200000I0J-100000D01*
G01*
X153150000Y-45650000D01*
G75*
G02*
X153050000Y-45750000I-100000J0D01*
G01*
X152850000Y-45750000D01*
G75*
G02*
X152750000Y-45650000I0J100000D01*
G01*
G37*
G36*
G01*
X152250000Y-45650000D02*
X152250000Y-44200000D01*
G75*
G02*
X152350000Y-44100000I100000J0D01*
G01*
X152550000Y-44100000D01*
G75*
G02*
X152650000Y-44200000I0J-100000D01*
G01*
X152650000Y-45650000D01*
G75*
G02*
X152550000Y-45750000I-100000J0D01*
G01*
X152350000Y-45750000D01*
G75*
G02*
X152250000Y-45650000I0J100000D01*
G01*
G37*
G36*
G01*
X151750000Y-45650000D02*
X151750000Y-44200000D01*
G75*
G02*
X151850000Y-44100000I100000J0D01*
G01*
X152050000Y-44100000D01*
G75*
G02*
X152150000Y-44200000I0J-100000D01*
G01*
X152150000Y-45650000D01*
G75*
G02*
X152050000Y-45750000I-100000J0D01*
G01*
X151850000Y-45750000D01*
G75*
G02*
X151750000Y-45650000I0J100000D01*
G01*
G37*
G36*
G01*
X151250000Y-45650000D02*
X151250000Y-44200000D01*
G75*
G02*
X151350000Y-44100000I100000J0D01*
G01*
X151550000Y-44100000D01*
G75*
G02*
X151650000Y-44200000I0J-100000D01*
G01*
X151650000Y-45650000D01*
G75*
G02*
X151550000Y-45750000I-100000J0D01*
G01*
X151350000Y-45750000D01*
G75*
G02*
X151250000Y-45650000I0J100000D01*
G01*
G37*
G36*
G01*
X150750000Y-45650000D02*
X150750000Y-44200000D01*
G75*
G02*
X150850000Y-44100000I100000J0D01*
G01*
X151050000Y-44100000D01*
G75*
G02*
X151150000Y-44200000I0J-100000D01*
G01*
X151150000Y-45650000D01*
G75*
G02*
X151050000Y-45750000I-100000J0D01*
G01*
X150850000Y-45750000D01*
G75*
G02*
X150750000Y-45650000I0J100000D01*
G01*
G37*
G36*
G01*
X150250000Y-45650000D02*
X150250000Y-44200000D01*
G75*
G02*
X150350000Y-44100000I100000J0D01*
G01*
X150550000Y-44100000D01*
G75*
G02*
X150650000Y-44200000I0J-100000D01*
G01*
X150650000Y-45650000D01*
G75*
G02*
X150550000Y-45750000I-100000J0D01*
G01*
X150350000Y-45750000D01*
G75*
G02*
X150250000Y-45650000I0J100000D01*
G01*
G37*
G36*
G01*
X149750000Y-45650000D02*
X149750000Y-44200000D01*
G75*
G02*
X149850000Y-44100000I100000J0D01*
G01*
X150050000Y-44100000D01*
G75*
G02*
X150150000Y-44200000I0J-100000D01*
G01*
X150150000Y-45650000D01*
G75*
G02*
X150050000Y-45750000I-100000J0D01*
G01*
X149850000Y-45750000D01*
G75*
G02*
X149750000Y-45650000I0J100000D01*
G01*
G37*
G36*
G01*
X149250000Y-45650000D02*
X149250000Y-44200000D01*
G75*
G02*
X149350000Y-44100000I100000J0D01*
G01*
X149550000Y-44100000D01*
G75*
G02*
X149650000Y-44200000I0J-100000D01*
G01*
X149650000Y-45650000D01*
G75*
G02*
X149550000Y-45750000I-100000J0D01*
G01*
X149350000Y-45750000D01*
G75*
G02*
X149250000Y-45650000I0J100000D01*
G01*
G37*
G36*
G01*
X148750000Y-45650000D02*
X148750000Y-44200000D01*
G75*
G02*
X148850000Y-44100000I100000J0D01*
G01*
X149050000Y-44100000D01*
G75*
G02*
X149150000Y-44200000I0J-100000D01*
G01*
X149150000Y-45650000D01*
G75*
G02*
X149050000Y-45750000I-100000J0D01*
G01*
X148850000Y-45750000D01*
G75*
G02*
X148750000Y-45650000I0J100000D01*
G01*
G37*
G36*
G01*
X148250000Y-45650000D02*
X148250000Y-44200000D01*
G75*
G02*
X148350000Y-44100000I100000J0D01*
G01*
X148550000Y-44100000D01*
G75*
G02*
X148650000Y-44200000I0J-100000D01*
G01*
X148650000Y-45650000D01*
G75*
G02*
X148550000Y-45750000I-100000J0D01*
G01*
X148350000Y-45750000D01*
G75*
G02*
X148250000Y-45650000I0J100000D01*
G01*
G37*
%TD*%
D31*
%TO.C,U300*%
X159725000Y-39900000D03*
X157775000Y-38300000D03*
X158425000Y-38300000D03*
X159075000Y-38300000D03*
X157775000Y-39900000D03*
X158425000Y-39900000D03*
X159075000Y-39900000D03*
X159725000Y-38300000D03*
%TD*%
D30*
%TO.C,U400*%
X170150000Y-41575000D03*
X170150000Y-42525000D03*
X170150000Y-40625000D03*
X172350000Y-40625000D03*
X172350000Y-41575000D03*
X172350000Y-42525000D03*
%TD*%
D32*
%TO.C,Y200*%
X140350000Y-47750000D03*
X140350000Y-49950000D03*
X142050000Y-49950000D03*
X142050000Y-47750000D03*
%TD*%
M02*
