%TF.GenerationSoftware,KiCad,Pcbnew,(5.1.7)-1*%
%TF.CreationDate,2020-11-11T21:47:44+01:00*%
%TF.ProjectId,RBoard,52426f61-7264-42e6-9b69-6361645f7063,rev?*%
%TF.SameCoordinates,Original*%
%TF.FileFunction,Copper,L1,Top*%
%TF.FilePolarity,Positive*%
%FSLAX46Y46*%
G04 Gerber Fmt 4.6, Leading zero omitted, Abs format (unit mm)*
G04 Created by KiCad (PCBNEW (5.1.7)-1) date 2020-11-11 21:47:44*
%MOMM*%
%LPD*%
G01*
G04 APERTURE LIST*
%TA.AperFunction,ComponentPad*%
%ADD10O,1.800000X1.150000*%
%TD*%
%TA.AperFunction,ComponentPad*%
%ADD11O,2.000000X1.450000*%
%TD*%
%TA.AperFunction,SMDPad,CuDef*%
%ADD12R,1.300000X0.450000*%
%TD*%
%TA.AperFunction,SMDPad,CuDef*%
%ADD13R,0.800000X0.550000*%
%TD*%
%TA.AperFunction,SMDPad,CuDef*%
%ADD14R,3.450000X4.350000*%
%TD*%
%TA.AperFunction,SMDPad,CuDef*%
%ADD15R,0.750000X0.500000*%
%TD*%
%TA.AperFunction,SMDPad,CuDef*%
%ADD16R,0.475000X0.250000*%
%TD*%
%TA.AperFunction,SMDPad,CuDef*%
%ADD17R,0.250000X0.475000*%
%TD*%
%TA.AperFunction,SMDPad,CuDef*%
%ADD18R,1.200000X0.900000*%
%TD*%
%TA.AperFunction,ComponentPad*%
%ADD19O,1.300000X0.800000*%
%TD*%
%TA.AperFunction,SMDPad,CuDef*%
%ADD20R,0.740000X2.400000*%
%TD*%
%TA.AperFunction,ComponentPad*%
%ADD21O,0.800000X1.300000*%
%TD*%
%TA.AperFunction,SMDPad,CuDef*%
%ADD22R,1.900000X2.500000*%
%TD*%
%TA.AperFunction,SMDPad,CuDef*%
%ADD23R,0.800000X0.900000*%
%TD*%
%TA.AperFunction,SMDPad,CuDef*%
%ADD24R,0.700000X1.500000*%
%TD*%
%TA.AperFunction,SMDPad,CuDef*%
%ADD25R,1.000000X0.800000*%
%TD*%
%TA.AperFunction,SMDPad,CuDef*%
%ADD26R,1.060000X0.650000*%
%TD*%
%TA.AperFunction,SMDPad,CuDef*%
%ADD27R,0.350000X0.500000*%
%TD*%
%TA.AperFunction,SMDPad,CuDef*%
%ADD28R,1.200000X1.400000*%
%TD*%
%TA.AperFunction,ViaPad*%
%ADD29C,0.800000*%
%TD*%
%TA.AperFunction,ViaPad*%
%ADD30C,0.609600*%
%TD*%
%TA.AperFunction,Conductor*%
%ADD31C,0.300000*%
%TD*%
%TA.AperFunction,Conductor*%
%ADD32C,0.500000*%
%TD*%
%TA.AperFunction,Conductor*%
%ADD33C,0.750000*%
%TD*%
%TA.AperFunction,Conductor*%
%ADD34C,0.261112*%
%TD*%
%TA.AperFunction,Conductor*%
%ADD35C,0.200000*%
%TD*%
%TA.AperFunction,Conductor*%
%ADD36C,0.254000*%
%TD*%
%TA.AperFunction,Conductor*%
%ADD37C,0.100000*%
%TD*%
G04 APERTURE END LIST*
D10*
%TO.P,J402,6*%
%TO.N,Net-(J402-Pad6)*%
X180720000Y-37445000D03*
X180720000Y-45195000D03*
D11*
X176920000Y-37595000D03*
X176920000Y-45045000D03*
D12*
%TO.P,J402,5*%
%TO.N,GND*%
X176870000Y-40020000D03*
%TO.P,J402,4*%
%TO.N,N/C*%
X176870000Y-40670000D03*
%TO.P,J402,3*%
%TO.N,USB_D+*%
X176870000Y-41320000D03*
%TO.P,J402,2*%
%TO.N,USB_D-*%
X176870000Y-41970000D03*
%TO.P,J402,1*%
%TO.N,+5V*%
X176870000Y-42620000D03*
%TD*%
D13*
%TO.P,D201,3*%
%TO.N,Net-(D201-Pad3)*%
X150350000Y-37375000D03*
%TO.P,D201,4*%
%TO.N,+3V3*%
X150350000Y-36475000D03*
%TO.P,D201,1*%
%TO.N,Net-(D201-Pad1)*%
X151950000Y-36475000D03*
%TO.P,D201,2*%
%TO.N,Net-(D201-Pad2)*%
X151950000Y-37375000D03*
%TD*%
D14*
%TO.P,U201,9*%
%TO.N,GND*%
X166600000Y-54750000D03*
D15*
%TO.P,U201,5*%
%TO.N,SPI2_MOSI*%
X162770000Y-52850000D03*
%TO.P,U201,6*%
%TO.N,SPI2_SCK*%
X162770000Y-54120000D03*
%TO.P,U201,8*%
%TO.N,+3V3*%
X162770000Y-56660000D03*
%TO.P,U201,7*%
%TO.N,FLASH_!HOLD*%
X162770000Y-55390000D03*
%TO.P,U201,1*%
%TO.N,SPI2_!CS*%
X170440000Y-56660000D03*
%TO.P,U201,2*%
%TO.N,SPI2_MISO*%
X170440000Y-55390000D03*
%TO.P,U201,4*%
%TO.N,GND*%
X170440000Y-52850000D03*
%TO.P,U201,3*%
%TO.N,FLASH_!WP*%
X170440000Y-54120000D03*
%TD*%
D16*
%TO.P,U301,8*%
%TO.N,SPI1_SCK*%
X147040000Y-66085000D03*
%TO.P,U301,16*%
%TO.N,INT_ACC*%
X150860000Y-66075000D03*
D17*
%TO.P,U301,9*%
%TO.N,SPI1_MOSI*%
X147450000Y-64925000D03*
%TO.P,U301,10*%
%TO.N,SPI1_MISO*%
X147950000Y-64925000D03*
%TO.P,U301,11*%
%TO.N,+3V3*%
X148450000Y-64925000D03*
%TO.P,U301,12*%
%TO.N,INT_GYR*%
X148950000Y-64915000D03*
%TO.P,U301,13*%
%TO.N,N/C*%
X149450000Y-64915000D03*
%TO.P,U301,14*%
%TO.N,SPI1_!CS_ACC*%
X149950000Y-64915000D03*
%TO.P,U301,15*%
%TO.N,SPI1_MISO*%
X150450000Y-64915000D03*
%TO.P,U301,1*%
%TO.N,N/C*%
X150450000Y-67235000D03*
%TO.P,U301,2*%
%TO.N,GND*%
X149950000Y-67235000D03*
%TO.P,U301,3*%
%TO.N,+3V3*%
X149450000Y-67235000D03*
%TO.P,U301,7*%
%TO.N,GND*%
X147450000Y-67235000D03*
%TO.P,U301,6*%
X147950000Y-67235000D03*
%TO.P,U301,5*%
%TO.N,SPI1_!CS_GYR*%
X148450000Y-67235000D03*
%TO.P,U301,4*%
%TO.N,GND*%
X148950000Y-67235000D03*
%TD*%
%TO.P,R208,2*%
%TO.N,TIM4_CH1*%
%TA.AperFunction,SMDPad,CuDef*%
G36*
G01*
X150177500Y-39350000D02*
X150522500Y-39350000D01*
G75*
G02*
X150670000Y-39497500I0J-147500D01*
G01*
X150670000Y-39792500D01*
G75*
G02*
X150522500Y-39940000I-147500J0D01*
G01*
X150177500Y-39940000D01*
G75*
G02*
X150030000Y-39792500I0J147500D01*
G01*
X150030000Y-39497500D01*
G75*
G02*
X150177500Y-39350000I147500J0D01*
G01*
G37*
%TD.AperFunction*%
%TO.P,R208,1*%
%TO.N,Net-(D201-Pad3)*%
%TA.AperFunction,SMDPad,CuDef*%
G36*
G01*
X150177500Y-38380000D02*
X150522500Y-38380000D01*
G75*
G02*
X150670000Y-38527500I0J-147500D01*
G01*
X150670000Y-38822500D01*
G75*
G02*
X150522500Y-38970000I-147500J0D01*
G01*
X150177500Y-38970000D01*
G75*
G02*
X150030000Y-38822500I0J147500D01*
G01*
X150030000Y-38527500D01*
G75*
G02*
X150177500Y-38380000I147500J0D01*
G01*
G37*
%TD.AperFunction*%
%TD*%
%TO.P,R207,2*%
%TO.N,TIM3_CH2*%
%TA.AperFunction,SMDPad,CuDef*%
G36*
G01*
X151777500Y-39350000D02*
X152122500Y-39350000D01*
G75*
G02*
X152270000Y-39497500I0J-147500D01*
G01*
X152270000Y-39792500D01*
G75*
G02*
X152122500Y-39940000I-147500J0D01*
G01*
X151777500Y-39940000D01*
G75*
G02*
X151630000Y-39792500I0J147500D01*
G01*
X151630000Y-39497500D01*
G75*
G02*
X151777500Y-39350000I147500J0D01*
G01*
G37*
%TD.AperFunction*%
%TO.P,R207,1*%
%TO.N,Net-(D201-Pad2)*%
%TA.AperFunction,SMDPad,CuDef*%
G36*
G01*
X151777500Y-38380000D02*
X152122500Y-38380000D01*
G75*
G02*
X152270000Y-38527500I0J-147500D01*
G01*
X152270000Y-38822500D01*
G75*
G02*
X152122500Y-38970000I-147500J0D01*
G01*
X151777500Y-38970000D01*
G75*
G02*
X151630000Y-38822500I0J147500D01*
G01*
X151630000Y-38527500D01*
G75*
G02*
X151777500Y-38380000I147500J0D01*
G01*
G37*
%TD.AperFunction*%
%TD*%
%TO.P,R206,2*%
%TO.N,TIM3_CH1*%
%TA.AperFunction,SMDPad,CuDef*%
G36*
G01*
X153377500Y-39350000D02*
X153722500Y-39350000D01*
G75*
G02*
X153870000Y-39497500I0J-147500D01*
G01*
X153870000Y-39792500D01*
G75*
G02*
X153722500Y-39940000I-147500J0D01*
G01*
X153377500Y-39940000D01*
G75*
G02*
X153230000Y-39792500I0J147500D01*
G01*
X153230000Y-39497500D01*
G75*
G02*
X153377500Y-39350000I147500J0D01*
G01*
G37*
%TD.AperFunction*%
%TO.P,R206,1*%
%TO.N,Net-(D201-Pad1)*%
%TA.AperFunction,SMDPad,CuDef*%
G36*
G01*
X153377500Y-38380000D02*
X153722500Y-38380000D01*
G75*
G02*
X153870000Y-38527500I0J-147500D01*
G01*
X153870000Y-38822500D01*
G75*
G02*
X153722500Y-38970000I-147500J0D01*
G01*
X153377500Y-38970000D01*
G75*
G02*
X153230000Y-38822500I0J147500D01*
G01*
X153230000Y-38527500D01*
G75*
G02*
X153377500Y-38380000I147500J0D01*
G01*
G37*
%TD.AperFunction*%
%TD*%
%TO.P,C100,1*%
%TO.N,Net-(C100-Pad1)*%
%TA.AperFunction,SMDPad,CuDef*%
G36*
G01*
X171625000Y-74375000D02*
X170375000Y-74375000D01*
G75*
G02*
X170125000Y-74125000I0J250000D01*
G01*
X170125000Y-73375000D01*
G75*
G02*
X170375000Y-73125000I250000J0D01*
G01*
X171625000Y-73125000D01*
G75*
G02*
X171875000Y-73375000I0J-250000D01*
G01*
X171875000Y-74125000D01*
G75*
G02*
X171625000Y-74375000I-250000J0D01*
G01*
G37*
%TD.AperFunction*%
%TO.P,C100,2*%
%TO.N,GND*%
%TA.AperFunction,SMDPad,CuDef*%
G36*
G01*
X171625000Y-71575000D02*
X170375000Y-71575000D01*
G75*
G02*
X170125000Y-71325000I0J250000D01*
G01*
X170125000Y-70575000D01*
G75*
G02*
X170375000Y-70325000I250000J0D01*
G01*
X171625000Y-70325000D01*
G75*
G02*
X171875000Y-70575000I0J-250000D01*
G01*
X171875000Y-71325000D01*
G75*
G02*
X171625000Y-71575000I-250000J0D01*
G01*
G37*
%TD.AperFunction*%
%TD*%
%TO.P,C101,2*%
%TO.N,Net-(C101-Pad2)*%
%TA.AperFunction,SMDPad,CuDef*%
G36*
G01*
X165650000Y-70493750D02*
X165650000Y-71006250D01*
G75*
G02*
X165431250Y-71225000I-218750J0D01*
G01*
X164993750Y-71225000D01*
G75*
G02*
X164775000Y-71006250I0J218750D01*
G01*
X164775000Y-70493750D01*
G75*
G02*
X164993750Y-70275000I218750J0D01*
G01*
X165431250Y-70275000D01*
G75*
G02*
X165650000Y-70493750I0J-218750D01*
G01*
G37*
%TD.AperFunction*%
%TO.P,C101,1*%
%TO.N,Net-(C101-Pad1)*%
%TA.AperFunction,SMDPad,CuDef*%
G36*
G01*
X167225000Y-70493750D02*
X167225000Y-71006250D01*
G75*
G02*
X167006250Y-71225000I-218750J0D01*
G01*
X166568750Y-71225000D01*
G75*
G02*
X166350000Y-71006250I0J218750D01*
G01*
X166350000Y-70493750D01*
G75*
G02*
X166568750Y-70275000I218750J0D01*
G01*
X167006250Y-70275000D01*
G75*
G02*
X167225000Y-70493750I0J-218750D01*
G01*
G37*
%TD.AperFunction*%
%TD*%
%TO.P,C102,1*%
%TO.N,+3V3*%
%TA.AperFunction,SMDPad,CuDef*%
G36*
G01*
X160375000Y-66125000D02*
X161625000Y-66125000D01*
G75*
G02*
X161875000Y-66375000I0J-250000D01*
G01*
X161875000Y-67125000D01*
G75*
G02*
X161625000Y-67375000I-250000J0D01*
G01*
X160375000Y-67375000D01*
G75*
G02*
X160125000Y-67125000I0J250000D01*
G01*
X160125000Y-66375000D01*
G75*
G02*
X160375000Y-66125000I250000J0D01*
G01*
G37*
%TD.AperFunction*%
%TO.P,C102,2*%
%TO.N,GND*%
%TA.AperFunction,SMDPad,CuDef*%
G36*
G01*
X160375000Y-68925000D02*
X161625000Y-68925000D01*
G75*
G02*
X161875000Y-69175000I0J-250000D01*
G01*
X161875000Y-69925000D01*
G75*
G02*
X161625000Y-70175000I-250000J0D01*
G01*
X160375000Y-70175000D01*
G75*
G02*
X160125000Y-69925000I0J250000D01*
G01*
X160125000Y-69175000D01*
G75*
G02*
X160375000Y-68925000I250000J0D01*
G01*
G37*
%TD.AperFunction*%
%TD*%
%TO.P,C103,2*%
%TO.N,GND*%
%TA.AperFunction,SMDPad,CuDef*%
G36*
G01*
X166775000Y-62875000D02*
X166775000Y-61625000D01*
G75*
G02*
X167025000Y-61375000I250000J0D01*
G01*
X167775000Y-61375000D01*
G75*
G02*
X168025000Y-61625000I0J-250000D01*
G01*
X168025000Y-62875000D01*
G75*
G02*
X167775000Y-63125000I-250000J0D01*
G01*
X167025000Y-63125000D01*
G75*
G02*
X166775000Y-62875000I0J250000D01*
G01*
G37*
%TD.AperFunction*%
%TO.P,C103,1*%
%TO.N,+3V3*%
%TA.AperFunction,SMDPad,CuDef*%
G36*
G01*
X163975000Y-62875000D02*
X163975000Y-61625000D01*
G75*
G02*
X164225000Y-61375000I250000J0D01*
G01*
X164975000Y-61375000D01*
G75*
G02*
X165225000Y-61625000I0J-250000D01*
G01*
X165225000Y-62875000D01*
G75*
G02*
X164975000Y-63125000I-250000J0D01*
G01*
X164225000Y-63125000D01*
G75*
G02*
X163975000Y-62875000I0J250000D01*
G01*
G37*
%TD.AperFunction*%
%TD*%
%TO.P,C200,1*%
%TO.N,+3V3*%
%TA.AperFunction,SMDPad,CuDef*%
G36*
G01*
X146825000Y-42793750D02*
X146825000Y-43306250D01*
G75*
G02*
X146606250Y-43525000I-218750J0D01*
G01*
X146168750Y-43525000D01*
G75*
G02*
X145950000Y-43306250I0J218750D01*
G01*
X145950000Y-42793750D01*
G75*
G02*
X146168750Y-42575000I218750J0D01*
G01*
X146606250Y-42575000D01*
G75*
G02*
X146825000Y-42793750I0J-218750D01*
G01*
G37*
%TD.AperFunction*%
%TO.P,C200,2*%
%TO.N,GND*%
%TA.AperFunction,SMDPad,CuDef*%
G36*
G01*
X145250000Y-42793750D02*
X145250000Y-43306250D01*
G75*
G02*
X145031250Y-43525000I-218750J0D01*
G01*
X144593750Y-43525000D01*
G75*
G02*
X144375000Y-43306250I0J218750D01*
G01*
X144375000Y-42793750D01*
G75*
G02*
X144593750Y-42575000I218750J0D01*
G01*
X145031250Y-42575000D01*
G75*
G02*
X145250000Y-42793750I0J-218750D01*
G01*
G37*
%TD.AperFunction*%
%TD*%
%TO.P,C201,2*%
%TO.N,GND*%
%TA.AperFunction,SMDPad,CuDef*%
G36*
G01*
X144772500Y-46160000D02*
X144427500Y-46160000D01*
G75*
G02*
X144280000Y-46012500I0J147500D01*
G01*
X144280000Y-45717500D01*
G75*
G02*
X144427500Y-45570000I147500J0D01*
G01*
X144772500Y-45570000D01*
G75*
G02*
X144920000Y-45717500I0J-147500D01*
G01*
X144920000Y-46012500D01*
G75*
G02*
X144772500Y-46160000I-147500J0D01*
G01*
G37*
%TD.AperFunction*%
%TO.P,C201,1*%
%TO.N,+3V3*%
%TA.AperFunction,SMDPad,CuDef*%
G36*
G01*
X144772500Y-47130000D02*
X144427500Y-47130000D01*
G75*
G02*
X144280000Y-46982500I0J147500D01*
G01*
X144280000Y-46687500D01*
G75*
G02*
X144427500Y-46540000I147500J0D01*
G01*
X144772500Y-46540000D01*
G75*
G02*
X144920000Y-46687500I0J-147500D01*
G01*
X144920000Y-46982500D01*
G75*
G02*
X144772500Y-47130000I-147500J0D01*
G01*
G37*
%TD.AperFunction*%
%TD*%
%TO.P,C202,1*%
%TO.N,+3V3*%
%TA.AperFunction,SMDPad,CuDef*%
G36*
G01*
X149505000Y-58077500D02*
X149505000Y-58422500D01*
G75*
G02*
X149357500Y-58570000I-147500J0D01*
G01*
X149062500Y-58570000D01*
G75*
G02*
X148915000Y-58422500I0J147500D01*
G01*
X148915000Y-58077500D01*
G75*
G02*
X149062500Y-57930000I147500J0D01*
G01*
X149357500Y-57930000D01*
G75*
G02*
X149505000Y-58077500I0J-147500D01*
G01*
G37*
%TD.AperFunction*%
%TO.P,C202,2*%
%TO.N,GND*%
%TA.AperFunction,SMDPad,CuDef*%
G36*
G01*
X148535000Y-58077500D02*
X148535000Y-58422500D01*
G75*
G02*
X148387500Y-58570000I-147500J0D01*
G01*
X148092500Y-58570000D01*
G75*
G02*
X147945000Y-58422500I0J147500D01*
G01*
X147945000Y-58077500D01*
G75*
G02*
X148092500Y-57930000I147500J0D01*
G01*
X148387500Y-57930000D01*
G75*
G02*
X148535000Y-58077500I0J-147500D01*
G01*
G37*
%TD.AperFunction*%
%TD*%
%TO.P,C203,2*%
%TO.N,GND*%
%TA.AperFunction,SMDPad,CuDef*%
G36*
G01*
X157825000Y-56822500D02*
X157825000Y-56477500D01*
G75*
G02*
X157972500Y-56330000I147500J0D01*
G01*
X158267500Y-56330000D01*
G75*
G02*
X158415000Y-56477500I0J-147500D01*
G01*
X158415000Y-56822500D01*
G75*
G02*
X158267500Y-56970000I-147500J0D01*
G01*
X157972500Y-56970000D01*
G75*
G02*
X157825000Y-56822500I0J147500D01*
G01*
G37*
%TD.AperFunction*%
%TO.P,C203,1*%
%TO.N,+3V3*%
%TA.AperFunction,SMDPad,CuDef*%
G36*
G01*
X156855000Y-56822500D02*
X156855000Y-56477500D01*
G75*
G02*
X157002500Y-56330000I147500J0D01*
G01*
X157297500Y-56330000D01*
G75*
G02*
X157445000Y-56477500I0J-147500D01*
G01*
X157445000Y-56822500D01*
G75*
G02*
X157297500Y-56970000I-147500J0D01*
G01*
X157002500Y-56970000D01*
G75*
G02*
X156855000Y-56822500I0J147500D01*
G01*
G37*
%TD.AperFunction*%
%TD*%
%TO.P,C204,1*%
%TO.N,+3V3*%
%TA.AperFunction,SMDPad,CuDef*%
G36*
G01*
X158422500Y-45995000D02*
X158077500Y-45995000D01*
G75*
G02*
X157930000Y-45847500I0J147500D01*
G01*
X157930000Y-45552500D01*
G75*
G02*
X158077500Y-45405000I147500J0D01*
G01*
X158422500Y-45405000D01*
G75*
G02*
X158570000Y-45552500I0J-147500D01*
G01*
X158570000Y-45847500D01*
G75*
G02*
X158422500Y-45995000I-147500J0D01*
G01*
G37*
%TD.AperFunction*%
%TO.P,C204,2*%
%TO.N,GND*%
%TA.AperFunction,SMDPad,CuDef*%
G36*
G01*
X158422500Y-45025000D02*
X158077500Y-45025000D01*
G75*
G02*
X157930000Y-44877500I0J147500D01*
G01*
X157930000Y-44582500D01*
G75*
G02*
X158077500Y-44435000I147500J0D01*
G01*
X158422500Y-44435000D01*
G75*
G02*
X158570000Y-44582500I0J-147500D01*
G01*
X158570000Y-44877500D01*
G75*
G02*
X158422500Y-45025000I-147500J0D01*
G01*
G37*
%TD.AperFunction*%
%TD*%
%TO.P,C205,2*%
%TO.N,GND*%
%TA.AperFunction,SMDPad,CuDef*%
G36*
G01*
X148390000Y-43222500D02*
X148390000Y-42877500D01*
G75*
G02*
X148537500Y-42730000I147500J0D01*
G01*
X148832500Y-42730000D01*
G75*
G02*
X148980000Y-42877500I0J-147500D01*
G01*
X148980000Y-43222500D01*
G75*
G02*
X148832500Y-43370000I-147500J0D01*
G01*
X148537500Y-43370000D01*
G75*
G02*
X148390000Y-43222500I0J147500D01*
G01*
G37*
%TD.AperFunction*%
%TO.P,C205,1*%
%TO.N,+3V3*%
%TA.AperFunction,SMDPad,CuDef*%
G36*
G01*
X147420000Y-43222500D02*
X147420000Y-42877500D01*
G75*
G02*
X147567500Y-42730000I147500J0D01*
G01*
X147862500Y-42730000D01*
G75*
G02*
X148010000Y-42877500I0J-147500D01*
G01*
X148010000Y-43222500D01*
G75*
G02*
X147862500Y-43370000I-147500J0D01*
G01*
X147567500Y-43370000D01*
G75*
G02*
X147420000Y-43222500I0J147500D01*
G01*
G37*
%TD.AperFunction*%
%TD*%
%TO.P,C206,2*%
%TO.N,GND*%
%TA.AperFunction,SMDPad,CuDef*%
G36*
G01*
X143522500Y-52410000D02*
X143177500Y-52410000D01*
G75*
G02*
X143030000Y-52262500I0J147500D01*
G01*
X143030000Y-51967500D01*
G75*
G02*
X143177500Y-51820000I147500J0D01*
G01*
X143522500Y-51820000D01*
G75*
G02*
X143670000Y-51967500I0J-147500D01*
G01*
X143670000Y-52262500D01*
G75*
G02*
X143522500Y-52410000I-147500J0D01*
G01*
G37*
%TD.AperFunction*%
%TO.P,C206,1*%
%TO.N,+3.3VA*%
%TA.AperFunction,SMDPad,CuDef*%
G36*
G01*
X143522500Y-53380000D02*
X143177500Y-53380000D01*
G75*
G02*
X143030000Y-53232500I0J147500D01*
G01*
X143030000Y-52937500D01*
G75*
G02*
X143177500Y-52790000I147500J0D01*
G01*
X143522500Y-52790000D01*
G75*
G02*
X143670000Y-52937500I0J-147500D01*
G01*
X143670000Y-53232500D01*
G75*
G02*
X143522500Y-53380000I-147500J0D01*
G01*
G37*
%TD.AperFunction*%
%TD*%
%TO.P,C207,1*%
%TO.N,+3.3VA*%
%TA.AperFunction,SMDPad,CuDef*%
G36*
G01*
X144672500Y-53380000D02*
X144327500Y-53380000D01*
G75*
G02*
X144180000Y-53232500I0J147500D01*
G01*
X144180000Y-52937500D01*
G75*
G02*
X144327500Y-52790000I147500J0D01*
G01*
X144672500Y-52790000D01*
G75*
G02*
X144820000Y-52937500I0J-147500D01*
G01*
X144820000Y-53232500D01*
G75*
G02*
X144672500Y-53380000I-147500J0D01*
G01*
G37*
%TD.AperFunction*%
%TO.P,C207,2*%
%TO.N,GND*%
%TA.AperFunction,SMDPad,CuDef*%
G36*
G01*
X144672500Y-52410000D02*
X144327500Y-52410000D01*
G75*
G02*
X144180000Y-52262500I0J147500D01*
G01*
X144180000Y-51967500D01*
G75*
G02*
X144327500Y-51820000I147500J0D01*
G01*
X144672500Y-51820000D01*
G75*
G02*
X144820000Y-51967500I0J-147500D01*
G01*
X144820000Y-52262500D01*
G75*
G02*
X144672500Y-52410000I-147500J0D01*
G01*
G37*
%TD.AperFunction*%
%TD*%
%TO.P,C208,2*%
%TO.N,GND*%
%TA.AperFunction,SMDPad,CuDef*%
G36*
G01*
X157137500Y-58656250D02*
X157137500Y-58143750D01*
G75*
G02*
X157356250Y-57925000I218750J0D01*
G01*
X157793750Y-57925000D01*
G75*
G02*
X158012500Y-58143750I0J-218750D01*
G01*
X158012500Y-58656250D01*
G75*
G02*
X157793750Y-58875000I-218750J0D01*
G01*
X157356250Y-58875000D01*
G75*
G02*
X157137500Y-58656250I0J218750D01*
G01*
G37*
%TD.AperFunction*%
%TO.P,C208,1*%
%TO.N,Net-(C208-Pad1)*%
%TA.AperFunction,SMDPad,CuDef*%
G36*
G01*
X155562500Y-58656250D02*
X155562500Y-58143750D01*
G75*
G02*
X155781250Y-57925000I218750J0D01*
G01*
X156218750Y-57925000D01*
G75*
G02*
X156437500Y-58143750I0J-218750D01*
G01*
X156437500Y-58656250D01*
G75*
G02*
X156218750Y-58875000I-218750J0D01*
G01*
X155781250Y-58875000D01*
G75*
G02*
X155562500Y-58656250I0J218750D01*
G01*
G37*
%TD.AperFunction*%
%TD*%
%TO.P,C209,1*%
%TO.N,Net-(C209-Pad1)*%
%TA.AperFunction,SMDPad,CuDef*%
G36*
G01*
X160256250Y-47237500D02*
X159743750Y-47237500D01*
G75*
G02*
X159525000Y-47018750I0J218750D01*
G01*
X159525000Y-46581250D01*
G75*
G02*
X159743750Y-46362500I218750J0D01*
G01*
X160256250Y-46362500D01*
G75*
G02*
X160475000Y-46581250I0J-218750D01*
G01*
X160475000Y-47018750D01*
G75*
G02*
X160256250Y-47237500I-218750J0D01*
G01*
G37*
%TD.AperFunction*%
%TO.P,C209,2*%
%TO.N,GND*%
%TA.AperFunction,SMDPad,CuDef*%
G36*
G01*
X160256250Y-45662500D02*
X159743750Y-45662500D01*
G75*
G02*
X159525000Y-45443750I0J218750D01*
G01*
X159525000Y-45006250D01*
G75*
G02*
X159743750Y-44787500I218750J0D01*
G01*
X160256250Y-44787500D01*
G75*
G02*
X160475000Y-45006250I0J-218750D01*
G01*
X160475000Y-45443750D01*
G75*
G02*
X160256250Y-45662500I-218750J0D01*
G01*
G37*
%TD.AperFunction*%
%TD*%
%TO.P,C210,2*%
%TO.N,GND*%
%TA.AperFunction,SMDPad,CuDef*%
G36*
G01*
X141390000Y-46172500D02*
X141390000Y-45827500D01*
G75*
G02*
X141537500Y-45680000I147500J0D01*
G01*
X141832500Y-45680000D01*
G75*
G02*
X141980000Y-45827500I0J-147500D01*
G01*
X141980000Y-46172500D01*
G75*
G02*
X141832500Y-46320000I-147500J0D01*
G01*
X141537500Y-46320000D01*
G75*
G02*
X141390000Y-46172500I0J147500D01*
G01*
G37*
%TD.AperFunction*%
%TO.P,C210,1*%
%TO.N,HSE_IN*%
%TA.AperFunction,SMDPad,CuDef*%
G36*
G01*
X140420000Y-46172500D02*
X140420000Y-45827500D01*
G75*
G02*
X140567500Y-45680000I147500J0D01*
G01*
X140862500Y-45680000D01*
G75*
G02*
X141010000Y-45827500I0J-147500D01*
G01*
X141010000Y-46172500D01*
G75*
G02*
X140862500Y-46320000I-147500J0D01*
G01*
X140567500Y-46320000D01*
G75*
G02*
X140420000Y-46172500I0J147500D01*
G01*
G37*
%TD.AperFunction*%
%TD*%
%TO.P,C211,1*%
%TO.N,Net-(C211-Pad1)*%
%TA.AperFunction,SMDPad,CuDef*%
G36*
G01*
X141980000Y-51527500D02*
X141980000Y-51872500D01*
G75*
G02*
X141832500Y-52020000I-147500J0D01*
G01*
X141537500Y-52020000D01*
G75*
G02*
X141390000Y-51872500I0J147500D01*
G01*
X141390000Y-51527500D01*
G75*
G02*
X141537500Y-51380000I147500J0D01*
G01*
X141832500Y-51380000D01*
G75*
G02*
X141980000Y-51527500I0J-147500D01*
G01*
G37*
%TD.AperFunction*%
%TO.P,C211,2*%
%TO.N,GND*%
%TA.AperFunction,SMDPad,CuDef*%
G36*
G01*
X141010000Y-51527500D02*
X141010000Y-51872500D01*
G75*
G02*
X140862500Y-52020000I-147500J0D01*
G01*
X140567500Y-52020000D01*
G75*
G02*
X140420000Y-51872500I0J147500D01*
G01*
X140420000Y-51527500D01*
G75*
G02*
X140567500Y-51380000I147500J0D01*
G01*
X140862500Y-51380000D01*
G75*
G02*
X141010000Y-51527500I0J-147500D01*
G01*
G37*
%TD.AperFunction*%
%TD*%
%TO.P,C212,1*%
%TO.N,+3V3*%
%TA.AperFunction,SMDPad,CuDef*%
G36*
G01*
X148127500Y-36180000D02*
X148472500Y-36180000D01*
G75*
G02*
X148620000Y-36327500I0J-147500D01*
G01*
X148620000Y-36622500D01*
G75*
G02*
X148472500Y-36770000I-147500J0D01*
G01*
X148127500Y-36770000D01*
G75*
G02*
X147980000Y-36622500I0J147500D01*
G01*
X147980000Y-36327500D01*
G75*
G02*
X148127500Y-36180000I147500J0D01*
G01*
G37*
%TD.AperFunction*%
%TO.P,C212,2*%
%TO.N,GND*%
%TA.AperFunction,SMDPad,CuDef*%
G36*
G01*
X148127500Y-37150000D02*
X148472500Y-37150000D01*
G75*
G02*
X148620000Y-37297500I0J-147500D01*
G01*
X148620000Y-37592500D01*
G75*
G02*
X148472500Y-37740000I-147500J0D01*
G01*
X148127500Y-37740000D01*
G75*
G02*
X147980000Y-37592500I0J147500D01*
G01*
X147980000Y-37297500D01*
G75*
G02*
X148127500Y-37150000I147500J0D01*
G01*
G37*
%TD.AperFunction*%
%TD*%
%TO.P,C213,1*%
%TO.N,+3V3*%
%TA.AperFunction,SMDPad,CuDef*%
G36*
G01*
X161127500Y-56355000D02*
X161472500Y-56355000D01*
G75*
G02*
X161620000Y-56502500I0J-147500D01*
G01*
X161620000Y-56797500D01*
G75*
G02*
X161472500Y-56945000I-147500J0D01*
G01*
X161127500Y-56945000D01*
G75*
G02*
X160980000Y-56797500I0J147500D01*
G01*
X160980000Y-56502500D01*
G75*
G02*
X161127500Y-56355000I147500J0D01*
G01*
G37*
%TD.AperFunction*%
%TO.P,C213,2*%
%TO.N,GND*%
%TA.AperFunction,SMDPad,CuDef*%
G36*
G01*
X161127500Y-57325000D02*
X161472500Y-57325000D01*
G75*
G02*
X161620000Y-57472500I0J-147500D01*
G01*
X161620000Y-57767500D01*
G75*
G02*
X161472500Y-57915000I-147500J0D01*
G01*
X161127500Y-57915000D01*
G75*
G02*
X160980000Y-57767500I0J147500D01*
G01*
X160980000Y-57472500D01*
G75*
G02*
X161127500Y-57325000I147500J0D01*
G01*
G37*
%TD.AperFunction*%
%TD*%
%TO.P,C300,1*%
%TO.N,+3V3*%
%TA.AperFunction,SMDPad,CuDef*%
G36*
G01*
X157970000Y-37222500D02*
X157970000Y-36877500D01*
G75*
G02*
X158117500Y-36730000I147500J0D01*
G01*
X158412500Y-36730000D01*
G75*
G02*
X158560000Y-36877500I0J-147500D01*
G01*
X158560000Y-37222500D01*
G75*
G02*
X158412500Y-37370000I-147500J0D01*
G01*
X158117500Y-37370000D01*
G75*
G02*
X157970000Y-37222500I0J147500D01*
G01*
G37*
%TD.AperFunction*%
%TO.P,C300,2*%
%TO.N,GND*%
%TA.AperFunction,SMDPad,CuDef*%
G36*
G01*
X158940000Y-37222500D02*
X158940000Y-36877500D01*
G75*
G02*
X159087500Y-36730000I147500J0D01*
G01*
X159382500Y-36730000D01*
G75*
G02*
X159530000Y-36877500I0J-147500D01*
G01*
X159530000Y-37222500D01*
G75*
G02*
X159382500Y-37370000I-147500J0D01*
G01*
X159087500Y-37370000D01*
G75*
G02*
X158940000Y-37222500I0J147500D01*
G01*
G37*
%TD.AperFunction*%
%TD*%
%TO.P,C301,2*%
%TO.N,GND*%
%TA.AperFunction,SMDPad,CuDef*%
G36*
G01*
X160877500Y-39290000D02*
X161222500Y-39290000D01*
G75*
G02*
X161370000Y-39437500I0J-147500D01*
G01*
X161370000Y-39732500D01*
G75*
G02*
X161222500Y-39880000I-147500J0D01*
G01*
X160877500Y-39880000D01*
G75*
G02*
X160730000Y-39732500I0J147500D01*
G01*
X160730000Y-39437500D01*
G75*
G02*
X160877500Y-39290000I147500J0D01*
G01*
G37*
%TD.AperFunction*%
%TO.P,C301,1*%
%TO.N,+3V3*%
%TA.AperFunction,SMDPad,CuDef*%
G36*
G01*
X160877500Y-38320000D02*
X161222500Y-38320000D01*
G75*
G02*
X161370000Y-38467500I0J-147500D01*
G01*
X161370000Y-38762500D01*
G75*
G02*
X161222500Y-38910000I-147500J0D01*
G01*
X160877500Y-38910000D01*
G75*
G02*
X160730000Y-38762500I0J147500D01*
G01*
X160730000Y-38467500D01*
G75*
G02*
X160877500Y-38320000I147500J0D01*
G01*
G37*
%TD.AperFunction*%
%TD*%
%TO.P,C302,2*%
%TO.N,GND*%
%TA.AperFunction,SMDPad,CuDef*%
G36*
G01*
X149010000Y-68502500D02*
X149010000Y-68847500D01*
G75*
G02*
X148862500Y-68995000I-147500J0D01*
G01*
X148567500Y-68995000D01*
G75*
G02*
X148420000Y-68847500I0J147500D01*
G01*
X148420000Y-68502500D01*
G75*
G02*
X148567500Y-68355000I147500J0D01*
G01*
X148862500Y-68355000D01*
G75*
G02*
X149010000Y-68502500I0J-147500D01*
G01*
G37*
%TD.AperFunction*%
%TO.P,C302,1*%
%TO.N,+3V3*%
%TA.AperFunction,SMDPad,CuDef*%
G36*
G01*
X149980000Y-68502500D02*
X149980000Y-68847500D01*
G75*
G02*
X149832500Y-68995000I-147500J0D01*
G01*
X149537500Y-68995000D01*
G75*
G02*
X149390000Y-68847500I0J147500D01*
G01*
X149390000Y-68502500D01*
G75*
G02*
X149537500Y-68355000I147500J0D01*
G01*
X149832500Y-68355000D01*
G75*
G02*
X149980000Y-68502500I0J-147500D01*
G01*
G37*
%TD.AperFunction*%
%TD*%
%TO.P,C303,1*%
%TO.N,+3V3*%
%TA.AperFunction,SMDPad,CuDef*%
G36*
G01*
X148745000Y-63337500D02*
X148745000Y-63682500D01*
G75*
G02*
X148597500Y-63830000I-147500J0D01*
G01*
X148302500Y-63830000D01*
G75*
G02*
X148155000Y-63682500I0J147500D01*
G01*
X148155000Y-63337500D01*
G75*
G02*
X148302500Y-63190000I147500J0D01*
G01*
X148597500Y-63190000D01*
G75*
G02*
X148745000Y-63337500I0J-147500D01*
G01*
G37*
%TD.AperFunction*%
%TO.P,C303,2*%
%TO.N,GND*%
%TA.AperFunction,SMDPad,CuDef*%
G36*
G01*
X147775000Y-63337500D02*
X147775000Y-63682500D01*
G75*
G02*
X147627500Y-63830000I-147500J0D01*
G01*
X147332500Y-63830000D01*
G75*
G02*
X147185000Y-63682500I0J147500D01*
G01*
X147185000Y-63337500D01*
G75*
G02*
X147332500Y-63190000I147500J0D01*
G01*
X147627500Y-63190000D01*
G75*
G02*
X147775000Y-63337500I0J-147500D01*
G01*
G37*
%TD.AperFunction*%
%TD*%
%TO.P,C400,2*%
%TO.N,GND*%
%TA.AperFunction,SMDPad,CuDef*%
G36*
G01*
X162572500Y-32395000D02*
X162227500Y-32395000D01*
G75*
G02*
X162080000Y-32247500I0J147500D01*
G01*
X162080000Y-31952500D01*
G75*
G02*
X162227500Y-31805000I147500J0D01*
G01*
X162572500Y-31805000D01*
G75*
G02*
X162720000Y-31952500I0J-147500D01*
G01*
X162720000Y-32247500D01*
G75*
G02*
X162572500Y-32395000I-147500J0D01*
G01*
G37*
%TD.AperFunction*%
%TO.P,C400,1*%
%TO.N,NRST*%
%TA.AperFunction,SMDPad,CuDef*%
G36*
G01*
X162572500Y-33365000D02*
X162227500Y-33365000D01*
G75*
G02*
X162080000Y-33217500I0J147500D01*
G01*
X162080000Y-32922500D01*
G75*
G02*
X162227500Y-32775000I147500J0D01*
G01*
X162572500Y-32775000D01*
G75*
G02*
X162720000Y-32922500I0J-147500D01*
G01*
X162720000Y-33217500D01*
G75*
G02*
X162572500Y-33365000I-147500J0D01*
G01*
G37*
%TD.AperFunction*%
%TD*%
D18*
%TO.P,D100,1*%
%TO.N,Net-(D100-Pad1)*%
X173775000Y-48275000D03*
%TO.P,D100,2*%
%TO.N,+5V*%
X173775000Y-44975000D03*
%TD*%
%TO.P,D101,2*%
%TO.N,GND*%
X171000000Y-68400000D03*
%TO.P,D101,1*%
%TO.N,Net-(C101-Pad1)*%
X171000000Y-65100000D03*
%TD*%
%TO.P,D102,2*%
%TO.N,+3V3*%
%TA.AperFunction,SMDPad,CuDef*%
G36*
G01*
X160743750Y-64162500D02*
X161256250Y-64162500D01*
G75*
G02*
X161475000Y-64381250I0J-218750D01*
G01*
X161475000Y-64818750D01*
G75*
G02*
X161256250Y-65037500I-218750J0D01*
G01*
X160743750Y-65037500D01*
G75*
G02*
X160525000Y-64818750I0J218750D01*
G01*
X160525000Y-64381250D01*
G75*
G02*
X160743750Y-64162500I218750J0D01*
G01*
G37*
%TD.AperFunction*%
%TO.P,D102,1*%
%TO.N,Net-(D102-Pad1)*%
%TA.AperFunction,SMDPad,CuDef*%
G36*
G01*
X160743750Y-62587500D02*
X161256250Y-62587500D01*
G75*
G02*
X161475000Y-62806250I0J-218750D01*
G01*
X161475000Y-63243750D01*
G75*
G02*
X161256250Y-63462500I-218750J0D01*
G01*
X160743750Y-63462500D01*
G75*
G02*
X160525000Y-63243750I0J218750D01*
G01*
X160525000Y-62806250D01*
G75*
G02*
X160743750Y-62587500I218750J0D01*
G01*
G37*
%TD.AperFunction*%
%TD*%
%TO.P,D200,1*%
%TO.N,Net-(D200-Pad1)*%
%TA.AperFunction,SMDPad,CuDef*%
G36*
G01*
X156487500Y-32743750D02*
X156487500Y-33256250D01*
G75*
G02*
X156268750Y-33475000I-218750J0D01*
G01*
X155831250Y-33475000D01*
G75*
G02*
X155612500Y-33256250I0J218750D01*
G01*
X155612500Y-32743750D01*
G75*
G02*
X155831250Y-32525000I218750J0D01*
G01*
X156268750Y-32525000D01*
G75*
G02*
X156487500Y-32743750I0J-218750D01*
G01*
G37*
%TD.AperFunction*%
%TO.P,D200,2*%
%TO.N,Net-(D200-Pad2)*%
%TA.AperFunction,SMDPad,CuDef*%
G36*
G01*
X154912500Y-32743750D02*
X154912500Y-33256250D01*
G75*
G02*
X154693750Y-33475000I-218750J0D01*
G01*
X154256250Y-33475000D01*
G75*
G02*
X154037500Y-33256250I0J218750D01*
G01*
X154037500Y-32743750D01*
G75*
G02*
X154256250Y-32525000I218750J0D01*
G01*
X154693750Y-32525000D01*
G75*
G02*
X154912500Y-32743750I0J-218750D01*
G01*
G37*
%TD.AperFunction*%
%TD*%
%TO.P,F100,1*%
%TO.N,Net-(F100-Pad1)*%
%TA.AperFunction,SMDPad,CuDef*%
G36*
G01*
X174875000Y-61175000D02*
X173625000Y-61175000D01*
G75*
G02*
X173375000Y-60925000I0J250000D01*
G01*
X173375000Y-60175000D01*
G75*
G02*
X173625000Y-59925000I250000J0D01*
G01*
X174875000Y-59925000D01*
G75*
G02*
X175125000Y-60175000I0J-250000D01*
G01*
X175125000Y-60925000D01*
G75*
G02*
X174875000Y-61175000I-250000J0D01*
G01*
G37*
%TD.AperFunction*%
%TO.P,F100,2*%
%TO.N,Net-(D100-Pad1)*%
%TA.AperFunction,SMDPad,CuDef*%
G36*
G01*
X174875000Y-58375000D02*
X173625000Y-58375000D01*
G75*
G02*
X173375000Y-58125000I0J250000D01*
G01*
X173375000Y-57375000D01*
G75*
G02*
X173625000Y-57125000I250000J0D01*
G01*
X174875000Y-57125000D01*
G75*
G02*
X175125000Y-57375000I0J-250000D01*
G01*
X175125000Y-58125000D01*
G75*
G02*
X174875000Y-58375000I-250000J0D01*
G01*
G37*
%TD.AperFunction*%
%TD*%
%TO.P,FB100,1*%
%TO.N,Net-(C100-Pad1)*%
%TA.AperFunction,SMDPad,CuDef*%
G36*
G01*
X174731250Y-70737500D02*
X173818750Y-70737500D01*
G75*
G02*
X173575000Y-70493750I0J243750D01*
G01*
X173575000Y-70006250D01*
G75*
G02*
X173818750Y-69762500I243750J0D01*
G01*
X174731250Y-69762500D01*
G75*
G02*
X174975000Y-70006250I0J-243750D01*
G01*
X174975000Y-70493750D01*
G75*
G02*
X174731250Y-70737500I-243750J0D01*
G01*
G37*
%TD.AperFunction*%
%TO.P,FB100,2*%
%TO.N,Net-(F100-Pad1)*%
%TA.AperFunction,SMDPad,CuDef*%
G36*
G01*
X174731250Y-68862500D02*
X173818750Y-68862500D01*
G75*
G02*
X173575000Y-68618750I0J243750D01*
G01*
X173575000Y-68131250D01*
G75*
G02*
X173818750Y-67887500I243750J0D01*
G01*
X174731250Y-67887500D01*
G75*
G02*
X174975000Y-68131250I0J-243750D01*
G01*
X174975000Y-68618750D01*
G75*
G02*
X174731250Y-68862500I-243750J0D01*
G01*
G37*
%TD.AperFunction*%
%TD*%
%TO.P,FB200,2*%
%TO.N,+3V3*%
%TA.AperFunction,SMDPad,CuDef*%
G36*
G01*
X140562500Y-53543750D02*
X140562500Y-54456250D01*
G75*
G02*
X140318750Y-54700000I-243750J0D01*
G01*
X139831250Y-54700000D01*
G75*
G02*
X139587500Y-54456250I0J243750D01*
G01*
X139587500Y-53543750D01*
G75*
G02*
X139831250Y-53300000I243750J0D01*
G01*
X140318750Y-53300000D01*
G75*
G02*
X140562500Y-53543750I0J-243750D01*
G01*
G37*
%TD.AperFunction*%
%TO.P,FB200,1*%
%TO.N,+3.3VA*%
%TA.AperFunction,SMDPad,CuDef*%
G36*
G01*
X142437500Y-53543750D02*
X142437500Y-54456250D01*
G75*
G02*
X142193750Y-54700000I-243750J0D01*
G01*
X141706250Y-54700000D01*
G75*
G02*
X141462500Y-54456250I0J243750D01*
G01*
X141462500Y-53543750D01*
G75*
G02*
X141706250Y-53300000I243750J0D01*
G01*
X142193750Y-53300000D01*
G75*
G02*
X142437500Y-53543750I0J-243750D01*
G01*
G37*
%TD.AperFunction*%
%TD*%
%TO.P,J400,1*%
%TO.N,VCC*%
%TA.AperFunction,ComponentPad*%
G36*
G01*
X177950000Y-66150000D02*
X177050000Y-66150000D01*
G75*
G02*
X176850000Y-65950000I0J200000D01*
G01*
X176850000Y-65550000D01*
G75*
G02*
X177050000Y-65350000I200000J0D01*
G01*
X177950000Y-65350000D01*
G75*
G02*
X178150000Y-65550000I0J-200000D01*
G01*
X178150000Y-65950000D01*
G75*
G02*
X177950000Y-66150000I-200000J0D01*
G01*
G37*
%TD.AperFunction*%
D19*
%TO.P,J400,2*%
%TO.N,GND*%
X177500000Y-64500000D03*
%TD*%
D20*
%TO.P,J401,1*%
%TO.N,+3V3*%
X170790000Y-28200000D03*
%TO.P,J401,2*%
%TO.N,Net-(J401-Pad2)*%
X170790000Y-32100000D03*
%TO.P,J401,3*%
%TO.N,GND*%
X169520000Y-28200000D03*
%TO.P,J401,4*%
%TO.N,Net-(J401-Pad4)*%
X169520000Y-32100000D03*
%TO.P,J401,5*%
%TO.N,GND*%
X168250000Y-28200000D03*
%TO.P,J401,6*%
%TO.N,Net-(J401-Pad6)*%
X168250000Y-32100000D03*
%TO.P,J401,7*%
%TO.N,N/C*%
X166980000Y-28200000D03*
%TO.P,J401,8*%
X166980000Y-32100000D03*
%TO.P,J401,9*%
%TO.N,GND*%
X165710000Y-28200000D03*
%TO.P,J401,10*%
%TO.N,Net-(J401-Pad10)*%
X165710000Y-32100000D03*
%TD*%
%TO.P,J403,1*%
%TO.N,+3V3*%
%TA.AperFunction,ComponentPad*%
G36*
G01*
X144150000Y-30300000D02*
X144150000Y-31200000D01*
G75*
G02*
X143950000Y-31400000I-200000J0D01*
G01*
X143550000Y-31400000D01*
G75*
G02*
X143350000Y-31200000I0J200000D01*
G01*
X143350000Y-30300000D01*
G75*
G02*
X143550000Y-30100000I200000J0D01*
G01*
X143950000Y-30100000D01*
G75*
G02*
X144150000Y-30300000I0J-200000D01*
G01*
G37*
%TD.AperFunction*%
D21*
%TO.P,J403,2*%
%TO.N,Net-(J403-Pad2)*%
X142500000Y-30750000D03*
%TO.P,J403,3*%
%TO.N,Net-(J403-Pad3)*%
X141250000Y-30750000D03*
%TO.P,J403,4*%
%TO.N,GND*%
X140000000Y-30750000D03*
%TD*%
%TO.P,J404,4*%
%TO.N,GND*%
X157000000Y-75750000D03*
%TO.P,J404,3*%
%TO.N,Net-(J404-Pad3)*%
X155750000Y-75750000D03*
%TO.P,J404,2*%
%TO.N,Net-(J404-Pad2)*%
X154500000Y-75750000D03*
%TO.P,J404,1*%
%TO.N,+3V3*%
%TA.AperFunction,ComponentPad*%
G36*
G01*
X152850000Y-76200000D02*
X152850000Y-75300000D01*
G75*
G02*
X153050000Y-75100000I200000J0D01*
G01*
X153450000Y-75100000D01*
G75*
G02*
X153650000Y-75300000I0J-200000D01*
G01*
X153650000Y-76200000D01*
G75*
G02*
X153450000Y-76400000I-200000J0D01*
G01*
X153050000Y-76400000D01*
G75*
G02*
X152850000Y-76200000I0J200000D01*
G01*
G37*
%TD.AperFunction*%
%TD*%
%TO.P,J405,4*%
%TO.N,GND*%
X144500000Y-75750000D03*
%TO.P,J405,3*%
%TO.N,Net-(J405-Pad3)*%
X143250000Y-75750000D03*
%TO.P,J405,2*%
%TO.N,Net-(J405-Pad2)*%
X142000000Y-75750000D03*
%TO.P,J405,1*%
%TO.N,+3V3*%
%TA.AperFunction,ComponentPad*%
G36*
G01*
X140350000Y-76200000D02*
X140350000Y-75300000D01*
G75*
G02*
X140550000Y-75100000I200000J0D01*
G01*
X140950000Y-75100000D01*
G75*
G02*
X141150000Y-75300000I0J-200000D01*
G01*
X141150000Y-76200000D01*
G75*
G02*
X140950000Y-76400000I-200000J0D01*
G01*
X140550000Y-76400000D01*
G75*
G02*
X140350000Y-76200000I0J200000D01*
G01*
G37*
%TD.AperFunction*%
%TD*%
%TO.P,J406,1*%
%TO.N,+3V3*%
%TA.AperFunction,ComponentPad*%
G36*
G01*
X132050000Y-64100000D02*
X132950000Y-64100000D01*
G75*
G02*
X133150000Y-64300000I0J-200000D01*
G01*
X133150000Y-64700000D01*
G75*
G02*
X132950000Y-64900000I-200000J0D01*
G01*
X132050000Y-64900000D01*
G75*
G02*
X131850000Y-64700000I0J200000D01*
G01*
X131850000Y-64300000D01*
G75*
G02*
X132050000Y-64100000I200000J0D01*
G01*
G37*
%TD.AperFunction*%
D19*
%TO.P,J406,2*%
%TO.N,Net-(J406-Pad2)*%
X132500000Y-65750000D03*
%TO.P,J406,3*%
%TO.N,Net-(J406-Pad3)*%
X132500000Y-67000000D03*
%TO.P,J406,4*%
%TO.N,GND*%
X132500000Y-68250000D03*
%TD*%
%TO.P,J407,4*%
%TO.N,GND*%
X132500000Y-42000000D03*
%TO.P,J407,3*%
%TO.N,Net-(J407-Pad3)*%
X132500000Y-40750000D03*
%TO.P,J407,2*%
%TO.N,Net-(J407-Pad2)*%
X132500000Y-39500000D03*
%TO.P,J407,1*%
%TO.N,+3V3*%
%TA.AperFunction,ComponentPad*%
G36*
G01*
X132050000Y-37850000D02*
X132950000Y-37850000D01*
G75*
G02*
X133150000Y-38050000I0J-200000D01*
G01*
X133150000Y-38450000D01*
G75*
G02*
X132950000Y-38650000I-200000J0D01*
G01*
X132050000Y-38650000D01*
G75*
G02*
X131850000Y-38450000I0J200000D01*
G01*
X131850000Y-38050000D01*
G75*
G02*
X132050000Y-37850000I200000J0D01*
G01*
G37*
%TD.AperFunction*%
%TD*%
%TO.P,J408,1*%
%TO.N,+3V3*%
%TA.AperFunction,ComponentPad*%
G36*
G01*
X132050000Y-51100000D02*
X132950000Y-51100000D01*
G75*
G02*
X133150000Y-51300000I0J-200000D01*
G01*
X133150000Y-51700000D01*
G75*
G02*
X132950000Y-51900000I-200000J0D01*
G01*
X132050000Y-51900000D01*
G75*
G02*
X131850000Y-51700000I0J200000D01*
G01*
X131850000Y-51300000D01*
G75*
G02*
X132050000Y-51100000I200000J0D01*
G01*
G37*
%TD.AperFunction*%
%TO.P,J408,2*%
%TO.N,Net-(J408-Pad2)*%
X132500000Y-52750000D03*
%TO.P,J408,3*%
%TO.N,Net-(J408-Pad3)*%
X132500000Y-54000000D03*
%TO.P,J408,4*%
%TO.N,GND*%
X132500000Y-55250000D03*
%TD*%
D22*
%TO.P,L101,1*%
%TO.N,Net-(C101-Pad1)*%
X168050000Y-66750000D03*
%TO.P,L101,2*%
%TO.N,+3V3*%
X163950000Y-66750000D03*
%TD*%
D23*
%TO.P,Q100,1*%
%TO.N,GND*%
X178450000Y-57750000D03*
%TO.P,Q100,2*%
%TO.N,Net-(D100-Pad1)*%
X176550000Y-57750000D03*
%TO.P,Q100,3*%
%TO.N,VCC*%
X177500000Y-59750000D03*
%TD*%
%TO.P,R100,1*%
%TO.N,Net-(C100-Pad1)*%
%TA.AperFunction,SMDPad,CuDef*%
G36*
G01*
X171437500Y-76243750D02*
X171437500Y-76756250D01*
G75*
G02*
X171218750Y-76975000I-218750J0D01*
G01*
X170781250Y-76975000D01*
G75*
G02*
X170562500Y-76756250I0J218750D01*
G01*
X170562500Y-76243750D01*
G75*
G02*
X170781250Y-76025000I218750J0D01*
G01*
X171218750Y-76025000D01*
G75*
G02*
X171437500Y-76243750I0J-218750D01*
G01*
G37*
%TD.AperFunction*%
%TO.P,R100,2*%
%TO.N,Net-(R100-Pad2)*%
%TA.AperFunction,SMDPad,CuDef*%
G36*
G01*
X169862500Y-76243750D02*
X169862500Y-76756250D01*
G75*
G02*
X169643750Y-76975000I-218750J0D01*
G01*
X169206250Y-76975000D01*
G75*
G02*
X168987500Y-76756250I0J218750D01*
G01*
X168987500Y-76243750D01*
G75*
G02*
X169206250Y-76025000I218750J0D01*
G01*
X169643750Y-76025000D01*
G75*
G02*
X169862500Y-76243750I0J-218750D01*
G01*
G37*
%TD.AperFunction*%
%TD*%
%TO.P,R101,2*%
%TO.N,GND*%
%TA.AperFunction,SMDPad,CuDef*%
G36*
G01*
X170562500Y-78256250D02*
X170562500Y-77743750D01*
G75*
G02*
X170781250Y-77525000I218750J0D01*
G01*
X171218750Y-77525000D01*
G75*
G02*
X171437500Y-77743750I0J-218750D01*
G01*
X171437500Y-78256250D01*
G75*
G02*
X171218750Y-78475000I-218750J0D01*
G01*
X170781250Y-78475000D01*
G75*
G02*
X170562500Y-78256250I0J218750D01*
G01*
G37*
%TD.AperFunction*%
%TO.P,R101,1*%
%TO.N,Net-(R100-Pad2)*%
%TA.AperFunction,SMDPad,CuDef*%
G36*
G01*
X168987500Y-78256250D02*
X168987500Y-77743750D01*
G75*
G02*
X169206250Y-77525000I218750J0D01*
G01*
X169643750Y-77525000D01*
G75*
G02*
X169862500Y-77743750I0J-218750D01*
G01*
X169862500Y-78256250D01*
G75*
G02*
X169643750Y-78475000I-218750J0D01*
G01*
X169206250Y-78475000D01*
G75*
G02*
X168987500Y-78256250I0J218750D01*
G01*
G37*
%TD.AperFunction*%
%TD*%
%TO.P,R102,2*%
%TO.N,Net-(R102-Pad2)*%
%TA.AperFunction,SMDPad,CuDef*%
G36*
G01*
X163037500Y-76756250D02*
X163037500Y-76243750D01*
G75*
G02*
X163256250Y-76025000I218750J0D01*
G01*
X163693750Y-76025000D01*
G75*
G02*
X163912500Y-76243750I0J-218750D01*
G01*
X163912500Y-76756250D01*
G75*
G02*
X163693750Y-76975000I-218750J0D01*
G01*
X163256250Y-76975000D01*
G75*
G02*
X163037500Y-76756250I0J218750D01*
G01*
G37*
%TD.AperFunction*%
%TO.P,R102,1*%
%TO.N,+3V3*%
%TA.AperFunction,SMDPad,CuDef*%
G36*
G01*
X161462500Y-76756250D02*
X161462500Y-76243750D01*
G75*
G02*
X161681250Y-76025000I218750J0D01*
G01*
X162118750Y-76025000D01*
G75*
G02*
X162337500Y-76243750I0J-218750D01*
G01*
X162337500Y-76756250D01*
G75*
G02*
X162118750Y-76975000I-218750J0D01*
G01*
X161681250Y-76975000D01*
G75*
G02*
X161462500Y-76756250I0J218750D01*
G01*
G37*
%TD.AperFunction*%
%TD*%
%TO.P,R103,1*%
%TO.N,Net-(R102-Pad2)*%
%TA.AperFunction,SMDPad,CuDef*%
G36*
G01*
X164475000Y-76756250D02*
X164475000Y-76243750D01*
G75*
G02*
X164693750Y-76025000I218750J0D01*
G01*
X165131250Y-76025000D01*
G75*
G02*
X165350000Y-76243750I0J-218750D01*
G01*
X165350000Y-76756250D01*
G75*
G02*
X165131250Y-76975000I-218750J0D01*
G01*
X164693750Y-76975000D01*
G75*
G02*
X164475000Y-76756250I0J218750D01*
G01*
G37*
%TD.AperFunction*%
%TO.P,R103,2*%
%TO.N,Net-(R103-Pad2)*%
%TA.AperFunction,SMDPad,CuDef*%
G36*
G01*
X166050000Y-76756250D02*
X166050000Y-76243750D01*
G75*
G02*
X166268750Y-76025000I218750J0D01*
G01*
X166706250Y-76025000D01*
G75*
G02*
X166925000Y-76243750I0J-218750D01*
G01*
X166925000Y-76756250D01*
G75*
G02*
X166706250Y-76975000I-218750J0D01*
G01*
X166268750Y-76975000D01*
G75*
G02*
X166050000Y-76756250I0J218750D01*
G01*
G37*
%TD.AperFunction*%
%TD*%
%TO.P,R104,2*%
%TO.N,GND*%
%TA.AperFunction,SMDPad,CuDef*%
G36*
G01*
X165350000Y-77743750D02*
X165350000Y-78256250D01*
G75*
G02*
X165131250Y-78475000I-218750J0D01*
G01*
X164693750Y-78475000D01*
G75*
G02*
X164475000Y-78256250I0J218750D01*
G01*
X164475000Y-77743750D01*
G75*
G02*
X164693750Y-77525000I218750J0D01*
G01*
X165131250Y-77525000D01*
G75*
G02*
X165350000Y-77743750I0J-218750D01*
G01*
G37*
%TD.AperFunction*%
%TO.P,R104,1*%
%TO.N,Net-(R103-Pad2)*%
%TA.AperFunction,SMDPad,CuDef*%
G36*
G01*
X166925000Y-77743750D02*
X166925000Y-78256250D01*
G75*
G02*
X166706250Y-78475000I-218750J0D01*
G01*
X166268750Y-78475000D01*
G75*
G02*
X166050000Y-78256250I0J218750D01*
G01*
X166050000Y-77743750D01*
G75*
G02*
X166268750Y-77525000I218750J0D01*
G01*
X166706250Y-77525000D01*
G75*
G02*
X166925000Y-77743750I0J-218750D01*
G01*
G37*
%TD.AperFunction*%
%TD*%
%TO.P,R105,1*%
%TO.N,Net-(D102-Pad1)*%
%TA.AperFunction,SMDPad,CuDef*%
G36*
G01*
X158743750Y-62562500D02*
X159256250Y-62562500D01*
G75*
G02*
X159475000Y-62781250I0J-218750D01*
G01*
X159475000Y-63218750D01*
G75*
G02*
X159256250Y-63437500I-218750J0D01*
G01*
X158743750Y-63437500D01*
G75*
G02*
X158525000Y-63218750I0J218750D01*
G01*
X158525000Y-62781250D01*
G75*
G02*
X158743750Y-62562500I218750J0D01*
G01*
G37*
%TD.AperFunction*%
%TO.P,R105,2*%
%TO.N,GND*%
%TA.AperFunction,SMDPad,CuDef*%
G36*
G01*
X158743750Y-64137500D02*
X159256250Y-64137500D01*
G75*
G02*
X159475000Y-64356250I0J-218750D01*
G01*
X159475000Y-64793750D01*
G75*
G02*
X159256250Y-65012500I-218750J0D01*
G01*
X158743750Y-65012500D01*
G75*
G02*
X158525000Y-64793750I0J218750D01*
G01*
X158525000Y-64356250D01*
G75*
G02*
X158743750Y-64137500I218750J0D01*
G01*
G37*
%TD.AperFunction*%
%TD*%
%TO.P,R200,2*%
%TO.N,Net-(C211-Pad1)*%
%TA.AperFunction,SMDPad,CuDef*%
G36*
G01*
X143925000Y-49777500D02*
X143925000Y-50122500D01*
G75*
G02*
X143777500Y-50270000I-147500J0D01*
G01*
X143482500Y-50270000D01*
G75*
G02*
X143335000Y-50122500I0J147500D01*
G01*
X143335000Y-49777500D01*
G75*
G02*
X143482500Y-49630000I147500J0D01*
G01*
X143777500Y-49630000D01*
G75*
G02*
X143925000Y-49777500I0J-147500D01*
G01*
G37*
%TD.AperFunction*%
%TO.P,R200,1*%
%TO.N,HSE_OUT*%
%TA.AperFunction,SMDPad,CuDef*%
G36*
G01*
X144895000Y-49777500D02*
X144895000Y-50122500D01*
G75*
G02*
X144747500Y-50270000I-147500J0D01*
G01*
X144452500Y-50270000D01*
G75*
G02*
X144305000Y-50122500I0J147500D01*
G01*
X144305000Y-49777500D01*
G75*
G02*
X144452500Y-49630000I147500J0D01*
G01*
X144747500Y-49630000D01*
G75*
G02*
X144895000Y-49777500I0J-147500D01*
G01*
G37*
%TD.AperFunction*%
%TD*%
%TO.P,R201,2*%
%TO.N,BOOT0*%
%TA.AperFunction,SMDPad,CuDef*%
G36*
G01*
X152300000Y-32827500D02*
X152300000Y-33172500D01*
G75*
G02*
X152152500Y-33320000I-147500J0D01*
G01*
X151857500Y-33320000D01*
G75*
G02*
X151710000Y-33172500I0J147500D01*
G01*
X151710000Y-32827500D01*
G75*
G02*
X151857500Y-32680000I147500J0D01*
G01*
X152152500Y-32680000D01*
G75*
G02*
X152300000Y-32827500I0J-147500D01*
G01*
G37*
%TD.AperFunction*%
%TO.P,R201,1*%
%TO.N,Net-(D200-Pad2)*%
%TA.AperFunction,SMDPad,CuDef*%
G36*
G01*
X153270000Y-32827500D02*
X153270000Y-33172500D01*
G75*
G02*
X153122500Y-33320000I-147500J0D01*
G01*
X152827500Y-33320000D01*
G75*
G02*
X152680000Y-33172500I0J147500D01*
G01*
X152680000Y-32827500D01*
G75*
G02*
X152827500Y-32680000I147500J0D01*
G01*
X153122500Y-32680000D01*
G75*
G02*
X153270000Y-32827500I0J-147500D01*
G01*
G37*
%TD.AperFunction*%
%TD*%
%TO.P,R202,1*%
%TO.N,GND*%
%TA.AperFunction,SMDPad,CuDef*%
G36*
G01*
X159700000Y-32743750D02*
X159700000Y-33256250D01*
G75*
G02*
X159481250Y-33475000I-218750J0D01*
G01*
X159043750Y-33475000D01*
G75*
G02*
X158825000Y-33256250I0J218750D01*
G01*
X158825000Y-32743750D01*
G75*
G02*
X159043750Y-32525000I218750J0D01*
G01*
X159481250Y-32525000D01*
G75*
G02*
X159700000Y-32743750I0J-218750D01*
G01*
G37*
%TD.AperFunction*%
%TO.P,R202,2*%
%TO.N,Net-(D200-Pad1)*%
%TA.AperFunction,SMDPad,CuDef*%
G36*
G01*
X158125000Y-32743750D02*
X158125000Y-33256250D01*
G75*
G02*
X157906250Y-33475000I-218750J0D01*
G01*
X157468750Y-33475000D01*
G75*
G02*
X157250000Y-33256250I0J218750D01*
G01*
X157250000Y-32743750D01*
G75*
G02*
X157468750Y-32525000I218750J0D01*
G01*
X157906250Y-32525000D01*
G75*
G02*
X158125000Y-32743750I0J-218750D01*
G01*
G37*
%TD.AperFunction*%
%TD*%
%TO.P,R203,1*%
%TO.N,BOOT1*%
%TA.AperFunction,SMDPad,CuDef*%
G36*
G01*
X153777500Y-58555000D02*
X154122500Y-58555000D01*
G75*
G02*
X154270000Y-58702500I0J-147500D01*
G01*
X154270000Y-58997500D01*
G75*
G02*
X154122500Y-59145000I-147500J0D01*
G01*
X153777500Y-59145000D01*
G75*
G02*
X153630000Y-58997500I0J147500D01*
G01*
X153630000Y-58702500D01*
G75*
G02*
X153777500Y-58555000I147500J0D01*
G01*
G37*
%TD.AperFunction*%
%TO.P,R203,2*%
%TO.N,GND*%
%TA.AperFunction,SMDPad,CuDef*%
G36*
G01*
X153777500Y-59525000D02*
X154122500Y-59525000D01*
G75*
G02*
X154270000Y-59672500I0J-147500D01*
G01*
X154270000Y-59967500D01*
G75*
G02*
X154122500Y-60115000I-147500J0D01*
G01*
X153777500Y-60115000D01*
G75*
G02*
X153630000Y-59967500I0J147500D01*
G01*
X153630000Y-59672500D01*
G75*
G02*
X153777500Y-59525000I147500J0D01*
G01*
G37*
%TD.AperFunction*%
%TD*%
%TO.P,R204,1*%
%TO.N,+3V3*%
%TA.AperFunction,SMDPad,CuDef*%
G36*
G01*
X145005000Y-33302500D02*
X145005000Y-33647500D01*
G75*
G02*
X144857500Y-33795000I-147500J0D01*
G01*
X144562500Y-33795000D01*
G75*
G02*
X144415000Y-33647500I0J147500D01*
G01*
X144415000Y-33302500D01*
G75*
G02*
X144562500Y-33155000I147500J0D01*
G01*
X144857500Y-33155000D01*
G75*
G02*
X145005000Y-33302500I0J-147500D01*
G01*
G37*
%TD.AperFunction*%
%TO.P,R204,2*%
%TO.N,I2C1_SCL*%
%TA.AperFunction,SMDPad,CuDef*%
G36*
G01*
X144035000Y-33302500D02*
X144035000Y-33647500D01*
G75*
G02*
X143887500Y-33795000I-147500J0D01*
G01*
X143592500Y-33795000D01*
G75*
G02*
X143445000Y-33647500I0J147500D01*
G01*
X143445000Y-33302500D01*
G75*
G02*
X143592500Y-33155000I147500J0D01*
G01*
X143887500Y-33155000D01*
G75*
G02*
X144035000Y-33302500I0J-147500D01*
G01*
G37*
%TD.AperFunction*%
%TD*%
%TO.P,R205,1*%
%TO.N,+3V3*%
%TA.AperFunction,SMDPad,CuDef*%
G36*
G01*
X138735000Y-33647500D02*
X138735000Y-33302500D01*
G75*
G02*
X138882500Y-33155000I147500J0D01*
G01*
X139177500Y-33155000D01*
G75*
G02*
X139325000Y-33302500I0J-147500D01*
G01*
X139325000Y-33647500D01*
G75*
G02*
X139177500Y-33795000I-147500J0D01*
G01*
X138882500Y-33795000D01*
G75*
G02*
X138735000Y-33647500I0J147500D01*
G01*
G37*
%TD.AperFunction*%
%TO.P,R205,2*%
%TO.N,I2C1_SDA*%
%TA.AperFunction,SMDPad,CuDef*%
G36*
G01*
X139705000Y-33647500D02*
X139705000Y-33302500D01*
G75*
G02*
X139852500Y-33155000I147500J0D01*
G01*
X140147500Y-33155000D01*
G75*
G02*
X140295000Y-33302500I0J-147500D01*
G01*
X140295000Y-33647500D01*
G75*
G02*
X140147500Y-33795000I-147500J0D01*
G01*
X139852500Y-33795000D01*
G75*
G02*
X139705000Y-33647500I0J147500D01*
G01*
G37*
%TD.AperFunction*%
%TD*%
%TO.P,R209,2*%
%TO.N,FLASH_!WP*%
%TA.AperFunction,SMDPad,CuDef*%
G36*
G01*
X172295000Y-53927500D02*
X172295000Y-54272500D01*
G75*
G02*
X172147500Y-54420000I-147500J0D01*
G01*
X171852500Y-54420000D01*
G75*
G02*
X171705000Y-54272500I0J147500D01*
G01*
X171705000Y-53927500D01*
G75*
G02*
X171852500Y-53780000I147500J0D01*
G01*
X172147500Y-53780000D01*
G75*
G02*
X172295000Y-53927500I0J-147500D01*
G01*
G37*
%TD.AperFunction*%
%TO.P,R209,1*%
%TO.N,+3V3*%
%TA.AperFunction,SMDPad,CuDef*%
G36*
G01*
X173265000Y-53927500D02*
X173265000Y-54272500D01*
G75*
G02*
X173117500Y-54420000I-147500J0D01*
G01*
X172822500Y-54420000D01*
G75*
G02*
X172675000Y-54272500I0J147500D01*
G01*
X172675000Y-53927500D01*
G75*
G02*
X172822500Y-53780000I147500J0D01*
G01*
X173117500Y-53780000D01*
G75*
G02*
X173265000Y-53927500I0J-147500D01*
G01*
G37*
%TD.AperFunction*%
%TD*%
%TO.P,R210,2*%
%TO.N,FLASH_!HOLD*%
%TA.AperFunction,SMDPad,CuDef*%
G36*
G01*
X161005000Y-55572500D02*
X161005000Y-55227500D01*
G75*
G02*
X161152500Y-55080000I147500J0D01*
G01*
X161447500Y-55080000D01*
G75*
G02*
X161595000Y-55227500I0J-147500D01*
G01*
X161595000Y-55572500D01*
G75*
G02*
X161447500Y-55720000I-147500J0D01*
G01*
X161152500Y-55720000D01*
G75*
G02*
X161005000Y-55572500I0J147500D01*
G01*
G37*
%TD.AperFunction*%
%TO.P,R210,1*%
%TO.N,+3V3*%
%TA.AperFunction,SMDPad,CuDef*%
G36*
G01*
X160035000Y-55572500D02*
X160035000Y-55227500D01*
G75*
G02*
X160182500Y-55080000I147500J0D01*
G01*
X160477500Y-55080000D01*
G75*
G02*
X160625000Y-55227500I0J-147500D01*
G01*
X160625000Y-55572500D01*
G75*
G02*
X160477500Y-55720000I-147500J0D01*
G01*
X160182500Y-55720000D01*
G75*
G02*
X160035000Y-55572500I0J147500D01*
G01*
G37*
%TD.AperFunction*%
%TD*%
%TO.P,R400,1*%
%TO.N,SWDIO*%
%TA.AperFunction,SMDPad,CuDef*%
G36*
G01*
X170972500Y-36665000D02*
X170627500Y-36665000D01*
G75*
G02*
X170480000Y-36517500I0J147500D01*
G01*
X170480000Y-36222500D01*
G75*
G02*
X170627500Y-36075000I147500J0D01*
G01*
X170972500Y-36075000D01*
G75*
G02*
X171120000Y-36222500I0J-147500D01*
G01*
X171120000Y-36517500D01*
G75*
G02*
X170972500Y-36665000I-147500J0D01*
G01*
G37*
%TD.AperFunction*%
%TO.P,R400,2*%
%TO.N,Net-(J401-Pad2)*%
%TA.AperFunction,SMDPad,CuDef*%
G36*
G01*
X170972500Y-35695000D02*
X170627500Y-35695000D01*
G75*
G02*
X170480000Y-35547500I0J147500D01*
G01*
X170480000Y-35252500D01*
G75*
G02*
X170627500Y-35105000I147500J0D01*
G01*
X170972500Y-35105000D01*
G75*
G02*
X171120000Y-35252500I0J-147500D01*
G01*
X171120000Y-35547500D01*
G75*
G02*
X170972500Y-35695000I-147500J0D01*
G01*
G37*
%TD.AperFunction*%
%TD*%
%TO.P,R401,2*%
%TO.N,Net-(J401-Pad4)*%
%TA.AperFunction,SMDPad,CuDef*%
G36*
G01*
X169672500Y-35695000D02*
X169327500Y-35695000D01*
G75*
G02*
X169180000Y-35547500I0J147500D01*
G01*
X169180000Y-35252500D01*
G75*
G02*
X169327500Y-35105000I147500J0D01*
G01*
X169672500Y-35105000D01*
G75*
G02*
X169820000Y-35252500I0J-147500D01*
G01*
X169820000Y-35547500D01*
G75*
G02*
X169672500Y-35695000I-147500J0D01*
G01*
G37*
%TD.AperFunction*%
%TO.P,R401,1*%
%TO.N,SWCLK*%
%TA.AperFunction,SMDPad,CuDef*%
G36*
G01*
X169672500Y-36665000D02*
X169327500Y-36665000D01*
G75*
G02*
X169180000Y-36517500I0J147500D01*
G01*
X169180000Y-36222500D01*
G75*
G02*
X169327500Y-36075000I147500J0D01*
G01*
X169672500Y-36075000D01*
G75*
G02*
X169820000Y-36222500I0J-147500D01*
G01*
X169820000Y-36517500D01*
G75*
G02*
X169672500Y-36665000I-147500J0D01*
G01*
G37*
%TD.AperFunction*%
%TD*%
%TO.P,R402,1*%
%TO.N,SWO*%
%TA.AperFunction,SMDPad,CuDef*%
G36*
G01*
X168422500Y-36680000D02*
X168077500Y-36680000D01*
G75*
G02*
X167930000Y-36532500I0J147500D01*
G01*
X167930000Y-36237500D01*
G75*
G02*
X168077500Y-36090000I147500J0D01*
G01*
X168422500Y-36090000D01*
G75*
G02*
X168570000Y-36237500I0J-147500D01*
G01*
X168570000Y-36532500D01*
G75*
G02*
X168422500Y-36680000I-147500J0D01*
G01*
G37*
%TD.AperFunction*%
%TO.P,R402,2*%
%TO.N,Net-(J401-Pad6)*%
%TA.AperFunction,SMDPad,CuDef*%
G36*
G01*
X168422500Y-35710000D02*
X168077500Y-35710000D01*
G75*
G02*
X167930000Y-35562500I0J147500D01*
G01*
X167930000Y-35267500D01*
G75*
G02*
X168077500Y-35120000I147500J0D01*
G01*
X168422500Y-35120000D01*
G75*
G02*
X168570000Y-35267500I0J-147500D01*
G01*
X168570000Y-35562500D01*
G75*
G02*
X168422500Y-35710000I-147500J0D01*
G01*
G37*
%TD.AperFunction*%
%TD*%
%TO.P,R403,1*%
%TO.N,NRST*%
%TA.AperFunction,SMDPad,CuDef*%
G36*
G01*
X163772500Y-33365000D02*
X163427500Y-33365000D01*
G75*
G02*
X163280000Y-33217500I0J147500D01*
G01*
X163280000Y-32922500D01*
G75*
G02*
X163427500Y-32775000I147500J0D01*
G01*
X163772500Y-32775000D01*
G75*
G02*
X163920000Y-32922500I0J-147500D01*
G01*
X163920000Y-33217500D01*
G75*
G02*
X163772500Y-33365000I-147500J0D01*
G01*
G37*
%TD.AperFunction*%
%TO.P,R403,2*%
%TO.N,Net-(J401-Pad10)*%
%TA.AperFunction,SMDPad,CuDef*%
G36*
G01*
X163772500Y-32395000D02*
X163427500Y-32395000D01*
G75*
G02*
X163280000Y-32247500I0J147500D01*
G01*
X163280000Y-31952500D01*
G75*
G02*
X163427500Y-31805000I147500J0D01*
G01*
X163772500Y-31805000D01*
G75*
G02*
X163920000Y-31952500I0J-147500D01*
G01*
X163920000Y-32247500D01*
G75*
G02*
X163772500Y-32395000I-147500J0D01*
G01*
G37*
%TD.AperFunction*%
%TD*%
%TO.P,R404,1*%
%TO.N,Net-(J403-Pad2)*%
%TA.AperFunction,SMDPad,CuDef*%
G36*
G01*
X142327500Y-32205000D02*
X142672500Y-32205000D01*
G75*
G02*
X142820000Y-32352500I0J-147500D01*
G01*
X142820000Y-32647500D01*
G75*
G02*
X142672500Y-32795000I-147500J0D01*
G01*
X142327500Y-32795000D01*
G75*
G02*
X142180000Y-32647500I0J147500D01*
G01*
X142180000Y-32352500D01*
G75*
G02*
X142327500Y-32205000I147500J0D01*
G01*
G37*
%TD.AperFunction*%
%TO.P,R404,2*%
%TO.N,I2C1_SCL*%
%TA.AperFunction,SMDPad,CuDef*%
G36*
G01*
X142327500Y-33175000D02*
X142672500Y-33175000D01*
G75*
G02*
X142820000Y-33322500I0J-147500D01*
G01*
X142820000Y-33617500D01*
G75*
G02*
X142672500Y-33765000I-147500J0D01*
G01*
X142327500Y-33765000D01*
G75*
G02*
X142180000Y-33617500I0J147500D01*
G01*
X142180000Y-33322500D01*
G75*
G02*
X142327500Y-33175000I147500J0D01*
G01*
G37*
%TD.AperFunction*%
%TD*%
%TO.P,R405,2*%
%TO.N,I2C1_SDA*%
%TA.AperFunction,SMDPad,CuDef*%
G36*
G01*
X141077500Y-33175000D02*
X141422500Y-33175000D01*
G75*
G02*
X141570000Y-33322500I0J-147500D01*
G01*
X141570000Y-33617500D01*
G75*
G02*
X141422500Y-33765000I-147500J0D01*
G01*
X141077500Y-33765000D01*
G75*
G02*
X140930000Y-33617500I0J147500D01*
G01*
X140930000Y-33322500D01*
G75*
G02*
X141077500Y-33175000I147500J0D01*
G01*
G37*
%TD.AperFunction*%
%TO.P,R405,1*%
%TO.N,Net-(J403-Pad3)*%
%TA.AperFunction,SMDPad,CuDef*%
G36*
G01*
X141077500Y-32205000D02*
X141422500Y-32205000D01*
G75*
G02*
X141570000Y-32352500I0J-147500D01*
G01*
X141570000Y-32647500D01*
G75*
G02*
X141422500Y-32795000I-147500J0D01*
G01*
X141077500Y-32795000D01*
G75*
G02*
X140930000Y-32647500I0J147500D01*
G01*
X140930000Y-32352500D01*
G75*
G02*
X141077500Y-32205000I147500J0D01*
G01*
G37*
%TD.AperFunction*%
%TD*%
%TO.P,R406,1*%
%TO.N,Net-(J404-Pad2)*%
%TA.AperFunction,SMDPad,CuDef*%
G36*
G01*
X154672500Y-74295000D02*
X154327500Y-74295000D01*
G75*
G02*
X154180000Y-74147500I0J147500D01*
G01*
X154180000Y-73852500D01*
G75*
G02*
X154327500Y-73705000I147500J0D01*
G01*
X154672500Y-73705000D01*
G75*
G02*
X154820000Y-73852500I0J-147500D01*
G01*
X154820000Y-74147500D01*
G75*
G02*
X154672500Y-74295000I-147500J0D01*
G01*
G37*
%TD.AperFunction*%
%TO.P,R406,2*%
%TO.N,USART1_TX*%
%TA.AperFunction,SMDPad,CuDef*%
G36*
G01*
X154672500Y-73325000D02*
X154327500Y-73325000D01*
G75*
G02*
X154180000Y-73177500I0J147500D01*
G01*
X154180000Y-72882500D01*
G75*
G02*
X154327500Y-72735000I147500J0D01*
G01*
X154672500Y-72735000D01*
G75*
G02*
X154820000Y-72882500I0J-147500D01*
G01*
X154820000Y-73177500D01*
G75*
G02*
X154672500Y-73325000I-147500J0D01*
G01*
G37*
%TD.AperFunction*%
%TD*%
%TO.P,R407,2*%
%TO.N,USART1_RX*%
%TA.AperFunction,SMDPad,CuDef*%
G36*
G01*
X155922500Y-73325000D02*
X155577500Y-73325000D01*
G75*
G02*
X155430000Y-73177500I0J147500D01*
G01*
X155430000Y-72882500D01*
G75*
G02*
X155577500Y-72735000I147500J0D01*
G01*
X155922500Y-72735000D01*
G75*
G02*
X156070000Y-72882500I0J-147500D01*
G01*
X156070000Y-73177500D01*
G75*
G02*
X155922500Y-73325000I-147500J0D01*
G01*
G37*
%TD.AperFunction*%
%TO.P,R407,1*%
%TO.N,Net-(J404-Pad3)*%
%TA.AperFunction,SMDPad,CuDef*%
G36*
G01*
X155922500Y-74295000D02*
X155577500Y-74295000D01*
G75*
G02*
X155430000Y-74147500I0J147500D01*
G01*
X155430000Y-73852500D01*
G75*
G02*
X155577500Y-73705000I147500J0D01*
G01*
X155922500Y-73705000D01*
G75*
G02*
X156070000Y-73852500I0J-147500D01*
G01*
X156070000Y-74147500D01*
G75*
G02*
X155922500Y-74295000I-147500J0D01*
G01*
G37*
%TD.AperFunction*%
%TD*%
%TO.P,R408,1*%
%TO.N,Net-(J405-Pad2)*%
%TA.AperFunction,SMDPad,CuDef*%
G36*
G01*
X142172500Y-74320000D02*
X141827500Y-74320000D01*
G75*
G02*
X141680000Y-74172500I0J147500D01*
G01*
X141680000Y-73877500D01*
G75*
G02*
X141827500Y-73730000I147500J0D01*
G01*
X142172500Y-73730000D01*
G75*
G02*
X142320000Y-73877500I0J-147500D01*
G01*
X142320000Y-74172500D01*
G75*
G02*
X142172500Y-74320000I-147500J0D01*
G01*
G37*
%TD.AperFunction*%
%TO.P,R408,2*%
%TO.N,TIM2_CH3*%
%TA.AperFunction,SMDPad,CuDef*%
G36*
G01*
X142172500Y-73350000D02*
X141827500Y-73350000D01*
G75*
G02*
X141680000Y-73202500I0J147500D01*
G01*
X141680000Y-72907500D01*
G75*
G02*
X141827500Y-72760000I147500J0D01*
G01*
X142172500Y-72760000D01*
G75*
G02*
X142320000Y-72907500I0J-147500D01*
G01*
X142320000Y-73202500D01*
G75*
G02*
X142172500Y-73350000I-147500J0D01*
G01*
G37*
%TD.AperFunction*%
%TD*%
%TO.P,R409,2*%
%TO.N,TIM2_CH4*%
%TA.AperFunction,SMDPad,CuDef*%
G36*
G01*
X143422500Y-73360000D02*
X143077500Y-73360000D01*
G75*
G02*
X142930000Y-73212500I0J147500D01*
G01*
X142930000Y-72917500D01*
G75*
G02*
X143077500Y-72770000I147500J0D01*
G01*
X143422500Y-72770000D01*
G75*
G02*
X143570000Y-72917500I0J-147500D01*
G01*
X143570000Y-73212500D01*
G75*
G02*
X143422500Y-73360000I-147500J0D01*
G01*
G37*
%TD.AperFunction*%
%TO.P,R409,1*%
%TO.N,Net-(J405-Pad3)*%
%TA.AperFunction,SMDPad,CuDef*%
G36*
G01*
X143422500Y-74330000D02*
X143077500Y-74330000D01*
G75*
G02*
X142930000Y-74182500I0J147500D01*
G01*
X142930000Y-73887500D01*
G75*
G02*
X143077500Y-73740000I147500J0D01*
G01*
X143422500Y-73740000D01*
G75*
G02*
X143570000Y-73887500I0J-147500D01*
G01*
X143570000Y-74182500D01*
G75*
G02*
X143422500Y-74330000I-147500J0D01*
G01*
G37*
%TD.AperFunction*%
%TD*%
%TO.P,R410,1*%
%TO.N,Net-(J406-Pad2)*%
%TA.AperFunction,SMDPad,CuDef*%
G36*
G01*
X133955000Y-65922500D02*
X133955000Y-65577500D01*
G75*
G02*
X134102500Y-65430000I147500J0D01*
G01*
X134397500Y-65430000D01*
G75*
G02*
X134545000Y-65577500I0J-147500D01*
G01*
X134545000Y-65922500D01*
G75*
G02*
X134397500Y-66070000I-147500J0D01*
G01*
X134102500Y-66070000D01*
G75*
G02*
X133955000Y-65922500I0J147500D01*
G01*
G37*
%TD.AperFunction*%
%TO.P,R410,2*%
%TO.N,TIM3_CH3*%
%TA.AperFunction,SMDPad,CuDef*%
G36*
G01*
X134925000Y-65922500D02*
X134925000Y-65577500D01*
G75*
G02*
X135072500Y-65430000I147500J0D01*
G01*
X135367500Y-65430000D01*
G75*
G02*
X135515000Y-65577500I0J-147500D01*
G01*
X135515000Y-65922500D01*
G75*
G02*
X135367500Y-66070000I-147500J0D01*
G01*
X135072500Y-66070000D01*
G75*
G02*
X134925000Y-65922500I0J147500D01*
G01*
G37*
%TD.AperFunction*%
%TD*%
%TO.P,R411,1*%
%TO.N,Net-(J406-Pad3)*%
%TA.AperFunction,SMDPad,CuDef*%
G36*
G01*
X133955000Y-67172500D02*
X133955000Y-66827500D01*
G75*
G02*
X134102500Y-66680000I147500J0D01*
G01*
X134397500Y-66680000D01*
G75*
G02*
X134545000Y-66827500I0J-147500D01*
G01*
X134545000Y-67172500D01*
G75*
G02*
X134397500Y-67320000I-147500J0D01*
G01*
X134102500Y-67320000D01*
G75*
G02*
X133955000Y-67172500I0J147500D01*
G01*
G37*
%TD.AperFunction*%
%TO.P,R411,2*%
%TO.N,TIM3_CH4*%
%TA.AperFunction,SMDPad,CuDef*%
G36*
G01*
X134925000Y-67172500D02*
X134925000Y-66827500D01*
G75*
G02*
X135072500Y-66680000I147500J0D01*
G01*
X135367500Y-66680000D01*
G75*
G02*
X135515000Y-66827500I0J-147500D01*
G01*
X135515000Y-67172500D01*
G75*
G02*
X135367500Y-67320000I-147500J0D01*
G01*
X135072500Y-67320000D01*
G75*
G02*
X134925000Y-67172500I0J147500D01*
G01*
G37*
%TD.AperFunction*%
%TD*%
%TO.P,R412,1*%
%TO.N,Net-(J407-Pad2)*%
%TA.AperFunction,SMDPad,CuDef*%
G36*
G01*
X133955000Y-39672500D02*
X133955000Y-39327500D01*
G75*
G02*
X134102500Y-39180000I147500J0D01*
G01*
X134397500Y-39180000D01*
G75*
G02*
X134545000Y-39327500I0J-147500D01*
G01*
X134545000Y-39672500D01*
G75*
G02*
X134397500Y-39820000I-147500J0D01*
G01*
X134102500Y-39820000D01*
G75*
G02*
X133955000Y-39672500I0J147500D01*
G01*
G37*
%TD.AperFunction*%
%TO.P,R412,2*%
%TO.N,ADC1_IN0*%
%TA.AperFunction,SMDPad,CuDef*%
G36*
G01*
X134925000Y-39672500D02*
X134925000Y-39327500D01*
G75*
G02*
X135072500Y-39180000I147500J0D01*
G01*
X135367500Y-39180000D01*
G75*
G02*
X135515000Y-39327500I0J-147500D01*
G01*
X135515000Y-39672500D01*
G75*
G02*
X135367500Y-39820000I-147500J0D01*
G01*
X135072500Y-39820000D01*
G75*
G02*
X134925000Y-39672500I0J147500D01*
G01*
G37*
%TD.AperFunction*%
%TD*%
%TO.P,R413,2*%
%TO.N,ADC1_IN1*%
%TA.AperFunction,SMDPad,CuDef*%
G36*
G01*
X134925000Y-40922500D02*
X134925000Y-40577500D01*
G75*
G02*
X135072500Y-40430000I147500J0D01*
G01*
X135367500Y-40430000D01*
G75*
G02*
X135515000Y-40577500I0J-147500D01*
G01*
X135515000Y-40922500D01*
G75*
G02*
X135367500Y-41070000I-147500J0D01*
G01*
X135072500Y-41070000D01*
G75*
G02*
X134925000Y-40922500I0J147500D01*
G01*
G37*
%TD.AperFunction*%
%TO.P,R413,1*%
%TO.N,Net-(J407-Pad3)*%
%TA.AperFunction,SMDPad,CuDef*%
G36*
G01*
X133955000Y-40922500D02*
X133955000Y-40577500D01*
G75*
G02*
X134102500Y-40430000I147500J0D01*
G01*
X134397500Y-40430000D01*
G75*
G02*
X134545000Y-40577500I0J-147500D01*
G01*
X134545000Y-40922500D01*
G75*
G02*
X134397500Y-41070000I-147500J0D01*
G01*
X134102500Y-41070000D01*
G75*
G02*
X133955000Y-40922500I0J147500D01*
G01*
G37*
%TD.AperFunction*%
%TD*%
%TO.P,R414,1*%
%TO.N,Net-(J408-Pad2)*%
%TA.AperFunction,SMDPad,CuDef*%
G36*
G01*
X133955000Y-52947500D02*
X133955000Y-52602500D01*
G75*
G02*
X134102500Y-52455000I147500J0D01*
G01*
X134397500Y-52455000D01*
G75*
G02*
X134545000Y-52602500I0J-147500D01*
G01*
X134545000Y-52947500D01*
G75*
G02*
X134397500Y-53095000I-147500J0D01*
G01*
X134102500Y-53095000D01*
G75*
G02*
X133955000Y-52947500I0J147500D01*
G01*
G37*
%TD.AperFunction*%
%TO.P,R414,2*%
%TO.N,ADC1_IN2*%
%TA.AperFunction,SMDPad,CuDef*%
G36*
G01*
X134925000Y-52947500D02*
X134925000Y-52602500D01*
G75*
G02*
X135072500Y-52455000I147500J0D01*
G01*
X135367500Y-52455000D01*
G75*
G02*
X135515000Y-52602500I0J-147500D01*
G01*
X135515000Y-52947500D01*
G75*
G02*
X135367500Y-53095000I-147500J0D01*
G01*
X135072500Y-53095000D01*
G75*
G02*
X134925000Y-52947500I0J147500D01*
G01*
G37*
%TD.AperFunction*%
%TD*%
%TO.P,R415,2*%
%TO.N,ADC1_IN3*%
%TA.AperFunction,SMDPad,CuDef*%
G36*
G01*
X134925000Y-54172500D02*
X134925000Y-53827500D01*
G75*
G02*
X135072500Y-53680000I147500J0D01*
G01*
X135367500Y-53680000D01*
G75*
G02*
X135515000Y-53827500I0J-147500D01*
G01*
X135515000Y-54172500D01*
G75*
G02*
X135367500Y-54320000I-147500J0D01*
G01*
X135072500Y-54320000D01*
G75*
G02*
X134925000Y-54172500I0J147500D01*
G01*
G37*
%TD.AperFunction*%
%TO.P,R415,1*%
%TO.N,Net-(J408-Pad3)*%
%TA.AperFunction,SMDPad,CuDef*%
G36*
G01*
X133955000Y-54172500D02*
X133955000Y-53827500D01*
G75*
G02*
X134102500Y-53680000I147500J0D01*
G01*
X134397500Y-53680000D01*
G75*
G02*
X134545000Y-53827500I0J-147500D01*
G01*
X134545000Y-54172500D01*
G75*
G02*
X134397500Y-54320000I-147500J0D01*
G01*
X134102500Y-54320000D01*
G75*
G02*
X133955000Y-54172500I0J147500D01*
G01*
G37*
%TD.AperFunction*%
%TD*%
D24*
%TO.P,SW200,1*%
%TO.N,+3V3*%
X157475000Y-30680000D03*
%TO.P,SW200,2*%
%TO.N,Net-(D200-Pad2)*%
X154475000Y-30680000D03*
%TO.P,SW200,3*%
%TO.N,GND*%
X152975000Y-30680000D03*
D25*
%TO.P,SW200,*%
%TO.N,*%
X158875000Y-27820000D03*
X151575000Y-27820000D03*
X151575000Y-30030000D03*
X158875000Y-30030000D03*
%TD*%
D26*
%TO.P,U100,1*%
%TO.N,Net-(C101-Pad2)*%
X164900000Y-72800000D03*
%TO.P,U100,2*%
%TO.N,GND*%
X164900000Y-73750000D03*
%TO.P,U100,3*%
%TO.N,Net-(R102-Pad2)*%
X164900000Y-74700000D03*
%TO.P,U100,4*%
%TO.N,Net-(R100-Pad2)*%
X167100000Y-74700000D03*
%TO.P,U100,6*%
%TO.N,Net-(C101-Pad1)*%
X167100000Y-72800000D03*
%TO.P,U100,5*%
%TO.N,Net-(C100-Pad1)*%
X167100000Y-73750000D03*
%TD*%
%TO.P,U200,1*%
%TO.N,+3V3*%
%TA.AperFunction,SMDPad,CuDef*%
G36*
G01*
X145750000Y-46925000D02*
X145750000Y-46775000D01*
G75*
G02*
X145825000Y-46700000I75000J0D01*
G01*
X147225000Y-46700000D01*
G75*
G02*
X147300000Y-46775000I0J-75000D01*
G01*
X147300000Y-46925000D01*
G75*
G02*
X147225000Y-47000000I-75000J0D01*
G01*
X145825000Y-47000000D01*
G75*
G02*
X145750000Y-46925000I0J75000D01*
G01*
G37*
%TD.AperFunction*%
%TO.P,U200,2*%
%TO.N,N/C*%
%TA.AperFunction,SMDPad,CuDef*%
G36*
G01*
X145750000Y-47425000D02*
X145750000Y-47275000D01*
G75*
G02*
X145825000Y-47200000I75000J0D01*
G01*
X147225000Y-47200000D01*
G75*
G02*
X147300000Y-47275000I0J-75000D01*
G01*
X147300000Y-47425000D01*
G75*
G02*
X147225000Y-47500000I-75000J0D01*
G01*
X145825000Y-47500000D01*
G75*
G02*
X145750000Y-47425000I0J75000D01*
G01*
G37*
%TD.AperFunction*%
%TO.P,U200,3*%
%TA.AperFunction,SMDPad,CuDef*%
G36*
G01*
X145750000Y-47925000D02*
X145750000Y-47775000D01*
G75*
G02*
X145825000Y-47700000I75000J0D01*
G01*
X147225000Y-47700000D01*
G75*
G02*
X147300000Y-47775000I0J-75000D01*
G01*
X147300000Y-47925000D01*
G75*
G02*
X147225000Y-48000000I-75000J0D01*
G01*
X145825000Y-48000000D01*
G75*
G02*
X145750000Y-47925000I0J75000D01*
G01*
G37*
%TD.AperFunction*%
%TO.P,U200,4*%
%TA.AperFunction,SMDPad,CuDef*%
G36*
G01*
X145750000Y-48425000D02*
X145750000Y-48275000D01*
G75*
G02*
X145825000Y-48200000I75000J0D01*
G01*
X147225000Y-48200000D01*
G75*
G02*
X147300000Y-48275000I0J-75000D01*
G01*
X147300000Y-48425000D01*
G75*
G02*
X147225000Y-48500000I-75000J0D01*
G01*
X145825000Y-48500000D01*
G75*
G02*
X145750000Y-48425000I0J75000D01*
G01*
G37*
%TD.AperFunction*%
%TO.P,U200,5*%
%TO.N,HSE_IN*%
%TA.AperFunction,SMDPad,CuDef*%
G36*
G01*
X145750000Y-48925000D02*
X145750000Y-48775000D01*
G75*
G02*
X145825000Y-48700000I75000J0D01*
G01*
X147225000Y-48700000D01*
G75*
G02*
X147300000Y-48775000I0J-75000D01*
G01*
X147300000Y-48925000D01*
G75*
G02*
X147225000Y-49000000I-75000J0D01*
G01*
X145825000Y-49000000D01*
G75*
G02*
X145750000Y-48925000I0J75000D01*
G01*
G37*
%TD.AperFunction*%
%TO.P,U200,6*%
%TO.N,HSE_OUT*%
%TA.AperFunction,SMDPad,CuDef*%
G36*
G01*
X145750000Y-49425000D02*
X145750000Y-49275000D01*
G75*
G02*
X145825000Y-49200000I75000J0D01*
G01*
X147225000Y-49200000D01*
G75*
G02*
X147300000Y-49275000I0J-75000D01*
G01*
X147300000Y-49425000D01*
G75*
G02*
X147225000Y-49500000I-75000J0D01*
G01*
X145825000Y-49500000D01*
G75*
G02*
X145750000Y-49425000I0J75000D01*
G01*
G37*
%TD.AperFunction*%
%TO.P,U200,7*%
%TO.N,NRST*%
%TA.AperFunction,SMDPad,CuDef*%
G36*
G01*
X145750000Y-49925000D02*
X145750000Y-49775000D01*
G75*
G02*
X145825000Y-49700000I75000J0D01*
G01*
X147225000Y-49700000D01*
G75*
G02*
X147300000Y-49775000I0J-75000D01*
G01*
X147300000Y-49925000D01*
G75*
G02*
X147225000Y-50000000I-75000J0D01*
G01*
X145825000Y-50000000D01*
G75*
G02*
X145750000Y-49925000I0J75000D01*
G01*
G37*
%TD.AperFunction*%
%TO.P,U200,8*%
%TO.N,N/C*%
%TA.AperFunction,SMDPad,CuDef*%
G36*
G01*
X145750000Y-50425000D02*
X145750000Y-50275000D01*
G75*
G02*
X145825000Y-50200000I75000J0D01*
G01*
X147225000Y-50200000D01*
G75*
G02*
X147300000Y-50275000I0J-75000D01*
G01*
X147300000Y-50425000D01*
G75*
G02*
X147225000Y-50500000I-75000J0D01*
G01*
X145825000Y-50500000D01*
G75*
G02*
X145750000Y-50425000I0J75000D01*
G01*
G37*
%TD.AperFunction*%
%TO.P,U200,9*%
%TA.AperFunction,SMDPad,CuDef*%
G36*
G01*
X145750000Y-50925000D02*
X145750000Y-50775000D01*
G75*
G02*
X145825000Y-50700000I75000J0D01*
G01*
X147225000Y-50700000D01*
G75*
G02*
X147300000Y-50775000I0J-75000D01*
G01*
X147300000Y-50925000D01*
G75*
G02*
X147225000Y-51000000I-75000J0D01*
G01*
X145825000Y-51000000D01*
G75*
G02*
X145750000Y-50925000I0J75000D01*
G01*
G37*
%TD.AperFunction*%
%TO.P,U200,10*%
%TO.N,INT_ACC*%
%TA.AperFunction,SMDPad,CuDef*%
G36*
G01*
X145750000Y-51425000D02*
X145750000Y-51275000D01*
G75*
G02*
X145825000Y-51200000I75000J0D01*
G01*
X147225000Y-51200000D01*
G75*
G02*
X147300000Y-51275000I0J-75000D01*
G01*
X147300000Y-51425000D01*
G75*
G02*
X147225000Y-51500000I-75000J0D01*
G01*
X145825000Y-51500000D01*
G75*
G02*
X145750000Y-51425000I0J75000D01*
G01*
G37*
%TD.AperFunction*%
%TO.P,U200,11*%
%TO.N,INT_GYR*%
%TA.AperFunction,SMDPad,CuDef*%
G36*
G01*
X145750000Y-51925000D02*
X145750000Y-51775000D01*
G75*
G02*
X145825000Y-51700000I75000J0D01*
G01*
X147225000Y-51700000D01*
G75*
G02*
X147300000Y-51775000I0J-75000D01*
G01*
X147300000Y-51925000D01*
G75*
G02*
X147225000Y-52000000I-75000J0D01*
G01*
X145825000Y-52000000D01*
G75*
G02*
X145750000Y-51925000I0J75000D01*
G01*
G37*
%TD.AperFunction*%
%TO.P,U200,12*%
%TO.N,GND*%
%TA.AperFunction,SMDPad,CuDef*%
G36*
G01*
X145750000Y-52425000D02*
X145750000Y-52275000D01*
G75*
G02*
X145825000Y-52200000I75000J0D01*
G01*
X147225000Y-52200000D01*
G75*
G02*
X147300000Y-52275000I0J-75000D01*
G01*
X147300000Y-52425000D01*
G75*
G02*
X147225000Y-52500000I-75000J0D01*
G01*
X145825000Y-52500000D01*
G75*
G02*
X145750000Y-52425000I0J75000D01*
G01*
G37*
%TD.AperFunction*%
%TO.P,U200,13*%
%TO.N,+3.3VA*%
%TA.AperFunction,SMDPad,CuDef*%
G36*
G01*
X145750000Y-52925000D02*
X145750000Y-52775000D01*
G75*
G02*
X145825000Y-52700000I75000J0D01*
G01*
X147225000Y-52700000D01*
G75*
G02*
X147300000Y-52775000I0J-75000D01*
G01*
X147300000Y-52925000D01*
G75*
G02*
X147225000Y-53000000I-75000J0D01*
G01*
X145825000Y-53000000D01*
G75*
G02*
X145750000Y-52925000I0J75000D01*
G01*
G37*
%TD.AperFunction*%
%TO.P,U200,14*%
%TO.N,ADC1_IN0*%
%TA.AperFunction,SMDPad,CuDef*%
G36*
G01*
X145750000Y-53425000D02*
X145750000Y-53275000D01*
G75*
G02*
X145825000Y-53200000I75000J0D01*
G01*
X147225000Y-53200000D01*
G75*
G02*
X147300000Y-53275000I0J-75000D01*
G01*
X147300000Y-53425000D01*
G75*
G02*
X147225000Y-53500000I-75000J0D01*
G01*
X145825000Y-53500000D01*
G75*
G02*
X145750000Y-53425000I0J75000D01*
G01*
G37*
%TD.AperFunction*%
%TO.P,U200,15*%
%TO.N,ADC1_IN1*%
%TA.AperFunction,SMDPad,CuDef*%
G36*
G01*
X145750000Y-53925000D02*
X145750000Y-53775000D01*
G75*
G02*
X145825000Y-53700000I75000J0D01*
G01*
X147225000Y-53700000D01*
G75*
G02*
X147300000Y-53775000I0J-75000D01*
G01*
X147300000Y-53925000D01*
G75*
G02*
X147225000Y-54000000I-75000J0D01*
G01*
X145825000Y-54000000D01*
G75*
G02*
X145750000Y-53925000I0J75000D01*
G01*
G37*
%TD.AperFunction*%
%TO.P,U200,16*%
%TO.N,ADC1_IN2*%
%TA.AperFunction,SMDPad,CuDef*%
G36*
G01*
X145750000Y-54425000D02*
X145750000Y-54275000D01*
G75*
G02*
X145825000Y-54200000I75000J0D01*
G01*
X147225000Y-54200000D01*
G75*
G02*
X147300000Y-54275000I0J-75000D01*
G01*
X147300000Y-54425000D01*
G75*
G02*
X147225000Y-54500000I-75000J0D01*
G01*
X145825000Y-54500000D01*
G75*
G02*
X145750000Y-54425000I0J75000D01*
G01*
G37*
%TD.AperFunction*%
%TO.P,U200,17*%
%TO.N,ADC1_IN3*%
%TA.AperFunction,SMDPad,CuDef*%
G36*
G01*
X148300000Y-56975000D02*
X148300000Y-55575000D01*
G75*
G02*
X148375000Y-55500000I75000J0D01*
G01*
X148525000Y-55500000D01*
G75*
G02*
X148600000Y-55575000I0J-75000D01*
G01*
X148600000Y-56975000D01*
G75*
G02*
X148525000Y-57050000I-75000J0D01*
G01*
X148375000Y-57050000D01*
G75*
G02*
X148300000Y-56975000I0J75000D01*
G01*
G37*
%TD.AperFunction*%
%TO.P,U200,18*%
%TO.N,GND*%
%TA.AperFunction,SMDPad,CuDef*%
G36*
G01*
X148800000Y-56975000D02*
X148800000Y-55575000D01*
G75*
G02*
X148875000Y-55500000I75000J0D01*
G01*
X149025000Y-55500000D01*
G75*
G02*
X149100000Y-55575000I0J-75000D01*
G01*
X149100000Y-56975000D01*
G75*
G02*
X149025000Y-57050000I-75000J0D01*
G01*
X148875000Y-57050000D01*
G75*
G02*
X148800000Y-56975000I0J75000D01*
G01*
G37*
%TD.AperFunction*%
%TO.P,U200,19*%
%TO.N,+3V3*%
%TA.AperFunction,SMDPad,CuDef*%
G36*
G01*
X149300000Y-56975000D02*
X149300000Y-55575000D01*
G75*
G02*
X149375000Y-55500000I75000J0D01*
G01*
X149525000Y-55500000D01*
G75*
G02*
X149600000Y-55575000I0J-75000D01*
G01*
X149600000Y-56975000D01*
G75*
G02*
X149525000Y-57050000I-75000J0D01*
G01*
X149375000Y-57050000D01*
G75*
G02*
X149300000Y-56975000I0J75000D01*
G01*
G37*
%TD.AperFunction*%
%TO.P,U200,20*%
%TO.N,SPI1_!CS_ACC*%
%TA.AperFunction,SMDPad,CuDef*%
G36*
G01*
X149800000Y-56975000D02*
X149800000Y-55575000D01*
G75*
G02*
X149875000Y-55500000I75000J0D01*
G01*
X150025000Y-55500000D01*
G75*
G02*
X150100000Y-55575000I0J-75000D01*
G01*
X150100000Y-56975000D01*
G75*
G02*
X150025000Y-57050000I-75000J0D01*
G01*
X149875000Y-57050000D01*
G75*
G02*
X149800000Y-56975000I0J75000D01*
G01*
G37*
%TD.AperFunction*%
%TO.P,U200,21*%
%TO.N,SPI1_SCK*%
%TA.AperFunction,SMDPad,CuDef*%
G36*
G01*
X150300000Y-56975000D02*
X150300000Y-55575000D01*
G75*
G02*
X150375000Y-55500000I75000J0D01*
G01*
X150525000Y-55500000D01*
G75*
G02*
X150600000Y-55575000I0J-75000D01*
G01*
X150600000Y-56975000D01*
G75*
G02*
X150525000Y-57050000I-75000J0D01*
G01*
X150375000Y-57050000D01*
G75*
G02*
X150300000Y-56975000I0J75000D01*
G01*
G37*
%TD.AperFunction*%
%TO.P,U200,22*%
%TO.N,SPI1_MISO*%
%TA.AperFunction,SMDPad,CuDef*%
G36*
G01*
X150800000Y-56975000D02*
X150800000Y-55575000D01*
G75*
G02*
X150875000Y-55500000I75000J0D01*
G01*
X151025000Y-55500000D01*
G75*
G02*
X151100000Y-55575000I0J-75000D01*
G01*
X151100000Y-56975000D01*
G75*
G02*
X151025000Y-57050000I-75000J0D01*
G01*
X150875000Y-57050000D01*
G75*
G02*
X150800000Y-56975000I0J75000D01*
G01*
G37*
%TD.AperFunction*%
%TO.P,U200,23*%
%TO.N,SPI1_MOSI*%
%TA.AperFunction,SMDPad,CuDef*%
G36*
G01*
X151300000Y-56975000D02*
X151300000Y-55575000D01*
G75*
G02*
X151375000Y-55500000I75000J0D01*
G01*
X151525000Y-55500000D01*
G75*
G02*
X151600000Y-55575000I0J-75000D01*
G01*
X151600000Y-56975000D01*
G75*
G02*
X151525000Y-57050000I-75000J0D01*
G01*
X151375000Y-57050000D01*
G75*
G02*
X151300000Y-56975000I0J75000D01*
G01*
G37*
%TD.AperFunction*%
%TO.P,U200,24*%
%TO.N,SPI1_!CS_GYR*%
%TA.AperFunction,SMDPad,CuDef*%
G36*
G01*
X151800000Y-56975000D02*
X151800000Y-55575000D01*
G75*
G02*
X151875000Y-55500000I75000J0D01*
G01*
X152025000Y-55500000D01*
G75*
G02*
X152100000Y-55575000I0J-75000D01*
G01*
X152100000Y-56975000D01*
G75*
G02*
X152025000Y-57050000I-75000J0D01*
G01*
X151875000Y-57050000D01*
G75*
G02*
X151800000Y-56975000I0J75000D01*
G01*
G37*
%TD.AperFunction*%
%TO.P,U200,25*%
%TO.N,N/C*%
%TA.AperFunction,SMDPad,CuDef*%
G36*
G01*
X152300000Y-56975000D02*
X152300000Y-55575000D01*
G75*
G02*
X152375000Y-55500000I75000J0D01*
G01*
X152525000Y-55500000D01*
G75*
G02*
X152600000Y-55575000I0J-75000D01*
G01*
X152600000Y-56975000D01*
G75*
G02*
X152525000Y-57050000I-75000J0D01*
G01*
X152375000Y-57050000D01*
G75*
G02*
X152300000Y-56975000I0J75000D01*
G01*
G37*
%TD.AperFunction*%
%TO.P,U200,26*%
%TO.N,TIM3_CH3*%
%TA.AperFunction,SMDPad,CuDef*%
G36*
G01*
X152800000Y-56975000D02*
X152800000Y-55575000D01*
G75*
G02*
X152875000Y-55500000I75000J0D01*
G01*
X153025000Y-55500000D01*
G75*
G02*
X153100000Y-55575000I0J-75000D01*
G01*
X153100000Y-56975000D01*
G75*
G02*
X153025000Y-57050000I-75000J0D01*
G01*
X152875000Y-57050000D01*
G75*
G02*
X152800000Y-56975000I0J75000D01*
G01*
G37*
%TD.AperFunction*%
%TO.P,U200,27*%
%TO.N,TIM3_CH4*%
%TA.AperFunction,SMDPad,CuDef*%
G36*
G01*
X153300000Y-56975000D02*
X153300000Y-55575000D01*
G75*
G02*
X153375000Y-55500000I75000J0D01*
G01*
X153525000Y-55500000D01*
G75*
G02*
X153600000Y-55575000I0J-75000D01*
G01*
X153600000Y-56975000D01*
G75*
G02*
X153525000Y-57050000I-75000J0D01*
G01*
X153375000Y-57050000D01*
G75*
G02*
X153300000Y-56975000I0J75000D01*
G01*
G37*
%TD.AperFunction*%
%TO.P,U200,28*%
%TO.N,BOOT1*%
%TA.AperFunction,SMDPad,CuDef*%
G36*
G01*
X153800000Y-56975000D02*
X153800000Y-55575000D01*
G75*
G02*
X153875000Y-55500000I75000J0D01*
G01*
X154025000Y-55500000D01*
G75*
G02*
X154100000Y-55575000I0J-75000D01*
G01*
X154100000Y-56975000D01*
G75*
G02*
X154025000Y-57050000I-75000J0D01*
G01*
X153875000Y-57050000D01*
G75*
G02*
X153800000Y-56975000I0J75000D01*
G01*
G37*
%TD.AperFunction*%
%TO.P,U200,29*%
%TO.N,TIM2_CH3*%
%TA.AperFunction,SMDPad,CuDef*%
G36*
G01*
X154300000Y-56975000D02*
X154300000Y-55575000D01*
G75*
G02*
X154375000Y-55500000I75000J0D01*
G01*
X154525000Y-55500000D01*
G75*
G02*
X154600000Y-55575000I0J-75000D01*
G01*
X154600000Y-56975000D01*
G75*
G02*
X154525000Y-57050000I-75000J0D01*
G01*
X154375000Y-57050000D01*
G75*
G02*
X154300000Y-56975000I0J75000D01*
G01*
G37*
%TD.AperFunction*%
%TO.P,U200,30*%
%TO.N,TIM2_CH4*%
%TA.AperFunction,SMDPad,CuDef*%
G36*
G01*
X154800000Y-56975000D02*
X154800000Y-55575000D01*
G75*
G02*
X154875000Y-55500000I75000J0D01*
G01*
X155025000Y-55500000D01*
G75*
G02*
X155100000Y-55575000I0J-75000D01*
G01*
X155100000Y-56975000D01*
G75*
G02*
X155025000Y-57050000I-75000J0D01*
G01*
X154875000Y-57050000D01*
G75*
G02*
X154800000Y-56975000I0J75000D01*
G01*
G37*
%TD.AperFunction*%
%TO.P,U200,31*%
%TO.N,Net-(C208-Pad1)*%
%TA.AperFunction,SMDPad,CuDef*%
G36*
G01*
X155300000Y-56975000D02*
X155300000Y-55575000D01*
G75*
G02*
X155375000Y-55500000I75000J0D01*
G01*
X155525000Y-55500000D01*
G75*
G02*
X155600000Y-55575000I0J-75000D01*
G01*
X155600000Y-56975000D01*
G75*
G02*
X155525000Y-57050000I-75000J0D01*
G01*
X155375000Y-57050000D01*
G75*
G02*
X155300000Y-56975000I0J75000D01*
G01*
G37*
%TD.AperFunction*%
%TO.P,U200,32*%
%TO.N,+3V3*%
%TA.AperFunction,SMDPad,CuDef*%
G36*
G01*
X155800000Y-56975000D02*
X155800000Y-55575000D01*
G75*
G02*
X155875000Y-55500000I75000J0D01*
G01*
X156025000Y-55500000D01*
G75*
G02*
X156100000Y-55575000I0J-75000D01*
G01*
X156100000Y-56975000D01*
G75*
G02*
X156025000Y-57050000I-75000J0D01*
G01*
X155875000Y-57050000D01*
G75*
G02*
X155800000Y-56975000I0J75000D01*
G01*
G37*
%TD.AperFunction*%
%TO.P,U200,33*%
%TO.N,SPI2_!CS*%
%TA.AperFunction,SMDPad,CuDef*%
G36*
G01*
X157100000Y-54425000D02*
X157100000Y-54275000D01*
G75*
G02*
X157175000Y-54200000I75000J0D01*
G01*
X158575000Y-54200000D01*
G75*
G02*
X158650000Y-54275000I0J-75000D01*
G01*
X158650000Y-54425000D01*
G75*
G02*
X158575000Y-54500000I-75000J0D01*
G01*
X157175000Y-54500000D01*
G75*
G02*
X157100000Y-54425000I0J75000D01*
G01*
G37*
%TD.AperFunction*%
%TO.P,U200,34*%
%TO.N,SPI2_SCK*%
%TA.AperFunction,SMDPad,CuDef*%
G36*
G01*
X157100000Y-53925000D02*
X157100000Y-53775000D01*
G75*
G02*
X157175000Y-53700000I75000J0D01*
G01*
X158575000Y-53700000D01*
G75*
G02*
X158650000Y-53775000I0J-75000D01*
G01*
X158650000Y-53925000D01*
G75*
G02*
X158575000Y-54000000I-75000J0D01*
G01*
X157175000Y-54000000D01*
G75*
G02*
X157100000Y-53925000I0J75000D01*
G01*
G37*
%TD.AperFunction*%
%TO.P,U200,35*%
%TO.N,SPI2_MISO*%
%TA.AperFunction,SMDPad,CuDef*%
G36*
G01*
X157100000Y-53425000D02*
X157100000Y-53275000D01*
G75*
G02*
X157175000Y-53200000I75000J0D01*
G01*
X158575000Y-53200000D01*
G75*
G02*
X158650000Y-53275000I0J-75000D01*
G01*
X158650000Y-53425000D01*
G75*
G02*
X158575000Y-53500000I-75000J0D01*
G01*
X157175000Y-53500000D01*
G75*
G02*
X157100000Y-53425000I0J75000D01*
G01*
G37*
%TD.AperFunction*%
%TO.P,U200,36*%
%TO.N,SPI2_MOSI*%
%TA.AperFunction,SMDPad,CuDef*%
G36*
G01*
X157100000Y-52925000D02*
X157100000Y-52775000D01*
G75*
G02*
X157175000Y-52700000I75000J0D01*
G01*
X158575000Y-52700000D01*
G75*
G02*
X158650000Y-52775000I0J-75000D01*
G01*
X158650000Y-52925000D01*
G75*
G02*
X158575000Y-53000000I-75000J0D01*
G01*
X157175000Y-53000000D01*
G75*
G02*
X157100000Y-52925000I0J75000D01*
G01*
G37*
%TD.AperFunction*%
%TO.P,U200,37*%
%TO.N,FLASH_!HOLD*%
%TA.AperFunction,SMDPad,CuDef*%
G36*
G01*
X157100000Y-52425000D02*
X157100000Y-52275000D01*
G75*
G02*
X157175000Y-52200000I75000J0D01*
G01*
X158575000Y-52200000D01*
G75*
G02*
X158650000Y-52275000I0J-75000D01*
G01*
X158650000Y-52425000D01*
G75*
G02*
X158575000Y-52500000I-75000J0D01*
G01*
X157175000Y-52500000D01*
G75*
G02*
X157100000Y-52425000I0J75000D01*
G01*
G37*
%TD.AperFunction*%
%TO.P,U200,38*%
%TO.N,FLASH_!WP*%
%TA.AperFunction,SMDPad,CuDef*%
G36*
G01*
X157100000Y-51925000D02*
X157100000Y-51775000D01*
G75*
G02*
X157175000Y-51700000I75000J0D01*
G01*
X158575000Y-51700000D01*
G75*
G02*
X158650000Y-51775000I0J-75000D01*
G01*
X158650000Y-51925000D01*
G75*
G02*
X158575000Y-52000000I-75000J0D01*
G01*
X157175000Y-52000000D01*
G75*
G02*
X157100000Y-51925000I0J75000D01*
G01*
G37*
%TD.AperFunction*%
%TO.P,U200,39*%
%TO.N,N/C*%
%TA.AperFunction,SMDPad,CuDef*%
G36*
G01*
X157100000Y-51425000D02*
X157100000Y-51275000D01*
G75*
G02*
X157175000Y-51200000I75000J0D01*
G01*
X158575000Y-51200000D01*
G75*
G02*
X158650000Y-51275000I0J-75000D01*
G01*
X158650000Y-51425000D01*
G75*
G02*
X158575000Y-51500000I-75000J0D01*
G01*
X157175000Y-51500000D01*
G75*
G02*
X157100000Y-51425000I0J75000D01*
G01*
G37*
%TD.AperFunction*%
%TO.P,U200,40*%
%TA.AperFunction,SMDPad,CuDef*%
G36*
G01*
X157100000Y-50925000D02*
X157100000Y-50775000D01*
G75*
G02*
X157175000Y-50700000I75000J0D01*
G01*
X158575000Y-50700000D01*
G75*
G02*
X158650000Y-50775000I0J-75000D01*
G01*
X158650000Y-50925000D01*
G75*
G02*
X158575000Y-51000000I-75000J0D01*
G01*
X157175000Y-51000000D01*
G75*
G02*
X157100000Y-50925000I0J75000D01*
G01*
G37*
%TD.AperFunction*%
%TO.P,U200,41*%
%TA.AperFunction,SMDPad,CuDef*%
G36*
G01*
X157100000Y-50425000D02*
X157100000Y-50275000D01*
G75*
G02*
X157175000Y-50200000I75000J0D01*
G01*
X158575000Y-50200000D01*
G75*
G02*
X158650000Y-50275000I0J-75000D01*
G01*
X158650000Y-50425000D01*
G75*
G02*
X158575000Y-50500000I-75000J0D01*
G01*
X157175000Y-50500000D01*
G75*
G02*
X157100000Y-50425000I0J75000D01*
G01*
G37*
%TD.AperFunction*%
%TO.P,U200,42*%
%TO.N,USART1_TX*%
%TA.AperFunction,SMDPad,CuDef*%
G36*
G01*
X157100000Y-49925000D02*
X157100000Y-49775000D01*
G75*
G02*
X157175000Y-49700000I75000J0D01*
G01*
X158575000Y-49700000D01*
G75*
G02*
X158650000Y-49775000I0J-75000D01*
G01*
X158650000Y-49925000D01*
G75*
G02*
X158575000Y-50000000I-75000J0D01*
G01*
X157175000Y-50000000D01*
G75*
G02*
X157100000Y-49925000I0J75000D01*
G01*
G37*
%TD.AperFunction*%
%TO.P,U200,43*%
%TO.N,USART1_RX*%
%TA.AperFunction,SMDPad,CuDef*%
G36*
G01*
X157100000Y-49425000D02*
X157100000Y-49275000D01*
G75*
G02*
X157175000Y-49200000I75000J0D01*
G01*
X158575000Y-49200000D01*
G75*
G02*
X158650000Y-49275000I0J-75000D01*
G01*
X158650000Y-49425000D01*
G75*
G02*
X158575000Y-49500000I-75000J0D01*
G01*
X157175000Y-49500000D01*
G75*
G02*
X157100000Y-49425000I0J75000D01*
G01*
G37*
%TD.AperFunction*%
%TO.P,U200,44*%
%TO.N,USB_D-*%
%TA.AperFunction,SMDPad,CuDef*%
G36*
G01*
X157100000Y-48925000D02*
X157100000Y-48775000D01*
G75*
G02*
X157175000Y-48700000I75000J0D01*
G01*
X158575000Y-48700000D01*
G75*
G02*
X158650000Y-48775000I0J-75000D01*
G01*
X158650000Y-48925000D01*
G75*
G02*
X158575000Y-49000000I-75000J0D01*
G01*
X157175000Y-49000000D01*
G75*
G02*
X157100000Y-48925000I0J75000D01*
G01*
G37*
%TD.AperFunction*%
%TO.P,U200,45*%
%TO.N,USB_D+*%
%TA.AperFunction,SMDPad,CuDef*%
G36*
G01*
X157100000Y-48425000D02*
X157100000Y-48275000D01*
G75*
G02*
X157175000Y-48200000I75000J0D01*
G01*
X158575000Y-48200000D01*
G75*
G02*
X158650000Y-48275000I0J-75000D01*
G01*
X158650000Y-48425000D01*
G75*
G02*
X158575000Y-48500000I-75000J0D01*
G01*
X157175000Y-48500000D01*
G75*
G02*
X157100000Y-48425000I0J75000D01*
G01*
G37*
%TD.AperFunction*%
%TO.P,U200,46*%
%TO.N,SWDIO*%
%TA.AperFunction,SMDPad,CuDef*%
G36*
G01*
X157100000Y-47925000D02*
X157100000Y-47775000D01*
G75*
G02*
X157175000Y-47700000I75000J0D01*
G01*
X158575000Y-47700000D01*
G75*
G02*
X158650000Y-47775000I0J-75000D01*
G01*
X158650000Y-47925000D01*
G75*
G02*
X158575000Y-48000000I-75000J0D01*
G01*
X157175000Y-48000000D01*
G75*
G02*
X157100000Y-47925000I0J75000D01*
G01*
G37*
%TD.AperFunction*%
%TO.P,U200,47*%
%TO.N,Net-(C209-Pad1)*%
%TA.AperFunction,SMDPad,CuDef*%
G36*
G01*
X157100000Y-47425000D02*
X157100000Y-47275000D01*
G75*
G02*
X157175000Y-47200000I75000J0D01*
G01*
X158575000Y-47200000D01*
G75*
G02*
X158650000Y-47275000I0J-75000D01*
G01*
X158650000Y-47425000D01*
G75*
G02*
X158575000Y-47500000I-75000J0D01*
G01*
X157175000Y-47500000D01*
G75*
G02*
X157100000Y-47425000I0J75000D01*
G01*
G37*
%TD.AperFunction*%
%TO.P,U200,48*%
%TO.N,+3V3*%
%TA.AperFunction,SMDPad,CuDef*%
G36*
G01*
X157100000Y-46925000D02*
X157100000Y-46775000D01*
G75*
G02*
X157175000Y-46700000I75000J0D01*
G01*
X158575000Y-46700000D01*
G75*
G02*
X158650000Y-46775000I0J-75000D01*
G01*
X158650000Y-46925000D01*
G75*
G02*
X158575000Y-47000000I-75000J0D01*
G01*
X157175000Y-47000000D01*
G75*
G02*
X157100000Y-46925000I0J75000D01*
G01*
G37*
%TD.AperFunction*%
%TO.P,U200,49*%
%TO.N,SWCLK*%
%TA.AperFunction,SMDPad,CuDef*%
G36*
G01*
X155800000Y-45625000D02*
X155800000Y-44225000D01*
G75*
G02*
X155875000Y-44150000I75000J0D01*
G01*
X156025000Y-44150000D01*
G75*
G02*
X156100000Y-44225000I0J-75000D01*
G01*
X156100000Y-45625000D01*
G75*
G02*
X156025000Y-45700000I-75000J0D01*
G01*
X155875000Y-45700000D01*
G75*
G02*
X155800000Y-45625000I0J75000D01*
G01*
G37*
%TD.AperFunction*%
%TO.P,U200,50*%
%TO.N,SPI3_!CS*%
%TA.AperFunction,SMDPad,CuDef*%
G36*
G01*
X155300000Y-45625000D02*
X155300000Y-44225000D01*
G75*
G02*
X155375000Y-44150000I75000J0D01*
G01*
X155525000Y-44150000D01*
G75*
G02*
X155600000Y-44225000I0J-75000D01*
G01*
X155600000Y-45625000D01*
G75*
G02*
X155525000Y-45700000I-75000J0D01*
G01*
X155375000Y-45700000D01*
G75*
G02*
X155300000Y-45625000I0J75000D01*
G01*
G37*
%TD.AperFunction*%
%TO.P,U200,51*%
%TO.N,SPI3_SCK*%
%TA.AperFunction,SMDPad,CuDef*%
G36*
G01*
X154800000Y-45625000D02*
X154800000Y-44225000D01*
G75*
G02*
X154875000Y-44150000I75000J0D01*
G01*
X155025000Y-44150000D01*
G75*
G02*
X155100000Y-44225000I0J-75000D01*
G01*
X155100000Y-45625000D01*
G75*
G02*
X155025000Y-45700000I-75000J0D01*
G01*
X154875000Y-45700000D01*
G75*
G02*
X154800000Y-45625000I0J75000D01*
G01*
G37*
%TD.AperFunction*%
%TO.P,U200,52*%
%TO.N,SPI3_MISO*%
%TA.AperFunction,SMDPad,CuDef*%
G36*
G01*
X154300000Y-45625000D02*
X154300000Y-44225000D01*
G75*
G02*
X154375000Y-44150000I75000J0D01*
G01*
X154525000Y-44150000D01*
G75*
G02*
X154600000Y-44225000I0J-75000D01*
G01*
X154600000Y-45625000D01*
G75*
G02*
X154525000Y-45700000I-75000J0D01*
G01*
X154375000Y-45700000D01*
G75*
G02*
X154300000Y-45625000I0J75000D01*
G01*
G37*
%TD.AperFunction*%
%TO.P,U200,53*%
%TO.N,SPI3_MOSI*%
%TA.AperFunction,SMDPad,CuDef*%
G36*
G01*
X153800000Y-45625000D02*
X153800000Y-44225000D01*
G75*
G02*
X153875000Y-44150000I75000J0D01*
G01*
X154025000Y-44150000D01*
G75*
G02*
X154100000Y-44225000I0J-75000D01*
G01*
X154100000Y-45625000D01*
G75*
G02*
X154025000Y-45700000I-75000J0D01*
G01*
X153875000Y-45700000D01*
G75*
G02*
X153800000Y-45625000I0J75000D01*
G01*
G37*
%TD.AperFunction*%
%TO.P,U200,54*%
%TO.N,N/C*%
%TA.AperFunction,SMDPad,CuDef*%
G36*
G01*
X153300000Y-45625000D02*
X153300000Y-44225000D01*
G75*
G02*
X153375000Y-44150000I75000J0D01*
G01*
X153525000Y-44150000D01*
G75*
G02*
X153600000Y-44225000I0J-75000D01*
G01*
X153600000Y-45625000D01*
G75*
G02*
X153525000Y-45700000I-75000J0D01*
G01*
X153375000Y-45700000D01*
G75*
G02*
X153300000Y-45625000I0J75000D01*
G01*
G37*
%TD.AperFunction*%
%TO.P,U200,55*%
%TO.N,SWO*%
%TA.AperFunction,SMDPad,CuDef*%
G36*
G01*
X152800000Y-45625000D02*
X152800000Y-44225000D01*
G75*
G02*
X152875000Y-44150000I75000J0D01*
G01*
X153025000Y-44150000D01*
G75*
G02*
X153100000Y-44225000I0J-75000D01*
G01*
X153100000Y-45625000D01*
G75*
G02*
X153025000Y-45700000I-75000J0D01*
G01*
X152875000Y-45700000D01*
G75*
G02*
X152800000Y-45625000I0J75000D01*
G01*
G37*
%TD.AperFunction*%
%TO.P,U200,56*%
%TO.N,TIM3_CH1*%
%TA.AperFunction,SMDPad,CuDef*%
G36*
G01*
X152300000Y-45625000D02*
X152300000Y-44225000D01*
G75*
G02*
X152375000Y-44150000I75000J0D01*
G01*
X152525000Y-44150000D01*
G75*
G02*
X152600000Y-44225000I0J-75000D01*
G01*
X152600000Y-45625000D01*
G75*
G02*
X152525000Y-45700000I-75000J0D01*
G01*
X152375000Y-45700000D01*
G75*
G02*
X152300000Y-45625000I0J75000D01*
G01*
G37*
%TD.AperFunction*%
%TO.P,U200,57*%
%TO.N,TIM3_CH2*%
%TA.AperFunction,SMDPad,CuDef*%
G36*
G01*
X151800000Y-45625000D02*
X151800000Y-44225000D01*
G75*
G02*
X151875000Y-44150000I75000J0D01*
G01*
X152025000Y-44150000D01*
G75*
G02*
X152100000Y-44225000I0J-75000D01*
G01*
X152100000Y-45625000D01*
G75*
G02*
X152025000Y-45700000I-75000J0D01*
G01*
X151875000Y-45700000D01*
G75*
G02*
X151800000Y-45625000I0J75000D01*
G01*
G37*
%TD.AperFunction*%
%TO.P,U200,58*%
%TO.N,TIM4_CH1*%
%TA.AperFunction,SMDPad,CuDef*%
G36*
G01*
X151300000Y-45625000D02*
X151300000Y-44225000D01*
G75*
G02*
X151375000Y-44150000I75000J0D01*
G01*
X151525000Y-44150000D01*
G75*
G02*
X151600000Y-44225000I0J-75000D01*
G01*
X151600000Y-45625000D01*
G75*
G02*
X151525000Y-45700000I-75000J0D01*
G01*
X151375000Y-45700000D01*
G75*
G02*
X151300000Y-45625000I0J75000D01*
G01*
G37*
%TD.AperFunction*%
%TO.P,U200,59*%
%TO.N,N/C*%
%TA.AperFunction,SMDPad,CuDef*%
G36*
G01*
X150800000Y-45625000D02*
X150800000Y-44225000D01*
G75*
G02*
X150875000Y-44150000I75000J0D01*
G01*
X151025000Y-44150000D01*
G75*
G02*
X151100000Y-44225000I0J-75000D01*
G01*
X151100000Y-45625000D01*
G75*
G02*
X151025000Y-45700000I-75000J0D01*
G01*
X150875000Y-45700000D01*
G75*
G02*
X150800000Y-45625000I0J75000D01*
G01*
G37*
%TD.AperFunction*%
%TO.P,U200,60*%
%TO.N,BOOT0*%
%TA.AperFunction,SMDPad,CuDef*%
G36*
G01*
X150300000Y-45625000D02*
X150300000Y-44225000D01*
G75*
G02*
X150375000Y-44150000I75000J0D01*
G01*
X150525000Y-44150000D01*
G75*
G02*
X150600000Y-44225000I0J-75000D01*
G01*
X150600000Y-45625000D01*
G75*
G02*
X150525000Y-45700000I-75000J0D01*
G01*
X150375000Y-45700000D01*
G75*
G02*
X150300000Y-45625000I0J75000D01*
G01*
G37*
%TD.AperFunction*%
%TO.P,U200,61*%
%TO.N,I2C1_SCL*%
%TA.AperFunction,SMDPad,CuDef*%
G36*
G01*
X149800000Y-45625000D02*
X149800000Y-44225000D01*
G75*
G02*
X149875000Y-44150000I75000J0D01*
G01*
X150025000Y-44150000D01*
G75*
G02*
X150100000Y-44225000I0J-75000D01*
G01*
X150100000Y-45625000D01*
G75*
G02*
X150025000Y-45700000I-75000J0D01*
G01*
X149875000Y-45700000D01*
G75*
G02*
X149800000Y-45625000I0J75000D01*
G01*
G37*
%TD.AperFunction*%
%TO.P,U200,62*%
%TO.N,I2C1_SDA*%
%TA.AperFunction,SMDPad,CuDef*%
G36*
G01*
X149300000Y-45625000D02*
X149300000Y-44225000D01*
G75*
G02*
X149375000Y-44150000I75000J0D01*
G01*
X149525000Y-44150000D01*
G75*
G02*
X149600000Y-44225000I0J-75000D01*
G01*
X149600000Y-45625000D01*
G75*
G02*
X149525000Y-45700000I-75000J0D01*
G01*
X149375000Y-45700000D01*
G75*
G02*
X149300000Y-45625000I0J75000D01*
G01*
G37*
%TD.AperFunction*%
%TO.P,U200,63*%
%TO.N,GND*%
%TA.AperFunction,SMDPad,CuDef*%
G36*
G01*
X148800000Y-45625000D02*
X148800000Y-44225000D01*
G75*
G02*
X148875000Y-44150000I75000J0D01*
G01*
X149025000Y-44150000D01*
G75*
G02*
X149100000Y-44225000I0J-75000D01*
G01*
X149100000Y-45625000D01*
G75*
G02*
X149025000Y-45700000I-75000J0D01*
G01*
X148875000Y-45700000D01*
G75*
G02*
X148800000Y-45625000I0J75000D01*
G01*
G37*
%TD.AperFunction*%
%TO.P,U200,64*%
%TO.N,+3V3*%
%TA.AperFunction,SMDPad,CuDef*%
G36*
G01*
X148300000Y-45625000D02*
X148300000Y-44225000D01*
G75*
G02*
X148375000Y-44150000I75000J0D01*
G01*
X148525000Y-44150000D01*
G75*
G02*
X148600000Y-44225000I0J-75000D01*
G01*
X148600000Y-45625000D01*
G75*
G02*
X148525000Y-45700000I-75000J0D01*
G01*
X148375000Y-45700000D01*
G75*
G02*
X148300000Y-45625000I0J75000D01*
G01*
G37*
%TD.AperFunction*%
%TD*%
D27*
%TO.P,U300,1*%
%TO.N,GND*%
X159725000Y-39900000D03*
%TO.P,U300,5*%
%TO.N,SPI3_MISO*%
X157775000Y-38300000D03*
%TO.P,U300,6*%
%TO.N,+3V3*%
X158425000Y-38300000D03*
%TO.P,U300,7*%
%TO.N,GND*%
X159075000Y-38300000D03*
%TO.P,U300,4*%
%TO.N,SPI3_SCK*%
X157775000Y-39900000D03*
%TO.P,U300,3*%
%TO.N,SPI3_MOSI*%
X158425000Y-39900000D03*
%TO.P,U300,2*%
%TO.N,SPI3_!CS*%
X159075000Y-39900000D03*
%TO.P,U300,8*%
%TO.N,+3V3*%
X159725000Y-38300000D03*
%TD*%
D28*
%TO.P,Y200,1*%
%TO.N,HSE_IN*%
X140350000Y-47750000D03*
%TO.P,Y200,2*%
%TO.N,GND*%
X140350000Y-49950000D03*
%TO.P,Y200,3*%
%TO.N,Net-(C211-Pad1)*%
X142050000Y-49950000D03*
%TO.P,Y200,4*%
%TO.N,GND*%
X142050000Y-47750000D03*
%TD*%
D29*
%TO.N,GND*%
X177990000Y-40020000D03*
X161300000Y-58325000D03*
X158650000Y-57200000D03*
X158425000Y-58400000D03*
X147550000Y-58250000D03*
X144600000Y-45175000D03*
X143975000Y-43075000D03*
X148675000Y-42325000D03*
X158925000Y-44375000D03*
X160875000Y-45225000D03*
X171225000Y-52850000D03*
X166600000Y-57325000D03*
X166600000Y-52175000D03*
X144500000Y-51425000D03*
X143350000Y-51425000D03*
X140025000Y-51700000D03*
X142375000Y-46000000D03*
X148300000Y-38150000D03*
X152025000Y-31275000D03*
X160100000Y-33000000D03*
X162400000Y-31400000D03*
X165700000Y-26600000D03*
X168250000Y-26600000D03*
X169500000Y-26600000D03*
X159925000Y-37050000D03*
X161050000Y-40275000D03*
X159900000Y-40600000D03*
X147950000Y-66450000D03*
X148950000Y-66450000D03*
X148725000Y-69400000D03*
X149950000Y-66450000D03*
X146750000Y-63500000D03*
X161000000Y-70575000D03*
X162275000Y-69550000D03*
X159725000Y-69550000D03*
X159000000Y-65400000D03*
X167400000Y-60975000D03*
X168425000Y-62250000D03*
X167400000Y-63525000D03*
X164075000Y-78000000D03*
X171850000Y-78000000D03*
X171000000Y-71950000D03*
X172300000Y-70950000D03*
X171000000Y-69250000D03*
X171000000Y-67550000D03*
X175630000Y-39980000D03*
X174630000Y-39980000D03*
X174630000Y-38980000D03*
X175630000Y-38980000D03*
X153950000Y-60525000D03*
X178450000Y-56900000D03*
X178450000Y-58600000D03*
X177500000Y-63500000D03*
X178750000Y-64500000D03*
X164925000Y-78875000D03*
X163750000Y-73750000D03*
X163750000Y-72800000D03*
X163750000Y-74700000D03*
X162750000Y-74700000D03*
X162750000Y-73750000D03*
X162750000Y-72800000D03*
D30*
X139000000Y-51750000D03*
X139000000Y-50750000D03*
X139000000Y-49750000D03*
X139000000Y-48750000D03*
X139000000Y-47750000D03*
X139000000Y-46750000D03*
X139000000Y-45750000D03*
X139000000Y-44750000D03*
X140000000Y-44750000D03*
X141000000Y-44750000D03*
X142000000Y-44750000D03*
X143000000Y-44750000D03*
X139000000Y-52750000D03*
X140000000Y-52750000D03*
X141000000Y-52750000D03*
X142000000Y-52750000D03*
D29*
X147950000Y-52650000D03*
X148300000Y-54850000D03*
X148950000Y-46300000D03*
%TO.N,+3V3*%
X149200000Y-58975000D03*
X163550000Y-56650000D03*
X159725000Y-54950000D03*
X156750000Y-57300000D03*
X140075000Y-55100000D03*
X139200000Y-54000000D03*
X144600000Y-47525000D03*
X146375000Y-42150000D03*
X146375000Y-43925000D03*
X158900000Y-46100000D03*
X148300000Y-35775000D03*
X172975000Y-53350000D03*
X150350000Y-35550000D03*
X158425000Y-31250000D03*
X170800000Y-26600000D03*
X161750000Y-38625000D03*
X157550000Y-37025000D03*
X150375000Y-68675000D03*
X163950000Y-65100000D03*
X148450000Y-62750000D03*
X145400000Y-33475000D03*
X138325000Y-33475000D03*
X165325000Y-66750000D03*
X163950000Y-68400000D03*
X159700000Y-66750000D03*
X161000000Y-67800000D03*
X163575000Y-62250000D03*
X164600000Y-63525000D03*
X161900000Y-75625000D03*
X161900000Y-77375000D03*
X162450000Y-66750000D03*
X162450000Y-65100000D03*
X156600000Y-55200000D03*
X156500000Y-47350000D03*
X147900000Y-46850000D03*
X147850000Y-44850000D03*
%TO.N,NRST*%
X151400000Y-46950000D03*
X154675000Y-35850000D03*
%TO.N,SWO*%
X157000000Y-44725000D03*
X159525000Y-42500000D03*
%TO.N,USART1_TX*%
X156875000Y-60975000D03*
X154625000Y-51100000D03*
%TO.N,USART1_RX*%
X158225000Y-61000000D03*
X155825000Y-54525000D03*
%TO.N,INT_ACC*%
X151725000Y-65550000D03*
X152975000Y-54475000D03*
%TO.N,INT_GYR*%
X148025000Y-59575000D03*
X149100000Y-53500000D03*
%TO.N,SPI1_SCK*%
X150450000Y-55000000D03*
X147325000Y-60750000D03*
%TO.N,SPI1_MOSI*%
X152025000Y-63950000D03*
X146175000Y-64925000D03*
%TO.N,SPI2_MISO*%
X156500000Y-53350000D03*
X169425000Y-55400000D03*
%TO.N,SPI3_MOSI*%
X157250000Y-41500000D03*
X153500000Y-42000000D03*
%TD*%
D31*
%TO.N,GND*%
X148950000Y-43315000D02*
X148685000Y-43050000D01*
X148950000Y-44925000D02*
X148950000Y-43315000D01*
X140350000Y-51335000D02*
X140715000Y-51700000D01*
X140350000Y-49950000D02*
X140350000Y-51335000D01*
X142050000Y-46365000D02*
X141685000Y-46000000D01*
X142050000Y-47750000D02*
X142050000Y-46365000D01*
X159725000Y-40425000D02*
X159900000Y-40600000D01*
X159725000Y-39900000D02*
X159725000Y-40425000D01*
X148950000Y-68440000D02*
X148715000Y-68675000D01*
X148950000Y-67235000D02*
X148950000Y-68440000D01*
X147950000Y-67235000D02*
X147450000Y-67235000D01*
X148950000Y-66450000D02*
X148950000Y-67235000D01*
X149950000Y-66450000D02*
X149950000Y-67235000D01*
D32*
X159262500Y-33000000D02*
X160100000Y-33000000D01*
X162400000Y-32100000D02*
X162400000Y-31400000D01*
X161050000Y-39585000D02*
X161050000Y-40275000D01*
X148300000Y-37445000D02*
X148300000Y-38150000D01*
X148685000Y-42335000D02*
X148675000Y-42325000D01*
X148685000Y-43050000D02*
X148685000Y-42335000D01*
X144000000Y-43050000D02*
X143975000Y-43075000D01*
X144812500Y-43050000D02*
X144000000Y-43050000D01*
X144600000Y-45865000D02*
X144600000Y-45175000D01*
X141685000Y-46000000D02*
X142375000Y-46000000D01*
X140715000Y-51700000D02*
X140025000Y-51700000D01*
X143350000Y-52115000D02*
X143350000Y-51425000D01*
X144500000Y-51425000D02*
X144500000Y-52115000D01*
X148240000Y-58250000D02*
X147550000Y-58250000D01*
X148715000Y-69390000D02*
X148725000Y-69400000D01*
X148715000Y-68675000D02*
X148715000Y-69390000D01*
X161300000Y-57620000D02*
X161300000Y-58325000D01*
X158650000Y-57180000D02*
X158120000Y-56650000D01*
X158650000Y-57200000D02*
X158650000Y-57180000D01*
X157575000Y-58400000D02*
X158425000Y-58400000D01*
X170440000Y-52850000D02*
X171225000Y-52850000D01*
X166600000Y-52175000D02*
X166600000Y-57325000D01*
X159235000Y-37050000D02*
X159925000Y-37050000D01*
X168250000Y-28200000D02*
X168250000Y-26600000D01*
X169520000Y-26620000D02*
X169500000Y-26600000D01*
X169520000Y-28200000D02*
X169520000Y-26620000D01*
X165710000Y-26610000D02*
X165700000Y-26600000D01*
X165710000Y-28200000D02*
X165710000Y-26610000D01*
D31*
X147950000Y-67235000D02*
X147950000Y-66450000D01*
X148950000Y-56275000D02*
X148950000Y-57275000D01*
X148240000Y-57985000D02*
X148240000Y-58250000D01*
X148950000Y-57275000D02*
X148240000Y-57985000D01*
D32*
X152380000Y-31275000D02*
X152975000Y-30680000D01*
X152025000Y-31275000D02*
X152380000Y-31275000D01*
X158605000Y-44375000D02*
X158250000Y-44730000D01*
X158925000Y-44375000D02*
X158605000Y-44375000D01*
X160000000Y-45225000D02*
X160875000Y-45225000D01*
D33*
X159000000Y-64575000D02*
X159000000Y-65400000D01*
X164912500Y-78000000D02*
X164075000Y-78000000D01*
X171000000Y-78000000D02*
X171850000Y-78000000D01*
D31*
X144735000Y-52350000D02*
X144500000Y-52115000D01*
X146525000Y-52350000D02*
X144735000Y-52350000D01*
D32*
X153950000Y-59820000D02*
X153950000Y-60525000D01*
D33*
X178450000Y-56900000D02*
X178450000Y-58600000D01*
X177500000Y-63500000D02*
X177500000Y-64500000D01*
X177500000Y-64500000D02*
X178750000Y-64500000D01*
X164912500Y-78862500D02*
X164925000Y-78875000D01*
X164912500Y-78000000D02*
X164912500Y-78862500D01*
D31*
X147650000Y-52350000D02*
X147950000Y-52650000D01*
X146525000Y-52350000D02*
X147650000Y-52350000D01*
X148950000Y-56275000D02*
X148950000Y-55100000D01*
X148700000Y-54850000D02*
X148300000Y-54850000D01*
X148950000Y-55100000D02*
X148700000Y-54850000D01*
X148950000Y-44925000D02*
X148950000Y-46300000D01*
X160735000Y-39900000D02*
X161050000Y-39585000D01*
X159725000Y-39900000D02*
X160735000Y-39900000D01*
X159075000Y-37210000D02*
X159235000Y-37050000D01*
X159075000Y-38300000D02*
X159075000Y-37210000D01*
D32*
X146760000Y-63510000D02*
X146750000Y-63500000D01*
X147480000Y-63510000D02*
X146760000Y-63510000D01*
D33*
%TO.N,Net-(C101-Pad2)*%
X164900000Y-71062500D02*
X165212500Y-70750000D01*
X164900000Y-72800000D02*
X164900000Y-71062500D01*
D31*
%TO.N,+3V3*%
X148450000Y-44925000D02*
X148450000Y-43950000D01*
X147715000Y-43215000D02*
X147715000Y-43050000D01*
X148450000Y-43950000D02*
X147715000Y-43215000D01*
X144615000Y-46850000D02*
X144600000Y-46835000D01*
X156325000Y-56650000D02*
X155950000Y-56275000D01*
X157150000Y-56650000D02*
X156325000Y-56650000D01*
X158250000Y-46475000D02*
X157875000Y-46850000D01*
X158250000Y-45700000D02*
X158250000Y-46475000D01*
D32*
X161310000Y-56660000D02*
X161300000Y-56650000D01*
X162770000Y-56660000D02*
X161310000Y-56660000D01*
D31*
X149450000Y-68440000D02*
X149685000Y-68675000D01*
X149450000Y-67235000D02*
X149450000Y-68440000D01*
D32*
X157575000Y-37050000D02*
X157550000Y-37025000D01*
X158265000Y-37050000D02*
X157575000Y-37050000D01*
X161740000Y-38615000D02*
X161750000Y-38625000D01*
X161050000Y-38615000D02*
X161740000Y-38615000D01*
X150350000Y-36475000D02*
X150350000Y-35550000D01*
X150350000Y-36475000D02*
X148300000Y-36475000D01*
X148300000Y-36475000D02*
X148300000Y-35775000D01*
X146387500Y-43912500D02*
X146375000Y-43925000D01*
X146387500Y-43050000D02*
X146387500Y-43912500D01*
X146387500Y-42162500D02*
X146375000Y-42150000D01*
X146387500Y-43050000D02*
X146387500Y-42162500D01*
X146387500Y-43050000D02*
X147715000Y-43050000D01*
X140075000Y-53950000D02*
X139200000Y-53950000D01*
X140075000Y-54000000D02*
X140075000Y-55100000D01*
X149210000Y-58965000D02*
X149200000Y-58975000D01*
X149210000Y-58250000D02*
X149210000Y-58965000D01*
X149685000Y-68675000D02*
X150375000Y-68675000D01*
X163540000Y-56660000D02*
X163550000Y-56650000D01*
X162770000Y-56660000D02*
X163540000Y-56660000D01*
X160175000Y-55400000D02*
X159725000Y-54950000D01*
X160330000Y-55400000D02*
X160175000Y-55400000D01*
X157150000Y-56900000D02*
X156750000Y-57300000D01*
X157150000Y-56650000D02*
X157150000Y-56900000D01*
X172970000Y-53355000D02*
X172975000Y-53350000D01*
X172970000Y-54100000D02*
X172970000Y-53355000D01*
X170790000Y-26610000D02*
X170800000Y-26600000D01*
X170790000Y-28200000D02*
X170790000Y-26610000D01*
D31*
X149450000Y-58010000D02*
X149210000Y-58250000D01*
X149450000Y-56275000D02*
X149450000Y-58010000D01*
D32*
X158045000Y-31250000D02*
X157475000Y-30680000D01*
X158425000Y-31250000D02*
X158045000Y-31250000D01*
X139030000Y-33475000D02*
X138325000Y-33475000D01*
X145400000Y-33475000D02*
X144710000Y-33475000D01*
X158650000Y-46100000D02*
X158250000Y-45700000D01*
X158900000Y-46100000D02*
X158650000Y-46100000D01*
D33*
X161900000Y-75625000D02*
X161900000Y-77375000D01*
D32*
X144600000Y-46835000D02*
X144600000Y-47525000D01*
D31*
X155950000Y-55850000D02*
X156600000Y-55200000D01*
X155950000Y-56275000D02*
X155950000Y-55850000D01*
X157875000Y-46850000D02*
X156950000Y-46850000D01*
X156500000Y-47300000D02*
X156500000Y-47350000D01*
X156950000Y-46850000D02*
X156500000Y-47300000D01*
X147900000Y-46850000D02*
X146525000Y-46850000D01*
X148375000Y-44850000D02*
X148450000Y-44925000D01*
X147850000Y-44850000D02*
X148375000Y-44850000D01*
X146525000Y-46850000D02*
X144615000Y-46850000D01*
X160735000Y-38300000D02*
X161050000Y-38615000D01*
X159725000Y-38300000D02*
X160735000Y-38300000D01*
X158425000Y-37210000D02*
X158265000Y-37050000D01*
X158425000Y-38300000D02*
X158425000Y-37210000D01*
X148450000Y-64925000D02*
X148450000Y-63510000D01*
D32*
X148450000Y-63510000D02*
X148450000Y-62750000D01*
D31*
%TO.N,+3.3VA*%
X144735000Y-52850000D02*
X144500000Y-53085000D01*
X146525000Y-52850000D02*
X144735000Y-52850000D01*
D32*
X142435000Y-54000000D02*
X143350000Y-53085000D01*
X141950000Y-54000000D02*
X142435000Y-54000000D01*
X144500000Y-53085000D02*
X143350000Y-53085000D01*
D31*
%TO.N,Net-(C208-Pad1)*%
X155450000Y-57850000D02*
X156000000Y-58400000D01*
X155450000Y-56275000D02*
X155450000Y-57850000D01*
%TO.N,Net-(C209-Pad1)*%
X159450000Y-47350000D02*
X160000000Y-46800000D01*
X157875000Y-47350000D02*
X159450000Y-47350000D01*
%TO.N,HSE_IN*%
X140350000Y-47980002D02*
X140350000Y-47750000D01*
X141219998Y-48850000D02*
X140350000Y-47980002D01*
X146525000Y-48850000D02*
X141219998Y-48850000D01*
X140350000Y-46365000D02*
X140715000Y-46000000D01*
X140350000Y-47750000D02*
X140350000Y-46365000D01*
%TO.N,Net-(C211-Pad1)*%
X143630000Y-49950000D02*
X142050000Y-49950000D01*
X142050000Y-51335000D02*
X141685000Y-51700000D01*
X142050000Y-49950000D02*
X142050000Y-51335000D01*
%TO.N,NRST*%
X162400000Y-33070000D02*
X163600000Y-33070000D01*
X146525000Y-49850000D02*
X149650000Y-49850000D01*
X149650000Y-49850000D02*
X151400000Y-48100000D01*
X151400000Y-48100000D02*
X151400000Y-46950000D01*
X154675000Y-35850000D02*
X155600000Y-34925000D01*
X155600000Y-34925000D02*
X161650000Y-34925000D01*
X162400000Y-34175000D02*
X162400000Y-33070000D01*
X161650000Y-34925000D02*
X162400000Y-34175000D01*
D32*
%TO.N,Net-(D102-Pad1)*%
X159025000Y-63025000D02*
X159000000Y-63000000D01*
X161000000Y-63025000D02*
X159025000Y-63025000D01*
%TO.N,Net-(D200-Pad1)*%
X156050000Y-33000000D02*
X157687500Y-33000000D01*
%TO.N,Net-(D200-Pad2)*%
X154475000Y-30680000D02*
X154475000Y-33000000D01*
X154475000Y-33000000D02*
X152975000Y-33000000D01*
%TO.N,Net-(D201-Pad3)*%
X150350000Y-38675000D02*
X150350000Y-37375000D01*
%TO.N,Net-(D201-Pad1)*%
X153550000Y-38675000D02*
X153550000Y-37150000D01*
X152875000Y-36475000D02*
X151950000Y-36475000D01*
X153550000Y-37150000D02*
X152875000Y-36475000D01*
%TO.N,Net-(D201-Pad2)*%
X151950000Y-38675000D02*
X151950000Y-37375000D01*
%TO.N,Net-(J401-Pad2)*%
X170790000Y-35390000D02*
X170800000Y-35400000D01*
X170790000Y-32100000D02*
X170790000Y-35390000D01*
%TO.N,Net-(J401-Pad4)*%
X169520000Y-35380000D02*
X169500000Y-35400000D01*
X169520000Y-32100000D02*
X169520000Y-35380000D01*
%TO.N,Net-(J401-Pad6)*%
X168250000Y-32100000D02*
X168250000Y-35415000D01*
%TO.N,Net-(J401-Pad10)*%
X163600000Y-32100000D02*
X165710000Y-32100000D01*
D33*
%TO.N,Net-(J402-Pad6)*%
X177070000Y-45195000D02*
X176920000Y-45045000D01*
X180720000Y-45195000D02*
X177070000Y-45195000D01*
X180720000Y-45195000D02*
X180720000Y-37445000D01*
X177070000Y-37445000D02*
X176920000Y-37595000D01*
X180720000Y-37445000D02*
X177070000Y-37445000D01*
D32*
%TO.N,Net-(J403-Pad2)*%
X142500000Y-30750000D02*
X142500000Y-32500000D01*
%TO.N,Net-(J403-Pad3)*%
X141250000Y-30750000D02*
X141250000Y-32500000D01*
%TO.N,Net-(J404-Pad3)*%
X155750000Y-74000000D02*
X155750000Y-75750000D01*
%TO.N,Net-(J404-Pad2)*%
X154500000Y-74000000D02*
X154500000Y-75750000D01*
%TO.N,Net-(J405-Pad3)*%
X143250000Y-74035000D02*
X143250000Y-75750000D01*
%TO.N,Net-(J405-Pad2)*%
X142000000Y-74025000D02*
X142000000Y-75750000D01*
%TO.N,Net-(J406-Pad2)*%
X132500000Y-65750000D02*
X134250000Y-65750000D01*
%TO.N,Net-(J406-Pad3)*%
X132500000Y-67000000D02*
X134250000Y-67000000D01*
%TO.N,Net-(J407-Pad3)*%
X132500000Y-40750000D02*
X134250000Y-40750000D01*
%TO.N,Net-(J407-Pad2)*%
X132500000Y-39500000D02*
X134250000Y-39500000D01*
%TO.N,Net-(J408-Pad2)*%
X134225000Y-52750000D02*
X134250000Y-52775000D01*
X132500000Y-52750000D02*
X134225000Y-52750000D01*
%TO.N,Net-(J408-Pad3)*%
X132500000Y-54000000D02*
X134250000Y-54000000D01*
D33*
%TO.N,Net-(R100-Pad2)*%
X167100000Y-74700000D02*
X167100000Y-75175000D01*
X168425000Y-76500000D02*
X169425000Y-76500000D01*
X167100000Y-75175000D02*
X168425000Y-76500000D01*
X169425000Y-76500000D02*
X169425000Y-78000000D01*
%TO.N,Net-(R102-Pad2)*%
X164900000Y-76487500D02*
X164912500Y-76500000D01*
X164900000Y-74700000D02*
X164900000Y-76487500D01*
X163475000Y-76500000D02*
X164912500Y-76500000D01*
%TO.N,Net-(R103-Pad2)*%
X166487500Y-76500000D02*
X166487500Y-78000000D01*
D31*
%TO.N,HSE_OUT*%
X145200000Y-49350000D02*
X144600000Y-49950000D01*
X146525000Y-49350000D02*
X145200000Y-49350000D01*
%TO.N,BOOT0*%
X150450000Y-44925000D02*
X150450000Y-40900000D01*
X150450000Y-40900000D02*
X148875000Y-39325000D01*
X148875000Y-39325000D02*
X147675000Y-39325000D01*
X147675000Y-39325000D02*
X146800000Y-38450000D01*
X146800000Y-38450000D02*
X146800000Y-34075000D01*
X147875000Y-33000000D02*
X152005000Y-33000000D01*
X146800000Y-34075000D02*
X147875000Y-33000000D01*
%TO.N,BOOT1*%
X153950000Y-56275000D02*
X153950000Y-58850000D01*
D32*
%TO.N,I2C1_SCL*%
X143735000Y-33470000D02*
X143740000Y-33475000D01*
X142500000Y-33470000D02*
X143735000Y-33470000D01*
D31*
X149950000Y-44925000D02*
X149950000Y-41300000D01*
X149950000Y-41300000D02*
X148775000Y-40125000D01*
X148775000Y-40125000D02*
X143875000Y-40125000D01*
X142500000Y-38750000D02*
X142500000Y-33470000D01*
X143875000Y-40125000D02*
X142500000Y-38750000D01*
D32*
%TO.N,I2C1_SDA*%
X140005000Y-33470000D02*
X140000000Y-33475000D01*
X141250000Y-33470000D02*
X140005000Y-33470000D01*
D31*
X149450000Y-44925000D02*
X149450000Y-41800000D01*
X149450000Y-41800000D02*
X148450000Y-40800000D01*
X148450000Y-40800000D02*
X143275000Y-40800000D01*
X141250000Y-38775000D02*
X141250000Y-33470000D01*
X143275000Y-40800000D02*
X141250000Y-38775000D01*
%TO.N,TIM3_CH1*%
X152450000Y-40745000D02*
X153550000Y-39645000D01*
X152450000Y-44925000D02*
X152450000Y-40745000D01*
%TO.N,TIM3_CH2*%
X151950000Y-44925000D02*
X151950000Y-39645000D01*
%TO.N,TIM4_CH1*%
X151450000Y-40745000D02*
X150350000Y-39645000D01*
X151450000Y-44925000D02*
X151450000Y-40745000D01*
%TO.N,FLASH_!WP*%
X170460000Y-54100000D02*
X170440000Y-54120000D01*
X157875000Y-51850000D02*
X159400000Y-51850000D01*
X159400000Y-51850000D02*
X160500000Y-50750000D01*
X160500000Y-50750000D02*
X167750000Y-50750000D01*
X167750000Y-50750000D02*
X169250000Y-52250000D01*
X169250000Y-52250000D02*
X169250000Y-53500000D01*
X169870000Y-54120000D02*
X170440000Y-54120000D01*
X169250000Y-53500000D02*
X169870000Y-54120000D01*
X171980000Y-54120000D02*
X172000000Y-54100000D01*
X170440000Y-54120000D02*
X171980000Y-54120000D01*
%TO.N,FLASH_!HOLD*%
X161310000Y-55390000D02*
X161300000Y-55400000D01*
X162770000Y-55390000D02*
X161310000Y-55390000D01*
X162770000Y-55390000D02*
X163360000Y-55390000D01*
X163360000Y-55390000D02*
X164000000Y-54750000D01*
X164000000Y-54750000D02*
X164000000Y-52250000D01*
X164000000Y-52250000D02*
X163500000Y-51750000D01*
X160650000Y-52350000D02*
X157875000Y-52350000D01*
X161250000Y-51750000D02*
X160650000Y-52350000D01*
X163500000Y-51750000D02*
X161250000Y-51750000D01*
%TO.N,SWDIO*%
X170800000Y-37275000D02*
X170800000Y-36370000D01*
X162050000Y-43300000D02*
X166800000Y-38550000D01*
X166800000Y-38550000D02*
X169525000Y-38550000D01*
X169525000Y-38550000D02*
X170800000Y-37275000D01*
X162050000Y-43300000D02*
X162050000Y-46850000D01*
X161050000Y-47850000D02*
X162050000Y-46850000D01*
X157875000Y-47850000D02*
X161050000Y-47850000D01*
%TO.N,SWCLK*%
X155950000Y-44925000D02*
X155950000Y-44075000D01*
X155950000Y-44075000D02*
X156625000Y-43400000D01*
X156625000Y-43400000D02*
X160800000Y-43400000D01*
X160800000Y-43400000D02*
X166525000Y-37675000D01*
X166525000Y-37675000D02*
X168725000Y-37675000D01*
X169500000Y-36900000D02*
X169500000Y-36370000D01*
X168725000Y-37675000D02*
X169500000Y-36900000D01*
%TO.N,SWO*%
X152950000Y-44925000D02*
X152950000Y-46250000D01*
X152950000Y-46250000D02*
X153375000Y-46675000D01*
X153375000Y-46675000D02*
X156100000Y-46675000D01*
X156100000Y-46675000D02*
X156975000Y-45800000D01*
X156975000Y-45800000D02*
X156975000Y-44750000D01*
X156975000Y-44750000D02*
X157000000Y-44725000D01*
X159525000Y-42500000D02*
X160593586Y-42500000D01*
X168250000Y-36385000D02*
X168240000Y-36385000D01*
X168240000Y-36385000D02*
X167740707Y-36884293D01*
X160593586Y-42500000D02*
X166209293Y-36884293D01*
X167740707Y-36884293D02*
X166209293Y-36884293D01*
%TO.N,USART1_TX*%
X154500000Y-73030000D02*
X154500000Y-72700000D01*
X154500000Y-72700000D02*
X156850000Y-70350000D01*
X156850000Y-70350000D02*
X156850000Y-61000000D01*
X156850000Y-61000000D02*
X156875000Y-60975000D01*
X155900000Y-49850000D02*
X157875000Y-49850000D01*
X154625000Y-51125000D02*
X155900000Y-49850000D01*
%TO.N,USART1_RX*%
X155750000Y-73030000D02*
X155750000Y-72700000D01*
X155750000Y-72700000D02*
X157650000Y-70800000D01*
X157650000Y-70800000D02*
X157650000Y-69550000D01*
X157650000Y-69550000D02*
X157650000Y-61575000D01*
X157650000Y-61575000D02*
X158225000Y-61000000D01*
X157875000Y-49350000D02*
X154425000Y-49350000D01*
X154425000Y-49350000D02*
X153300000Y-50475000D01*
X153300000Y-52000000D02*
X155825000Y-54525000D01*
X153300000Y-50475000D02*
X153300000Y-52000000D01*
%TO.N,TIM2_CH3*%
X142000000Y-72350000D02*
X142000000Y-73055000D01*
X152500000Y-72400000D02*
X144450000Y-72400000D01*
X144075000Y-72025000D02*
X142325000Y-72025000D01*
X154450000Y-58326414D02*
X154712480Y-58588894D01*
X154712480Y-58588894D02*
X154712480Y-59312480D01*
X144450000Y-72400000D02*
X144075000Y-72025000D01*
X154712480Y-59312480D02*
X155125000Y-59725000D01*
X155125000Y-59725000D02*
X155125000Y-69775000D01*
X142325000Y-72025000D02*
X142000000Y-72350000D01*
X154450000Y-56275000D02*
X154450000Y-58326414D01*
X155125000Y-69775000D02*
X152500000Y-72400000D01*
%TO.N,TIM2_CH4*%
X152785000Y-73065000D02*
X143250000Y-73065000D01*
X154950000Y-58057120D02*
X155212490Y-58319610D01*
X154950000Y-56275000D02*
X154950000Y-58057120D01*
X155800000Y-59525000D02*
X155800000Y-70050000D01*
X155212490Y-58319610D02*
X155212490Y-58937490D01*
X155800000Y-70050000D02*
X152785000Y-73065000D01*
X155212490Y-58937490D02*
X155800000Y-59525000D01*
%TO.N,TIM3_CH3*%
X152950000Y-56275000D02*
X152950000Y-57700010D01*
X152950000Y-57700010D02*
X152450010Y-58200000D01*
X153650010Y-69432110D02*
X152182120Y-70900000D01*
X153650010Y-62742890D02*
X153650010Y-69432110D01*
X152450010Y-58200000D02*
X152450010Y-61542890D01*
X152450010Y-61542890D02*
X153650010Y-62742890D01*
X152182120Y-70900000D02*
X147200000Y-70900000D01*
X142050000Y-65750000D02*
X135220000Y-65750000D01*
X147200000Y-70900000D02*
X142050000Y-65750000D01*
%TO.N,TIM3_CH4*%
X152500000Y-71600000D02*
X146900000Y-71600000D01*
X146900000Y-71600000D02*
X142300000Y-67000000D01*
X153450000Y-58075000D02*
X153100000Y-58425000D01*
X153100000Y-61200000D02*
X154300000Y-62400000D01*
X142300000Y-67000000D02*
X135220000Y-67000000D01*
X153100000Y-58425000D02*
X153100000Y-61200000D01*
X153450000Y-56275000D02*
X153450000Y-58075000D01*
X154300000Y-62400000D02*
X154300000Y-69800000D01*
X154300000Y-69800000D02*
X152500000Y-71600000D01*
%TO.N,ADC1_IN0*%
X136700000Y-39500000D02*
X135220000Y-39500000D01*
X145350000Y-53350000D02*
X142800000Y-55900000D01*
X146525000Y-53350000D02*
X145350000Y-53350000D01*
X138200000Y-55100000D02*
X138200000Y-41000000D01*
X139000000Y-55900000D02*
X138200000Y-55100000D01*
X142800000Y-55900000D02*
X139000000Y-55900000D01*
X138200000Y-41000000D02*
X136700000Y-39500000D01*
%TO.N,ADC1_IN1*%
X136450000Y-40750000D02*
X135220000Y-40750000D01*
X137500000Y-55400000D02*
X137500000Y-41800000D01*
X145557120Y-53850000D02*
X145200000Y-54207120D01*
X146525000Y-53850000D02*
X145557120Y-53850000D01*
X145200000Y-54207120D02*
X145200000Y-54600000D01*
X137500000Y-41800000D02*
X136450000Y-40750000D01*
X145200000Y-54600000D02*
X143200000Y-56600000D01*
X143200000Y-56600000D02*
X138700000Y-56600000D01*
X138700000Y-56600000D02*
X137500000Y-55400000D01*
%TO.N,ADC1_IN2*%
X135220000Y-52775000D02*
X135875000Y-52775000D01*
X135875000Y-52775000D02*
X136500000Y-53400000D01*
X136500000Y-53400000D02*
X136500000Y-55900000D01*
X136500000Y-55900000D02*
X138200000Y-57600000D01*
X143275000Y-57600000D02*
X146525000Y-54350000D01*
X138200000Y-57600000D02*
X143275000Y-57600000D01*
%TO.N,ADC1_IN3*%
X135800000Y-54580000D02*
X135220000Y-54000000D01*
X135800000Y-56200000D02*
X135800000Y-54580000D01*
X143600000Y-58300000D02*
X137900000Y-58300000D01*
X148450000Y-56275000D02*
X145625000Y-56275000D01*
X137900000Y-58300000D02*
X135800000Y-56200000D01*
X145625000Y-56275000D02*
X143600000Y-58300000D01*
%TO.N,INT_ACC*%
X150860000Y-66075000D02*
X151200000Y-66075000D01*
X151200000Y-66075000D02*
X151725000Y-65550000D01*
X150750000Y-51350000D02*
X146525000Y-51350000D01*
X152975000Y-54475000D02*
X152975000Y-53575000D01*
X152975000Y-53575000D02*
X150750000Y-51350000D01*
%TO.N,INT_GYR*%
X148950000Y-64915000D02*
X148950000Y-64375000D01*
X148950000Y-64375000D02*
X149350000Y-63975000D01*
X149350000Y-63975000D02*
X149350000Y-61025000D01*
X149350000Y-61025000D02*
X149350000Y-60900000D01*
X149350000Y-60900000D02*
X148025000Y-59575000D01*
X146525000Y-51850000D02*
X148425000Y-51850000D01*
X148425000Y-51850000D02*
X149100000Y-52525000D01*
X149100000Y-52525000D02*
X149100000Y-53500000D01*
%TO.N,SPI1_!CS_ACC*%
X149950000Y-64915000D02*
X149950000Y-60500000D01*
X149950000Y-60500000D02*
X149950000Y-56275000D01*
%TO.N,SPI1_SCK*%
X150450000Y-56275000D02*
X150450000Y-55000000D01*
X147325000Y-60750000D02*
X145950000Y-60750000D01*
X145950000Y-60750000D02*
X144700000Y-62000000D01*
X144700000Y-62000000D02*
X144700000Y-65275000D01*
X145510000Y-66085000D02*
X147040000Y-66085000D01*
X144700000Y-65275000D02*
X145510000Y-66085000D01*
%TO.N,SPI1_MISO*%
X147950000Y-64925000D02*
X147950000Y-65350000D01*
X147950000Y-65350000D02*
X148275000Y-65675000D01*
X150450000Y-65407502D02*
X150450000Y-64915000D01*
X150182502Y-65675000D02*
X150450000Y-65407502D01*
X148275000Y-65675000D02*
X150182502Y-65675000D01*
X150950000Y-64415000D02*
X150450000Y-64915000D01*
X150950000Y-56275000D02*
X150950000Y-64415000D01*
%TO.N,SPI1_MOSI*%
X151450000Y-56275000D02*
X151450000Y-63375000D01*
X151450000Y-63375000D02*
X152025000Y-63950000D01*
X146175000Y-64925000D02*
X147450000Y-64925000D01*
%TO.N,SPI1_!CS_GYR*%
X148450000Y-67600000D02*
X148450000Y-67235000D01*
X147750000Y-68300000D02*
X148450000Y-67600000D01*
X147750000Y-69800000D02*
X147750000Y-68300000D01*
X151950000Y-56275000D02*
X151950000Y-62250000D01*
X151950000Y-62250000D02*
X153000000Y-63300000D01*
X153000000Y-63300000D02*
X153000000Y-68900000D01*
X153000000Y-68900000D02*
X151550000Y-70350000D01*
X151550000Y-70350000D02*
X148300000Y-70350000D01*
X148300000Y-70350000D02*
X147750000Y-69800000D01*
%TO.N,SPI2_!CS*%
X170440000Y-57810000D02*
X170440000Y-56660000D01*
X157875000Y-54625000D02*
X159750000Y-56500000D01*
X160625000Y-59750000D02*
X168500000Y-59750000D01*
X157875000Y-54350000D02*
X157875000Y-54625000D01*
X159750000Y-56500000D02*
X159750000Y-58875000D01*
X159750000Y-58875000D02*
X160625000Y-59750000D01*
X168500000Y-59750000D02*
X170440000Y-57810000D01*
%TO.N,SPI2_SCK*%
X162500000Y-53850000D02*
X162770000Y-54120000D01*
X157875000Y-53850000D02*
X162500000Y-53850000D01*
%TO.N,SPI2_MISO*%
X157875000Y-53350000D02*
X156500000Y-53350000D01*
X170430000Y-55400000D02*
X170440000Y-55390000D01*
X169425000Y-55400000D02*
X170430000Y-55400000D01*
%TO.N,SPI2_MOSI*%
X157875000Y-52850000D02*
X162770000Y-52850000D01*
D34*
%TO.N,USB_D-*%
X157875000Y-48850000D02*
X157892844Y-48832156D01*
D35*
X175794999Y-41870000D02*
X170248200Y-41870000D01*
X175894999Y-41970000D02*
X175794999Y-41870000D01*
X176870000Y-41970000D02*
X175894999Y-41970000D01*
X163293200Y-48825000D02*
X157900000Y-48825000D01*
X170248200Y-41870000D02*
X163293200Y-48825000D01*
X157900000Y-48825000D02*
X157875000Y-48850000D01*
D34*
%TO.N,USB_D+*%
X157875000Y-48350000D02*
X157892844Y-48367844D01*
D35*
X175794999Y-41420000D02*
X170061800Y-41420000D01*
X175894999Y-41320000D02*
X175794999Y-41420000D01*
X176870000Y-41320000D02*
X175894999Y-41320000D01*
X157900000Y-48375000D02*
X157875000Y-48350000D01*
X163106800Y-48375000D02*
X157900000Y-48375000D01*
X170061800Y-41420000D02*
X163106800Y-48375000D01*
D31*
%TO.N,SPI3_!CS*%
X155450000Y-44925000D02*
X155450000Y-43300000D01*
X155450000Y-43300000D02*
X156250000Y-42500000D01*
X156250000Y-42500000D02*
X157750000Y-42500000D01*
X159075000Y-41175000D02*
X159075000Y-39900000D01*
X157750000Y-42500000D02*
X159075000Y-41175000D01*
%TO.N,SPI3_SCK*%
X154950000Y-44925000D02*
X154950000Y-42050000D01*
X157100000Y-39900000D02*
X157775000Y-39900000D01*
X154950000Y-42050000D02*
X157100000Y-39900000D01*
%TO.N,SPI3_MISO*%
X154450000Y-44925000D02*
X154450000Y-40800000D01*
X156950000Y-38300000D02*
X157775000Y-38300000D01*
X154450000Y-40800000D02*
X156950000Y-38300000D01*
%TO.N,SPI3_MOSI*%
X158425000Y-39900000D02*
X158425000Y-40325000D01*
X158425000Y-40325000D02*
X157250000Y-41500000D01*
X153950000Y-42450000D02*
X153500000Y-42000000D01*
X153950000Y-44925000D02*
X153950000Y-42450000D01*
%TD*%
D36*
%TO.N,+3V3*%
X164920189Y-61394376D02*
X165083850Y-61444022D01*
X165234672Y-61524638D01*
X165366870Y-61633130D01*
X165475362Y-61765328D01*
X165555978Y-61916150D01*
X165605624Y-62079811D01*
X165623000Y-62256234D01*
X165623000Y-68243766D01*
X165605624Y-68420189D01*
X165555978Y-68583850D01*
X165475362Y-68734672D01*
X165366870Y-68866870D01*
X165234672Y-68975362D01*
X165083850Y-69055978D01*
X164920189Y-69105624D01*
X164743766Y-69123000D01*
X163758328Y-69123000D01*
X163653743Y-69109231D01*
X163564045Y-69072077D01*
X163487024Y-69012976D01*
X163427923Y-68935955D01*
X163390769Y-68846257D01*
X163358877Y-68604013D01*
X163350296Y-68571989D01*
X163300346Y-68451399D01*
X163283768Y-68422687D01*
X163204308Y-68319134D01*
X163180866Y-68295692D01*
X163077313Y-68216232D01*
X163048601Y-68199654D01*
X162928011Y-68149704D01*
X162895987Y-68141123D01*
X162766577Y-68124086D01*
X162750000Y-68123000D01*
X160256234Y-68123000D01*
X160079811Y-68105624D01*
X159916150Y-68055978D01*
X159765328Y-67975362D01*
X159633130Y-67866870D01*
X159524638Y-67734672D01*
X159444022Y-67583850D01*
X159394376Y-67420189D01*
X159377000Y-67243766D01*
X159377000Y-66758328D01*
X159390769Y-66653743D01*
X159427923Y-66564045D01*
X159487024Y-66487024D01*
X159564045Y-66427923D01*
X159653743Y-66390769D01*
X159895987Y-66358877D01*
X159928011Y-66350296D01*
X160048601Y-66300346D01*
X160077313Y-66283768D01*
X160180866Y-66204308D01*
X160204308Y-66180866D01*
X160283768Y-66077313D01*
X160300346Y-66048601D01*
X160350296Y-65928011D01*
X160358877Y-65895987D01*
X160375914Y-65766577D01*
X160377000Y-65750000D01*
X160377000Y-65256234D01*
X160394376Y-65079811D01*
X160444022Y-64916150D01*
X160524638Y-64765328D01*
X160633130Y-64633130D01*
X160765328Y-64524638D01*
X160916150Y-64444022D01*
X161079811Y-64394376D01*
X161256234Y-64377000D01*
X161500000Y-64377000D01*
X161512448Y-64376388D01*
X161707538Y-64357173D01*
X161731956Y-64352317D01*
X161919549Y-64295412D01*
X161942550Y-64285884D01*
X162115437Y-64193474D01*
X162136138Y-64179642D01*
X162287675Y-64055279D01*
X162305279Y-64037675D01*
X162429642Y-63886138D01*
X162443474Y-63865437D01*
X162535884Y-63692550D01*
X162545412Y-63669549D01*
X162602317Y-63481956D01*
X162607173Y-63457538D01*
X162626388Y-63262448D01*
X162627000Y-63250000D01*
X162627000Y-62256234D01*
X162644376Y-62079811D01*
X162694022Y-61916150D01*
X162774638Y-61765328D01*
X162883130Y-61633130D01*
X163015328Y-61524638D01*
X163166150Y-61444022D01*
X163329811Y-61394376D01*
X163506234Y-61377000D01*
X164743766Y-61377000D01*
X164920189Y-61394376D01*
%TA.AperFunction,Conductor*%
D37*
G36*
X164920189Y-61394376D02*
G01*
X165083850Y-61444022D01*
X165234672Y-61524638D01*
X165366870Y-61633130D01*
X165475362Y-61765328D01*
X165555978Y-61916150D01*
X165605624Y-62079811D01*
X165623000Y-62256234D01*
X165623000Y-68243766D01*
X165605624Y-68420189D01*
X165555978Y-68583850D01*
X165475362Y-68734672D01*
X165366870Y-68866870D01*
X165234672Y-68975362D01*
X165083850Y-69055978D01*
X164920189Y-69105624D01*
X164743766Y-69123000D01*
X163758328Y-69123000D01*
X163653743Y-69109231D01*
X163564045Y-69072077D01*
X163487024Y-69012976D01*
X163427923Y-68935955D01*
X163390769Y-68846257D01*
X163358877Y-68604013D01*
X163350296Y-68571989D01*
X163300346Y-68451399D01*
X163283768Y-68422687D01*
X163204308Y-68319134D01*
X163180866Y-68295692D01*
X163077313Y-68216232D01*
X163048601Y-68199654D01*
X162928011Y-68149704D01*
X162895987Y-68141123D01*
X162766577Y-68124086D01*
X162750000Y-68123000D01*
X160256234Y-68123000D01*
X160079811Y-68105624D01*
X159916150Y-68055978D01*
X159765328Y-67975362D01*
X159633130Y-67866870D01*
X159524638Y-67734672D01*
X159444022Y-67583850D01*
X159394376Y-67420189D01*
X159377000Y-67243766D01*
X159377000Y-66758328D01*
X159390769Y-66653743D01*
X159427923Y-66564045D01*
X159487024Y-66487024D01*
X159564045Y-66427923D01*
X159653743Y-66390769D01*
X159895987Y-66358877D01*
X159928011Y-66350296D01*
X160048601Y-66300346D01*
X160077313Y-66283768D01*
X160180866Y-66204308D01*
X160204308Y-66180866D01*
X160283768Y-66077313D01*
X160300346Y-66048601D01*
X160350296Y-65928011D01*
X160358877Y-65895987D01*
X160375914Y-65766577D01*
X160377000Y-65750000D01*
X160377000Y-65256234D01*
X160394376Y-65079811D01*
X160444022Y-64916150D01*
X160524638Y-64765328D01*
X160633130Y-64633130D01*
X160765328Y-64524638D01*
X160916150Y-64444022D01*
X161079811Y-64394376D01*
X161256234Y-64377000D01*
X161500000Y-64377000D01*
X161512448Y-64376388D01*
X161707538Y-64357173D01*
X161731956Y-64352317D01*
X161919549Y-64295412D01*
X161942550Y-64285884D01*
X162115437Y-64193474D01*
X162136138Y-64179642D01*
X162287675Y-64055279D01*
X162305279Y-64037675D01*
X162429642Y-63886138D01*
X162443474Y-63865437D01*
X162535884Y-63692550D01*
X162545412Y-63669549D01*
X162602317Y-63481956D01*
X162607173Y-63457538D01*
X162626388Y-63262448D01*
X162627000Y-63250000D01*
X162627000Y-62256234D01*
X162644376Y-62079811D01*
X162694022Y-61916150D01*
X162774638Y-61765328D01*
X162883130Y-61633130D01*
X163015328Y-61524638D01*
X163166150Y-61444022D01*
X163329811Y-61394376D01*
X163506234Y-61377000D01*
X164743766Y-61377000D01*
X164920189Y-61394376D01*
G37*
%TD.AperFunction*%
%TD*%
D36*
%TO.N,GND*%
X161920189Y-68944376D02*
X162083850Y-68994022D01*
X162234672Y-69074638D01*
X162366870Y-69183130D01*
X162475362Y-69315328D01*
X162555978Y-69466150D01*
X162605624Y-69629811D01*
X162623000Y-69806234D01*
X162623000Y-70093766D01*
X162605624Y-70270189D01*
X162555978Y-70433850D01*
X162475362Y-70584672D01*
X162366870Y-70716870D01*
X162234672Y-70825362D01*
X162083850Y-70905978D01*
X161920189Y-70955624D01*
X161743766Y-70973000D01*
X160256234Y-70973000D01*
X160079811Y-70955624D01*
X159916150Y-70905978D01*
X159765328Y-70825362D01*
X159633130Y-70716870D01*
X159524638Y-70584672D01*
X159444022Y-70433850D01*
X159394376Y-70270189D01*
X159377000Y-70093766D01*
X159377000Y-69806234D01*
X159394376Y-69629811D01*
X159444022Y-69466150D01*
X159524638Y-69315328D01*
X159633130Y-69183130D01*
X159765328Y-69074638D01*
X159916150Y-68994022D01*
X160079811Y-68944376D01*
X160256234Y-68927000D01*
X161743766Y-68927000D01*
X161920189Y-68944376D01*
%TA.AperFunction,Conductor*%
D37*
G36*
X161920189Y-68944376D02*
G01*
X162083850Y-68994022D01*
X162234672Y-69074638D01*
X162366870Y-69183130D01*
X162475362Y-69315328D01*
X162555978Y-69466150D01*
X162605624Y-69629811D01*
X162623000Y-69806234D01*
X162623000Y-70093766D01*
X162605624Y-70270189D01*
X162555978Y-70433850D01*
X162475362Y-70584672D01*
X162366870Y-70716870D01*
X162234672Y-70825362D01*
X162083850Y-70905978D01*
X161920189Y-70955624D01*
X161743766Y-70973000D01*
X160256234Y-70973000D01*
X160079811Y-70955624D01*
X159916150Y-70905978D01*
X159765328Y-70825362D01*
X159633130Y-70716870D01*
X159524638Y-70584672D01*
X159444022Y-70433850D01*
X159394376Y-70270189D01*
X159377000Y-70093766D01*
X159377000Y-69806234D01*
X159394376Y-69629811D01*
X159444022Y-69466150D01*
X159524638Y-69315328D01*
X159633130Y-69183130D01*
X159765328Y-69074638D01*
X159916150Y-68994022D01*
X160079811Y-68944376D01*
X160256234Y-68927000D01*
X161743766Y-68927000D01*
X161920189Y-68944376D01*
G37*
%TD.AperFunction*%
%TD*%
D36*
%TO.N,Net-(C101-Pad1)*%
X170920189Y-64644376D02*
X171083850Y-64694022D01*
X171234672Y-64774638D01*
X171366870Y-64883130D01*
X171475362Y-65015328D01*
X171555978Y-65166150D01*
X171605624Y-65329811D01*
X171622386Y-65500000D01*
X171605624Y-65670189D01*
X171555978Y-65833850D01*
X171475362Y-65984672D01*
X171366870Y-66116870D01*
X171234672Y-66225362D01*
X171083850Y-66305978D01*
X170920189Y-66355624D01*
X170743766Y-66373000D01*
X170250000Y-66373000D01*
X170237552Y-66373612D01*
X170042462Y-66392827D01*
X170018044Y-66397683D01*
X169830451Y-66454588D01*
X169807450Y-66464116D01*
X169634563Y-66556526D01*
X169613862Y-66570358D01*
X169462325Y-66694721D01*
X169444721Y-66712325D01*
X169320358Y-66863862D01*
X169306526Y-66884563D01*
X169214116Y-67057450D01*
X169204588Y-67080451D01*
X169147683Y-67268044D01*
X169142827Y-67292462D01*
X169123612Y-67487552D01*
X169123000Y-67500000D01*
X169123000Y-71993766D01*
X169105624Y-72170189D01*
X169055978Y-72333850D01*
X168975362Y-72484672D01*
X168866870Y-72616870D01*
X168734672Y-72725362D01*
X168583850Y-72805978D01*
X168420189Y-72855624D01*
X168243766Y-72873000D01*
X167256234Y-72873000D01*
X167079811Y-72855624D01*
X166916150Y-72805978D01*
X166765328Y-72725362D01*
X166633130Y-72616870D01*
X166524638Y-72484672D01*
X166444022Y-72333850D01*
X166394376Y-72170189D01*
X166377000Y-71993766D01*
X166377000Y-70262509D01*
X166388662Y-70203881D01*
X166414785Y-70164785D01*
X166453881Y-70138662D01*
X166620447Y-70105530D01*
X166644272Y-70098303D01*
X166666228Y-70086567D01*
X166747334Y-70032374D01*
X166766579Y-70016580D01*
X166782374Y-69997334D01*
X166836567Y-69916228D01*
X166848303Y-69894271D01*
X166855530Y-69870447D01*
X166874560Y-69774776D01*
X166877000Y-69750000D01*
X166877000Y-65506234D01*
X166894376Y-65329811D01*
X166944022Y-65166150D01*
X167024638Y-65015328D01*
X167133130Y-64883130D01*
X167265328Y-64774638D01*
X167416150Y-64694022D01*
X167579811Y-64644376D01*
X167756234Y-64627000D01*
X170743766Y-64627000D01*
X170920189Y-64644376D01*
%TA.AperFunction,Conductor*%
D37*
G36*
X170920189Y-64644376D02*
G01*
X171083850Y-64694022D01*
X171234672Y-64774638D01*
X171366870Y-64883130D01*
X171475362Y-65015328D01*
X171555978Y-65166150D01*
X171605624Y-65329811D01*
X171622386Y-65500000D01*
X171605624Y-65670189D01*
X171555978Y-65833850D01*
X171475362Y-65984672D01*
X171366870Y-66116870D01*
X171234672Y-66225362D01*
X171083850Y-66305978D01*
X170920189Y-66355624D01*
X170743766Y-66373000D01*
X170250000Y-66373000D01*
X170237552Y-66373612D01*
X170042462Y-66392827D01*
X170018044Y-66397683D01*
X169830451Y-66454588D01*
X169807450Y-66464116D01*
X169634563Y-66556526D01*
X169613862Y-66570358D01*
X169462325Y-66694721D01*
X169444721Y-66712325D01*
X169320358Y-66863862D01*
X169306526Y-66884563D01*
X169214116Y-67057450D01*
X169204588Y-67080451D01*
X169147683Y-67268044D01*
X169142827Y-67292462D01*
X169123612Y-67487552D01*
X169123000Y-67500000D01*
X169123000Y-71993766D01*
X169105624Y-72170189D01*
X169055978Y-72333850D01*
X168975362Y-72484672D01*
X168866870Y-72616870D01*
X168734672Y-72725362D01*
X168583850Y-72805978D01*
X168420189Y-72855624D01*
X168243766Y-72873000D01*
X167256234Y-72873000D01*
X167079811Y-72855624D01*
X166916150Y-72805978D01*
X166765328Y-72725362D01*
X166633130Y-72616870D01*
X166524638Y-72484672D01*
X166444022Y-72333850D01*
X166394376Y-72170189D01*
X166377000Y-71993766D01*
X166377000Y-70262509D01*
X166388662Y-70203881D01*
X166414785Y-70164785D01*
X166453881Y-70138662D01*
X166620447Y-70105530D01*
X166644272Y-70098303D01*
X166666228Y-70086567D01*
X166747334Y-70032374D01*
X166766579Y-70016580D01*
X166782374Y-69997334D01*
X166836567Y-69916228D01*
X166848303Y-69894271D01*
X166855530Y-69870447D01*
X166874560Y-69774776D01*
X166877000Y-69750000D01*
X166877000Y-65506234D01*
X166894376Y-65329811D01*
X166944022Y-65166150D01*
X167024638Y-65015328D01*
X167133130Y-64883130D01*
X167265328Y-64774638D01*
X167416150Y-64694022D01*
X167579811Y-64644376D01*
X167756234Y-64627000D01*
X170743766Y-64627000D01*
X170920189Y-64644376D01*
G37*
%TD.AperFunction*%
%TD*%
D36*
%TO.N,Net-(C100-Pad1)*%
X174541266Y-69896537D02*
X174699195Y-69951798D01*
X174840867Y-70040816D01*
X174959184Y-70159133D01*
X175048202Y-70300805D01*
X175103463Y-70458734D01*
X175123000Y-70632128D01*
X175123000Y-71940992D01*
X175105684Y-72117120D01*
X175056213Y-72280512D01*
X174972924Y-72436663D01*
X173944664Y-73979052D01*
X173832199Y-74116354D01*
X173699944Y-74225055D01*
X173548999Y-74305838D01*
X173385188Y-74355586D01*
X173208571Y-74373000D01*
X172500000Y-74373000D01*
X172487552Y-74373612D01*
X172292462Y-74392827D01*
X172268044Y-74397683D01*
X172080451Y-74454588D01*
X172057450Y-74464116D01*
X171884563Y-74556526D01*
X171863862Y-74570358D01*
X171712325Y-74694721D01*
X171694721Y-74712325D01*
X171570358Y-74863862D01*
X171556526Y-74884563D01*
X171464116Y-75057450D01*
X171454588Y-75080451D01*
X171397683Y-75268044D01*
X171392827Y-75292462D01*
X171373612Y-75487552D01*
X171373000Y-75500000D01*
X171373000Y-76521258D01*
X171354769Y-76636366D01*
X171306452Y-76731193D01*
X171231193Y-76806452D01*
X171136366Y-76854769D01*
X171031092Y-76871443D01*
X170924124Y-76854775D01*
X170827159Y-76806281D01*
X170749544Y-76730582D01*
X170698643Y-76634859D01*
X170677499Y-76518386D01*
X170651335Y-75471834D01*
X170650437Y-75459602D01*
X170627034Y-75268102D01*
X170621730Y-75244181D01*
X170561989Y-75060739D01*
X170552190Y-75038283D01*
X170458336Y-74869726D01*
X170444407Y-74849569D01*
X170319932Y-74702172D01*
X170302392Y-74685065D01*
X170151930Y-74564313D01*
X170131431Y-74550892D01*
X169960582Y-74461279D01*
X169937887Y-74452044D01*
X169753009Y-74396907D01*
X169728964Y-74392202D01*
X169536939Y-74373592D01*
X169524688Y-74373000D01*
X168512509Y-74373000D01*
X168453881Y-74361338D01*
X168414785Y-74335215D01*
X168388662Y-74296119D01*
X168355530Y-74129553D01*
X168348303Y-74105728D01*
X168336567Y-74083772D01*
X168282374Y-74002666D01*
X168266580Y-73983421D01*
X168247334Y-73967626D01*
X168166228Y-73913433D01*
X168144271Y-73901697D01*
X168120447Y-73894470D01*
X168024776Y-73875440D01*
X168000000Y-73873000D01*
X166762509Y-73873000D01*
X166703881Y-73861338D01*
X166664785Y-73835215D01*
X166638662Y-73796119D01*
X166629488Y-73750000D01*
X166638662Y-73703881D01*
X166664785Y-73664785D01*
X166703881Y-73638662D01*
X166762509Y-73627000D01*
X169700000Y-73627000D01*
X169724776Y-73624560D01*
X169839581Y-73601724D01*
X169863406Y-73594497D01*
X169885363Y-73582761D01*
X169982690Y-73517729D01*
X170001935Y-73501934D01*
X170017729Y-73482690D01*
X170082761Y-73385363D01*
X170094497Y-73363406D01*
X170101724Y-73339581D01*
X170142467Y-73134749D01*
X170179430Y-73079430D01*
X170234749Y-73042467D01*
X170312509Y-73027000D01*
X172500000Y-73027000D01*
X172512448Y-73026388D01*
X172707538Y-73007173D01*
X172731956Y-73002317D01*
X172919549Y-72945412D01*
X172942550Y-72935884D01*
X173115437Y-72843474D01*
X173136138Y-72829642D01*
X173287675Y-72705279D01*
X173305279Y-72687675D01*
X173429642Y-72536138D01*
X173443474Y-72515437D01*
X173535884Y-72342550D01*
X173545412Y-72319549D01*
X173602317Y-72131956D01*
X173607173Y-72107538D01*
X173626388Y-71912448D01*
X173627000Y-71900000D01*
X173627000Y-70632128D01*
X173646537Y-70458734D01*
X173701798Y-70300805D01*
X173790816Y-70159133D01*
X173909133Y-70040816D01*
X174050805Y-69951798D01*
X174208734Y-69896537D01*
X174375000Y-69877803D01*
X174541266Y-69896537D01*
%TA.AperFunction,Conductor*%
D37*
G36*
X174541266Y-69896537D02*
G01*
X174699195Y-69951798D01*
X174840867Y-70040816D01*
X174959184Y-70159133D01*
X175048202Y-70300805D01*
X175103463Y-70458734D01*
X175123000Y-70632128D01*
X175123000Y-71940992D01*
X175105684Y-72117120D01*
X175056213Y-72280512D01*
X174972924Y-72436663D01*
X173944664Y-73979052D01*
X173832199Y-74116354D01*
X173699944Y-74225055D01*
X173548999Y-74305838D01*
X173385188Y-74355586D01*
X173208571Y-74373000D01*
X172500000Y-74373000D01*
X172487552Y-74373612D01*
X172292462Y-74392827D01*
X172268044Y-74397683D01*
X172080451Y-74454588D01*
X172057450Y-74464116D01*
X171884563Y-74556526D01*
X171863862Y-74570358D01*
X171712325Y-74694721D01*
X171694721Y-74712325D01*
X171570358Y-74863862D01*
X171556526Y-74884563D01*
X171464116Y-75057450D01*
X171454588Y-75080451D01*
X171397683Y-75268044D01*
X171392827Y-75292462D01*
X171373612Y-75487552D01*
X171373000Y-75500000D01*
X171373000Y-76521258D01*
X171354769Y-76636366D01*
X171306452Y-76731193D01*
X171231193Y-76806452D01*
X171136366Y-76854769D01*
X171031092Y-76871443D01*
X170924124Y-76854775D01*
X170827159Y-76806281D01*
X170749544Y-76730582D01*
X170698643Y-76634859D01*
X170677499Y-76518386D01*
X170651335Y-75471834D01*
X170650437Y-75459602D01*
X170627034Y-75268102D01*
X170621730Y-75244181D01*
X170561989Y-75060739D01*
X170552190Y-75038283D01*
X170458336Y-74869726D01*
X170444407Y-74849569D01*
X170319932Y-74702172D01*
X170302392Y-74685065D01*
X170151930Y-74564313D01*
X170131431Y-74550892D01*
X169960582Y-74461279D01*
X169937887Y-74452044D01*
X169753009Y-74396907D01*
X169728964Y-74392202D01*
X169536939Y-74373592D01*
X169524688Y-74373000D01*
X168512509Y-74373000D01*
X168453881Y-74361338D01*
X168414785Y-74335215D01*
X168388662Y-74296119D01*
X168355530Y-74129553D01*
X168348303Y-74105728D01*
X168336567Y-74083772D01*
X168282374Y-74002666D01*
X168266580Y-73983421D01*
X168247334Y-73967626D01*
X168166228Y-73913433D01*
X168144271Y-73901697D01*
X168120447Y-73894470D01*
X168024776Y-73875440D01*
X168000000Y-73873000D01*
X166762509Y-73873000D01*
X166703881Y-73861338D01*
X166664785Y-73835215D01*
X166638662Y-73796119D01*
X166629488Y-73750000D01*
X166638662Y-73703881D01*
X166664785Y-73664785D01*
X166703881Y-73638662D01*
X166762509Y-73627000D01*
X169700000Y-73627000D01*
X169724776Y-73624560D01*
X169839581Y-73601724D01*
X169863406Y-73594497D01*
X169885363Y-73582761D01*
X169982690Y-73517729D01*
X170001935Y-73501934D01*
X170017729Y-73482690D01*
X170082761Y-73385363D01*
X170094497Y-73363406D01*
X170101724Y-73339581D01*
X170142467Y-73134749D01*
X170179430Y-73079430D01*
X170234749Y-73042467D01*
X170312509Y-73027000D01*
X172500000Y-73027000D01*
X172512448Y-73026388D01*
X172707538Y-73007173D01*
X172731956Y-73002317D01*
X172919549Y-72945412D01*
X172942550Y-72935884D01*
X173115437Y-72843474D01*
X173136138Y-72829642D01*
X173287675Y-72705279D01*
X173305279Y-72687675D01*
X173429642Y-72536138D01*
X173443474Y-72515437D01*
X173535884Y-72342550D01*
X173545412Y-72319549D01*
X173602317Y-72131956D01*
X173607173Y-72107538D01*
X173626388Y-71912448D01*
X173627000Y-71900000D01*
X173627000Y-70632128D01*
X173646537Y-70458734D01*
X173701798Y-70300805D01*
X173790816Y-70159133D01*
X173909133Y-70040816D01*
X174050805Y-69951798D01*
X174208734Y-69896537D01*
X174375000Y-69877803D01*
X174541266Y-69896537D01*
G37*
%TD.AperFunction*%
%TD*%
D36*
%TO.N,GND*%
X171920189Y-67394376D02*
X172083850Y-67444022D01*
X172234672Y-67524638D01*
X172366870Y-67633130D01*
X172475362Y-67765328D01*
X172555978Y-67916150D01*
X172605624Y-68079811D01*
X172623000Y-68256234D01*
X172623000Y-71243766D01*
X172605624Y-71420189D01*
X172555978Y-71583850D01*
X172475362Y-71734672D01*
X172366870Y-71866870D01*
X172234672Y-71975362D01*
X172083850Y-72055978D01*
X171920189Y-72105624D01*
X171743766Y-72123000D01*
X171006234Y-72123000D01*
X170829811Y-72105624D01*
X170666150Y-72055978D01*
X170515328Y-71975362D01*
X170383130Y-71866870D01*
X170274638Y-71734672D01*
X170194022Y-71583850D01*
X170144376Y-71420189D01*
X170127000Y-71243766D01*
X170127000Y-68256234D01*
X170144376Y-68079811D01*
X170194022Y-67916150D01*
X170274638Y-67765328D01*
X170383130Y-67633130D01*
X170515328Y-67524638D01*
X170666150Y-67444022D01*
X170829811Y-67394376D01*
X171006234Y-67377000D01*
X171743766Y-67377000D01*
X171920189Y-67394376D01*
%TA.AperFunction,Conductor*%
D37*
G36*
X171920189Y-67394376D02*
G01*
X172083850Y-67444022D01*
X172234672Y-67524638D01*
X172366870Y-67633130D01*
X172475362Y-67765328D01*
X172555978Y-67916150D01*
X172605624Y-68079811D01*
X172623000Y-68256234D01*
X172623000Y-71243766D01*
X172605624Y-71420189D01*
X172555978Y-71583850D01*
X172475362Y-71734672D01*
X172366870Y-71866870D01*
X172234672Y-71975362D01*
X172083850Y-72055978D01*
X171920189Y-72105624D01*
X171743766Y-72123000D01*
X171006234Y-72123000D01*
X170829811Y-72105624D01*
X170666150Y-72055978D01*
X170515328Y-71975362D01*
X170383130Y-71866870D01*
X170274638Y-71734672D01*
X170194022Y-71583850D01*
X170144376Y-71420189D01*
X170127000Y-71243766D01*
X170127000Y-68256234D01*
X170144376Y-68079811D01*
X170194022Y-67916150D01*
X170274638Y-67765328D01*
X170383130Y-67633130D01*
X170515328Y-67524638D01*
X170666150Y-67444022D01*
X170829811Y-67394376D01*
X171006234Y-67377000D01*
X171743766Y-67377000D01*
X171920189Y-67394376D01*
G37*
%TD.AperFunction*%
%TD*%
D36*
%TO.N,Net-(F100-Pad1)*%
X174420189Y-59894376D02*
X174583850Y-59944022D01*
X174734672Y-60024638D01*
X174866870Y-60133130D01*
X174975362Y-60265328D01*
X175055978Y-60416150D01*
X175105624Y-60579811D01*
X175123000Y-60756234D01*
X175123000Y-67993766D01*
X175105624Y-68170189D01*
X175055978Y-68333850D01*
X174975362Y-68484672D01*
X174866870Y-68616870D01*
X174734672Y-68725362D01*
X174583850Y-68805978D01*
X174420189Y-68855624D01*
X174250000Y-68872386D01*
X174079811Y-68855624D01*
X173916150Y-68805978D01*
X173765328Y-68725362D01*
X173633130Y-68616870D01*
X173524638Y-68484672D01*
X173444022Y-68333850D01*
X173394376Y-68170189D01*
X173377000Y-67993766D01*
X173377000Y-60756234D01*
X173394376Y-60579811D01*
X173444022Y-60416150D01*
X173524638Y-60265328D01*
X173633130Y-60133130D01*
X173765328Y-60024638D01*
X173916150Y-59944022D01*
X174079811Y-59894376D01*
X174250000Y-59877614D01*
X174420189Y-59894376D01*
%TA.AperFunction,Conductor*%
D37*
G36*
X174420189Y-59894376D02*
G01*
X174583850Y-59944022D01*
X174734672Y-60024638D01*
X174866870Y-60133130D01*
X174975362Y-60265328D01*
X175055978Y-60416150D01*
X175105624Y-60579811D01*
X175123000Y-60756234D01*
X175123000Y-67993766D01*
X175105624Y-68170189D01*
X175055978Y-68333850D01*
X174975362Y-68484672D01*
X174866870Y-68616870D01*
X174734672Y-68725362D01*
X174583850Y-68805978D01*
X174420189Y-68855624D01*
X174250000Y-68872386D01*
X174079811Y-68855624D01*
X173916150Y-68805978D01*
X173765328Y-68725362D01*
X173633130Y-68616870D01*
X173524638Y-68484672D01*
X173444022Y-68333850D01*
X173394376Y-68170189D01*
X173377000Y-67993766D01*
X173377000Y-60756234D01*
X173394376Y-60579811D01*
X173444022Y-60416150D01*
X173524638Y-60265328D01*
X173633130Y-60133130D01*
X173765328Y-60024638D01*
X173916150Y-59944022D01*
X174079811Y-59894376D01*
X174250000Y-59877614D01*
X174420189Y-59894376D01*
G37*
%TD.AperFunction*%
%TD*%
D36*
%TO.N,Net-(D100-Pad1)*%
X175596257Y-47640769D02*
X175685955Y-47677923D01*
X175762976Y-47737024D01*
X175822077Y-47814045D01*
X175859231Y-47903743D01*
X175873000Y-48008328D01*
X175873000Y-56500000D01*
X175874086Y-56516577D01*
X175891123Y-56645987D01*
X175899704Y-56678011D01*
X175949654Y-56798601D01*
X175966232Y-56827313D01*
X176045692Y-56930866D01*
X176069134Y-56954308D01*
X176172687Y-57033768D01*
X176201399Y-57050346D01*
X176321989Y-57100296D01*
X176354013Y-57108877D01*
X176596257Y-57140769D01*
X176685955Y-57177923D01*
X176762976Y-57237024D01*
X176822077Y-57314045D01*
X176859231Y-57403743D01*
X176873000Y-57508328D01*
X176873000Y-57741672D01*
X176859231Y-57846257D01*
X176822077Y-57935955D01*
X176762976Y-58012976D01*
X176685955Y-58072077D01*
X176596257Y-58109231D01*
X176491672Y-58123000D01*
X173758328Y-58123000D01*
X173653743Y-58109231D01*
X173564045Y-58072077D01*
X173487024Y-58012976D01*
X173427923Y-57935955D01*
X173390769Y-57846257D01*
X173377000Y-57741672D01*
X173377000Y-57508328D01*
X173390769Y-57403743D01*
X173427923Y-57314045D01*
X173487024Y-57237024D01*
X173564045Y-57177923D01*
X173653743Y-57140769D01*
X173758328Y-57127000D01*
X174500000Y-57127000D01*
X174516577Y-57125914D01*
X174645987Y-57108877D01*
X174678011Y-57100296D01*
X174798601Y-57050346D01*
X174827313Y-57033768D01*
X174930866Y-56954308D01*
X174954308Y-56930866D01*
X175033768Y-56827313D01*
X175050346Y-56798601D01*
X175100296Y-56678011D01*
X175108877Y-56645987D01*
X175125914Y-56516577D01*
X175127000Y-56500000D01*
X175127000Y-49750000D01*
X175125914Y-49733423D01*
X175108877Y-49604013D01*
X175100296Y-49571989D01*
X175050346Y-49451399D01*
X175033768Y-49422687D01*
X174954308Y-49319134D01*
X174930866Y-49295692D01*
X174827313Y-49216232D01*
X174798601Y-49199654D01*
X174678011Y-49149704D01*
X174645987Y-49141123D01*
X174516577Y-49124086D01*
X174500000Y-49123000D01*
X173258328Y-49123000D01*
X173153743Y-49109231D01*
X173064045Y-49072077D01*
X172987024Y-49012976D01*
X172927923Y-48935955D01*
X172890769Y-48846257D01*
X172877000Y-48741672D01*
X172877000Y-48008328D01*
X172890769Y-47903743D01*
X172927923Y-47814045D01*
X172987024Y-47737024D01*
X173064045Y-47677923D01*
X173153743Y-47640769D01*
X173258328Y-47627000D01*
X175491672Y-47627000D01*
X175596257Y-47640769D01*
%TA.AperFunction,Conductor*%
D37*
G36*
X175596257Y-47640769D02*
G01*
X175685955Y-47677923D01*
X175762976Y-47737024D01*
X175822077Y-47814045D01*
X175859231Y-47903743D01*
X175873000Y-48008328D01*
X175873000Y-56500000D01*
X175874086Y-56516577D01*
X175891123Y-56645987D01*
X175899704Y-56678011D01*
X175949654Y-56798601D01*
X175966232Y-56827313D01*
X176045692Y-56930866D01*
X176069134Y-56954308D01*
X176172687Y-57033768D01*
X176201399Y-57050346D01*
X176321989Y-57100296D01*
X176354013Y-57108877D01*
X176596257Y-57140769D01*
X176685955Y-57177923D01*
X176762976Y-57237024D01*
X176822077Y-57314045D01*
X176859231Y-57403743D01*
X176873000Y-57508328D01*
X176873000Y-57741672D01*
X176859231Y-57846257D01*
X176822077Y-57935955D01*
X176762976Y-58012976D01*
X176685955Y-58072077D01*
X176596257Y-58109231D01*
X176491672Y-58123000D01*
X173758328Y-58123000D01*
X173653743Y-58109231D01*
X173564045Y-58072077D01*
X173487024Y-58012976D01*
X173427923Y-57935955D01*
X173390769Y-57846257D01*
X173377000Y-57741672D01*
X173377000Y-57508328D01*
X173390769Y-57403743D01*
X173427923Y-57314045D01*
X173487024Y-57237024D01*
X173564045Y-57177923D01*
X173653743Y-57140769D01*
X173758328Y-57127000D01*
X174500000Y-57127000D01*
X174516577Y-57125914D01*
X174645987Y-57108877D01*
X174678011Y-57100296D01*
X174798601Y-57050346D01*
X174827313Y-57033768D01*
X174930866Y-56954308D01*
X174954308Y-56930866D01*
X175033768Y-56827313D01*
X175050346Y-56798601D01*
X175100296Y-56678011D01*
X175108877Y-56645987D01*
X175125914Y-56516577D01*
X175127000Y-56500000D01*
X175127000Y-49750000D01*
X175125914Y-49733423D01*
X175108877Y-49604013D01*
X175100296Y-49571989D01*
X175050346Y-49451399D01*
X175033768Y-49422687D01*
X174954308Y-49319134D01*
X174930866Y-49295692D01*
X174827313Y-49216232D01*
X174798601Y-49199654D01*
X174678011Y-49149704D01*
X174645987Y-49141123D01*
X174516577Y-49124086D01*
X174500000Y-49123000D01*
X173258328Y-49123000D01*
X173153743Y-49109231D01*
X173064045Y-49072077D01*
X172987024Y-49012976D01*
X172927923Y-48935955D01*
X172890769Y-48846257D01*
X172877000Y-48741672D01*
X172877000Y-48008328D01*
X172890769Y-47903743D01*
X172927923Y-47814045D01*
X172987024Y-47737024D01*
X173064045Y-47677923D01*
X173153743Y-47640769D01*
X173258328Y-47627000D01*
X175491672Y-47627000D01*
X175596257Y-47640769D01*
G37*
%TD.AperFunction*%
%TD*%
D36*
%TO.N,GND*%
X175812047Y-38675537D02*
X175908617Y-38724742D01*
X175985258Y-38801383D01*
X176034463Y-38897953D01*
X176077812Y-39171650D01*
X176084098Y-39195740D01*
X176090090Y-39209440D01*
X176157559Y-39341855D01*
X176170982Y-39362823D01*
X176180914Y-39374001D01*
X176285999Y-39479086D01*
X176305245Y-39494880D01*
X176318145Y-39502441D01*
X176450560Y-39569910D01*
X176473744Y-39578984D01*
X176488350Y-39582188D01*
X176635133Y-39605436D01*
X176655000Y-39607000D01*
X178208281Y-39607000D01*
X178246758Y-39617310D01*
X178262690Y-39633242D01*
X178273000Y-39671719D01*
X178273000Y-39823761D01*
X178272893Y-39833387D01*
X178268305Y-40039851D01*
X178257320Y-40089967D01*
X178235351Y-40121877D01*
X178202961Y-40143131D01*
X178152615Y-40153000D01*
X177758465Y-40153000D01*
X177730463Y-40130019D01*
X177664970Y-40095012D01*
X177593905Y-40073455D01*
X177520000Y-40066176D01*
X176220000Y-40066176D01*
X176146095Y-40073455D01*
X176075030Y-40095012D01*
X176009537Y-40130019D01*
X175952131Y-40177131D01*
X175905019Y-40234537D01*
X175870012Y-40300030D01*
X175848455Y-40371095D01*
X175845313Y-40403000D01*
X174538328Y-40403000D01*
X174433743Y-40389231D01*
X174344045Y-40352077D01*
X174267024Y-40292976D01*
X174207923Y-40215955D01*
X174170769Y-40126257D01*
X174157000Y-40021672D01*
X174157000Y-39038328D01*
X174170769Y-38933743D01*
X174207923Y-38844045D01*
X174267024Y-38767024D01*
X174344045Y-38707923D01*
X174433743Y-38670769D01*
X174538328Y-38657000D01*
X175695008Y-38657000D01*
X175812047Y-38675537D01*
%TA.AperFunction,Conductor*%
D37*
G36*
X175812047Y-38675537D02*
G01*
X175908617Y-38724742D01*
X175985258Y-38801383D01*
X176034463Y-38897953D01*
X176077812Y-39171650D01*
X176084098Y-39195740D01*
X176090090Y-39209440D01*
X176157559Y-39341855D01*
X176170982Y-39362823D01*
X176180914Y-39374001D01*
X176285999Y-39479086D01*
X176305245Y-39494880D01*
X176318145Y-39502441D01*
X176450560Y-39569910D01*
X176473744Y-39578984D01*
X176488350Y-39582188D01*
X176635133Y-39605436D01*
X176655000Y-39607000D01*
X178208281Y-39607000D01*
X178246758Y-39617310D01*
X178262690Y-39633242D01*
X178273000Y-39671719D01*
X178273000Y-39823761D01*
X178272893Y-39833387D01*
X178268305Y-40039851D01*
X178257320Y-40089967D01*
X178235351Y-40121877D01*
X178202961Y-40143131D01*
X178152615Y-40153000D01*
X177758465Y-40153000D01*
X177730463Y-40130019D01*
X177664970Y-40095012D01*
X177593905Y-40073455D01*
X177520000Y-40066176D01*
X176220000Y-40066176D01*
X176146095Y-40073455D01*
X176075030Y-40095012D01*
X176009537Y-40130019D01*
X175952131Y-40177131D01*
X175905019Y-40234537D01*
X175870012Y-40300030D01*
X175848455Y-40371095D01*
X175845313Y-40403000D01*
X174538328Y-40403000D01*
X174433743Y-40389231D01*
X174344045Y-40352077D01*
X174267024Y-40292976D01*
X174207923Y-40215955D01*
X174170769Y-40126257D01*
X174157000Y-40021672D01*
X174157000Y-39038328D01*
X174170769Y-38933743D01*
X174207923Y-38844045D01*
X174267024Y-38767024D01*
X174344045Y-38707923D01*
X174433743Y-38670769D01*
X174538328Y-38657000D01*
X175695008Y-38657000D01*
X175812047Y-38675537D01*
G37*
%TD.AperFunction*%
%TD*%
D36*
%TO.N,GND*%
X168346257Y-60640769D02*
X168435955Y-60677923D01*
X168512976Y-60737024D01*
X168572077Y-60814045D01*
X168609231Y-60903743D01*
X168623000Y-61008328D01*
X168623000Y-63491672D01*
X168609231Y-63596257D01*
X168572077Y-63685955D01*
X168512976Y-63762976D01*
X168435955Y-63822077D01*
X168346257Y-63859231D01*
X168241672Y-63873000D01*
X167008328Y-63873000D01*
X166903743Y-63859231D01*
X166814045Y-63822077D01*
X166737024Y-63762976D01*
X166677923Y-63685955D01*
X166640769Y-63596257D01*
X166627000Y-63491672D01*
X166627000Y-61008328D01*
X166640769Y-60903743D01*
X166677923Y-60814045D01*
X166737024Y-60737024D01*
X166814045Y-60677923D01*
X166903743Y-60640769D01*
X167008328Y-60627000D01*
X168241672Y-60627000D01*
X168346257Y-60640769D01*
%TA.AperFunction,Conductor*%
D37*
G36*
X168346257Y-60640769D02*
G01*
X168435955Y-60677923D01*
X168512976Y-60737024D01*
X168572077Y-60814045D01*
X168609231Y-60903743D01*
X168623000Y-61008328D01*
X168623000Y-63491672D01*
X168609231Y-63596257D01*
X168572077Y-63685955D01*
X168512976Y-63762976D01*
X168435955Y-63822077D01*
X168346257Y-63859231D01*
X168241672Y-63873000D01*
X167008328Y-63873000D01*
X166903743Y-63859231D01*
X166814045Y-63822077D01*
X166737024Y-63762976D01*
X166677923Y-63685955D01*
X166640769Y-63596257D01*
X166627000Y-63491672D01*
X166627000Y-61008328D01*
X166640769Y-60903743D01*
X166677923Y-60814045D01*
X166737024Y-60737024D01*
X166814045Y-60677923D01*
X166903743Y-60640769D01*
X167008328Y-60627000D01*
X168241672Y-60627000D01*
X168346257Y-60640769D01*
G37*
%TD.AperFunction*%
%TD*%
D36*
%TO.N,VCC*%
X180596257Y-59390769D02*
X180685955Y-59427923D01*
X180762976Y-59487024D01*
X180822077Y-59564045D01*
X180859231Y-59653743D01*
X180873000Y-59758328D01*
X180873000Y-65991672D01*
X180859231Y-66096257D01*
X180822077Y-66185955D01*
X180762976Y-66262976D01*
X180685955Y-66322077D01*
X180596257Y-66359231D01*
X180491672Y-66373000D01*
X178628363Y-66373000D01*
X178639240Y-66352650D01*
X178669375Y-66253310D01*
X178679550Y-66150000D01*
X178677000Y-66129750D01*
X178545250Y-65998000D01*
X177748000Y-65998000D01*
X177748000Y-66018000D01*
X177252000Y-66018000D01*
X177252000Y-65998000D01*
X177232000Y-65998000D01*
X177232000Y-65502000D01*
X177252000Y-65502000D01*
X177252000Y-65482000D01*
X177748000Y-65482000D01*
X177748000Y-65502000D01*
X178545250Y-65502000D01*
X178670250Y-65377000D01*
X179250000Y-65377000D01*
X179266577Y-65375914D01*
X179395987Y-65358877D01*
X179428011Y-65350296D01*
X179548601Y-65300346D01*
X179577313Y-65283768D01*
X179680866Y-65204308D01*
X179704308Y-65180866D01*
X179783768Y-65077313D01*
X179800346Y-65048601D01*
X179850296Y-64928011D01*
X179858877Y-64895987D01*
X179875914Y-64766577D01*
X179877000Y-64750000D01*
X179877000Y-61250000D01*
X179875914Y-61233423D01*
X179858877Y-61104013D01*
X179850296Y-61071989D01*
X179800346Y-60951399D01*
X179783768Y-60922687D01*
X179704308Y-60819134D01*
X179680866Y-60795692D01*
X179577313Y-60716232D01*
X179548601Y-60699654D01*
X179428011Y-60649704D01*
X179395987Y-60641123D01*
X179266577Y-60624086D01*
X179250000Y-60623000D01*
X177508328Y-60623000D01*
X177403743Y-60609231D01*
X177314045Y-60572077D01*
X177237024Y-60512976D01*
X177177923Y-60435955D01*
X177140769Y-60346257D01*
X177127000Y-60241672D01*
X177127000Y-59758328D01*
X177140769Y-59653743D01*
X177177923Y-59564045D01*
X177237024Y-59487024D01*
X177314045Y-59427923D01*
X177403743Y-59390769D01*
X177508328Y-59377000D01*
X180491672Y-59377000D01*
X180596257Y-59390769D01*
%TA.AperFunction,Conductor*%
D37*
G36*
X180596257Y-59390769D02*
G01*
X180685955Y-59427923D01*
X180762976Y-59487024D01*
X180822077Y-59564045D01*
X180859231Y-59653743D01*
X180873000Y-59758328D01*
X180873000Y-65991672D01*
X180859231Y-66096257D01*
X180822077Y-66185955D01*
X180762976Y-66262976D01*
X180685955Y-66322077D01*
X180596257Y-66359231D01*
X180491672Y-66373000D01*
X178628363Y-66373000D01*
X178639240Y-66352650D01*
X178669375Y-66253310D01*
X178679550Y-66150000D01*
X178677000Y-66129750D01*
X178545250Y-65998000D01*
X177748000Y-65998000D01*
X177748000Y-66018000D01*
X177252000Y-66018000D01*
X177252000Y-65998000D01*
X177232000Y-65998000D01*
X177232000Y-65502000D01*
X177252000Y-65502000D01*
X177252000Y-65482000D01*
X177748000Y-65482000D01*
X177748000Y-65502000D01*
X178545250Y-65502000D01*
X178670250Y-65377000D01*
X179250000Y-65377000D01*
X179266577Y-65375914D01*
X179395987Y-65358877D01*
X179428011Y-65350296D01*
X179548601Y-65300346D01*
X179577313Y-65283768D01*
X179680866Y-65204308D01*
X179704308Y-65180866D01*
X179783768Y-65077313D01*
X179800346Y-65048601D01*
X179850296Y-64928011D01*
X179858877Y-64895987D01*
X179875914Y-64766577D01*
X179877000Y-64750000D01*
X179877000Y-61250000D01*
X179875914Y-61233423D01*
X179858877Y-61104013D01*
X179850296Y-61071989D01*
X179800346Y-60951399D01*
X179783768Y-60922687D01*
X179704308Y-60819134D01*
X179680866Y-60795692D01*
X179577313Y-60716232D01*
X179548601Y-60699654D01*
X179428011Y-60649704D01*
X179395987Y-60641123D01*
X179266577Y-60624086D01*
X179250000Y-60623000D01*
X177508328Y-60623000D01*
X177403743Y-60609231D01*
X177314045Y-60572077D01*
X177237024Y-60512976D01*
X177177923Y-60435955D01*
X177140769Y-60346257D01*
X177127000Y-60241672D01*
X177127000Y-59758328D01*
X177140769Y-59653743D01*
X177177923Y-59564045D01*
X177237024Y-59487024D01*
X177314045Y-59427923D01*
X177403743Y-59390769D01*
X177508328Y-59377000D01*
X180491672Y-59377000D01*
X180596257Y-59390769D01*
G37*
%TD.AperFunction*%
%TD*%
D36*
%TO.N,GND*%
X163596257Y-72390769D02*
X163685955Y-72427923D01*
X163762976Y-72487024D01*
X163822077Y-72564045D01*
X163859231Y-72653743D01*
X163873000Y-72758328D01*
X163873000Y-73000000D01*
X163874086Y-73016577D01*
X163891123Y-73145987D01*
X163899704Y-73178011D01*
X163949654Y-73298601D01*
X163966232Y-73327313D01*
X164045692Y-73430866D01*
X164069134Y-73454308D01*
X164172687Y-73533768D01*
X164201399Y-73550346D01*
X164321989Y-73600296D01*
X164354013Y-73608877D01*
X164483423Y-73625914D01*
X164500000Y-73627000D01*
X165079513Y-73627000D01*
X165165649Y-73640643D01*
X165234343Y-73675644D01*
X165288861Y-73730162D01*
X165323862Y-73798856D01*
X165335922Y-73875000D01*
X165323862Y-73951144D01*
X165300917Y-73996176D01*
X165170359Y-73996176D01*
X165047417Y-73958881D01*
X164900000Y-73944362D01*
X164752582Y-73958881D01*
X164629640Y-73996176D01*
X164370000Y-73996176D01*
X164296095Y-74003455D01*
X164225030Y-74025012D01*
X164159537Y-74060019D01*
X164102131Y-74107131D01*
X164055019Y-74164537D01*
X164020012Y-74230030D01*
X163998455Y-74301095D01*
X163991176Y-74375000D01*
X163991176Y-74390180D01*
X163966232Y-74422687D01*
X163949654Y-74451399D01*
X163899704Y-74571989D01*
X163891123Y-74604013D01*
X163859231Y-74846257D01*
X163822077Y-74935955D01*
X163762976Y-75012976D01*
X163685955Y-75072077D01*
X163596257Y-75109231D01*
X163491672Y-75123000D01*
X162758328Y-75123000D01*
X162653743Y-75109231D01*
X162564045Y-75072077D01*
X162487024Y-75012976D01*
X162427923Y-74935955D01*
X162390769Y-74846257D01*
X162377000Y-74741672D01*
X162377000Y-72758328D01*
X162390769Y-72653743D01*
X162427923Y-72564045D01*
X162487024Y-72487024D01*
X162564045Y-72427923D01*
X162653743Y-72390769D01*
X162758328Y-72377000D01*
X163491672Y-72377000D01*
X163596257Y-72390769D01*
%TA.AperFunction,Conductor*%
D37*
G36*
X163596257Y-72390769D02*
G01*
X163685955Y-72427923D01*
X163762976Y-72487024D01*
X163822077Y-72564045D01*
X163859231Y-72653743D01*
X163873000Y-72758328D01*
X163873000Y-73000000D01*
X163874086Y-73016577D01*
X163891123Y-73145987D01*
X163899704Y-73178011D01*
X163949654Y-73298601D01*
X163966232Y-73327313D01*
X164045692Y-73430866D01*
X164069134Y-73454308D01*
X164172687Y-73533768D01*
X164201399Y-73550346D01*
X164321989Y-73600296D01*
X164354013Y-73608877D01*
X164483423Y-73625914D01*
X164500000Y-73627000D01*
X165079513Y-73627000D01*
X165165649Y-73640643D01*
X165234343Y-73675644D01*
X165288861Y-73730162D01*
X165323862Y-73798856D01*
X165335922Y-73875000D01*
X165323862Y-73951144D01*
X165300917Y-73996176D01*
X165170359Y-73996176D01*
X165047417Y-73958881D01*
X164900000Y-73944362D01*
X164752582Y-73958881D01*
X164629640Y-73996176D01*
X164370000Y-73996176D01*
X164296095Y-74003455D01*
X164225030Y-74025012D01*
X164159537Y-74060019D01*
X164102131Y-74107131D01*
X164055019Y-74164537D01*
X164020012Y-74230030D01*
X163998455Y-74301095D01*
X163991176Y-74375000D01*
X163991176Y-74390180D01*
X163966232Y-74422687D01*
X163949654Y-74451399D01*
X163899704Y-74571989D01*
X163891123Y-74604013D01*
X163859231Y-74846257D01*
X163822077Y-74935955D01*
X163762976Y-75012976D01*
X163685955Y-75072077D01*
X163596257Y-75109231D01*
X163491672Y-75123000D01*
X162758328Y-75123000D01*
X162653743Y-75109231D01*
X162564045Y-75072077D01*
X162487024Y-75012976D01*
X162427923Y-74935955D01*
X162390769Y-74846257D01*
X162377000Y-74741672D01*
X162377000Y-72758328D01*
X162390769Y-72653743D01*
X162427923Y-72564045D01*
X162487024Y-72487024D01*
X162564045Y-72427923D01*
X162653743Y-72390769D01*
X162758328Y-72377000D01*
X163491672Y-72377000D01*
X163596257Y-72390769D01*
G37*
%TD.AperFunction*%
%TD*%
D36*
%TO.N,+5V*%
X176075030Y-42544988D02*
X176146095Y-42566545D01*
X176220000Y-42573824D01*
X177276914Y-42573824D01*
X177299229Y-42585194D01*
X177364806Y-42650771D01*
X177406910Y-42733404D01*
X177421417Y-42825000D01*
X177406910Y-42916596D01*
X177364806Y-42999229D01*
X177299229Y-43064806D01*
X177216596Y-43106910D01*
X177115008Y-43123000D01*
X175650000Y-43123000D01*
X175633423Y-43124086D01*
X175504013Y-43141123D01*
X175471989Y-43149704D01*
X175351399Y-43199654D01*
X175322687Y-43216232D01*
X175219134Y-43295692D01*
X175195692Y-43319134D01*
X175116232Y-43422687D01*
X175099654Y-43451399D01*
X175049704Y-43571989D01*
X175041123Y-43604013D01*
X175024086Y-43733423D01*
X175023000Y-43750000D01*
X175023000Y-44991672D01*
X175009231Y-45096257D01*
X174972077Y-45185955D01*
X174912976Y-45262976D01*
X174835955Y-45322077D01*
X174746257Y-45359231D01*
X174641672Y-45373000D01*
X173258328Y-45373000D01*
X173153743Y-45359231D01*
X173064045Y-45322077D01*
X172987024Y-45262976D01*
X172927923Y-45185955D01*
X172890769Y-45096257D01*
X172877000Y-44991672D01*
X172877000Y-42908328D01*
X172890769Y-42803743D01*
X172927923Y-42714045D01*
X172987024Y-42637024D01*
X173064045Y-42577923D01*
X173153743Y-42540769D01*
X173258328Y-42527000D01*
X176041377Y-42527000D01*
X176075030Y-42544988D01*
%TA.AperFunction,Conductor*%
D37*
G36*
X176075030Y-42544988D02*
G01*
X176146095Y-42566545D01*
X176220000Y-42573824D01*
X177276914Y-42573824D01*
X177299229Y-42585194D01*
X177364806Y-42650771D01*
X177406910Y-42733404D01*
X177421417Y-42825000D01*
X177406910Y-42916596D01*
X177364806Y-42999229D01*
X177299229Y-43064806D01*
X177216596Y-43106910D01*
X177115008Y-43123000D01*
X175650000Y-43123000D01*
X175633423Y-43124086D01*
X175504013Y-43141123D01*
X175471989Y-43149704D01*
X175351399Y-43199654D01*
X175322687Y-43216232D01*
X175219134Y-43295692D01*
X175195692Y-43319134D01*
X175116232Y-43422687D01*
X175099654Y-43451399D01*
X175049704Y-43571989D01*
X175041123Y-43604013D01*
X175024086Y-43733423D01*
X175023000Y-43750000D01*
X175023000Y-44991672D01*
X175009231Y-45096257D01*
X174972077Y-45185955D01*
X174912976Y-45262976D01*
X174835955Y-45322077D01*
X174746257Y-45359231D01*
X174641672Y-45373000D01*
X173258328Y-45373000D01*
X173153743Y-45359231D01*
X173064045Y-45322077D01*
X172987024Y-45262976D01*
X172927923Y-45185955D01*
X172890769Y-45096257D01*
X172877000Y-44991672D01*
X172877000Y-42908328D01*
X172890769Y-42803743D01*
X172927923Y-42714045D01*
X172987024Y-42637024D01*
X173064045Y-42577923D01*
X173153743Y-42540769D01*
X173258328Y-42527000D01*
X176041377Y-42527000D01*
X176075030Y-42544988D01*
G37*
%TD.AperFunction*%
%TD*%
M02*
